%TF.GenerationSoftware,KiCad,Pcbnew,9.0.2-9.0.2-0~ubuntu24.04.1*%
%TF.CreationDate,2025-07-05T10:39:13-05:00*%
%TF.ProjectId,RECUV01,52454355-5630-4312-9e6b-696361645f70,rev?*%
%TF.SameCoordinates,Original*%
%TF.FileFunction,Copper,L2,Bot*%
%TF.FilePolarity,Positive*%
%FSLAX46Y46*%
G04 Gerber Fmt 4.6, Leading zero omitted, Abs format (unit mm)*
G04 Created by KiCad (PCBNEW 9.0.2-9.0.2-0~ubuntu24.04.1) date 2025-07-05 10:39:13*
%MOMM*%
%LPD*%
G01*
G04 APERTURE LIST*
G04 Aperture macros list*
%AMRoundRect*
0 Rectangle with rounded corners*
0 $1 Rounding radius*
0 $2 $3 $4 $5 $6 $7 $8 $9 X,Y pos of 4 corners*
0 Add a 4 corners polygon primitive as box body*
4,1,4,$2,$3,$4,$5,$6,$7,$8,$9,$2,$3,0*
0 Add four circle primitives for the rounded corners*
1,1,$1+$1,$2,$3*
1,1,$1+$1,$4,$5*
1,1,$1+$1,$6,$7*
1,1,$1+$1,$8,$9*
0 Add four rect primitives between the rounded corners*
20,1,$1+$1,$2,$3,$4,$5,0*
20,1,$1+$1,$4,$5,$6,$7,0*
20,1,$1+$1,$6,$7,$8,$9,0*
20,1,$1+$1,$8,$9,$2,$3,0*%
G04 Aperture macros list end*
%TA.AperFunction,ComponentPad*%
%ADD10R,1.700000X1.700000*%
%TD*%
%TA.AperFunction,ComponentPad*%
%ADD11O,1.700000X1.700000*%
%TD*%
%TA.AperFunction,ComponentPad*%
%ADD12RoundRect,0.250000X-0.650000X-0.650000X0.650000X-0.650000X0.650000X0.650000X-0.650000X0.650000X0*%
%TD*%
%TA.AperFunction,ComponentPad*%
%ADD13C,1.800000*%
%TD*%
%TA.AperFunction,ComponentPad*%
%ADD14RoundRect,0.250000X0.650000X-0.650000X0.650000X0.650000X-0.650000X0.650000X-0.650000X-0.650000X0*%
%TD*%
%TA.AperFunction,ComponentPad*%
%ADD15R,1.980000X3.960000*%
%TD*%
%TA.AperFunction,ComponentPad*%
%ADD16O,1.980000X3.960000*%
%TD*%
%TA.AperFunction,HeatsinkPad*%
%ADD17O,1.000000X2.100000*%
%TD*%
%TA.AperFunction,HeatsinkPad*%
%ADD18O,1.000000X1.600000*%
%TD*%
%TA.AperFunction,ComponentPad*%
%ADD19RoundRect,0.250000X-0.650000X0.650000X-0.650000X-0.650000X0.650000X-0.650000X0.650000X0.650000X0*%
%TD*%
%TA.AperFunction,ComponentPad*%
%ADD20RoundRect,0.250000X0.650000X0.650000X-0.650000X0.650000X-0.650000X-0.650000X0.650000X-0.650000X0*%
%TD*%
%TA.AperFunction,ViaPad*%
%ADD21C,0.800000*%
%TD*%
%TA.AperFunction,Conductor*%
%ADD22C,0.250000*%
%TD*%
%TA.AperFunction,Conductor*%
%ADD23C,0.350000*%
%TD*%
%TA.AperFunction,Conductor*%
%ADD24C,0.500000*%
%TD*%
G04 APERTURE END LIST*
D10*
%TO.P,J7,1,Pin_1*%
%TO.N,GPIO03*%
X103340000Y-78770000D03*
D11*
%TO.P,J7,2,Pin_2*%
%TO.N,GPIO09*%
X103340000Y-76230000D03*
%TO.P,J7,3,Pin_3*%
%TO.N,GPIO10*%
X103340000Y-73690000D03*
%TO.P,J7,4,Pin_4*%
%TO.N,GPIO11*%
X103340000Y-71150000D03*
%TO.P,J7,5,Pin_5*%
%TO.N,GPIO12*%
X103340000Y-68610000D03*
%TO.P,J7,6,Pin_6*%
%TO.N,GPIO13*%
X103340000Y-66070000D03*
%TO.P,J7,7,Pin_7*%
%TO.N,GPIO14*%
X103340000Y-63530000D03*
%TO.P,J7,8,Pin_8*%
%TO.N,GPIO21*%
X103340000Y-60990000D03*
%TO.P,J7,9,Pin_9*%
%TO.N,GPIO47*%
X103340000Y-58450000D03*
%TO.P,J7,10,Pin_10*%
%TO.N,GPIO48*%
X103340000Y-55910000D03*
%TD*%
D12*
%TO.P,BUS_I2C_1_1,1*%
%TO.N,GND*%
X103050000Y-127060000D03*
D13*
%TO.P,BUS_I2C_1_1,2*%
%TO.N,GPIO36*%
X104320000Y-124520000D03*
%TO.P,BUS_I2C_1_1,3*%
%TO.N,GPIO37*%
X105590000Y-127060000D03*
%TO.P,BUS_I2C_1_1,4*%
%TO.N,3V3*%
X106860000Y-124520000D03*
%TD*%
D12*
%TO.P,FC28_1,1*%
%TO.N,GND*%
X152800000Y-126950000D03*
D13*
%TO.P,FC28_1,2*%
X154070000Y-124410000D03*
%TO.P,FC28_1,3*%
%TO.N,GPIO07*%
X155340000Y-126950000D03*
%TO.P,FC28_1,4*%
%TO.N,3V3*%
X156610000Y-124410000D03*
%TD*%
D10*
%TO.P,J6,1,Pin_1*%
%TO.N,GPIO04*%
X78940000Y-80950000D03*
D11*
%TO.P,J6,2,Pin_2*%
%TO.N,GPIO05*%
X81480000Y-80950000D03*
%TO.P,J6,3,Pin_3*%
%TO.N,GPIO06*%
X84020000Y-80950000D03*
%TO.P,J6,4,Pin_4*%
%TO.N,GPIO07*%
X86560000Y-80950000D03*
%TO.P,J6,5,Pin_5*%
%TO.N,GPIO15*%
X89100000Y-80950000D03*
%TO.P,J6,6,Pin_6*%
%TO.N,GPIO16*%
X91640000Y-80950000D03*
%TO.P,J6,7,Pin_7*%
%TO.N,GPIO17*%
X94180000Y-80950000D03*
%TO.P,J6,8,Pin_8*%
%TO.N,GPIO18*%
X96720000Y-80950000D03*
%TO.P,J6,9,Pin_9*%
%TO.N,GPIO08*%
X99260000Y-80950000D03*
%TD*%
D14*
%TO.P,PLUVIOMETER_2,1*%
%TO.N,GND*%
X164900000Y-81190000D03*
D13*
%TO.P,PLUVIOMETER_2,2*%
X162360000Y-79920000D03*
%TO.P,PLUVIOMETER_2,3*%
%TO.N,GPIO18*%
X164900000Y-78650000D03*
%TO.P,PLUVIOMETER_2,4*%
%TO.N,3V3*%
X162360000Y-77380000D03*
%TD*%
D15*
%TO.P,J4,1,Pin_1*%
%TO.N,/-P*%
X140075000Y-40450000D03*
D16*
%TO.P,J4,2,Pin_2*%
%TO.N,/+P*%
X145075000Y-40450000D03*
%TD*%
D14*
%TO.P,HX711_1,1*%
%TO.N,GND*%
X164900000Y-56690000D03*
D13*
%TO.P,HX711_1,2*%
%TO.N,GPIO09*%
X162360000Y-55420000D03*
%TO.P,HX711_1,3*%
%TO.N,GPIO03*%
X164900000Y-54150000D03*
%TO.P,HX711_1,4*%
%TO.N,3V3*%
X162360000Y-52880000D03*
%TD*%
D15*
%TO.P,J3,1,Pin_1*%
%TO.N,VBAT*%
X77840000Y-40450000D03*
D16*
%TO.P,J3,2,Pin_2*%
%TO.N,GND*%
X82840000Y-40450000D03*
%TD*%
D17*
%TO.P,J1,S1,SHIELD*%
%TO.N,GND*%
X118110000Y-41055000D03*
D18*
X118110000Y-36875000D03*
D17*
X109470000Y-41055000D03*
D18*
X109470000Y-36875000D03*
%TD*%
D14*
%TO.P,DS18B20_1,1*%
%TO.N,GND*%
X164900000Y-118140000D03*
D13*
%TO.P,DS18B20_1,2*%
X162360000Y-116870000D03*
%TO.P,DS18B20_1,3*%
%TO.N,GPIO15*%
X164900000Y-115600000D03*
%TO.P,DS18B20_1,4*%
%TO.N,3V3*%
X162360000Y-114330000D03*
%TD*%
D10*
%TO.P,J5,1,Pin_1*%
%TO.N,GPIO01*%
X71340000Y-53450000D03*
D11*
%TO.P,J5,2,Pin_2*%
%TO.N,GPIO02*%
X73880000Y-53450000D03*
%TO.P,J5,3,Pin_3*%
%TO.N,U0TXD*%
X76420000Y-53450000D03*
%TO.P,J5,4,Pin_4*%
%TO.N,U0RXD*%
X78960000Y-53450000D03*
%TO.P,J5,5,Pin_5*%
%TO.N,GPIO42*%
X81500000Y-53450000D03*
%TO.P,J5,6,Pin_6*%
%TO.N,GPIO41*%
X84040000Y-53450000D03*
%TO.P,J5,7,Pin_7*%
%TO.N,GPIO40*%
X86580000Y-53450000D03*
%TO.P,J5,8,Pin_8*%
%TO.N,GPIO39*%
X89120000Y-53450000D03*
%TO.P,J5,9,Pin_9*%
%TO.N,GPIO38*%
X91660000Y-53450000D03*
%TO.P,J5,10,Pin_10*%
%TO.N,GPIO37*%
X94200000Y-53450000D03*
%TO.P,J5,11,Pin_11*%
%TO.N,GPIO36*%
X96740000Y-53450000D03*
%TO.P,J5,12,Pin_12*%
%TO.N,GPIO35*%
X99280000Y-53450000D03*
%TD*%
D12*
%TO.P,PLUVIOMETER_1,1*%
%TO.N,GND*%
X140550000Y-127060000D03*
D13*
%TO.P,PLUVIOMETER_1,2*%
X141820000Y-124520000D03*
%TO.P,PLUVIOMETER_1,3*%
%TO.N,GPIO06*%
X143090000Y-127060000D03*
%TO.P,PLUVIOMETER_1,4*%
%TO.N,3V3*%
X144360000Y-124520000D03*
%TD*%
D19*
%TO.P,BUS_I2C_1_3,1*%
%TO.N,GND*%
X82340000Y-102410000D03*
D13*
%TO.P,BUS_I2C_1_3,2*%
%TO.N,GPIO36*%
X84880000Y-103680000D03*
%TO.P,BUS_I2C_1_3,3*%
%TO.N,GPIO37*%
X82340000Y-104950000D03*
%TO.P,BUS_I2C_1_3,4*%
%TO.N,3V3*%
X84880000Y-106220000D03*
%TD*%
D15*
%TO.P,J2,1,Pin_1*%
%TO.N,+5V*%
X128575000Y-40450000D03*
D16*
%TO.P,J2,2,Pin_2*%
%TO.N,GND*%
X133575000Y-40450000D03*
%TD*%
D19*
%TO.P,BUS_I2C_2_2,1*%
%TO.N,GND*%
X82340000Y-114910000D03*
D13*
%TO.P,BUS_I2C_2_2,2*%
%TO.N,GPIO12*%
X84880000Y-116180000D03*
%TO.P,BUS_I2C_2_2,3*%
%TO.N,GPIO13*%
X82340000Y-117450000D03*
%TO.P,BUS_I2C_2_2,4*%
%TO.N,3V3*%
X84880000Y-118720000D03*
%TD*%
D14*
%TO.P,DHT22_1,1*%
%TO.N,GND*%
X165000000Y-93440000D03*
D13*
%TO.P,DHT22_1,2*%
X162460000Y-92170000D03*
%TO.P,DHT22_1,3*%
%TO.N,GPIO17*%
X165000000Y-90900000D03*
%TO.P,DHT22_1,4*%
%TO.N,3V3*%
X162460000Y-89630000D03*
%TD*%
D20*
%TO.P,HX711_2,1*%
%TO.N,GND*%
X156590000Y-44350000D03*
D13*
%TO.P,HX711_2,2*%
%TO.N,GPIO11*%
X155320000Y-46890000D03*
%TO.P,HX711_2,3*%
%TO.N,GPIO10*%
X154050000Y-44350000D03*
%TO.P,HX711_2,4*%
%TO.N,3V3*%
X152780000Y-46890000D03*
%TD*%
D12*
%TO.P,BUS_I2C_1_2,1*%
%TO.N,GND*%
X90800000Y-126950000D03*
D13*
%TO.P,BUS_I2C_1_2,2*%
%TO.N,GPIO36*%
X92070000Y-124410000D03*
%TO.P,BUS_I2C_1_2,3*%
%TO.N,GPIO37*%
X93340000Y-126950000D03*
%TO.P,BUS_I2C_1_2,4*%
%TO.N,3V3*%
X94610000Y-124410000D03*
%TD*%
D12*
%TO.P,W_SPEED_1/W_DIR_1,1*%
%TO.N,GND*%
X128050000Y-127060000D03*
D13*
%TO.P,W_SPEED_1/W_DIR_1,2*%
X129320000Y-124520000D03*
%TO.P,W_SPEED_1/W_DIR_1,3*%
%TO.N,GPIO04*%
X130590000Y-127060000D03*
%TO.P,W_SPEED_1/W_DIR_1,4*%
%TO.N,GPIO05*%
X131860000Y-124520000D03*
%TD*%
D12*
%TO.P,BUS_I2C_2_1,1*%
%TO.N,GND*%
X115550000Y-127060000D03*
D13*
%TO.P,BUS_I2C_2_1,2*%
%TO.N,GPIO12*%
X116820000Y-124520000D03*
%TO.P,BUS_I2C_2_1,3*%
%TO.N,GPIO13*%
X118090000Y-127060000D03*
%TO.P,BUS_I2C_2_1,4*%
%TO.N,3V3*%
X119360000Y-124520000D03*
%TD*%
D14*
%TO.P,DAVIS6450_1,1*%
%TO.N,GND*%
X164900000Y-105690000D03*
D13*
%TO.P,DAVIS6450_1,2*%
X162360000Y-104420000D03*
%TO.P,DAVIS6450_1,3*%
%TO.N,GPIO16*%
X164900000Y-103150000D03*
%TO.P,DAVIS6450_1,4*%
%TO.N,3V3*%
X162360000Y-101880000D03*
%TD*%
D14*
%TO.P,PLUVIOMETER_3,1*%
%TO.N,GND*%
X165000000Y-68940000D03*
D13*
%TO.P,PLUVIOMETER_3,2*%
X162460000Y-67670000D03*
%TO.P,PLUVIOMETER_3,3*%
%TO.N,GPIO08*%
X165000000Y-66400000D03*
%TO.P,PLUVIOMETER_3,4*%
%TO.N,3V3*%
X162460000Y-65130000D03*
%TD*%
D21*
%TO.N,GPIO36*%
X91230000Y-60840000D03*
%TO.N,GPIO37*%
X89960000Y-60830000D03*
%TO.N,GND*%
X91340000Y-86950000D03*
X123340000Y-60950000D03*
X115500000Y-66000000D03*
X130340000Y-54450000D03*
X71000000Y-50500000D03*
X118340000Y-51450000D03*
%TO.N,3V3*%
X107340000Y-47450000D03*
%TO.N,GPIO12*%
X92340000Y-67835000D03*
%TO.N,GPIO13*%
X92340000Y-66565000D03*
%TO.N,GPIO06*%
X138140000Y-96950000D03*
%TO.N,GPIO18*%
X150340000Y-75150000D03*
%TO.N,GPIO08*%
X150340000Y-62650000D03*
%TO.N,GPIO16*%
X150340000Y-88950000D03*
%TO.N,GPIO17*%
X150340000Y-86950000D03*
%TO.N,GPIO15*%
X150340000Y-92950000D03*
%TO.N,GPIO07*%
X150340000Y-94950000D03*
%TO.N,GPIO03*%
X150340000Y-60950000D03*
%TO.N,GPIO09*%
X150340000Y-58950000D03*
%TO.N,GPIO10*%
X150340000Y-56950000D03*
%TO.N,GPIO11*%
X150340000Y-54950000D03*
%TO.N,GPIO05*%
X121465000Y-98950000D03*
%TO.N,GPIO01*%
X138340000Y-58950000D03*
%TO.N,GPIO00*%
X95840000Y-45950000D03*
X109290000Y-62950000D03*
X98340000Y-57450000D03*
%TD*%
D22*
%TO.N,GPIO36*%
X76790000Y-75280000D02*
X91230000Y-60840000D01*
X73840000Y-80989785D02*
X76790000Y-78039785D01*
X93530000Y-122950000D02*
X102750000Y-122950000D01*
X84880000Y-103680000D02*
X84880000Y-104410000D01*
X84880000Y-104410000D02*
X78840000Y-110450000D01*
X76790000Y-78039785D02*
X76790000Y-75280000D01*
X78840000Y-110450000D02*
X78840000Y-116950000D01*
X84880000Y-102407208D02*
X73840000Y-91367208D01*
X78840000Y-116950000D02*
X86300000Y-124410000D01*
X84880000Y-103680000D02*
X84880000Y-102407208D01*
X73840000Y-91367208D02*
X73840000Y-80989785D01*
X86300000Y-124410000D02*
X92070000Y-124410000D01*
X92070000Y-124410000D02*
X93530000Y-122950000D01*
X102750000Y-122950000D02*
X104320000Y-124520000D01*
%TO.N,GPIO37*%
X76340000Y-74450000D02*
X89960000Y-60830000D01*
X91340000Y-128950000D02*
X93340000Y-126950000D01*
X79840000Y-99681928D02*
X73340000Y-93181928D01*
X73340000Y-80853389D02*
X76340000Y-77853389D01*
X82340000Y-104950000D02*
X78390000Y-108900000D01*
X78390000Y-119500000D02*
X87840000Y-128950000D01*
X87840000Y-128950000D02*
X91340000Y-128950000D01*
D23*
X105590000Y-127060000D02*
X105590000Y-128700000D01*
D22*
X73340000Y-93181928D02*
X73340000Y-80853389D01*
X76340000Y-77853389D02*
X76340000Y-74450000D01*
X79840000Y-102450000D02*
X79840000Y-99681928D01*
X78390000Y-108900000D02*
X78390000Y-119500000D01*
D23*
X104840000Y-129450000D02*
X95840000Y-129450000D01*
X105590000Y-128700000D02*
X104840000Y-129450000D01*
D22*
X82340000Y-104950000D02*
X79840000Y-102450000D01*
D23*
X95840000Y-129450000D02*
X93340000Y-126950000D01*
D24*
%TO.N,3V3*%
X162360000Y-114330000D02*
X160040000Y-116650000D01*
D23*
X145290000Y-125450000D02*
X145340000Y-125450000D01*
D24*
X162360000Y-101880000D02*
X160040000Y-104200000D01*
X162360000Y-52880000D02*
X158770000Y-52880000D01*
X152780000Y-46890000D02*
X107900000Y-46890000D01*
X160040000Y-79700000D02*
X160040000Y-92050000D01*
X146430000Y-122450000D02*
X154650000Y-122450000D01*
X145840000Y-123040000D02*
X146430000Y-122450000D01*
X156610000Y-124410000D02*
X154650000Y-122450000D01*
X144360000Y-124520000D02*
X145290000Y-125450000D01*
X162360000Y-77380000D02*
X160040000Y-79700000D01*
X143840000Y-128950000D02*
X123790000Y-128950000D01*
X158770000Y-52880000D02*
X152780000Y-46890000D01*
X160040000Y-116650000D02*
X154650000Y-122040000D01*
X160040000Y-92050000D02*
X160040000Y-104200000D01*
X123790000Y-128950000D02*
X119360000Y-124520000D01*
X160040000Y-67550000D02*
X160040000Y-55200000D01*
X160040000Y-79700000D02*
X160040000Y-67550000D01*
X154650000Y-122040000D02*
X154650000Y-122450000D01*
X145340000Y-127450000D02*
X143840000Y-128950000D01*
X162460000Y-89630000D02*
X160040000Y-92050000D01*
X160040000Y-67550000D02*
X162460000Y-65130000D01*
X107900000Y-46890000D02*
X107340000Y-47450000D01*
X160040000Y-104200000D02*
X160040000Y-116650000D01*
X145340000Y-125450000D02*
X145340000Y-127450000D01*
X160040000Y-55200000D02*
X162360000Y-52880000D01*
X145840000Y-123040000D02*
X144360000Y-124520000D01*
D22*
%TO.N,GPIO12*%
X85591396Y-67835000D02*
X77790000Y-75636396D01*
X74840000Y-81950000D02*
X74840000Y-89450000D01*
X88340000Y-112720000D02*
X84880000Y-116180000D01*
X74840000Y-89450000D02*
X88340000Y-102950000D01*
D23*
X88150000Y-119450000D02*
X84880000Y-116180000D01*
X111750000Y-119450000D02*
X88150000Y-119450000D01*
D22*
X77790000Y-75636396D02*
X77790000Y-78900000D01*
X77840000Y-78950000D02*
X74840000Y-81950000D01*
X88340000Y-102950000D02*
X88340000Y-112720000D01*
D23*
X116820000Y-124520000D02*
X111750000Y-119450000D01*
D22*
X77790000Y-78900000D02*
X77840000Y-78950000D01*
X92340000Y-67835000D02*
X85591396Y-67835000D01*
%TO.N,GPIO13*%
X77340000Y-75450000D02*
X77340000Y-78450000D01*
X86225000Y-66565000D02*
X77340000Y-75450000D01*
X92340000Y-66565000D02*
X86225000Y-66565000D01*
D23*
X118090000Y-127700000D02*
X116340000Y-129450000D01*
D22*
X79840000Y-114950000D02*
X82340000Y-117450000D01*
X77340000Y-78450000D02*
X74340000Y-81450000D01*
D23*
X114340000Y-129450000D02*
X112840000Y-127950000D01*
D22*
X79840000Y-112950000D02*
X79840000Y-114950000D01*
D23*
X107340000Y-120950000D02*
X84840000Y-120950000D01*
D22*
X74340000Y-89950000D02*
X87340000Y-102950000D01*
D23*
X118090000Y-127060000D02*
X118090000Y-127700000D01*
D22*
X84340000Y-110450000D02*
X82340000Y-110450000D01*
D23*
X112840000Y-126450000D02*
X107340000Y-120950000D01*
D22*
X74340000Y-81450000D02*
X74340000Y-89950000D01*
X87340000Y-107450000D02*
X84340000Y-110450000D01*
X87340000Y-102950000D02*
X87340000Y-107450000D01*
D23*
X82340000Y-118450000D02*
X82340000Y-117450000D01*
D22*
X82340000Y-110450000D02*
X79840000Y-112950000D01*
D23*
X84840000Y-120950000D02*
X82340000Y-118450000D01*
X112840000Y-127950000D02*
X112840000Y-126450000D01*
X116340000Y-129450000D02*
X114340000Y-129450000D01*
%TO.N,GPIO04*%
X133840000Y-123950000D02*
X110840000Y-100950000D01*
X110840000Y-100950000D02*
X94840000Y-100950000D01*
X94840000Y-100950000D02*
X78940000Y-85050000D01*
X131862792Y-127060000D02*
X133840000Y-125082792D01*
X133840000Y-125082792D02*
X133840000Y-123950000D01*
X130590000Y-127060000D02*
X131862792Y-127060000D01*
X78940000Y-85050000D02*
X78940000Y-80950000D01*
%TO.N,GPIO06*%
X92840000Y-96950000D02*
X84020000Y-88130000D01*
X138140000Y-96950000D02*
X92840000Y-96950000D01*
X84020000Y-88130000D02*
X84020000Y-80950000D01*
%TO.N,GPIO18*%
X99720000Y-83950000D02*
X96720000Y-80950000D01*
X150340000Y-75150000D02*
X139640000Y-75150000D01*
X139640000Y-75150000D02*
X130840000Y-83950000D01*
X130840000Y-83950000D02*
X99720000Y-83950000D01*
%TO.N,GPIO08*%
X132040000Y-80950000D02*
X99260000Y-80950000D01*
X150340000Y-62650000D02*
X132040000Y-80950000D01*
%TO.N,GPIO16*%
X150340000Y-88950000D02*
X99640000Y-88950000D01*
X99640000Y-88950000D02*
X91640000Y-80950000D01*
%TO.N,GPIO17*%
X150340000Y-86950000D02*
X100180000Y-86950000D01*
X100180000Y-86950000D02*
X94180000Y-80950000D01*
%TO.N,GPIO15*%
X150340000Y-92950000D02*
X90840000Y-92950000D01*
X90840000Y-92950000D02*
X89100000Y-91210000D01*
X89100000Y-91210000D02*
X89100000Y-80950000D01*
%TO.N,GPIO07*%
X150340000Y-94950000D02*
X91840000Y-94950000D01*
X86560000Y-89670000D02*
X86560000Y-80950000D01*
X91840000Y-94950000D02*
X86560000Y-89670000D01*
%TO.N,GPIO03*%
X150340000Y-60950000D02*
X132520000Y-78770000D01*
X132520000Y-78770000D02*
X103340000Y-78770000D01*
%TO.N,GPIO09*%
X133060000Y-76230000D02*
X103340000Y-76230000D01*
X150340000Y-58950000D02*
X133060000Y-76230000D01*
%TO.N,GPIO10*%
X133600000Y-73690000D02*
X103340000Y-73690000D01*
X150340000Y-56950000D02*
X133600000Y-73690000D01*
%TO.N,GPIO11*%
X150340000Y-54950000D02*
X134140000Y-71150000D01*
X134140000Y-71150000D02*
X103340000Y-71150000D01*
%TO.N,GPIO05*%
X81480000Y-86590000D02*
X81480000Y-80950000D01*
X121465000Y-98950000D02*
X93840000Y-98950000D01*
X93840000Y-98950000D02*
X81480000Y-86590000D01*
%TO.N,GPIO01*%
X73840000Y-50950000D02*
X71340000Y-53450000D01*
X110840000Y-58950000D02*
X96840000Y-44950000D01*
X87840000Y-50950000D02*
X73840000Y-50950000D01*
X138340000Y-58950000D02*
X110840000Y-58950000D01*
X93840000Y-44950000D02*
X87840000Y-50950000D01*
X96840000Y-44950000D02*
X93840000Y-44950000D01*
%TO.N,GPIO00*%
X100840000Y-50950000D02*
X100840000Y-51950000D01*
X100840000Y-54950000D02*
X98340000Y-57450000D01*
X101840000Y-52950000D02*
X100840000Y-51950000D01*
X109290000Y-62950000D02*
X109290000Y-58400000D01*
X103840000Y-52950000D02*
X101840000Y-52950000D01*
X95840000Y-45950000D02*
X100840000Y-50950000D01*
X109290000Y-58400000D02*
X103840000Y-52950000D01*
X100840000Y-51950000D02*
X100840000Y-54950000D01*
%TD*%
%TA.AperFunction,Conductor*%
%TO.N,GND*%
G36*
X173942539Y-35520185D02*
G01*
X173988294Y-35572989D01*
X173999500Y-35624500D01*
X173999500Y-136375500D01*
X173979815Y-136442539D01*
X173927011Y-136488294D01*
X173875500Y-136499500D01*
X70124500Y-136499500D01*
X70057461Y-136479815D01*
X70011706Y-136427011D01*
X70000500Y-136375500D01*
X70000500Y-133178711D01*
X87039500Y-133178711D01*
X87039500Y-133421288D01*
X87071161Y-133661785D01*
X87133947Y-133896104D01*
X87226773Y-134120205D01*
X87226776Y-134120212D01*
X87348064Y-134330289D01*
X87348066Y-134330292D01*
X87348067Y-134330293D01*
X87495733Y-134522736D01*
X87495739Y-134522743D01*
X87667256Y-134694260D01*
X87667263Y-134694266D01*
X87691811Y-134713102D01*
X87859711Y-134841936D01*
X88069788Y-134963224D01*
X88293900Y-135056054D01*
X88528211Y-135118838D01*
X88708586Y-135142584D01*
X88768711Y-135150500D01*
X88768712Y-135150500D01*
X89011289Y-135150500D01*
X89065166Y-135143407D01*
X89251789Y-135118838D01*
X89486100Y-135056054D01*
X89710212Y-134963224D01*
X89920289Y-134841936D01*
X90112738Y-134694265D01*
X90284265Y-134522738D01*
X90431936Y-134330289D01*
X90553224Y-134120212D01*
X90646054Y-133896100D01*
X90708838Y-133661789D01*
X90740500Y-133421288D01*
X90740500Y-133178712D01*
X90740283Y-133177065D01*
X94514500Y-133177065D01*
X94514500Y-133422934D01*
X94528766Y-133531288D01*
X94546591Y-133666677D01*
X94610222Y-133904152D01*
X94610225Y-133904162D01*
X94699717Y-134120214D01*
X94704306Y-134131292D01*
X94827233Y-134344208D01*
X94827235Y-134344211D01*
X94827236Y-134344212D01*
X94976897Y-134539254D01*
X94976903Y-134539261D01*
X95150738Y-134713096D01*
X95150744Y-134713101D01*
X95345792Y-134862767D01*
X95558708Y-134985694D01*
X95785847Y-135079778D01*
X96023323Y-135143409D01*
X96267073Y-135175500D01*
X96267080Y-135175500D01*
X96512920Y-135175500D01*
X96512927Y-135175500D01*
X96756677Y-135143409D01*
X96994153Y-135079778D01*
X97221292Y-134985694D01*
X97434208Y-134862767D01*
X97629256Y-134713101D01*
X97803101Y-134539256D01*
X97952767Y-134344208D01*
X98075694Y-134131292D01*
X98169778Y-133904153D01*
X98233409Y-133666677D01*
X98265500Y-133422927D01*
X98265500Y-133288711D01*
X99289500Y-133288711D01*
X99289500Y-133531288D01*
X99321161Y-133771785D01*
X99383947Y-134006104D01*
X99431213Y-134120214D01*
X99476776Y-134230212D01*
X99598064Y-134440289D01*
X99598066Y-134440292D01*
X99598067Y-134440293D01*
X99745733Y-134632736D01*
X99745739Y-134632743D01*
X99917256Y-134804260D01*
X99917263Y-134804266D01*
X99941811Y-134823102D01*
X100109711Y-134951936D01*
X100319788Y-135073224D01*
X100543900Y-135166054D01*
X100778211Y-135228838D01*
X100958586Y-135252584D01*
X101018711Y-135260500D01*
X101018712Y-135260500D01*
X101261289Y-135260500D01*
X101315166Y-135253407D01*
X101501789Y-135228838D01*
X101736100Y-135166054D01*
X101960212Y-135073224D01*
X102170289Y-134951936D01*
X102362738Y-134804265D01*
X102534265Y-134632738D01*
X102681936Y-134440289D01*
X102803224Y-134230212D01*
X102896054Y-134006100D01*
X102958838Y-133771789D01*
X102990500Y-133531288D01*
X102990500Y-133288712D01*
X102990283Y-133287065D01*
X106764500Y-133287065D01*
X106764500Y-133532934D01*
X106782109Y-133666677D01*
X106796591Y-133776677D01*
X106860222Y-134014152D01*
X106860225Y-134014162D01*
X106949717Y-134230214D01*
X106954306Y-134241292D01*
X107077233Y-134454208D01*
X107077235Y-134454211D01*
X107077236Y-134454212D01*
X107226897Y-134649254D01*
X107226903Y-134649261D01*
X107400738Y-134823096D01*
X107400745Y-134823102D01*
X107515335Y-134911030D01*
X107595792Y-134972767D01*
X107808708Y-135095694D01*
X108035847Y-135189778D01*
X108273323Y-135253409D01*
X108517073Y-135285500D01*
X108517080Y-135285500D01*
X108762920Y-135285500D01*
X108762927Y-135285500D01*
X109006677Y-135253409D01*
X109244153Y-135189778D01*
X109471292Y-135095694D01*
X109684208Y-134972767D01*
X109879256Y-134823101D01*
X110053101Y-134649256D01*
X110202767Y-134454208D01*
X110325694Y-134241292D01*
X110419778Y-134014153D01*
X110483409Y-133776677D01*
X110515500Y-133532927D01*
X110515500Y-133288711D01*
X111789500Y-133288711D01*
X111789500Y-133531288D01*
X111821161Y-133771785D01*
X111883947Y-134006104D01*
X111931213Y-134120214D01*
X111976776Y-134230212D01*
X112098064Y-134440289D01*
X112098066Y-134440292D01*
X112098067Y-134440293D01*
X112245733Y-134632736D01*
X112245739Y-134632743D01*
X112417256Y-134804260D01*
X112417263Y-134804266D01*
X112441811Y-134823102D01*
X112609711Y-134951936D01*
X112819788Y-135073224D01*
X113043900Y-135166054D01*
X113278211Y-135228838D01*
X113458586Y-135252584D01*
X113518711Y-135260500D01*
X113518712Y-135260500D01*
X113761289Y-135260500D01*
X113815166Y-135253407D01*
X114001789Y-135228838D01*
X114236100Y-135166054D01*
X114460212Y-135073224D01*
X114670289Y-134951936D01*
X114862738Y-134804265D01*
X115034265Y-134632738D01*
X115181936Y-134440289D01*
X115303224Y-134230212D01*
X115396054Y-134006100D01*
X115458838Y-133771789D01*
X115490500Y-133531288D01*
X115490500Y-133288712D01*
X115490283Y-133287065D01*
X119264500Y-133287065D01*
X119264500Y-133532934D01*
X119282109Y-133666677D01*
X119296591Y-133776677D01*
X119360222Y-134014152D01*
X119360225Y-134014162D01*
X119449717Y-134230214D01*
X119454306Y-134241292D01*
X119577233Y-134454208D01*
X119577235Y-134454211D01*
X119577236Y-134454212D01*
X119726897Y-134649254D01*
X119726903Y-134649261D01*
X119900738Y-134823096D01*
X119900745Y-134823102D01*
X120015335Y-134911030D01*
X120095792Y-134972767D01*
X120308708Y-135095694D01*
X120535847Y-135189778D01*
X120773323Y-135253409D01*
X121017073Y-135285500D01*
X121017080Y-135285500D01*
X121262920Y-135285500D01*
X121262927Y-135285500D01*
X121506677Y-135253409D01*
X121744153Y-135189778D01*
X121971292Y-135095694D01*
X122184208Y-134972767D01*
X122379256Y-134823101D01*
X122553101Y-134649256D01*
X122702767Y-134454208D01*
X122825694Y-134241292D01*
X122919778Y-134014153D01*
X122983409Y-133776677D01*
X123015500Y-133532927D01*
X123015500Y-133288711D01*
X124289500Y-133288711D01*
X124289500Y-133531288D01*
X124321161Y-133771785D01*
X124383947Y-134006104D01*
X124431213Y-134120214D01*
X124476776Y-134230212D01*
X124598064Y-134440289D01*
X124598066Y-134440292D01*
X124598067Y-134440293D01*
X124745733Y-134632736D01*
X124745739Y-134632743D01*
X124917256Y-134804260D01*
X124917263Y-134804266D01*
X124941811Y-134823102D01*
X125109711Y-134951936D01*
X125319788Y-135073224D01*
X125543900Y-135166054D01*
X125778211Y-135228838D01*
X125958586Y-135252584D01*
X126018711Y-135260500D01*
X126018712Y-135260500D01*
X126261289Y-135260500D01*
X126315166Y-135253407D01*
X126501789Y-135228838D01*
X126736100Y-135166054D01*
X126960212Y-135073224D01*
X127170289Y-134951936D01*
X127362738Y-134804265D01*
X127534265Y-134632738D01*
X127681936Y-134440289D01*
X127803224Y-134230212D01*
X127896054Y-134006100D01*
X127958838Y-133771789D01*
X127990500Y-133531288D01*
X127990500Y-133288712D01*
X127990283Y-133287065D01*
X131764500Y-133287065D01*
X131764500Y-133532934D01*
X131782109Y-133666677D01*
X131796591Y-133776677D01*
X131860222Y-134014152D01*
X131860225Y-134014162D01*
X131949717Y-134230214D01*
X131954306Y-134241292D01*
X132077233Y-134454208D01*
X132077235Y-134454211D01*
X132077236Y-134454212D01*
X132226897Y-134649254D01*
X132226903Y-134649261D01*
X132400738Y-134823096D01*
X132400745Y-134823102D01*
X132515335Y-134911030D01*
X132595792Y-134972767D01*
X132808708Y-135095694D01*
X133035847Y-135189778D01*
X133273323Y-135253409D01*
X133517073Y-135285500D01*
X133517080Y-135285500D01*
X133762920Y-135285500D01*
X133762927Y-135285500D01*
X134006677Y-135253409D01*
X134244153Y-135189778D01*
X134471292Y-135095694D01*
X134684208Y-134972767D01*
X134879256Y-134823101D01*
X135053101Y-134649256D01*
X135202767Y-134454208D01*
X135325694Y-134241292D01*
X135419778Y-134014153D01*
X135483409Y-133776677D01*
X135515500Y-133532927D01*
X135515500Y-133288711D01*
X136789500Y-133288711D01*
X136789500Y-133531288D01*
X136821161Y-133771785D01*
X136883947Y-134006104D01*
X136931213Y-134120214D01*
X136976776Y-134230212D01*
X137098064Y-134440289D01*
X137098066Y-134440292D01*
X137098067Y-134440293D01*
X137245733Y-134632736D01*
X137245739Y-134632743D01*
X137417256Y-134804260D01*
X137417263Y-134804266D01*
X137441811Y-134823102D01*
X137609711Y-134951936D01*
X137819788Y-135073224D01*
X138043900Y-135166054D01*
X138278211Y-135228838D01*
X138458586Y-135252584D01*
X138518711Y-135260500D01*
X138518712Y-135260500D01*
X138761289Y-135260500D01*
X138815166Y-135253407D01*
X139001789Y-135228838D01*
X139236100Y-135166054D01*
X139460212Y-135073224D01*
X139670289Y-134951936D01*
X139862738Y-134804265D01*
X140034265Y-134632738D01*
X140181936Y-134440289D01*
X140303224Y-134230212D01*
X140396054Y-134006100D01*
X140458838Y-133771789D01*
X140490500Y-133531288D01*
X140490500Y-133288712D01*
X140490283Y-133287065D01*
X144264500Y-133287065D01*
X144264500Y-133532934D01*
X144282109Y-133666677D01*
X144296591Y-133776677D01*
X144360222Y-134014152D01*
X144360225Y-134014162D01*
X144449717Y-134230214D01*
X144454306Y-134241292D01*
X144577233Y-134454208D01*
X144577235Y-134454211D01*
X144577236Y-134454212D01*
X144726897Y-134649254D01*
X144726903Y-134649261D01*
X144900738Y-134823096D01*
X144900745Y-134823102D01*
X145015335Y-134911030D01*
X145095792Y-134972767D01*
X145308708Y-135095694D01*
X145535847Y-135189778D01*
X145773323Y-135253409D01*
X146017073Y-135285500D01*
X146017080Y-135285500D01*
X146262920Y-135285500D01*
X146262927Y-135285500D01*
X146506677Y-135253409D01*
X146744153Y-135189778D01*
X146971292Y-135095694D01*
X147184208Y-134972767D01*
X147379256Y-134823101D01*
X147553101Y-134649256D01*
X147702767Y-134454208D01*
X147825694Y-134241292D01*
X147919778Y-134014153D01*
X147983409Y-133776677D01*
X148015500Y-133532927D01*
X148015500Y-133287073D01*
X148001234Y-133178711D01*
X149039500Y-133178711D01*
X149039500Y-133421288D01*
X149071161Y-133661785D01*
X149133947Y-133896104D01*
X149226773Y-134120205D01*
X149226776Y-134120212D01*
X149348064Y-134330289D01*
X149348066Y-134330292D01*
X149348067Y-134330293D01*
X149495733Y-134522736D01*
X149495739Y-134522743D01*
X149667256Y-134694260D01*
X149667263Y-134694266D01*
X149691811Y-134713102D01*
X149859711Y-134841936D01*
X150069788Y-134963224D01*
X150293900Y-135056054D01*
X150528211Y-135118838D01*
X150708586Y-135142584D01*
X150768711Y-135150500D01*
X150768712Y-135150500D01*
X151011289Y-135150500D01*
X151065166Y-135143407D01*
X151251789Y-135118838D01*
X151486100Y-135056054D01*
X151710212Y-134963224D01*
X151920289Y-134841936D01*
X152112738Y-134694265D01*
X152284265Y-134522738D01*
X152431936Y-134330289D01*
X152553224Y-134120212D01*
X152646054Y-133896100D01*
X152708838Y-133661789D01*
X152740500Y-133421288D01*
X152740500Y-133178712D01*
X152740283Y-133177065D01*
X156514500Y-133177065D01*
X156514500Y-133422934D01*
X156528766Y-133531288D01*
X156546591Y-133666677D01*
X156610222Y-133904152D01*
X156610225Y-133904162D01*
X156699717Y-134120214D01*
X156704306Y-134131292D01*
X156827233Y-134344208D01*
X156827235Y-134344211D01*
X156827236Y-134344212D01*
X156976897Y-134539254D01*
X156976903Y-134539261D01*
X157150738Y-134713096D01*
X157150744Y-134713101D01*
X157345792Y-134862767D01*
X157558708Y-134985694D01*
X157785847Y-135079778D01*
X158023323Y-135143409D01*
X158267073Y-135175500D01*
X158267080Y-135175500D01*
X158512920Y-135175500D01*
X158512927Y-135175500D01*
X158756677Y-135143409D01*
X158994153Y-135079778D01*
X159221292Y-134985694D01*
X159434208Y-134862767D01*
X159629256Y-134713101D01*
X159803101Y-134539256D01*
X159952767Y-134344208D01*
X160075694Y-134131292D01*
X160169778Y-133904153D01*
X160233409Y-133666677D01*
X160265500Y-133422927D01*
X160265500Y-133177073D01*
X160233409Y-132933323D01*
X160169778Y-132695847D01*
X160075694Y-132468708D01*
X159952767Y-132255792D01*
X159803101Y-132060744D01*
X159803096Y-132060738D01*
X159629261Y-131886903D01*
X159629254Y-131886897D01*
X159434212Y-131737236D01*
X159434211Y-131737235D01*
X159434208Y-131737233D01*
X159221292Y-131614306D01*
X159221285Y-131614303D01*
X158994162Y-131520225D01*
X158994155Y-131520223D01*
X158994153Y-131520222D01*
X158756677Y-131456591D01*
X158702817Y-131449500D01*
X158512934Y-131424500D01*
X158512927Y-131424500D01*
X158267073Y-131424500D01*
X158267065Y-131424500D01*
X158035059Y-131455045D01*
X158023323Y-131456591D01*
X157785847Y-131520222D01*
X157785837Y-131520225D01*
X157558714Y-131614303D01*
X157558705Y-131614307D01*
X157345787Y-131737236D01*
X157150745Y-131886897D01*
X157150738Y-131886903D01*
X156976903Y-132060738D01*
X156976897Y-132060745D01*
X156827236Y-132255787D01*
X156704307Y-132468705D01*
X156704303Y-132468714D01*
X156610225Y-132695837D01*
X156610222Y-132695847D01*
X156546592Y-132933320D01*
X156546590Y-132933331D01*
X156514500Y-133177065D01*
X152740283Y-133177065D01*
X152708838Y-132938211D01*
X152646054Y-132703900D01*
X152553224Y-132479788D01*
X152431936Y-132269711D01*
X152284265Y-132077262D01*
X152284260Y-132077256D01*
X152112743Y-131905739D01*
X152112736Y-131905733D01*
X151920293Y-131758067D01*
X151920292Y-131758066D01*
X151920289Y-131758064D01*
X151710212Y-131636776D01*
X151710205Y-131636773D01*
X151486104Y-131543947D01*
X151251785Y-131481161D01*
X151011289Y-131449500D01*
X151011288Y-131449500D01*
X150768712Y-131449500D01*
X150768711Y-131449500D01*
X150528214Y-131481161D01*
X150293895Y-131543947D01*
X150069794Y-131636773D01*
X150069785Y-131636777D01*
X149859706Y-131758067D01*
X149667263Y-131905733D01*
X149667256Y-131905739D01*
X149495739Y-132077256D01*
X149495733Y-132077263D01*
X149348067Y-132269706D01*
X149226777Y-132479785D01*
X149226773Y-132479794D01*
X149133947Y-132703895D01*
X149071161Y-132938214D01*
X149039500Y-133178711D01*
X148001234Y-133178711D01*
X147983409Y-133043323D01*
X147919778Y-132805847D01*
X147825694Y-132578708D01*
X147702767Y-132365792D01*
X147553101Y-132170744D01*
X147553096Y-132170738D01*
X147379261Y-131996903D01*
X147379254Y-131996897D01*
X147184212Y-131847236D01*
X147184211Y-131847235D01*
X147184208Y-131847233D01*
X147010206Y-131746773D01*
X146971294Y-131724307D01*
X146971285Y-131724303D01*
X146744162Y-131630225D01*
X146744155Y-131630223D01*
X146744153Y-131630222D01*
X146506677Y-131566591D01*
X146452817Y-131559500D01*
X146262934Y-131534500D01*
X146262927Y-131534500D01*
X146017073Y-131534500D01*
X146017065Y-131534500D01*
X145785059Y-131565045D01*
X145773323Y-131566591D01*
X145595258Y-131614303D01*
X145535847Y-131630222D01*
X145535837Y-131630225D01*
X145308714Y-131724303D01*
X145308705Y-131724307D01*
X145095787Y-131847236D01*
X144900745Y-131996897D01*
X144900738Y-131996903D01*
X144726903Y-132170738D01*
X144726897Y-132170745D01*
X144577236Y-132365787D01*
X144454307Y-132578705D01*
X144454303Y-132578714D01*
X144360225Y-132805837D01*
X144360222Y-132805847D01*
X144324756Y-132938211D01*
X144296592Y-133043320D01*
X144296590Y-133043331D01*
X144264500Y-133287065D01*
X140490283Y-133287065D01*
X140458838Y-133048211D01*
X140396054Y-132813900D01*
X140303224Y-132589788D01*
X140181936Y-132379711D01*
X140034265Y-132187262D01*
X140034260Y-132187256D01*
X139862743Y-132015739D01*
X139862736Y-132015733D01*
X139670293Y-131868067D01*
X139670292Y-131868066D01*
X139670289Y-131868064D01*
X139479769Y-131758067D01*
X139460214Y-131746777D01*
X139460205Y-131746773D01*
X139236104Y-131653947D01*
X139118944Y-131622554D01*
X139001789Y-131591162D01*
X139001788Y-131591161D01*
X139001785Y-131591161D01*
X138761289Y-131559500D01*
X138761288Y-131559500D01*
X138518712Y-131559500D01*
X138518711Y-131559500D01*
X138278214Y-131591161D01*
X138043895Y-131653947D01*
X137819794Y-131746773D01*
X137819785Y-131746777D01*
X137609706Y-131868067D01*
X137417263Y-132015733D01*
X137417256Y-132015739D01*
X137245739Y-132187256D01*
X137245733Y-132187263D01*
X137098067Y-132379706D01*
X136976777Y-132589785D01*
X136976773Y-132589794D01*
X136883947Y-132813895D01*
X136821161Y-133048214D01*
X136789500Y-133288711D01*
X135515500Y-133288711D01*
X135515500Y-133287073D01*
X135483409Y-133043323D01*
X135419778Y-132805847D01*
X135325694Y-132578708D01*
X135202767Y-132365792D01*
X135053101Y-132170744D01*
X135053096Y-132170738D01*
X134879261Y-131996903D01*
X134879254Y-131996897D01*
X134684212Y-131847236D01*
X134684211Y-131847235D01*
X134684208Y-131847233D01*
X134510206Y-131746773D01*
X134471294Y-131724307D01*
X134471285Y-131724303D01*
X134244162Y-131630225D01*
X134244155Y-131630223D01*
X134244153Y-131630222D01*
X134006677Y-131566591D01*
X133952817Y-131559500D01*
X133762934Y-131534500D01*
X133762927Y-131534500D01*
X133517073Y-131534500D01*
X133517065Y-131534500D01*
X133285059Y-131565045D01*
X133273323Y-131566591D01*
X133095258Y-131614303D01*
X133035847Y-131630222D01*
X133035837Y-131630225D01*
X132808714Y-131724303D01*
X132808705Y-131724307D01*
X132595787Y-131847236D01*
X132400745Y-131996897D01*
X132400738Y-131996903D01*
X132226903Y-132170738D01*
X132226897Y-132170745D01*
X132077236Y-132365787D01*
X131954307Y-132578705D01*
X131954303Y-132578714D01*
X131860225Y-132805837D01*
X131860222Y-132805847D01*
X131824756Y-132938211D01*
X131796592Y-133043320D01*
X131796590Y-133043331D01*
X131764500Y-133287065D01*
X127990283Y-133287065D01*
X127958838Y-133048211D01*
X127896054Y-132813900D01*
X127803224Y-132589788D01*
X127681936Y-132379711D01*
X127534265Y-132187262D01*
X127534260Y-132187256D01*
X127362743Y-132015739D01*
X127362736Y-132015733D01*
X127170293Y-131868067D01*
X127170292Y-131868066D01*
X127170289Y-131868064D01*
X126979769Y-131758067D01*
X126960214Y-131746777D01*
X126960205Y-131746773D01*
X126736104Y-131653947D01*
X126618944Y-131622554D01*
X126501789Y-131591162D01*
X126501788Y-131591161D01*
X126501785Y-131591161D01*
X126261289Y-131559500D01*
X126261288Y-131559500D01*
X126018712Y-131559500D01*
X126018711Y-131559500D01*
X125778214Y-131591161D01*
X125543895Y-131653947D01*
X125319794Y-131746773D01*
X125319785Y-131746777D01*
X125109706Y-131868067D01*
X124917263Y-132015733D01*
X124917256Y-132015739D01*
X124745739Y-132187256D01*
X124745733Y-132187263D01*
X124598067Y-132379706D01*
X124476777Y-132589785D01*
X124476773Y-132589794D01*
X124383947Y-132813895D01*
X124321161Y-133048214D01*
X124289500Y-133288711D01*
X123015500Y-133288711D01*
X123015500Y-133287073D01*
X122983409Y-133043323D01*
X122919778Y-132805847D01*
X122825694Y-132578708D01*
X122702767Y-132365792D01*
X122553101Y-132170744D01*
X122553096Y-132170738D01*
X122379261Y-131996903D01*
X122379254Y-131996897D01*
X122184212Y-131847236D01*
X122184211Y-131847235D01*
X122184208Y-131847233D01*
X122010206Y-131746773D01*
X121971294Y-131724307D01*
X121971285Y-131724303D01*
X121744162Y-131630225D01*
X121744155Y-131630223D01*
X121744153Y-131630222D01*
X121506677Y-131566591D01*
X121452817Y-131559500D01*
X121262934Y-131534500D01*
X121262927Y-131534500D01*
X121017073Y-131534500D01*
X121017065Y-131534500D01*
X120785059Y-131565045D01*
X120773323Y-131566591D01*
X120595258Y-131614303D01*
X120535847Y-131630222D01*
X120535837Y-131630225D01*
X120308714Y-131724303D01*
X120308705Y-131724307D01*
X120095787Y-131847236D01*
X119900745Y-131996897D01*
X119900738Y-131996903D01*
X119726903Y-132170738D01*
X119726897Y-132170745D01*
X119577236Y-132365787D01*
X119454307Y-132578705D01*
X119454303Y-132578714D01*
X119360225Y-132805837D01*
X119360222Y-132805847D01*
X119324756Y-132938211D01*
X119296592Y-133043320D01*
X119296590Y-133043331D01*
X119264500Y-133287065D01*
X115490283Y-133287065D01*
X115458838Y-133048211D01*
X115396054Y-132813900D01*
X115303224Y-132589788D01*
X115181936Y-132379711D01*
X115034265Y-132187262D01*
X115034260Y-132187256D01*
X114862743Y-132015739D01*
X114862736Y-132015733D01*
X114670293Y-131868067D01*
X114670292Y-131868066D01*
X114670289Y-131868064D01*
X114479769Y-131758067D01*
X114460214Y-131746777D01*
X114460205Y-131746773D01*
X114236104Y-131653947D01*
X114118944Y-131622554D01*
X114001789Y-131591162D01*
X114001788Y-131591161D01*
X114001785Y-131591161D01*
X113761289Y-131559500D01*
X113761288Y-131559500D01*
X113518712Y-131559500D01*
X113518711Y-131559500D01*
X113278214Y-131591161D01*
X113043895Y-131653947D01*
X112819794Y-131746773D01*
X112819785Y-131746777D01*
X112609706Y-131868067D01*
X112417263Y-132015733D01*
X112417256Y-132015739D01*
X112245739Y-132187256D01*
X112245733Y-132187263D01*
X112098067Y-132379706D01*
X111976777Y-132589785D01*
X111976773Y-132589794D01*
X111883947Y-132813895D01*
X111821161Y-133048214D01*
X111789500Y-133288711D01*
X110515500Y-133288711D01*
X110515500Y-133287073D01*
X110483409Y-133043323D01*
X110419778Y-132805847D01*
X110325694Y-132578708D01*
X110202767Y-132365792D01*
X110053101Y-132170744D01*
X110053096Y-132170738D01*
X109879261Y-131996903D01*
X109879254Y-131996897D01*
X109684212Y-131847236D01*
X109684211Y-131847235D01*
X109684208Y-131847233D01*
X109510206Y-131746773D01*
X109471294Y-131724307D01*
X109471285Y-131724303D01*
X109244162Y-131630225D01*
X109244155Y-131630223D01*
X109244153Y-131630222D01*
X109006677Y-131566591D01*
X108952817Y-131559500D01*
X108762934Y-131534500D01*
X108762927Y-131534500D01*
X108517073Y-131534500D01*
X108517065Y-131534500D01*
X108285059Y-131565045D01*
X108273323Y-131566591D01*
X108095258Y-131614303D01*
X108035847Y-131630222D01*
X108035837Y-131630225D01*
X107808714Y-131724303D01*
X107808705Y-131724307D01*
X107595787Y-131847236D01*
X107400745Y-131996897D01*
X107400738Y-131996903D01*
X107226903Y-132170738D01*
X107226897Y-132170745D01*
X107077236Y-132365787D01*
X106954307Y-132578705D01*
X106954303Y-132578714D01*
X106860225Y-132805837D01*
X106860222Y-132805847D01*
X106824756Y-132938211D01*
X106796592Y-133043320D01*
X106796590Y-133043331D01*
X106764500Y-133287065D01*
X102990283Y-133287065D01*
X102958838Y-133048211D01*
X102896054Y-132813900D01*
X102803224Y-132589788D01*
X102681936Y-132379711D01*
X102534265Y-132187262D01*
X102534260Y-132187256D01*
X102362743Y-132015739D01*
X102362736Y-132015733D01*
X102170293Y-131868067D01*
X102170292Y-131868066D01*
X102170289Y-131868064D01*
X101979769Y-131758067D01*
X101960214Y-131746777D01*
X101960205Y-131746773D01*
X101736104Y-131653947D01*
X101618944Y-131622554D01*
X101501789Y-131591162D01*
X101501788Y-131591161D01*
X101501785Y-131591161D01*
X101261289Y-131559500D01*
X101261288Y-131559500D01*
X101018712Y-131559500D01*
X101018711Y-131559500D01*
X100778214Y-131591161D01*
X100543895Y-131653947D01*
X100319794Y-131746773D01*
X100319785Y-131746777D01*
X100109706Y-131868067D01*
X99917263Y-132015733D01*
X99917256Y-132015739D01*
X99745739Y-132187256D01*
X99745733Y-132187263D01*
X99598067Y-132379706D01*
X99476777Y-132589785D01*
X99476773Y-132589794D01*
X99383947Y-132813895D01*
X99321161Y-133048214D01*
X99289500Y-133288711D01*
X98265500Y-133288711D01*
X98265500Y-133177073D01*
X98233409Y-132933323D01*
X98169778Y-132695847D01*
X98075694Y-132468708D01*
X97952767Y-132255792D01*
X97803101Y-132060744D01*
X97803096Y-132060738D01*
X97629261Y-131886903D01*
X97629254Y-131886897D01*
X97434212Y-131737236D01*
X97434211Y-131737235D01*
X97434208Y-131737233D01*
X97221292Y-131614306D01*
X97221285Y-131614303D01*
X96994162Y-131520225D01*
X96994155Y-131520223D01*
X96994153Y-131520222D01*
X96756677Y-131456591D01*
X96702817Y-131449500D01*
X96512934Y-131424500D01*
X96512927Y-131424500D01*
X96267073Y-131424500D01*
X96267065Y-131424500D01*
X96035059Y-131455045D01*
X96023323Y-131456591D01*
X95785847Y-131520222D01*
X95785837Y-131520225D01*
X95558714Y-131614303D01*
X95558705Y-131614307D01*
X95345787Y-131737236D01*
X95150745Y-131886897D01*
X95150738Y-131886903D01*
X94976903Y-132060738D01*
X94976897Y-132060745D01*
X94827236Y-132255787D01*
X94704307Y-132468705D01*
X94704303Y-132468714D01*
X94610225Y-132695837D01*
X94610222Y-132695847D01*
X94546592Y-132933320D01*
X94546590Y-132933331D01*
X94514500Y-133177065D01*
X90740283Y-133177065D01*
X90708838Y-132938211D01*
X90646054Y-132703900D01*
X90553224Y-132479788D01*
X90431936Y-132269711D01*
X90284265Y-132077262D01*
X90284260Y-132077256D01*
X90112743Y-131905739D01*
X90112736Y-131905733D01*
X89920293Y-131758067D01*
X89920292Y-131758066D01*
X89920289Y-131758064D01*
X89710212Y-131636776D01*
X89710205Y-131636773D01*
X89486104Y-131543947D01*
X89251785Y-131481161D01*
X89011289Y-131449500D01*
X89011288Y-131449500D01*
X88768712Y-131449500D01*
X88768711Y-131449500D01*
X88528214Y-131481161D01*
X88293895Y-131543947D01*
X88069794Y-131636773D01*
X88069785Y-131636777D01*
X87859706Y-131758067D01*
X87667263Y-131905733D01*
X87667256Y-131905739D01*
X87495739Y-132077256D01*
X87495733Y-132077263D01*
X87348067Y-132269706D01*
X87226777Y-132479785D01*
X87226773Y-132479794D01*
X87133947Y-132703895D01*
X87071161Y-132938214D01*
X87039500Y-133178711D01*
X70000500Y-133178711D01*
X70000500Y-100378711D01*
X74139500Y-100378711D01*
X74139500Y-100621288D01*
X74171161Y-100861785D01*
X74233947Y-101096104D01*
X74254604Y-101145974D01*
X74326776Y-101320212D01*
X74448064Y-101530289D01*
X74448066Y-101530292D01*
X74448067Y-101530293D01*
X74595733Y-101722736D01*
X74595739Y-101722743D01*
X74767256Y-101894260D01*
X74767263Y-101894266D01*
X74873128Y-101975499D01*
X74959711Y-102041936D01*
X75169788Y-102163224D01*
X75393900Y-102256054D01*
X75628211Y-102318838D01*
X75808586Y-102342584D01*
X75868711Y-102350500D01*
X75868712Y-102350500D01*
X76111289Y-102350500D01*
X76159388Y-102344167D01*
X76351789Y-102318838D01*
X76586100Y-102256054D01*
X76810212Y-102163224D01*
X77020289Y-102041936D01*
X77212738Y-101894265D01*
X77384265Y-101722738D01*
X77531936Y-101530289D01*
X77653224Y-101320212D01*
X77746054Y-101096100D01*
X77808838Y-100861789D01*
X77840500Y-100621288D01*
X77840500Y-100378712D01*
X77836901Y-100351378D01*
X77808838Y-100138214D01*
X77808838Y-100138211D01*
X77746054Y-99903900D01*
X77653224Y-99679788D01*
X77531936Y-99469711D01*
X77428122Y-99334418D01*
X77384266Y-99277263D01*
X77384260Y-99277256D01*
X77212743Y-99105739D01*
X77212736Y-99105733D01*
X77020293Y-98958067D01*
X77020292Y-98958066D01*
X77020289Y-98958064D01*
X76810212Y-98836776D01*
X76810205Y-98836773D01*
X76586104Y-98743947D01*
X76374823Y-98687334D01*
X76351789Y-98681162D01*
X76351788Y-98681161D01*
X76351785Y-98681161D01*
X76111289Y-98649500D01*
X76111288Y-98649500D01*
X75868712Y-98649500D01*
X75868711Y-98649500D01*
X75628214Y-98681161D01*
X75393895Y-98743947D01*
X75169794Y-98836773D01*
X75169785Y-98836777D01*
X74959706Y-98958067D01*
X74767263Y-99105733D01*
X74767256Y-99105739D01*
X74595739Y-99277256D01*
X74595733Y-99277263D01*
X74448067Y-99469706D01*
X74326777Y-99679785D01*
X74326773Y-99679794D01*
X74233947Y-99903895D01*
X74171161Y-100138214D01*
X74139500Y-100378711D01*
X70000500Y-100378711D01*
X70000500Y-77624500D01*
X70020185Y-77557461D01*
X70072989Y-77511706D01*
X70124500Y-77500500D01*
X75508936Y-77500500D01*
X75575975Y-77520185D01*
X75621730Y-77572989D01*
X75631674Y-77642147D01*
X75602649Y-77705703D01*
X75596617Y-77712181D01*
X72941269Y-80367529D01*
X72941267Y-80367531D01*
X72897703Y-80411094D01*
X72854140Y-80454657D01*
X72839823Y-80476085D01*
X72785689Y-80557101D01*
X72785685Y-80557108D01*
X72755481Y-80630030D01*
X72755481Y-80630031D01*
X72738538Y-80670934D01*
X72738535Y-80670944D01*
X72714500Y-80791778D01*
X72714500Y-93243539D01*
X72738535Y-93364372D01*
X72738540Y-93364389D01*
X72785685Y-93478209D01*
X72785687Y-93478213D01*
X72785688Y-93478214D01*
X72816306Y-93524035D01*
X72854142Y-93580661D01*
X72941267Y-93667786D01*
X72941270Y-93667788D01*
X72948726Y-93675244D01*
X79178181Y-99904699D01*
X79211666Y-99966022D01*
X79214500Y-99992380D01*
X79214500Y-102511606D01*
X79235722Y-102618302D01*
X79235723Y-102618305D01*
X79235722Y-102618305D01*
X79238535Y-102632445D01*
X79238536Y-102632448D01*
X79238537Y-102632451D01*
X79285688Y-102746286D01*
X79316478Y-102792365D01*
X79354142Y-102848733D01*
X79441267Y-102935858D01*
X79441270Y-102935860D01*
X79448718Y-102943308D01*
X80957891Y-104452481D01*
X80991376Y-104513804D01*
X80988141Y-104578480D01*
X80973985Y-104622047D01*
X80939500Y-104839778D01*
X80939500Y-105060221D01*
X80973985Y-105277954D01*
X80988140Y-105321519D01*
X80990135Y-105391360D01*
X80957890Y-105447517D01*
X78060579Y-108344828D01*
X77999256Y-108378313D01*
X77929564Y-108373329D01*
X77873631Y-108331457D01*
X77849214Y-108265993D01*
X77849958Y-108240972D01*
X77865500Y-108122927D01*
X77865500Y-107877073D01*
X77833409Y-107633323D01*
X77769778Y-107395847D01*
X77675694Y-107168708D01*
X77552767Y-106955792D01*
X77491030Y-106875335D01*
X77403102Y-106760745D01*
X77403096Y-106760738D01*
X77229261Y-106586903D01*
X77229254Y-106586897D01*
X77034212Y-106437236D01*
X77034211Y-106437235D01*
X77034208Y-106437233D01*
X76821292Y-106314306D01*
X76821285Y-106314303D01*
X76594162Y-106220225D01*
X76594155Y-106220223D01*
X76594153Y-106220222D01*
X76356677Y-106156591D01*
X76315939Y-106151227D01*
X76112934Y-106124500D01*
X76112927Y-106124500D01*
X75867073Y-106124500D01*
X75867065Y-106124500D01*
X75635059Y-106155045D01*
X75623323Y-106156591D01*
X75439921Y-106205733D01*
X75385847Y-106220222D01*
X75385837Y-106220225D01*
X75158714Y-106314303D01*
X75158705Y-106314307D01*
X74945787Y-106437236D01*
X74750745Y-106586897D01*
X74750738Y-106586903D01*
X74576903Y-106760738D01*
X74576897Y-106760745D01*
X74427236Y-106955787D01*
X74304307Y-107168705D01*
X74304303Y-107168714D01*
X74210225Y-107395837D01*
X74210222Y-107395847D01*
X74146592Y-107633320D01*
X74146590Y-107633331D01*
X74114500Y-107877065D01*
X74114500Y-108122934D01*
X74131309Y-108250605D01*
X74146591Y-108366677D01*
X74210222Y-108604152D01*
X74210225Y-108604162D01*
X74257192Y-108717549D01*
X74304306Y-108831292D01*
X74427233Y-109044208D01*
X74427235Y-109044211D01*
X74427236Y-109044212D01*
X74576897Y-109239254D01*
X74576903Y-109239261D01*
X74750738Y-109413096D01*
X74750745Y-109413102D01*
X74799483Y-109450500D01*
X74945792Y-109562767D01*
X75158708Y-109685694D01*
X75385847Y-109779778D01*
X75623323Y-109843409D01*
X75867073Y-109875500D01*
X75867080Y-109875500D01*
X76112920Y-109875500D01*
X76112927Y-109875500D01*
X76356677Y-109843409D01*
X76594153Y-109779778D01*
X76821292Y-109685694D01*
X77034208Y-109562767D01*
X77229256Y-109413101D01*
X77403101Y-109239256D01*
X77542124Y-109058077D01*
X77598552Y-109016875D01*
X77668298Y-109012720D01*
X77729218Y-109046932D01*
X77761971Y-109108649D01*
X77764500Y-109133564D01*
X77764500Y-111909750D01*
X77744815Y-111976789D01*
X77692011Y-112022544D01*
X77622853Y-112032488D01*
X77559297Y-112003463D01*
X77534199Y-111973067D01*
X77534185Y-111973077D01*
X77534092Y-111972938D01*
X77533118Y-111971758D01*
X77531936Y-111969711D01*
X77384265Y-111777262D01*
X77384260Y-111777256D01*
X77212743Y-111605739D01*
X77212736Y-111605733D01*
X77020293Y-111458067D01*
X77020292Y-111458066D01*
X77020289Y-111458064D01*
X76810212Y-111336776D01*
X76810205Y-111336773D01*
X76586104Y-111243947D01*
X76351785Y-111181161D01*
X76111289Y-111149500D01*
X76111288Y-111149500D01*
X75868712Y-111149500D01*
X75868711Y-111149500D01*
X75628214Y-111181161D01*
X75393895Y-111243947D01*
X75169794Y-111336773D01*
X75169785Y-111336777D01*
X74959706Y-111458067D01*
X74767263Y-111605733D01*
X74767256Y-111605739D01*
X74595739Y-111777256D01*
X74595733Y-111777263D01*
X74448067Y-111969706D01*
X74448064Y-111969710D01*
X74448064Y-111969711D01*
X74446121Y-111973077D01*
X74326777Y-112179785D01*
X74326773Y-112179794D01*
X74233947Y-112403895D01*
X74171161Y-112638214D01*
X74139500Y-112878711D01*
X74139500Y-113121288D01*
X74171161Y-113361785D01*
X74233947Y-113596104D01*
X74313956Y-113789261D01*
X74326776Y-113820212D01*
X74448064Y-114030289D01*
X74448066Y-114030292D01*
X74448067Y-114030293D01*
X74595733Y-114222736D01*
X74595739Y-114222743D01*
X74767256Y-114394260D01*
X74767263Y-114394266D01*
X74866185Y-114470171D01*
X74959711Y-114541936D01*
X75169788Y-114663224D01*
X75393900Y-114756054D01*
X75628211Y-114818838D01*
X75808586Y-114842584D01*
X75868711Y-114850500D01*
X75868712Y-114850500D01*
X76111289Y-114850500D01*
X76159388Y-114844167D01*
X76351789Y-114818838D01*
X76586100Y-114756054D01*
X76810212Y-114663224D01*
X77020289Y-114541936D01*
X77212738Y-114394265D01*
X77384265Y-114222738D01*
X77531936Y-114030289D01*
X77533113Y-114028249D01*
X77533623Y-114027762D01*
X77534185Y-114026923D01*
X77534373Y-114027048D01*
X77583677Y-113980035D01*
X77652284Y-113966810D01*
X77717149Y-113992777D01*
X77757679Y-114049690D01*
X77764500Y-114090249D01*
X77764500Y-119366435D01*
X77744815Y-119433474D01*
X77692011Y-119479229D01*
X77622853Y-119489173D01*
X77559297Y-119460148D01*
X77542124Y-119441922D01*
X77415750Y-119277229D01*
X77403101Y-119260744D01*
X77403099Y-119260742D01*
X77403096Y-119260738D01*
X77229261Y-119086903D01*
X77229254Y-119086897D01*
X77034212Y-118937236D01*
X77034211Y-118937235D01*
X77034208Y-118937233D01*
X76843734Y-118827263D01*
X76821294Y-118814307D01*
X76821285Y-118814303D01*
X76594162Y-118720225D01*
X76594155Y-118720223D01*
X76594153Y-118720222D01*
X76356677Y-118656591D01*
X76315939Y-118651227D01*
X76112934Y-118624500D01*
X76112927Y-118624500D01*
X75867073Y-118624500D01*
X75867065Y-118624500D01*
X75635059Y-118655045D01*
X75623323Y-118656591D01*
X75391635Y-118718671D01*
X75385847Y-118720222D01*
X75385837Y-118720225D01*
X75158714Y-118814303D01*
X75158705Y-118814307D01*
X74974313Y-118920766D01*
X74966449Y-118925307D01*
X74945787Y-118937236D01*
X74750745Y-119086897D01*
X74750738Y-119086903D01*
X74576903Y-119260738D01*
X74576897Y-119260745D01*
X74427236Y-119455787D01*
X74304307Y-119668705D01*
X74304303Y-119668714D01*
X74210225Y-119895837D01*
X74210222Y-119895847D01*
X74147504Y-120129918D01*
X74146592Y-120133320D01*
X74146590Y-120133331D01*
X74114500Y-120377065D01*
X74114500Y-120622934D01*
X74117551Y-120646104D01*
X74146591Y-120866677D01*
X74147539Y-120870214D01*
X74210222Y-121104152D01*
X74210225Y-121104162D01*
X74280051Y-121272736D01*
X74304306Y-121331292D01*
X74427233Y-121544208D01*
X74427235Y-121544211D01*
X74427236Y-121544212D01*
X74576897Y-121739254D01*
X74576903Y-121739261D01*
X74750738Y-121913096D01*
X74750744Y-121913101D01*
X74945792Y-122062767D01*
X75158708Y-122185694D01*
X75385847Y-122279778D01*
X75623323Y-122343409D01*
X75867073Y-122375500D01*
X75867080Y-122375500D01*
X76112920Y-122375500D01*
X76112927Y-122375500D01*
X76356677Y-122343409D01*
X76594153Y-122279778D01*
X76821292Y-122185694D01*
X77034208Y-122062767D01*
X77229256Y-121913101D01*
X77403101Y-121739256D01*
X77552767Y-121544208D01*
X77675694Y-121331292D01*
X77769778Y-121104153D01*
X77833409Y-120866677D01*
X77865500Y-120622927D01*
X77865500Y-120377073D01*
X77834798Y-120143874D01*
X77845563Y-120074839D01*
X77891943Y-120022583D01*
X77959212Y-120003698D01*
X78026013Y-120024178D01*
X78045418Y-120040008D01*
X87351016Y-129345606D01*
X87351045Y-129345637D01*
X87441263Y-129435855D01*
X87441267Y-129435858D01*
X87543707Y-129504307D01*
X87543716Y-129504312D01*
X87564739Y-129513020D01*
X87657548Y-129551463D01*
X87717971Y-129563481D01*
X87778393Y-129575500D01*
X91401607Y-129575500D01*
X91462029Y-129563481D01*
X91522452Y-129551463D01*
X91567144Y-129532951D01*
X91636286Y-129504312D01*
X91687509Y-129470084D01*
X91738733Y-129435858D01*
X91825858Y-129348733D01*
X91825859Y-129348731D01*
X91832925Y-129341665D01*
X91832928Y-129341661D01*
X92842482Y-128332106D01*
X92903803Y-128298623D01*
X92968478Y-128301857D01*
X93012049Y-128316015D01*
X93229778Y-128350500D01*
X93229779Y-128350500D01*
X93450221Y-128350500D01*
X93450222Y-128350500D01*
X93614379Y-128324500D01*
X93672763Y-128315253D01*
X93672960Y-128316500D01*
X93736914Y-128319681D01*
X93783794Y-128349095D01*
X95409390Y-129974692D01*
X95409394Y-129974695D01*
X95520024Y-130048616D01*
X95520028Y-130048618D01*
X95520031Y-130048620D01*
X95642964Y-130099541D01*
X95773464Y-130125499D01*
X95773468Y-130125500D01*
X95773469Y-130125500D01*
X104906532Y-130125500D01*
X104906533Y-130125499D01*
X105037036Y-130099541D01*
X105159969Y-130048620D01*
X105270606Y-129974695D01*
X106114695Y-129130606D01*
X106188620Y-129019969D01*
X106239540Y-128897036D01*
X106265500Y-128766531D01*
X106265500Y-128633469D01*
X106265500Y-128363120D01*
X106285185Y-128296081D01*
X106320610Y-128261408D01*
X106320080Y-128260678D01*
X106324017Y-128257817D01*
X106324022Y-128257815D01*
X106502365Y-128128242D01*
X106658242Y-127972365D01*
X106787815Y-127794022D01*
X106887895Y-127597606D01*
X106956015Y-127387951D01*
X106990500Y-127170222D01*
X106990500Y-126949778D01*
X106956015Y-126732049D01*
X106920274Y-126622047D01*
X106887896Y-126522396D01*
X106887895Y-126522393D01*
X106853237Y-126454375D01*
X106787815Y-126325978D01*
X106707893Y-126215974D01*
X106658247Y-126147641D01*
X106658242Y-126147635D01*
X106640990Y-126130383D01*
X106607505Y-126069060D01*
X106612489Y-125999368D01*
X106654361Y-125943435D01*
X106719825Y-125919018D01*
X106748065Y-125920228D01*
X106749778Y-125920500D01*
X106749783Y-125920500D01*
X106970221Y-125920500D01*
X106970222Y-125920500D01*
X107187951Y-125886015D01*
X107397606Y-125817895D01*
X107594022Y-125717815D01*
X107772365Y-125588242D01*
X107928242Y-125432365D01*
X108057815Y-125254022D01*
X108157895Y-125057606D01*
X108226015Y-124847951D01*
X108260500Y-124630222D01*
X108260500Y-124409778D01*
X108226015Y-124192049D01*
X108157895Y-123982394D01*
X108157895Y-123982393D01*
X108123237Y-123914375D01*
X108057815Y-123785978D01*
X108007551Y-123716795D01*
X107928247Y-123607641D01*
X107928243Y-123607636D01*
X107772363Y-123451756D01*
X107772358Y-123451752D01*
X107594025Y-123322187D01*
X107594024Y-123322186D01*
X107594022Y-123322185D01*
X107531096Y-123290122D01*
X107397606Y-123222104D01*
X107397603Y-123222103D01*
X107187952Y-123153985D01*
X107069998Y-123135303D01*
X106970222Y-123119500D01*
X106749778Y-123119500D01*
X106677201Y-123130995D01*
X106532047Y-123153985D01*
X106322396Y-123222103D01*
X106322393Y-123222104D01*
X106125974Y-123322187D01*
X105947641Y-123451752D01*
X105947636Y-123451756D01*
X105791756Y-123607636D01*
X105791752Y-123607641D01*
X105690318Y-123747254D01*
X105634988Y-123789920D01*
X105565375Y-123795899D01*
X105503580Y-123763293D01*
X105489682Y-123747254D01*
X105388247Y-123607641D01*
X105388243Y-123607636D01*
X105232363Y-123451756D01*
X105232358Y-123451752D01*
X105054025Y-123322187D01*
X105054024Y-123322186D01*
X105054022Y-123322185D01*
X104991096Y-123290122D01*
X104857606Y-123222104D01*
X104857603Y-123222103D01*
X104647952Y-123153985D01*
X104529998Y-123135303D01*
X104430222Y-123119500D01*
X104209778Y-123119500D01*
X104137201Y-123130995D01*
X103992047Y-123153985D01*
X103948480Y-123168141D01*
X103878639Y-123170136D01*
X103822481Y-123137891D01*
X103243150Y-122558560D01*
X103235860Y-122551270D01*
X103235858Y-122551267D01*
X103148733Y-122464142D01*
X103097509Y-122429915D01*
X103046286Y-122395688D01*
X103046283Y-122395686D01*
X103046280Y-122395685D01*
X102972603Y-122365168D01*
X102972601Y-122365167D01*
X102965792Y-122362347D01*
X102932452Y-122348537D01*
X102872029Y-122336518D01*
X102867306Y-122335578D01*
X102867304Y-122335578D01*
X102811610Y-122324500D01*
X102811607Y-122324500D01*
X102811606Y-122324500D01*
X93591607Y-122324500D01*
X93468393Y-122324500D01*
X93468389Y-122324500D01*
X93417535Y-122334615D01*
X93417530Y-122334616D01*
X93407971Y-122336518D01*
X93347548Y-122348537D01*
X93300397Y-122368067D01*
X93233715Y-122395688D01*
X93233714Y-122395689D01*
X93211347Y-122410633D01*
X93211344Y-122410635D01*
X93131268Y-122464140D01*
X93087705Y-122507703D01*
X93044142Y-122551267D01*
X93044139Y-122551270D01*
X92567518Y-123027890D01*
X92506195Y-123061375D01*
X92441521Y-123058141D01*
X92397950Y-123043984D01*
X92214706Y-123014961D01*
X92180222Y-123009500D01*
X91959778Y-123009500D01*
X91887201Y-123020995D01*
X91742047Y-123043985D01*
X91532396Y-123112103D01*
X91532393Y-123112104D01*
X91335974Y-123212187D01*
X91157641Y-123341752D01*
X91157636Y-123341756D01*
X91001756Y-123497636D01*
X91001752Y-123497641D01*
X90872187Y-123675973D01*
X90851388Y-123716795D01*
X90803414Y-123767591D01*
X90740903Y-123784500D01*
X86610452Y-123784500D01*
X86543413Y-123764815D01*
X86522771Y-123748181D01*
X84596425Y-121821835D01*
X84562940Y-121760512D01*
X84567924Y-121690820D01*
X84609796Y-121634887D01*
X84675260Y-121610470D01*
X84708297Y-121612537D01*
X84754218Y-121621670D01*
X84773466Y-121625499D01*
X84773468Y-121625500D01*
X84773469Y-121625500D01*
X84906531Y-121625500D01*
X107008837Y-121625500D01*
X107075876Y-121645185D01*
X107096518Y-121661819D01*
X112128181Y-126693482D01*
X112161666Y-126754805D01*
X112164500Y-126781163D01*
X112164500Y-128016535D01*
X112190457Y-128147028D01*
X112190459Y-128147036D01*
X112241378Y-128269965D01*
X112241383Y-128269975D01*
X112315304Y-128380605D01*
X112315307Y-128380609D01*
X113815305Y-129880606D01*
X113909394Y-129974695D01*
X113909397Y-129974697D01*
X113909398Y-129974698D01*
X114020020Y-130048613D01*
X114020023Y-130048614D01*
X114020031Y-130048620D01*
X114142964Y-130099540D01*
X114142968Y-130099540D01*
X114142969Y-130099541D01*
X114273466Y-130125500D01*
X114273469Y-130125500D01*
X116406532Y-130125500D01*
X116406533Y-130125499D01*
X116537036Y-130099541D01*
X116659969Y-130048620D01*
X116770606Y-129974695D01*
X118272230Y-128473069D01*
X118333551Y-128439586D01*
X118340465Y-128438286D01*
X118417951Y-128426015D01*
X118557721Y-128380601D01*
X118627603Y-128357896D01*
X118627606Y-128357895D01*
X118678215Y-128332108D01*
X118824022Y-128257815D01*
X119002365Y-128128242D01*
X119158242Y-127972365D01*
X119287815Y-127794022D01*
X119387895Y-127597606D01*
X119456015Y-127387951D01*
X119490500Y-127170222D01*
X119490500Y-126949778D01*
X119456015Y-126732049D01*
X119420274Y-126622047D01*
X119387896Y-126522396D01*
X119387895Y-126522393D01*
X119353237Y-126454375D01*
X119287815Y-126325978D01*
X119207893Y-126215974D01*
X119158247Y-126147641D01*
X119158242Y-126147635D01*
X119140990Y-126130383D01*
X119107505Y-126069060D01*
X119112489Y-125999368D01*
X119154361Y-125943435D01*
X119219825Y-125919018D01*
X119248065Y-125920228D01*
X119249778Y-125920500D01*
X119249783Y-125920500D01*
X119470220Y-125920500D01*
X119470222Y-125920500D01*
X119605431Y-125899084D01*
X119674722Y-125908038D01*
X119712508Y-125933876D01*
X123311578Y-129532947D01*
X123311585Y-129532953D01*
X123375258Y-129575497D01*
X123375260Y-129575498D01*
X123375263Y-129575500D01*
X123434505Y-129615084D01*
X123571087Y-129671658D01*
X123571091Y-129671658D01*
X123571092Y-129671659D01*
X123716079Y-129700500D01*
X123716082Y-129700500D01*
X143913920Y-129700500D01*
X144011462Y-129681096D01*
X144058913Y-129671658D01*
X144195495Y-129615084D01*
X144254737Y-129575500D01*
X144254737Y-129575499D01*
X144254739Y-129575499D01*
X144290715Y-129551461D01*
X144318416Y-129532952D01*
X145922951Y-127928416D01*
X146005084Y-127805495D01*
X146061658Y-127668913D01*
X146075843Y-127597603D01*
X146090500Y-127523920D01*
X146090500Y-125376079D01*
X146061659Y-125231092D01*
X146061658Y-125231091D01*
X146061658Y-125231087D01*
X146027791Y-125149325D01*
X146005087Y-125094511D01*
X146005080Y-125094498D01*
X145922951Y-124971584D01*
X145922948Y-124971580D01*
X145818419Y-124867051D01*
X145818415Y-124867048D01*
X145798121Y-124853488D01*
X145753316Y-124799876D01*
X145744539Y-124730990D01*
X145760500Y-124630222D01*
X145760500Y-124409778D01*
X145739084Y-124274566D01*
X145748038Y-124205276D01*
X145773873Y-124167493D01*
X146422952Y-123518416D01*
X146704549Y-123236819D01*
X146765872Y-123203334D01*
X146792230Y-123200500D01*
X154287770Y-123200500D01*
X154354809Y-123220185D01*
X154375451Y-123236819D01*
X155196122Y-124057490D01*
X155229607Y-124118813D01*
X155230914Y-124164569D01*
X155209500Y-124299772D01*
X155209500Y-124520221D01*
X155243985Y-124737952D01*
X155312103Y-124947603D01*
X155312104Y-124947606D01*
X155366920Y-125055185D01*
X155407129Y-125134100D01*
X155412187Y-125144025D01*
X155541752Y-125322358D01*
X155541756Y-125322363D01*
X155559009Y-125339616D01*
X155592494Y-125400939D01*
X155587510Y-125470631D01*
X155545638Y-125526564D01*
X155480174Y-125550981D01*
X155451942Y-125549772D01*
X155450224Y-125549500D01*
X155450222Y-125549500D01*
X155229778Y-125549500D01*
X155157201Y-125560995D01*
X155012047Y-125583985D01*
X154802396Y-125652103D01*
X154802393Y-125652104D01*
X154605974Y-125752187D01*
X154427641Y-125881752D01*
X154427636Y-125881756D01*
X154271756Y-126037636D01*
X154271752Y-126037641D01*
X154142187Y-126215974D01*
X154042104Y-126412393D01*
X154042103Y-126412396D01*
X153973985Y-126622047D01*
X153939500Y-126839778D01*
X153939500Y-127060221D01*
X153973985Y-127277952D01*
X154042103Y-127487603D01*
X154042104Y-127487606D01*
X154091573Y-127584692D01*
X154134486Y-127668913D01*
X154142187Y-127684025D01*
X154271752Y-127862358D01*
X154271756Y-127862363D01*
X154427636Y-128018243D01*
X154427641Y-128018247D01*
X154470165Y-128049142D01*
X154605978Y-128147815D01*
X154734375Y-128213237D01*
X154802393Y-128247895D01*
X154802396Y-128247896D01*
X154870350Y-128269975D01*
X155012049Y-128316015D01*
X155229778Y-128350500D01*
X155229779Y-128350500D01*
X155450221Y-128350500D01*
X155450222Y-128350500D01*
X155667951Y-128316015D01*
X155877606Y-128247895D01*
X156074022Y-128147815D01*
X156252365Y-128018242D01*
X156408242Y-127862365D01*
X156537815Y-127684022D01*
X156637895Y-127487606D01*
X156706015Y-127277951D01*
X156740500Y-127060222D01*
X156740500Y-126839778D01*
X156706015Y-126622049D01*
X156664826Y-126495281D01*
X156637896Y-126412396D01*
X156637895Y-126412393D01*
X156593861Y-126325974D01*
X156537815Y-126215978D01*
X156475366Y-126130024D01*
X156408247Y-126037641D01*
X156408243Y-126037636D01*
X156390990Y-126020383D01*
X156357505Y-125959060D01*
X156362489Y-125889368D01*
X156404361Y-125833435D01*
X156469825Y-125809018D01*
X156498065Y-125810228D01*
X156499778Y-125810500D01*
X156499783Y-125810500D01*
X156720221Y-125810500D01*
X156720222Y-125810500D01*
X156937951Y-125776015D01*
X157147606Y-125707895D01*
X157344022Y-125607815D01*
X157522365Y-125478242D01*
X157678242Y-125322365D01*
X157807815Y-125144022D01*
X157907895Y-124947606D01*
X157976015Y-124737951D01*
X158010500Y-124520222D01*
X158010500Y-124299778D01*
X157976015Y-124082049D01*
X157925848Y-123927647D01*
X157907896Y-123872396D01*
X157907895Y-123872393D01*
X157863110Y-123784500D01*
X157807815Y-123675978D01*
X157749116Y-123595185D01*
X157678247Y-123497641D01*
X157678243Y-123497636D01*
X157522363Y-123341756D01*
X157522358Y-123341752D01*
X157344025Y-123212187D01*
X157344024Y-123212186D01*
X157344022Y-123212185D01*
X157231295Y-123154747D01*
X157147606Y-123112104D01*
X157147603Y-123112103D01*
X156937952Y-123043985D01*
X156829086Y-123026742D01*
X156720222Y-123009500D01*
X156499778Y-123009500D01*
X156499773Y-123009500D01*
X156364569Y-123030914D01*
X156295275Y-123021959D01*
X156257490Y-122996122D01*
X155594048Y-122332680D01*
X155560563Y-122271357D01*
X155565547Y-122201665D01*
X155594046Y-122157320D01*
X157822655Y-119928711D01*
X169399500Y-119928711D01*
X169399500Y-120171288D01*
X169431161Y-120411785D01*
X169493947Y-120646104D01*
X169586773Y-120870205D01*
X169586776Y-120870212D01*
X169708064Y-121080289D01*
X169708066Y-121080292D01*
X169708067Y-121080293D01*
X169855733Y-121272736D01*
X169855739Y-121272743D01*
X170027256Y-121444260D01*
X170027262Y-121444265D01*
X170219711Y-121591936D01*
X170429788Y-121713224D01*
X170653900Y-121806054D01*
X170888211Y-121868838D01*
X171068586Y-121892584D01*
X171128711Y-121900500D01*
X171128712Y-121900500D01*
X171371289Y-121900500D01*
X171419388Y-121894167D01*
X171611789Y-121868838D01*
X171846100Y-121806054D01*
X172070212Y-121713224D01*
X172280289Y-121591936D01*
X172472738Y-121444265D01*
X172644265Y-121272738D01*
X172791936Y-121080289D01*
X172913224Y-120870212D01*
X173006054Y-120646100D01*
X173068838Y-120411789D01*
X173100500Y-120171288D01*
X173100500Y-119928712D01*
X173099065Y-119917815D01*
X173068838Y-119688214D01*
X173068838Y-119688211D01*
X173006054Y-119453900D01*
X172913224Y-119229788D01*
X172791936Y-119019711D01*
X172662774Y-118851383D01*
X172644266Y-118827263D01*
X172644260Y-118827256D01*
X172472743Y-118655739D01*
X172472736Y-118655733D01*
X172280293Y-118508067D01*
X172280292Y-118508066D01*
X172280289Y-118508064D01*
X172070212Y-118386776D01*
X172070205Y-118386773D01*
X171846104Y-118293947D01*
X171611785Y-118231161D01*
X171371289Y-118199500D01*
X171371288Y-118199500D01*
X171128712Y-118199500D01*
X171128711Y-118199500D01*
X170888214Y-118231161D01*
X170653895Y-118293947D01*
X170429794Y-118386773D01*
X170429785Y-118386777D01*
X170219706Y-118508067D01*
X170027263Y-118655733D01*
X170027256Y-118655739D01*
X169855739Y-118827256D01*
X169855733Y-118827263D01*
X169708067Y-119019706D01*
X169586777Y-119229785D01*
X169586773Y-119229794D01*
X169493947Y-119453895D01*
X169431161Y-119688214D01*
X169399500Y-119928711D01*
X157822655Y-119928711D01*
X160508206Y-117243159D01*
X160508211Y-117243156D01*
X160518414Y-117232952D01*
X160518416Y-117232952D01*
X162007492Y-115743874D01*
X162068813Y-115710391D01*
X162114565Y-115709084D01*
X162249778Y-115730500D01*
X162249780Y-115730500D01*
X162470221Y-115730500D01*
X162470222Y-115730500D01*
X162687951Y-115696015D01*
X162897606Y-115627895D01*
X163094022Y-115527815D01*
X163272365Y-115398242D01*
X163289616Y-115380990D01*
X163350936Y-115347505D01*
X163420628Y-115352488D01*
X163476562Y-115394358D01*
X163500981Y-115459822D01*
X163499772Y-115488054D01*
X163499500Y-115489778D01*
X163499500Y-115710222D01*
X163504001Y-115738638D01*
X163533985Y-115927952D01*
X163602103Y-116137603D01*
X163602104Y-116137606D01*
X163702187Y-116334025D01*
X163831752Y-116512358D01*
X163831756Y-116512363D01*
X163987636Y-116668243D01*
X163987641Y-116668247D01*
X164053338Y-116715978D01*
X164165978Y-116797815D01*
X164294375Y-116863237D01*
X164362393Y-116897895D01*
X164362396Y-116897896D01*
X164467221Y-116931955D01*
X164572049Y-116966015D01*
X164789778Y-117000500D01*
X164789779Y-117000500D01*
X165010221Y-117000500D01*
X165010222Y-117000500D01*
X165227951Y-116966015D01*
X165437606Y-116897895D01*
X165634022Y-116797815D01*
X165812365Y-116668242D01*
X165968242Y-116512365D01*
X166097815Y-116334022D01*
X166197895Y-116137606D01*
X166266015Y-115927951D01*
X166300500Y-115710222D01*
X166300500Y-115489778D01*
X166266015Y-115272049D01*
X166213934Y-115111758D01*
X166197896Y-115062396D01*
X166197895Y-115062393D01*
X166157026Y-114982185D01*
X166097815Y-114865978D01*
X166060039Y-114813984D01*
X165968247Y-114687641D01*
X165968243Y-114687636D01*
X165812363Y-114531756D01*
X165812358Y-114531752D01*
X165634025Y-114402187D01*
X165634024Y-114402186D01*
X165634022Y-114402185D01*
X165571096Y-114370122D01*
X165437606Y-114302104D01*
X165437603Y-114302103D01*
X165227952Y-114233985D01*
X165119086Y-114216742D01*
X165010222Y-114199500D01*
X164789778Y-114199500D01*
X164717201Y-114210995D01*
X164572047Y-114233985D01*
X164362396Y-114302103D01*
X164362393Y-114302104D01*
X164165974Y-114402187D01*
X163987641Y-114531752D01*
X163987635Y-114531757D01*
X163970381Y-114549011D01*
X163909057Y-114582495D01*
X163839366Y-114577509D01*
X163783433Y-114535636D01*
X163759018Y-114470171D01*
X163760230Y-114441924D01*
X163760500Y-114440219D01*
X163760500Y-114219778D01*
X163743550Y-114112763D01*
X163726015Y-114002049D01*
X163691955Y-113897221D01*
X163657896Y-113792396D01*
X163657895Y-113792393D01*
X163623237Y-113724375D01*
X163557815Y-113595978D01*
X163507888Y-113527259D01*
X163428247Y-113417641D01*
X163428243Y-113417636D01*
X163272363Y-113261756D01*
X163272358Y-113261752D01*
X163094025Y-113132187D01*
X163094024Y-113132186D01*
X163094022Y-113132185D01*
X163031096Y-113100122D01*
X162897606Y-113032104D01*
X162897603Y-113032103D01*
X162687952Y-112963985D01*
X162579086Y-112946742D01*
X162470222Y-112929500D01*
X162249778Y-112929500D01*
X162177201Y-112940995D01*
X162032047Y-112963985D01*
X161822396Y-113032103D01*
X161822393Y-113032104D01*
X161625974Y-113132187D01*
X161447641Y-113261752D01*
X161447636Y-113261756D01*
X161291756Y-113417636D01*
X161291752Y-113417641D01*
X161162187Y-113595974D01*
X161062104Y-113792393D01*
X161062103Y-113792396D01*
X161032431Y-113883721D01*
X160992994Y-113941396D01*
X160928635Y-113968595D01*
X160859789Y-113956681D01*
X160808313Y-113909437D01*
X160790500Y-113845403D01*
X160790500Y-112427065D01*
X169374500Y-112427065D01*
X169374500Y-112672934D01*
X169388808Y-112781606D01*
X169406591Y-112916677D01*
X169470222Y-113154152D01*
X169470225Y-113154162D01*
X169564303Y-113381285D01*
X169564306Y-113381292D01*
X169687233Y-113594208D01*
X169687235Y-113594211D01*
X169687236Y-113594212D01*
X169836897Y-113789254D01*
X169836903Y-113789261D01*
X170010738Y-113963096D01*
X170010745Y-113963102D01*
X170017904Y-113968595D01*
X170205792Y-114112767D01*
X170418708Y-114235694D01*
X170645847Y-114329778D01*
X170883323Y-114393409D01*
X171127073Y-114425500D01*
X171127080Y-114425500D01*
X171372920Y-114425500D01*
X171372927Y-114425500D01*
X171616677Y-114393409D01*
X171854153Y-114329778D01*
X172081292Y-114235694D01*
X172294208Y-114112767D01*
X172489256Y-113963101D01*
X172663101Y-113789256D01*
X172812767Y-113594208D01*
X172935694Y-113381292D01*
X173029778Y-113154153D01*
X173093409Y-112916677D01*
X173125500Y-112672927D01*
X173125500Y-112427073D01*
X173093409Y-112183323D01*
X173029778Y-111945847D01*
X172935694Y-111718708D01*
X172812767Y-111505792D01*
X172663101Y-111310744D01*
X172663096Y-111310738D01*
X172489261Y-111136903D01*
X172489254Y-111136897D01*
X172294212Y-110987236D01*
X172294211Y-110987235D01*
X172294208Y-110987233D01*
X172081292Y-110864306D01*
X172081285Y-110864303D01*
X171854162Y-110770225D01*
X171854155Y-110770223D01*
X171854153Y-110770222D01*
X171616677Y-110706591D01*
X171575939Y-110701227D01*
X171372934Y-110674500D01*
X171372927Y-110674500D01*
X171127073Y-110674500D01*
X171127065Y-110674500D01*
X170895059Y-110705045D01*
X170883323Y-110706591D01*
X170873997Y-110709090D01*
X170645847Y-110770222D01*
X170645837Y-110770225D01*
X170418714Y-110864303D01*
X170418705Y-110864307D01*
X170205787Y-110987236D01*
X170010745Y-111136897D01*
X170010738Y-111136903D01*
X169836903Y-111310738D01*
X169836897Y-111310745D01*
X169687236Y-111505787D01*
X169564307Y-111718705D01*
X169564303Y-111718714D01*
X169470225Y-111945837D01*
X169470222Y-111945847D01*
X169415683Y-112149393D01*
X169406592Y-112183320D01*
X169406590Y-112183331D01*
X169374500Y-112427065D01*
X160790500Y-112427065D01*
X160790500Y-107478711D01*
X169399500Y-107478711D01*
X169399500Y-107721288D01*
X169431161Y-107961785D01*
X169493947Y-108196104D01*
X169555551Y-108344828D01*
X169586776Y-108420212D01*
X169708064Y-108630289D01*
X169708066Y-108630292D01*
X169708067Y-108630293D01*
X169855733Y-108822736D01*
X169855739Y-108822743D01*
X170027256Y-108994260D01*
X170027262Y-108994265D01*
X170219711Y-109141936D01*
X170429788Y-109263224D01*
X170653900Y-109356054D01*
X170888211Y-109418838D01*
X171068586Y-109442584D01*
X171128711Y-109450500D01*
X171128712Y-109450500D01*
X171371289Y-109450500D01*
X171419388Y-109444167D01*
X171611789Y-109418838D01*
X171846100Y-109356054D01*
X172070212Y-109263224D01*
X172280289Y-109141936D01*
X172472738Y-108994265D01*
X172644265Y-108822738D01*
X172791936Y-108630289D01*
X172913224Y-108420212D01*
X173006054Y-108196100D01*
X173068838Y-107961789D01*
X173100500Y-107721288D01*
X173100500Y-107478712D01*
X173068838Y-107238211D01*
X173006054Y-107003900D01*
X172913224Y-106779788D01*
X172791936Y-106569711D01*
X172644265Y-106377262D01*
X172644260Y-106377256D01*
X172472743Y-106205739D01*
X172472736Y-106205733D01*
X172280293Y-106058067D01*
X172280292Y-106058066D01*
X172280289Y-106058064D01*
X172070212Y-105936776D01*
X172070205Y-105936773D01*
X171846104Y-105843947D01*
X171611785Y-105781161D01*
X171371289Y-105749500D01*
X171371288Y-105749500D01*
X171128712Y-105749500D01*
X171128711Y-105749500D01*
X170888214Y-105781161D01*
X170653895Y-105843947D01*
X170429794Y-105936773D01*
X170429785Y-105936777D01*
X170219706Y-106058067D01*
X170027263Y-106205733D01*
X170027256Y-106205739D01*
X169855739Y-106377256D01*
X169855733Y-106377263D01*
X169708067Y-106569706D01*
X169586777Y-106779785D01*
X169586773Y-106779794D01*
X169493947Y-107003895D01*
X169431161Y-107238214D01*
X169399500Y-107478711D01*
X160790500Y-107478711D01*
X160790500Y-104562229D01*
X160810185Y-104495190D01*
X160826819Y-104474548D01*
X161402358Y-103899009D01*
X162007492Y-103293874D01*
X162068813Y-103260391D01*
X162114565Y-103259084D01*
X162249778Y-103280500D01*
X162249780Y-103280500D01*
X162470221Y-103280500D01*
X162470222Y-103280500D01*
X162687951Y-103246015D01*
X162897606Y-103177895D01*
X163094022Y-103077815D01*
X163272365Y-102948242D01*
X163289616Y-102930990D01*
X163350936Y-102897505D01*
X163420628Y-102902488D01*
X163476562Y-102944358D01*
X163500981Y-103009822D01*
X163499772Y-103038054D01*
X163499500Y-103039778D01*
X163499500Y-103260222D01*
X163502712Y-103280500D01*
X163533985Y-103477952D01*
X163602103Y-103687603D01*
X163602104Y-103687606D01*
X163656863Y-103795073D01*
X163701031Y-103881758D01*
X163702187Y-103884025D01*
X163831752Y-104062358D01*
X163831756Y-104062363D01*
X163987636Y-104218243D01*
X163987641Y-104218247D01*
X164143192Y-104331260D01*
X164165978Y-104347815D01*
X164292720Y-104412394D01*
X164362393Y-104447895D01*
X164362396Y-104447896D01*
X164376508Y-104452481D01*
X164572049Y-104516015D01*
X164789778Y-104550500D01*
X164789779Y-104550500D01*
X165010221Y-104550500D01*
X165010222Y-104550500D01*
X165227951Y-104516015D01*
X165437606Y-104447895D01*
X165634022Y-104347815D01*
X165812365Y-104218242D01*
X165968242Y-104062365D01*
X166097815Y-103884022D01*
X166197895Y-103687606D01*
X166266015Y-103477951D01*
X166300500Y-103260222D01*
X166300500Y-103039778D01*
X166266015Y-102822049D01*
X166212746Y-102658101D01*
X166197896Y-102612396D01*
X166197895Y-102612393D01*
X166146539Y-102511604D01*
X166097815Y-102415978D01*
X166027239Y-102318838D01*
X165968247Y-102237641D01*
X165968243Y-102237636D01*
X165812363Y-102081756D01*
X165812358Y-102081752D01*
X165634025Y-101952187D01*
X165634024Y-101952186D01*
X165634022Y-101952185D01*
X165571096Y-101920122D01*
X165437606Y-101852104D01*
X165437603Y-101852103D01*
X165227952Y-101783985D01*
X165119086Y-101766742D01*
X165010222Y-101749500D01*
X164789778Y-101749500D01*
X164717201Y-101760995D01*
X164572047Y-101783985D01*
X164362396Y-101852103D01*
X164362393Y-101852104D01*
X164165974Y-101952187D01*
X163987641Y-102081752D01*
X163987635Y-102081757D01*
X163970381Y-102099011D01*
X163909057Y-102132495D01*
X163839366Y-102127509D01*
X163783433Y-102085636D01*
X163759018Y-102020171D01*
X163760230Y-101991924D01*
X163760500Y-101990219D01*
X163760500Y-101769778D01*
X163753050Y-101722743D01*
X163726015Y-101552049D01*
X163691955Y-101447221D01*
X163657896Y-101342396D01*
X163657895Y-101342393D01*
X163623237Y-101274375D01*
X163557815Y-101145978D01*
X163521577Y-101096100D01*
X163428247Y-100967641D01*
X163428243Y-100967636D01*
X163272363Y-100811756D01*
X163272358Y-100811752D01*
X163094025Y-100682187D01*
X163094024Y-100682186D01*
X163094022Y-100682185D01*
X163031096Y-100650122D01*
X162897606Y-100582104D01*
X162897603Y-100582103D01*
X162687952Y-100513985D01*
X162579086Y-100496742D01*
X162470222Y-100479500D01*
X162249778Y-100479500D01*
X162177201Y-100490995D01*
X162032047Y-100513985D01*
X161822396Y-100582103D01*
X161822393Y-100582104D01*
X161625974Y-100682187D01*
X161447641Y-100811752D01*
X161447636Y-100811756D01*
X161291756Y-100967636D01*
X161291752Y-100967641D01*
X161162187Y-101145974D01*
X161062104Y-101342393D01*
X161062103Y-101342396D01*
X161032431Y-101433721D01*
X160992994Y-101491396D01*
X160928635Y-101518595D01*
X160859789Y-101506681D01*
X160808313Y-101459437D01*
X160790500Y-101395403D01*
X160790500Y-99977065D01*
X169374500Y-99977065D01*
X169374500Y-100222934D01*
X169391412Y-100351383D01*
X169406591Y-100466677D01*
X169470222Y-100704152D01*
X169470225Y-100704162D01*
X169514793Y-100811758D01*
X169564306Y-100931292D01*
X169687233Y-101144208D01*
X169687235Y-101144211D01*
X169687236Y-101144212D01*
X169836897Y-101339254D01*
X169836903Y-101339261D01*
X170010738Y-101513096D01*
X170010744Y-101513101D01*
X170205792Y-101662767D01*
X170418708Y-101785694D01*
X170645847Y-101879778D01*
X170883323Y-101943409D01*
X171127073Y-101975500D01*
X171127080Y-101975500D01*
X171372920Y-101975500D01*
X171372927Y-101975500D01*
X171616677Y-101943409D01*
X171854153Y-101879778D01*
X172081292Y-101785694D01*
X172294208Y-101662767D01*
X172489256Y-101513101D01*
X172663101Y-101339256D01*
X172812767Y-101144208D01*
X172935694Y-100931292D01*
X173029778Y-100704153D01*
X173093409Y-100466677D01*
X173125500Y-100222927D01*
X173125500Y-99977073D01*
X173093409Y-99733323D01*
X173029778Y-99495847D01*
X172935694Y-99268708D01*
X172812767Y-99055792D01*
X172663101Y-98860744D01*
X172663096Y-98860738D01*
X172489261Y-98686903D01*
X172489254Y-98686897D01*
X172294212Y-98537236D01*
X172294211Y-98537235D01*
X172294208Y-98537233D01*
X172081292Y-98414306D01*
X171988729Y-98375965D01*
X171854162Y-98320225D01*
X171854155Y-98320223D01*
X171854153Y-98320222D01*
X171616677Y-98256591D01*
X171570678Y-98250535D01*
X171372934Y-98224500D01*
X171372927Y-98224500D01*
X171127073Y-98224500D01*
X171127065Y-98224500D01*
X170906026Y-98253602D01*
X170883323Y-98256591D01*
X170645847Y-98320222D01*
X170645837Y-98320225D01*
X170418714Y-98414303D01*
X170418705Y-98414307D01*
X170205787Y-98537236D01*
X170010745Y-98686897D01*
X170010738Y-98686903D01*
X169836903Y-98860738D01*
X169836897Y-98860745D01*
X169687236Y-99055787D01*
X169564307Y-99268705D01*
X169564303Y-99268714D01*
X169470225Y-99495837D01*
X169470222Y-99495847D01*
X169420937Y-99679785D01*
X169406592Y-99733320D01*
X169406590Y-99733331D01*
X169374500Y-99977065D01*
X160790500Y-99977065D01*
X160790500Y-95228711D01*
X169499500Y-95228711D01*
X169499500Y-95471288D01*
X169531161Y-95711785D01*
X169593947Y-95946104D01*
X169651110Y-96084106D01*
X169686776Y-96170212D01*
X169808064Y-96380289D01*
X169808066Y-96380292D01*
X169808067Y-96380293D01*
X169955733Y-96572736D01*
X169955739Y-96572743D01*
X170127256Y-96744260D01*
X170127262Y-96744265D01*
X170319711Y-96891936D01*
X170529788Y-97013224D01*
X170753900Y-97106054D01*
X170988211Y-97168838D01*
X171168586Y-97192584D01*
X171228711Y-97200500D01*
X171228712Y-97200500D01*
X171471289Y-97200500D01*
X171519388Y-97194167D01*
X171711789Y-97168838D01*
X171946100Y-97106054D01*
X172170212Y-97013224D01*
X172380289Y-96891936D01*
X172572738Y-96744265D01*
X172744265Y-96572738D01*
X172891936Y-96380289D01*
X173013224Y-96170212D01*
X173106054Y-95946100D01*
X173168838Y-95711789D01*
X173200500Y-95471288D01*
X173200500Y-95228712D01*
X173198386Y-95212658D01*
X173175484Y-95038693D01*
X173168838Y-94988211D01*
X173106054Y-94753900D01*
X173013224Y-94529788D01*
X172891936Y-94319711D01*
X172829376Y-94238181D01*
X172744266Y-94127263D01*
X172744260Y-94127256D01*
X172572743Y-93955739D01*
X172572736Y-93955733D01*
X172380293Y-93808067D01*
X172380292Y-93808066D01*
X172380289Y-93808064D01*
X172208661Y-93708974D01*
X172170214Y-93686777D01*
X172170205Y-93686773D01*
X171946104Y-93593947D01*
X171711785Y-93531161D01*
X171471289Y-93499500D01*
X171471288Y-93499500D01*
X171228712Y-93499500D01*
X171228711Y-93499500D01*
X170988214Y-93531161D01*
X170753895Y-93593947D01*
X170529794Y-93686773D01*
X170529785Y-93686777D01*
X170319706Y-93808067D01*
X170127263Y-93955733D01*
X170127256Y-93955739D01*
X169955739Y-94127256D01*
X169955733Y-94127263D01*
X169808067Y-94319706D01*
X169686777Y-94529785D01*
X169686773Y-94529794D01*
X169593947Y-94753895D01*
X169531161Y-94988214D01*
X169499500Y-95228711D01*
X160790500Y-95228711D01*
X160790500Y-92412229D01*
X160810185Y-92345190D01*
X160826814Y-92324553D01*
X162107492Y-91043874D01*
X162168813Y-91010391D01*
X162214565Y-91009084D01*
X162349778Y-91030500D01*
X162349780Y-91030500D01*
X162570221Y-91030500D01*
X162570222Y-91030500D01*
X162787951Y-90996015D01*
X162997606Y-90927895D01*
X163194022Y-90827815D01*
X163372365Y-90698242D01*
X163389616Y-90680990D01*
X163450936Y-90647505D01*
X163520628Y-90652488D01*
X163576562Y-90694358D01*
X163600981Y-90759822D01*
X163599773Y-90788054D01*
X163599500Y-90789779D01*
X163599500Y-91010221D01*
X163633985Y-91227952D01*
X163702103Y-91437603D01*
X163702104Y-91437606D01*
X163802187Y-91634025D01*
X163931752Y-91812358D01*
X163931756Y-91812363D01*
X164087636Y-91968243D01*
X164087641Y-91968247D01*
X164243192Y-92081260D01*
X164265978Y-92097815D01*
X164394375Y-92163237D01*
X164462393Y-92197895D01*
X164462396Y-92197896D01*
X164567221Y-92231955D01*
X164672049Y-92266015D01*
X164889778Y-92300500D01*
X164889779Y-92300500D01*
X165110221Y-92300500D01*
X165110222Y-92300500D01*
X165327951Y-92266015D01*
X165537606Y-92197895D01*
X165734022Y-92097815D01*
X165912365Y-91968242D01*
X166068242Y-91812365D01*
X166197815Y-91634022D01*
X166297895Y-91437606D01*
X166366015Y-91227951D01*
X166400500Y-91010222D01*
X166400500Y-90789778D01*
X166366015Y-90572049D01*
X166331955Y-90467221D01*
X166297896Y-90362396D01*
X166297895Y-90362393D01*
X166255830Y-90279837D01*
X166197815Y-90165978D01*
X166096442Y-90026449D01*
X166068247Y-89987641D01*
X166068243Y-89987636D01*
X165912363Y-89831756D01*
X165912358Y-89831752D01*
X165734025Y-89702187D01*
X165734024Y-89702186D01*
X165734022Y-89702185D01*
X165671096Y-89670122D01*
X165537606Y-89602104D01*
X165537603Y-89602103D01*
X165327952Y-89533985D01*
X165219086Y-89516742D01*
X165110222Y-89499500D01*
X164889778Y-89499500D01*
X164817201Y-89510995D01*
X164672047Y-89533985D01*
X164462396Y-89602103D01*
X164462393Y-89602104D01*
X164265974Y-89702187D01*
X164087641Y-89831752D01*
X164087635Y-89831757D01*
X164070381Y-89849011D01*
X164009057Y-89882495D01*
X163939366Y-89877509D01*
X163883433Y-89835636D01*
X163859018Y-89770171D01*
X163860230Y-89741924D01*
X163860500Y-89740219D01*
X163860500Y-89519778D01*
X163853360Y-89474698D01*
X163826015Y-89302049D01*
X163757895Y-89092394D01*
X163757895Y-89092393D01*
X163723237Y-89024375D01*
X163657815Y-88895978D01*
X163632627Y-88861309D01*
X163528247Y-88717641D01*
X163528243Y-88717636D01*
X163372363Y-88561756D01*
X163372358Y-88561752D01*
X163194025Y-88432187D01*
X163194024Y-88432186D01*
X163194022Y-88432185D01*
X163131096Y-88400122D01*
X162997606Y-88332104D01*
X162997603Y-88332103D01*
X162787952Y-88263985D01*
X162625031Y-88238181D01*
X162570222Y-88229500D01*
X162349778Y-88229500D01*
X162294969Y-88238181D01*
X162132047Y-88263985D01*
X161922396Y-88332103D01*
X161922393Y-88332104D01*
X161725974Y-88432187D01*
X161547641Y-88561752D01*
X161547636Y-88561756D01*
X161391756Y-88717636D01*
X161391752Y-88717641D01*
X161262187Y-88895974D01*
X161162104Y-89092393D01*
X161162103Y-89092396D01*
X161093985Y-89302047D01*
X161059500Y-89519778D01*
X161059500Y-89740227D01*
X161080914Y-89875429D01*
X161071959Y-89944722D01*
X161046123Y-89982507D01*
X161002182Y-90026449D01*
X160940859Y-90059935D01*
X160871168Y-90054951D01*
X160815234Y-90013081D01*
X160790816Y-89947616D01*
X160790500Y-89938769D01*
X160790500Y-87727065D01*
X169474500Y-87727065D01*
X169474500Y-87972934D01*
X169501227Y-88175939D01*
X169506591Y-88216677D01*
X169570222Y-88454152D01*
X169570225Y-88454162D01*
X169614793Y-88561758D01*
X169664306Y-88681292D01*
X169787233Y-88894208D01*
X169787235Y-88894211D01*
X169787236Y-88894212D01*
X169936897Y-89089254D01*
X169936903Y-89089261D01*
X170110738Y-89263096D01*
X170110744Y-89263101D01*
X170305792Y-89412767D01*
X170518708Y-89535694D01*
X170745847Y-89629778D01*
X170983323Y-89693409D01*
X171227073Y-89725500D01*
X171227080Y-89725500D01*
X171472920Y-89725500D01*
X171472927Y-89725500D01*
X171716677Y-89693409D01*
X171954153Y-89629778D01*
X172181292Y-89535694D01*
X172394208Y-89412767D01*
X172589256Y-89263101D01*
X172763101Y-89089256D01*
X172912767Y-88894208D01*
X173035694Y-88681292D01*
X173129778Y-88454153D01*
X173193409Y-88216677D01*
X173225500Y-87972927D01*
X173225500Y-87727073D01*
X173193409Y-87483323D01*
X173129778Y-87245847D01*
X173035694Y-87018708D01*
X172912767Y-86805792D01*
X172763101Y-86610744D01*
X172763096Y-86610738D01*
X172589261Y-86436903D01*
X172589254Y-86436897D01*
X172394212Y-86287236D01*
X172394211Y-86287235D01*
X172394208Y-86287233D01*
X172181292Y-86164306D01*
X172151559Y-86151990D01*
X171954162Y-86070225D01*
X171954155Y-86070223D01*
X171954153Y-86070222D01*
X171716677Y-86006591D01*
X171675939Y-86001227D01*
X171472934Y-85974500D01*
X171472927Y-85974500D01*
X171227073Y-85974500D01*
X171227065Y-85974500D01*
X170995059Y-86005045D01*
X170983323Y-86006591D01*
X170823183Y-86049500D01*
X170745847Y-86070222D01*
X170745837Y-86070225D01*
X170518714Y-86164303D01*
X170518705Y-86164307D01*
X170305787Y-86287236D01*
X170110745Y-86436897D01*
X170110738Y-86436903D01*
X169936903Y-86610738D01*
X169936897Y-86610745D01*
X169787236Y-86805787D01*
X169664307Y-87018705D01*
X169664303Y-87018714D01*
X169570225Y-87245837D01*
X169570222Y-87245847D01*
X169506592Y-87483320D01*
X169506590Y-87483331D01*
X169474500Y-87727065D01*
X160790500Y-87727065D01*
X160790500Y-82978711D01*
X169399500Y-82978711D01*
X169399500Y-83221288D01*
X169431161Y-83461785D01*
X169493947Y-83696104D01*
X169586773Y-83920205D01*
X169586776Y-83920212D01*
X169708064Y-84130289D01*
X169708066Y-84130292D01*
X169708067Y-84130293D01*
X169855733Y-84322736D01*
X169855739Y-84322743D01*
X170027256Y-84494260D01*
X170027262Y-84494265D01*
X170219711Y-84641936D01*
X170429788Y-84763224D01*
X170653900Y-84856054D01*
X170888211Y-84918838D01*
X171068586Y-84942584D01*
X171128711Y-84950500D01*
X171128712Y-84950500D01*
X171371289Y-84950500D01*
X171419388Y-84944167D01*
X171611789Y-84918838D01*
X171846100Y-84856054D01*
X172070212Y-84763224D01*
X172280289Y-84641936D01*
X172472738Y-84494265D01*
X172644265Y-84322738D01*
X172791936Y-84130289D01*
X172913224Y-83920212D01*
X173006054Y-83696100D01*
X173068838Y-83461789D01*
X173100500Y-83221288D01*
X173100500Y-82978712D01*
X173068838Y-82738211D01*
X173006054Y-82503900D01*
X172913224Y-82279788D01*
X172791936Y-82069711D01*
X172670089Y-81910917D01*
X172644266Y-81877263D01*
X172644260Y-81877256D01*
X172472743Y-81705739D01*
X172472736Y-81705733D01*
X172280293Y-81558067D01*
X172280292Y-81558066D01*
X172280289Y-81558064D01*
X172070212Y-81436776D01*
X172070205Y-81436773D01*
X171846104Y-81343947D01*
X171611785Y-81281161D01*
X171371289Y-81249500D01*
X171371288Y-81249500D01*
X171128712Y-81249500D01*
X171128711Y-81249500D01*
X170888214Y-81281161D01*
X170653895Y-81343947D01*
X170429794Y-81436773D01*
X170429785Y-81436777D01*
X170219706Y-81558067D01*
X170027263Y-81705733D01*
X170027256Y-81705739D01*
X169855739Y-81877256D01*
X169855733Y-81877263D01*
X169708067Y-82069706D01*
X169586777Y-82279785D01*
X169586773Y-82279794D01*
X169493947Y-82503895D01*
X169431161Y-82738214D01*
X169399500Y-82978711D01*
X160790500Y-82978711D01*
X160790500Y-80062229D01*
X160810185Y-79995190D01*
X160826819Y-79974548D01*
X161404203Y-79397164D01*
X162007492Y-78793874D01*
X162068813Y-78760391D01*
X162114565Y-78759084D01*
X162249778Y-78780500D01*
X162249780Y-78780500D01*
X162470221Y-78780500D01*
X162470222Y-78780500D01*
X162687951Y-78746015D01*
X162897606Y-78677895D01*
X163094022Y-78577815D01*
X163272365Y-78448242D01*
X163289616Y-78430990D01*
X163350936Y-78397505D01*
X163420628Y-78402488D01*
X163476562Y-78444358D01*
X163500981Y-78509822D01*
X163499772Y-78538054D01*
X163499500Y-78539778D01*
X163499500Y-78760222D01*
X163500661Y-78767554D01*
X163533985Y-78977952D01*
X163602103Y-79187603D01*
X163602104Y-79187606D01*
X163702187Y-79384025D01*
X163831752Y-79562358D01*
X163831756Y-79562363D01*
X163987636Y-79718243D01*
X163987641Y-79718247D01*
X164143192Y-79831260D01*
X164165978Y-79847815D01*
X164294375Y-79913237D01*
X164362393Y-79947895D01*
X164362396Y-79947896D01*
X164453652Y-79977546D01*
X164572049Y-80016015D01*
X164789778Y-80050500D01*
X164789779Y-80050500D01*
X165010221Y-80050500D01*
X165010222Y-80050500D01*
X165227951Y-80016015D01*
X165437606Y-79947895D01*
X165634022Y-79847815D01*
X165812365Y-79718242D01*
X165968242Y-79562365D01*
X166097815Y-79384022D01*
X166197895Y-79187606D01*
X166266015Y-78977951D01*
X166300500Y-78760222D01*
X166300500Y-78539778D01*
X166266015Y-78322049D01*
X166197895Y-78112394D01*
X166197895Y-78112393D01*
X166151842Y-78022011D01*
X166097815Y-77915978D01*
X166022646Y-77812516D01*
X165968247Y-77737641D01*
X165968243Y-77737636D01*
X165812363Y-77581756D01*
X165812358Y-77581752D01*
X165634025Y-77452187D01*
X165634024Y-77452186D01*
X165634022Y-77452185D01*
X165551768Y-77410274D01*
X165437606Y-77352104D01*
X165437603Y-77352103D01*
X165227952Y-77283985D01*
X165119086Y-77266742D01*
X165010222Y-77249500D01*
X164789778Y-77249500D01*
X164722827Y-77260104D01*
X164572047Y-77283985D01*
X164362396Y-77352103D01*
X164362393Y-77352104D01*
X164165974Y-77452187D01*
X163987641Y-77581752D01*
X163987635Y-77581757D01*
X163970381Y-77599011D01*
X163909057Y-77632495D01*
X163839366Y-77627509D01*
X163783433Y-77585636D01*
X163759018Y-77520171D01*
X163760230Y-77491924D01*
X163760500Y-77490219D01*
X163760500Y-77269778D01*
X163753143Y-77223326D01*
X163726015Y-77052049D01*
X163687694Y-76934108D01*
X163657896Y-76842396D01*
X163657895Y-76842393D01*
X163581614Y-76692686D01*
X163557815Y-76645978D01*
X163476174Y-76533608D01*
X163428247Y-76467641D01*
X163428243Y-76467636D01*
X163272363Y-76311756D01*
X163272358Y-76311752D01*
X163094025Y-76182187D01*
X163094024Y-76182186D01*
X163094022Y-76182185D01*
X163031096Y-76150122D01*
X162897606Y-76082104D01*
X162897603Y-76082103D01*
X162687952Y-76013985D01*
X162579086Y-75996742D01*
X162470222Y-75979500D01*
X162249778Y-75979500D01*
X162177201Y-75990995D01*
X162032047Y-76013985D01*
X161822396Y-76082103D01*
X161822393Y-76082104D01*
X161625974Y-76182187D01*
X161447641Y-76311752D01*
X161447636Y-76311756D01*
X161291756Y-76467636D01*
X161291752Y-76467641D01*
X161162187Y-76645974D01*
X161062104Y-76842393D01*
X161062103Y-76842396D01*
X161032431Y-76933721D01*
X160992994Y-76991396D01*
X160928635Y-77018595D01*
X160859789Y-77006681D01*
X160808313Y-76959437D01*
X160790500Y-76895403D01*
X160790500Y-75477065D01*
X169374500Y-75477065D01*
X169374500Y-75722934D01*
X169392786Y-75861819D01*
X169406591Y-75966677D01*
X169469109Y-76200000D01*
X169470222Y-76204152D01*
X169470225Y-76204162D01*
X169564303Y-76431285D01*
X169564306Y-76431292D01*
X169687233Y-76644208D01*
X169687235Y-76644211D01*
X169687236Y-76644212D01*
X169836897Y-76839254D01*
X169836903Y-76839261D01*
X170010738Y-77013096D01*
X170010744Y-77013101D01*
X170205792Y-77162767D01*
X170418708Y-77285694D01*
X170645847Y-77379778D01*
X170883323Y-77443409D01*
X171127073Y-77475500D01*
X171127080Y-77475500D01*
X171372920Y-77475500D01*
X171372927Y-77475500D01*
X171616677Y-77443409D01*
X171854153Y-77379778D01*
X172081292Y-77285694D01*
X172294208Y-77162767D01*
X172489256Y-77013101D01*
X172663101Y-76839256D01*
X172812767Y-76644208D01*
X172935694Y-76431292D01*
X173029778Y-76204153D01*
X173093409Y-75966677D01*
X173125500Y-75722927D01*
X173125500Y-75477073D01*
X173093409Y-75233323D01*
X173029778Y-74995847D01*
X172935694Y-74768708D01*
X172812767Y-74555792D01*
X172722373Y-74437989D01*
X172663102Y-74360745D01*
X172663096Y-74360738D01*
X172489261Y-74186903D01*
X172489254Y-74186897D01*
X172294212Y-74037236D01*
X172294211Y-74037235D01*
X172294208Y-74037233D01*
X172081292Y-73914306D01*
X172058606Y-73904909D01*
X171854162Y-73820225D01*
X171854155Y-73820223D01*
X171854153Y-73820222D01*
X171616677Y-73756591D01*
X171575939Y-73751227D01*
X171372934Y-73724500D01*
X171372927Y-73724500D01*
X171127073Y-73724500D01*
X171127065Y-73724500D01*
X170895059Y-73755045D01*
X170883323Y-73756591D01*
X170645847Y-73820222D01*
X170645837Y-73820225D01*
X170418714Y-73914303D01*
X170418705Y-73914307D01*
X170205787Y-74037236D01*
X170010745Y-74186897D01*
X170010738Y-74186903D01*
X169836903Y-74360738D01*
X169836897Y-74360745D01*
X169687236Y-74555787D01*
X169564307Y-74768705D01*
X169564303Y-74768714D01*
X169470225Y-74995837D01*
X169470222Y-74995847D01*
X169452683Y-75061306D01*
X169406592Y-75233320D01*
X169406590Y-75233331D01*
X169374500Y-75477065D01*
X160790500Y-75477065D01*
X160790500Y-70728711D01*
X169499500Y-70728711D01*
X169499500Y-70971288D01*
X169531161Y-71211785D01*
X169593947Y-71446104D01*
X169602289Y-71466243D01*
X169686776Y-71670212D01*
X169808064Y-71880289D01*
X169808066Y-71880292D01*
X169808067Y-71880293D01*
X169955733Y-72072736D01*
X169955739Y-72072743D01*
X170127256Y-72244260D01*
X170127262Y-72244265D01*
X170319711Y-72391936D01*
X170529788Y-72513224D01*
X170753900Y-72606054D01*
X170988211Y-72668838D01*
X171168586Y-72692584D01*
X171228711Y-72700500D01*
X171228712Y-72700500D01*
X171471289Y-72700500D01*
X171519388Y-72694167D01*
X171711789Y-72668838D01*
X171946100Y-72606054D01*
X172170212Y-72513224D01*
X172380289Y-72391936D01*
X172572738Y-72244265D01*
X172744265Y-72072738D01*
X172891936Y-71880289D01*
X173013224Y-71670212D01*
X173106054Y-71446100D01*
X173168838Y-71211789D01*
X173200500Y-70971288D01*
X173200500Y-70728712D01*
X173168838Y-70488211D01*
X173106054Y-70253900D01*
X173013224Y-70029788D01*
X172891936Y-69819711D01*
X172744265Y-69627262D01*
X172744260Y-69627256D01*
X172572743Y-69455739D01*
X172572736Y-69455733D01*
X172380293Y-69308067D01*
X172380292Y-69308066D01*
X172380289Y-69308064D01*
X172170212Y-69186776D01*
X172170205Y-69186773D01*
X171946104Y-69093947D01*
X171711785Y-69031161D01*
X171471289Y-68999500D01*
X171471288Y-68999500D01*
X171228712Y-68999500D01*
X171228711Y-68999500D01*
X170988214Y-69031161D01*
X170753895Y-69093947D01*
X170529794Y-69186773D01*
X170529785Y-69186777D01*
X170319706Y-69308067D01*
X170127263Y-69455733D01*
X170127256Y-69455739D01*
X169955739Y-69627256D01*
X169955733Y-69627263D01*
X169808067Y-69819706D01*
X169686777Y-70029785D01*
X169686773Y-70029794D01*
X169593947Y-70253895D01*
X169531161Y-70488214D01*
X169499500Y-70728711D01*
X160790500Y-70728711D01*
X160790500Y-67912229D01*
X160810185Y-67845190D01*
X160826814Y-67824553D01*
X162107492Y-66543874D01*
X162168813Y-66510391D01*
X162214565Y-66509084D01*
X162349778Y-66530500D01*
X162349780Y-66530500D01*
X162570221Y-66530500D01*
X162570222Y-66530500D01*
X162787951Y-66496015D01*
X162997606Y-66427895D01*
X163194022Y-66327815D01*
X163372365Y-66198242D01*
X163389616Y-66180990D01*
X163450936Y-66147505D01*
X163520628Y-66152488D01*
X163576562Y-66194358D01*
X163600981Y-66259822D01*
X163599773Y-66288054D01*
X163599500Y-66289779D01*
X163599500Y-66510221D01*
X163633985Y-66727952D01*
X163702103Y-66937603D01*
X163702104Y-66937606D01*
X163802187Y-67134025D01*
X163931752Y-67312358D01*
X163931756Y-67312363D01*
X164087636Y-67468243D01*
X164087641Y-67468247D01*
X164230903Y-67572332D01*
X164265978Y-67597815D01*
X164394375Y-67663237D01*
X164462393Y-67697895D01*
X164462396Y-67697896D01*
X164561845Y-67730208D01*
X164672049Y-67766015D01*
X164889778Y-67800500D01*
X164889779Y-67800500D01*
X165110221Y-67800500D01*
X165110222Y-67800500D01*
X165327951Y-67766015D01*
X165537606Y-67697895D01*
X165734022Y-67597815D01*
X165912365Y-67468242D01*
X166068242Y-67312365D01*
X166197815Y-67134022D01*
X166297895Y-66937606D01*
X166366015Y-66727951D01*
X166400500Y-66510222D01*
X166400500Y-66289778D01*
X166366015Y-66072049D01*
X166297895Y-65862394D01*
X166297895Y-65862393D01*
X166249280Y-65766983D01*
X166197815Y-65665978D01*
X166117150Y-65554951D01*
X166068247Y-65487641D01*
X166068243Y-65487636D01*
X165912363Y-65331756D01*
X165912358Y-65331752D01*
X165734025Y-65202187D01*
X165734024Y-65202186D01*
X165734022Y-65202185D01*
X165671096Y-65170122D01*
X165537606Y-65102104D01*
X165537603Y-65102103D01*
X165327952Y-65033985D01*
X165219086Y-65016742D01*
X165110222Y-64999500D01*
X164889778Y-64999500D01*
X164817201Y-65010995D01*
X164672047Y-65033985D01*
X164462396Y-65102103D01*
X164462393Y-65102104D01*
X164265974Y-65202187D01*
X164087641Y-65331752D01*
X164087635Y-65331757D01*
X164070381Y-65349011D01*
X164009057Y-65382495D01*
X163939366Y-65377509D01*
X163883433Y-65335636D01*
X163859018Y-65270171D01*
X163860230Y-65241924D01*
X163860500Y-65240219D01*
X163860500Y-65019778D01*
X163843897Y-64914951D01*
X163826015Y-64802049D01*
X163757895Y-64592394D01*
X163757895Y-64592393D01*
X163723237Y-64524375D01*
X163657815Y-64395978D01*
X163641260Y-64373192D01*
X163528247Y-64217641D01*
X163528243Y-64217636D01*
X163372363Y-64061756D01*
X163372358Y-64061752D01*
X163194025Y-63932187D01*
X163194024Y-63932186D01*
X163194022Y-63932185D01*
X163131096Y-63900122D01*
X162997606Y-63832104D01*
X162997603Y-63832103D01*
X162787952Y-63763985D01*
X162679086Y-63746742D01*
X162570222Y-63729500D01*
X162349778Y-63729500D01*
X162277201Y-63740995D01*
X162132047Y-63763985D01*
X161922396Y-63832103D01*
X161922393Y-63832104D01*
X161725974Y-63932187D01*
X161547641Y-64061752D01*
X161547636Y-64061756D01*
X161391756Y-64217636D01*
X161391752Y-64217641D01*
X161262187Y-64395974D01*
X161162104Y-64592393D01*
X161162103Y-64592396D01*
X161093985Y-64802047D01*
X161059500Y-65019778D01*
X161059500Y-65240227D01*
X161080914Y-65375429D01*
X161071959Y-65444722D01*
X161046123Y-65482507D01*
X161002182Y-65526449D01*
X160940859Y-65559935D01*
X160871168Y-65554951D01*
X160815234Y-65513081D01*
X160790816Y-65447616D01*
X160790500Y-65438769D01*
X160790500Y-63227065D01*
X169474500Y-63227065D01*
X169474500Y-63472934D01*
X169496007Y-63636286D01*
X169506591Y-63716677D01*
X169570222Y-63954152D01*
X169570225Y-63954162D01*
X169614793Y-64061758D01*
X169664306Y-64181292D01*
X169787233Y-64394208D01*
X169787235Y-64394211D01*
X169787236Y-64394212D01*
X169936897Y-64589254D01*
X169936903Y-64589261D01*
X170110738Y-64763096D01*
X170110745Y-64763102D01*
X170161499Y-64802047D01*
X170305792Y-64912767D01*
X170518708Y-65035694D01*
X170745847Y-65129778D01*
X170983323Y-65193409D01*
X171227073Y-65225500D01*
X171227080Y-65225500D01*
X171472920Y-65225500D01*
X171472927Y-65225500D01*
X171716677Y-65193409D01*
X171954153Y-65129778D01*
X172181292Y-65035694D01*
X172394208Y-64912767D01*
X172589256Y-64763101D01*
X172763101Y-64589256D01*
X172912767Y-64394208D01*
X173035694Y-64181292D01*
X173129778Y-63954153D01*
X173193409Y-63716677D01*
X173225500Y-63472927D01*
X173225500Y-63227073D01*
X173193409Y-62983323D01*
X173129778Y-62745847D01*
X173035694Y-62518708D01*
X172912767Y-62305792D01*
X172849581Y-62223446D01*
X172763102Y-62110745D01*
X172763096Y-62110738D01*
X172589261Y-61936903D01*
X172589254Y-61936897D01*
X172394212Y-61787236D01*
X172394211Y-61787235D01*
X172394208Y-61787233D01*
X172181292Y-61664306D01*
X172181285Y-61664303D01*
X171954162Y-61570225D01*
X171954155Y-61570223D01*
X171954153Y-61570222D01*
X171716677Y-61506591D01*
X171675939Y-61501227D01*
X171472934Y-61474500D01*
X171472927Y-61474500D01*
X171227073Y-61474500D01*
X171227065Y-61474500D01*
X170995059Y-61505045D01*
X170983323Y-61506591D01*
X170745847Y-61570222D01*
X170745837Y-61570225D01*
X170518714Y-61664303D01*
X170518705Y-61664307D01*
X170305787Y-61787236D01*
X170110745Y-61936897D01*
X170110738Y-61936903D01*
X169936903Y-62110738D01*
X169936897Y-62110745D01*
X169787236Y-62305787D01*
X169664307Y-62518705D01*
X169664303Y-62518714D01*
X169570225Y-62745837D01*
X169570222Y-62745847D01*
X169525526Y-62912658D01*
X169506592Y-62983320D01*
X169506590Y-62983331D01*
X169474500Y-63227065D01*
X160790500Y-63227065D01*
X160790500Y-58478711D01*
X169399500Y-58478711D01*
X169399500Y-58721288D01*
X169431161Y-58961785D01*
X169493947Y-59196104D01*
X169568689Y-59376547D01*
X169586776Y-59420212D01*
X169708064Y-59630289D01*
X169708066Y-59630292D01*
X169708067Y-59630293D01*
X169855733Y-59822736D01*
X169855739Y-59822743D01*
X170027256Y-59994260D01*
X170027263Y-59994266D01*
X170099246Y-60049500D01*
X170219711Y-60141936D01*
X170429788Y-60263224D01*
X170653900Y-60356054D01*
X170888211Y-60418838D01*
X171068586Y-60442584D01*
X171128711Y-60450500D01*
X171128712Y-60450500D01*
X171371289Y-60450500D01*
X171419388Y-60444167D01*
X171611789Y-60418838D01*
X171846100Y-60356054D01*
X172070212Y-60263224D01*
X172280289Y-60141936D01*
X172472738Y-59994265D01*
X172644265Y-59822738D01*
X172791936Y-59630289D01*
X172913224Y-59420212D01*
X173006054Y-59196100D01*
X173068838Y-58961789D01*
X173100500Y-58721288D01*
X173100500Y-58478712D01*
X173068838Y-58238211D01*
X173006054Y-58003900D01*
X172913224Y-57779788D01*
X172791936Y-57569711D01*
X172644265Y-57377262D01*
X172644260Y-57377256D01*
X172472743Y-57205739D01*
X172472736Y-57205733D01*
X172280293Y-57058067D01*
X172280292Y-57058066D01*
X172280289Y-57058064D01*
X172070212Y-56936776D01*
X172070205Y-56936773D01*
X171846104Y-56843947D01*
X171611785Y-56781161D01*
X171371289Y-56749500D01*
X171371288Y-56749500D01*
X171128712Y-56749500D01*
X171128711Y-56749500D01*
X170888214Y-56781161D01*
X170653895Y-56843947D01*
X170429794Y-56936773D01*
X170429785Y-56936777D01*
X170219706Y-57058067D01*
X170027263Y-57205733D01*
X170027256Y-57205739D01*
X169855739Y-57377256D01*
X169855733Y-57377263D01*
X169708067Y-57569706D01*
X169586777Y-57779785D01*
X169586773Y-57779794D01*
X169493947Y-58003895D01*
X169431161Y-58238214D01*
X169399500Y-58478711D01*
X160790500Y-58478711D01*
X160790500Y-55904596D01*
X160810185Y-55837557D01*
X160862989Y-55791802D01*
X160932147Y-55781858D01*
X160995703Y-55810883D01*
X161032431Y-55866279D01*
X161062102Y-55957600D01*
X161062104Y-55957606D01*
X161103696Y-56039232D01*
X161161148Y-56151987D01*
X161162187Y-56154025D01*
X161291752Y-56332358D01*
X161291756Y-56332363D01*
X161447636Y-56488243D01*
X161447641Y-56488247D01*
X161579581Y-56584106D01*
X161625978Y-56617815D01*
X161693050Y-56651990D01*
X161822393Y-56717895D01*
X161822396Y-56717896D01*
X161919666Y-56749500D01*
X162032049Y-56786015D01*
X162249778Y-56820500D01*
X162249779Y-56820500D01*
X162470221Y-56820500D01*
X162470222Y-56820500D01*
X162687951Y-56786015D01*
X162897606Y-56717895D01*
X163094022Y-56617815D01*
X163272365Y-56488242D01*
X163428242Y-56332365D01*
X163557815Y-56154022D01*
X163657895Y-55957606D01*
X163726015Y-55747951D01*
X163760500Y-55530222D01*
X163760500Y-55309778D01*
X163760229Y-55308069D01*
X163760313Y-55307414D01*
X163760118Y-55304927D01*
X163760640Y-55304885D01*
X163769182Y-55238778D01*
X163814177Y-55185325D01*
X163880928Y-55164684D01*
X163948242Y-55183407D01*
X163970383Y-55200990D01*
X163987636Y-55218243D01*
X163987641Y-55218247D01*
X164106947Y-55304927D01*
X164165978Y-55347815D01*
X164294375Y-55413237D01*
X164362393Y-55447895D01*
X164362396Y-55447896D01*
X164467221Y-55481955D01*
X164572049Y-55516015D01*
X164789778Y-55550500D01*
X164789779Y-55550500D01*
X165010221Y-55550500D01*
X165010222Y-55550500D01*
X165227951Y-55516015D01*
X165437606Y-55447895D01*
X165634022Y-55347815D01*
X165812365Y-55218242D01*
X165968242Y-55062365D01*
X166097815Y-54884022D01*
X166197895Y-54687606D01*
X166266015Y-54477951D01*
X166300500Y-54260222D01*
X166300500Y-54039778D01*
X166266015Y-53822049D01*
X166210174Y-53650185D01*
X166197896Y-53612396D01*
X166197895Y-53612393D01*
X166121749Y-53462951D01*
X166097815Y-53415978D01*
X166081260Y-53393192D01*
X165968247Y-53237641D01*
X165968243Y-53237636D01*
X165812363Y-53081756D01*
X165812358Y-53081752D01*
X165634025Y-52952187D01*
X165634024Y-52952186D01*
X165634022Y-52952185D01*
X165571096Y-52920122D01*
X165437606Y-52852104D01*
X165437603Y-52852103D01*
X165227952Y-52783985D01*
X165119086Y-52766742D01*
X165010222Y-52749500D01*
X164789778Y-52749500D01*
X164717201Y-52760995D01*
X164572047Y-52783985D01*
X164362396Y-52852103D01*
X164362393Y-52852104D01*
X164165974Y-52952187D01*
X163987641Y-53081752D01*
X163987635Y-53081757D01*
X163970381Y-53099011D01*
X163909057Y-53132495D01*
X163839366Y-53127509D01*
X163783433Y-53085636D01*
X163759018Y-53020171D01*
X163760230Y-52991924D01*
X163760500Y-52990219D01*
X163760500Y-52769778D01*
X163757288Y-52749500D01*
X163726015Y-52552049D01*
X163657895Y-52342394D01*
X163657895Y-52342393D01*
X163604795Y-52238181D01*
X163557815Y-52145978D01*
X163521988Y-52096666D01*
X163428247Y-51967641D01*
X163428243Y-51967636D01*
X163272363Y-51811756D01*
X163272358Y-51811752D01*
X163094025Y-51682187D01*
X163094024Y-51682186D01*
X163094022Y-51682185D01*
X162982771Y-51625499D01*
X162897606Y-51582104D01*
X162897603Y-51582103D01*
X162687952Y-51513985D01*
X162579086Y-51496742D01*
X162470222Y-51479500D01*
X162249778Y-51479500D01*
X162177201Y-51490995D01*
X162032047Y-51513985D01*
X161822396Y-51582103D01*
X161822393Y-51582104D01*
X161625974Y-51682187D01*
X161447641Y-51811752D01*
X161447636Y-51811756D01*
X161291754Y-51967638D01*
X161211295Y-52078384D01*
X161155965Y-52121051D01*
X161110976Y-52129500D01*
X159132229Y-52129500D01*
X159065190Y-52109815D01*
X159044548Y-52093181D01*
X157928432Y-50977065D01*
X169374500Y-50977065D01*
X169374500Y-51222934D01*
X169401227Y-51425939D01*
X169406591Y-51466677D01*
X169470222Y-51704152D01*
X169470225Y-51704162D01*
X169514793Y-51811758D01*
X169564306Y-51931292D01*
X169687233Y-52144208D01*
X169687235Y-52144211D01*
X169687236Y-52144212D01*
X169836897Y-52339254D01*
X169836903Y-52339261D01*
X170010738Y-52513096D01*
X170010745Y-52513102D01*
X170125335Y-52601030D01*
X170205792Y-52662767D01*
X170418708Y-52785694D01*
X170645847Y-52879778D01*
X170883323Y-52943409D01*
X171127073Y-52975500D01*
X171127080Y-52975500D01*
X171372920Y-52975500D01*
X171372927Y-52975500D01*
X171616677Y-52943409D01*
X171854153Y-52879778D01*
X172081292Y-52785694D01*
X172294208Y-52662767D01*
X172489256Y-52513101D01*
X172663101Y-52339256D01*
X172812767Y-52144208D01*
X172935694Y-51931292D01*
X173029778Y-51704153D01*
X173093409Y-51466677D01*
X173125500Y-51222927D01*
X173125500Y-50977073D01*
X173093409Y-50733323D01*
X173029778Y-50495847D01*
X172935694Y-50268708D01*
X172812767Y-50055792D01*
X172663101Y-49860744D01*
X172663096Y-49860738D01*
X172489261Y-49686903D01*
X172489254Y-49686897D01*
X172294212Y-49537236D01*
X172294211Y-49537235D01*
X172294208Y-49537233D01*
X172081292Y-49414306D01*
X172081285Y-49414303D01*
X171854162Y-49320225D01*
X171854155Y-49320223D01*
X171854153Y-49320222D01*
X171616677Y-49256591D01*
X171575939Y-49251227D01*
X171372934Y-49224500D01*
X171372927Y-49224500D01*
X171127073Y-49224500D01*
X171127065Y-49224500D01*
X170895059Y-49255045D01*
X170883323Y-49256591D01*
X170645847Y-49320222D01*
X170645837Y-49320225D01*
X170418714Y-49414303D01*
X170418705Y-49414307D01*
X170205787Y-49537236D01*
X170010745Y-49686897D01*
X170010738Y-49686903D01*
X169836903Y-49860738D01*
X169836897Y-49860745D01*
X169687236Y-50055787D01*
X169564307Y-50268705D01*
X169564303Y-50268714D01*
X169470225Y-50495837D01*
X169470222Y-50495847D01*
X169406592Y-50733320D01*
X169406590Y-50733331D01*
X169374500Y-50977065D01*
X157928432Y-50977065D01*
X157189548Y-50238181D01*
X155439702Y-48488334D01*
X155406219Y-48427014D01*
X155411203Y-48357322D01*
X155453075Y-48301389D01*
X155507986Y-48278183D01*
X155647951Y-48256015D01*
X155857606Y-48187895D01*
X156054022Y-48087815D01*
X156232365Y-47958242D01*
X156388242Y-47802365D01*
X156517815Y-47624022D01*
X156617895Y-47427606D01*
X156686015Y-47217951D01*
X156720500Y-47000222D01*
X156720500Y-46779778D01*
X156686015Y-46562049D01*
X156625743Y-46376547D01*
X156617896Y-46352396D01*
X156617895Y-46352393D01*
X156575897Y-46269969D01*
X156517815Y-46155978D01*
X156489681Y-46117254D01*
X156388247Y-45977641D01*
X156388243Y-45977636D01*
X156232363Y-45821756D01*
X156232358Y-45821752D01*
X156054025Y-45692187D01*
X156054024Y-45692186D01*
X156054022Y-45692185D01*
X155967099Y-45647895D01*
X155857606Y-45592104D01*
X155857603Y-45592103D01*
X155647952Y-45523985D01*
X155539086Y-45506742D01*
X155430222Y-45489500D01*
X155209778Y-45489500D01*
X155208597Y-45489687D01*
X155208061Y-45489772D01*
X155208054Y-45489773D01*
X155207394Y-45489687D01*
X155204927Y-45489882D01*
X155204886Y-45489363D01*
X155138761Y-45480809D01*
X155085315Y-45435806D01*
X155064683Y-45369052D01*
X155083417Y-45301741D01*
X155100988Y-45279618D01*
X155118242Y-45262365D01*
X155247815Y-45084022D01*
X155347895Y-44887606D01*
X155416015Y-44677951D01*
X155450500Y-44460222D01*
X155450500Y-44239778D01*
X155416015Y-44022049D01*
X155347895Y-43812394D01*
X155347895Y-43812393D01*
X155313237Y-43744375D01*
X155247815Y-43615978D01*
X155231260Y-43593192D01*
X155118247Y-43437641D01*
X155118243Y-43437636D01*
X154962363Y-43281756D01*
X154962358Y-43281752D01*
X154784025Y-43152187D01*
X154784024Y-43152186D01*
X154784022Y-43152185D01*
X154721096Y-43120122D01*
X154587606Y-43052104D01*
X154587603Y-43052103D01*
X154377952Y-42983985D01*
X154269086Y-42966742D01*
X154160222Y-42949500D01*
X153939778Y-42949500D01*
X153867201Y-42960995D01*
X153722047Y-42983985D01*
X153512396Y-43052103D01*
X153512393Y-43052104D01*
X153315974Y-43152187D01*
X153137641Y-43281752D01*
X153137636Y-43281756D01*
X152981756Y-43437636D01*
X152981752Y-43437641D01*
X152852187Y-43615974D01*
X152752104Y-43812393D01*
X152752103Y-43812396D01*
X152683985Y-44022047D01*
X152649500Y-44239778D01*
X152649500Y-44460221D01*
X152683985Y-44677952D01*
X152752103Y-44887603D01*
X152752104Y-44887606D01*
X152852187Y-45084025D01*
X152981752Y-45262358D01*
X152981756Y-45262363D01*
X152999009Y-45279616D01*
X153032494Y-45340939D01*
X153027510Y-45410631D01*
X152985638Y-45466564D01*
X152920174Y-45490981D01*
X152891942Y-45489772D01*
X152890224Y-45489500D01*
X152890222Y-45489500D01*
X152669778Y-45489500D01*
X152597201Y-45500995D01*
X152452047Y-45523985D01*
X152242396Y-45592103D01*
X152242393Y-45592104D01*
X152045974Y-45692187D01*
X151867641Y-45821752D01*
X151867636Y-45821756D01*
X151711754Y-45977638D01*
X151631295Y-46088384D01*
X151575965Y-46131051D01*
X151530976Y-46139500D01*
X107826076Y-46139500D01*
X107797242Y-46145234D01*
X107797243Y-46145235D01*
X107681093Y-46168339D01*
X107681083Y-46168342D01*
X107601081Y-46201479D01*
X107601082Y-46201480D01*
X107544506Y-46224915D01*
X107544503Y-46224917D01*
X107530945Y-46233976D01*
X107477078Y-46269969D01*
X107435655Y-46297647D01*
X107421585Y-46307048D01*
X107187806Y-46540824D01*
X107126482Y-46574308D01*
X107124318Y-46574759D01*
X107077338Y-46584104D01*
X107077331Y-46584106D01*
X106913459Y-46651983D01*
X106913446Y-46651990D01*
X106765965Y-46750535D01*
X106765961Y-46750538D01*
X106640538Y-46875961D01*
X106640535Y-46875965D01*
X106541990Y-47023446D01*
X106541983Y-47023459D01*
X106474106Y-47187332D01*
X106474103Y-47187341D01*
X106439500Y-47361304D01*
X106439500Y-47538695D01*
X106474103Y-47712658D01*
X106474106Y-47712667D01*
X106541983Y-47876540D01*
X106541990Y-47876553D01*
X106640535Y-48024034D01*
X106640538Y-48024038D01*
X106765961Y-48149461D01*
X106765965Y-48149464D01*
X106913446Y-48248009D01*
X106913459Y-48248016D01*
X107016027Y-48290500D01*
X107077334Y-48315894D01*
X107077336Y-48315894D01*
X107077341Y-48315896D01*
X107251304Y-48350499D01*
X107251307Y-48350500D01*
X107251309Y-48350500D01*
X107428693Y-48350500D01*
X107428694Y-48350499D01*
X107486682Y-48338964D01*
X107602658Y-48315896D01*
X107602661Y-48315894D01*
X107602666Y-48315894D01*
X107766547Y-48248013D01*
X107914035Y-48149464D01*
X108039464Y-48024035D01*
X108138013Y-47876547D01*
X108204079Y-47717048D01*
X108247919Y-47662644D01*
X108314213Y-47640579D01*
X108318640Y-47640500D01*
X151530976Y-47640500D01*
X151598015Y-47660185D01*
X151631294Y-47691615D01*
X151646588Y-47712666D01*
X151711754Y-47802361D01*
X151867636Y-47958243D01*
X151867641Y-47958247D01*
X151958196Y-48024038D01*
X152045978Y-48087815D01*
X152166964Y-48149461D01*
X152242393Y-48187895D01*
X152242396Y-48187896D01*
X152347221Y-48221955D01*
X152452049Y-48256015D01*
X152669778Y-48290500D01*
X152669779Y-48290500D01*
X152890220Y-48290500D01*
X152890222Y-48290500D01*
X153025431Y-48269084D01*
X153094722Y-48278038D01*
X153132508Y-48303876D01*
X158291580Y-53462948D01*
X158291584Y-53462951D01*
X158414498Y-53545080D01*
X158414511Y-53545087D01*
X158545976Y-53599541D01*
X158551087Y-53601658D01*
X158551091Y-53601658D01*
X158551092Y-53601659D01*
X158696079Y-53630500D01*
X158696082Y-53630500D01*
X158843917Y-53630500D01*
X160248770Y-53630500D01*
X160315809Y-53650185D01*
X160361564Y-53702989D01*
X160371508Y-53772147D01*
X160342483Y-53835703D01*
X160336451Y-53842181D01*
X159457052Y-54721578D01*
X159457049Y-54721581D01*
X159408600Y-54794090D01*
X159408601Y-54794091D01*
X159374918Y-54844501D01*
X159374914Y-54844508D01*
X159318342Y-54981086D01*
X159318340Y-54981092D01*
X159289500Y-55126079D01*
X159289500Y-116287770D01*
X159269815Y-116354809D01*
X159253181Y-116375451D01*
X154067049Y-121561582D01*
X154041686Y-121599542D01*
X154011720Y-121644390D01*
X153958108Y-121689195D01*
X153908617Y-121699500D01*
X146356080Y-121699500D01*
X146211092Y-121728340D01*
X146211082Y-121728343D01*
X146074509Y-121784913D01*
X146042870Y-121806054D01*
X145951579Y-121867051D01*
X145951578Y-121867052D01*
X145361584Y-122457048D01*
X144712508Y-123106122D01*
X144651185Y-123139607D01*
X144605429Y-123140914D01*
X144470227Y-123119500D01*
X144470222Y-123119500D01*
X144249778Y-123119500D01*
X144177201Y-123130995D01*
X144032047Y-123153985D01*
X143822396Y-123222103D01*
X143822393Y-123222104D01*
X143625974Y-123322187D01*
X143447641Y-123451752D01*
X143447636Y-123451756D01*
X143291756Y-123607636D01*
X143291752Y-123607641D01*
X143162187Y-123785974D01*
X143062104Y-123982393D01*
X143062103Y-123982396D01*
X142993985Y-124192047D01*
X142959500Y-124409778D01*
X142959500Y-124630221D01*
X142993985Y-124847952D01*
X143062103Y-125057603D01*
X143062104Y-125057606D01*
X143117694Y-125166705D01*
X143157129Y-125244100D01*
X143162187Y-125254025D01*
X143291752Y-125432358D01*
X143291756Y-125432363D01*
X143309009Y-125449616D01*
X143342494Y-125510939D01*
X143337510Y-125580631D01*
X143295638Y-125636564D01*
X143230174Y-125660981D01*
X143201942Y-125659772D01*
X143200224Y-125659500D01*
X143200222Y-125659500D01*
X142979778Y-125659500D01*
X142907201Y-125670995D01*
X142762047Y-125693985D01*
X142552396Y-125762103D01*
X142552393Y-125762104D01*
X142355974Y-125862187D01*
X142177641Y-125991752D01*
X142177636Y-125991756D01*
X142021758Y-126147635D01*
X142021752Y-126147641D01*
X141892187Y-126325974D01*
X141792104Y-126522393D01*
X141792103Y-126522396D01*
X141723985Y-126732047D01*
X141689500Y-126949778D01*
X141689500Y-127170221D01*
X141723985Y-127387952D01*
X141792103Y-127597603D01*
X141792104Y-127597606D01*
X141836138Y-127684025D01*
X141890552Y-127790818D01*
X141892187Y-127794025D01*
X142021752Y-127972358D01*
X142021756Y-127972363D01*
X142037212Y-127987819D01*
X142070697Y-128049142D01*
X142065713Y-128118834D01*
X142023841Y-128174767D01*
X141958377Y-128199184D01*
X141949531Y-128199500D01*
X131730469Y-128199500D01*
X131663430Y-128179815D01*
X131617675Y-128127011D01*
X131607731Y-128057853D01*
X131636756Y-127994297D01*
X131642788Y-127987819D01*
X131658242Y-127972365D01*
X131672466Y-127952786D01*
X131790679Y-127790081D01*
X131791694Y-127790818D01*
X131839206Y-127747834D01*
X131893121Y-127735500D01*
X131929324Y-127735500D01*
X131929325Y-127735499D01*
X132059828Y-127709541D01*
X132182761Y-127658620D01*
X132293398Y-127584695D01*
X134364695Y-125513398D01*
X134393358Y-125470500D01*
X134438620Y-125402761D01*
X134489540Y-125279828D01*
X134509724Y-125178361D01*
X134515500Y-125149325D01*
X134515500Y-123883466D01*
X134500595Y-123808538D01*
X134500595Y-123808537D01*
X134489541Y-123752964D01*
X134438620Y-123630031D01*
X134438618Y-123630028D01*
X134438616Y-123630024D01*
X134364695Y-123519394D01*
X134364692Y-123519390D01*
X111270609Y-100425307D01*
X111270605Y-100425304D01*
X111159975Y-100351383D01*
X111159965Y-100351378D01*
X111037036Y-100300459D01*
X111037028Y-100300457D01*
X110906535Y-100274500D01*
X110906531Y-100274500D01*
X95171163Y-100274500D01*
X95104124Y-100254815D01*
X95083482Y-100238181D01*
X94682482Y-99837181D01*
X94648997Y-99775858D01*
X94653981Y-99706166D01*
X94695853Y-99650233D01*
X94761317Y-99625816D01*
X94770163Y-99625500D01*
X120817485Y-99625500D01*
X120884524Y-99645185D01*
X120886376Y-99646398D01*
X121038446Y-99748009D01*
X121038459Y-99748016D01*
X121161363Y-99798923D01*
X121202334Y-99815894D01*
X121202336Y-99815894D01*
X121202341Y-99815896D01*
X121376304Y-99850499D01*
X121376307Y-99850500D01*
X121376309Y-99850500D01*
X121553693Y-99850500D01*
X121553694Y-99850499D01*
X121620650Y-99837181D01*
X121727658Y-99815896D01*
X121727661Y-99815894D01*
X121727666Y-99815894D01*
X121891547Y-99748013D01*
X122039035Y-99649464D01*
X122164464Y-99524035D01*
X122263013Y-99376547D01*
X122330894Y-99212666D01*
X122334196Y-99196070D01*
X122365499Y-99038695D01*
X122365500Y-99038693D01*
X122365500Y-98861306D01*
X122365499Y-98861304D01*
X122330896Y-98687341D01*
X122330893Y-98687332D01*
X122328337Y-98681162D01*
X122313923Y-98646363D01*
X122263016Y-98523459D01*
X122263009Y-98523446D01*
X122164464Y-98375965D01*
X122164461Y-98375961D01*
X122039038Y-98250538D01*
X122039034Y-98250535D01*
X121891553Y-98151990D01*
X121891540Y-98151983D01*
X121727667Y-98084106D01*
X121727658Y-98084103D01*
X121553694Y-98049500D01*
X121553691Y-98049500D01*
X121376309Y-98049500D01*
X121376306Y-98049500D01*
X121202341Y-98084103D01*
X121202332Y-98084106D01*
X121038459Y-98151983D01*
X121038446Y-98151990D01*
X120886376Y-98253602D01*
X120819699Y-98274480D01*
X120817485Y-98274500D01*
X94171163Y-98274500D01*
X94104124Y-98254815D01*
X94083482Y-98238181D01*
X93682482Y-97837181D01*
X93648997Y-97775858D01*
X93653981Y-97706166D01*
X93695853Y-97650233D01*
X93761317Y-97625816D01*
X93770163Y-97625500D01*
X137492485Y-97625500D01*
X137559524Y-97645185D01*
X137561376Y-97646398D01*
X137713446Y-97748009D01*
X137713459Y-97748016D01*
X137836363Y-97798923D01*
X137877334Y-97815894D01*
X137877336Y-97815894D01*
X137877341Y-97815896D01*
X138051304Y-97850499D01*
X138051307Y-97850500D01*
X138051309Y-97850500D01*
X138228693Y-97850500D01*
X138228694Y-97850499D01*
X138295650Y-97837181D01*
X138402658Y-97815896D01*
X138402661Y-97815894D01*
X138402666Y-97815894D01*
X138566547Y-97748013D01*
X138714035Y-97649464D01*
X138839464Y-97524035D01*
X138938013Y-97376547D01*
X139005894Y-97212666D01*
X139040500Y-97038691D01*
X139040500Y-96861309D01*
X139040500Y-96861306D01*
X139040499Y-96861304D01*
X139005896Y-96687341D01*
X139005893Y-96687332D01*
X138938016Y-96523459D01*
X138938009Y-96523446D01*
X138839464Y-96375965D01*
X138839461Y-96375961D01*
X138714038Y-96250538D01*
X138714034Y-96250535D01*
X138566553Y-96151990D01*
X138566540Y-96151983D01*
X138402667Y-96084106D01*
X138402658Y-96084103D01*
X138228694Y-96049500D01*
X138228691Y-96049500D01*
X138051309Y-96049500D01*
X138051306Y-96049500D01*
X137877341Y-96084103D01*
X137877332Y-96084106D01*
X137713459Y-96151983D01*
X137713446Y-96151990D01*
X137561376Y-96253602D01*
X137494699Y-96274480D01*
X137492485Y-96274500D01*
X93171163Y-96274500D01*
X93104124Y-96254815D01*
X93083482Y-96238181D01*
X92682482Y-95837181D01*
X92648997Y-95775858D01*
X92653981Y-95706166D01*
X92695853Y-95650233D01*
X92761317Y-95625816D01*
X92770163Y-95625500D01*
X149692485Y-95625500D01*
X149759524Y-95645185D01*
X149761376Y-95646398D01*
X149913446Y-95748009D01*
X149913459Y-95748016D01*
X150036363Y-95798923D01*
X150077334Y-95815894D01*
X150077336Y-95815894D01*
X150077341Y-95815896D01*
X150251304Y-95850499D01*
X150251307Y-95850500D01*
X150251309Y-95850500D01*
X150428693Y-95850500D01*
X150428694Y-95850499D01*
X150495650Y-95837181D01*
X150602658Y-95815896D01*
X150602661Y-95815894D01*
X150602666Y-95815894D01*
X150766547Y-95748013D01*
X150914035Y-95649464D01*
X151039464Y-95524035D01*
X151138013Y-95376547D01*
X151205894Y-95212666D01*
X151240500Y-95038691D01*
X151240500Y-94861309D01*
X151240500Y-94861306D01*
X151240499Y-94861304D01*
X151205896Y-94687341D01*
X151205893Y-94687332D01*
X151138016Y-94523459D01*
X151138009Y-94523446D01*
X151039464Y-94375965D01*
X151039461Y-94375961D01*
X150914038Y-94250538D01*
X150914034Y-94250535D01*
X150766553Y-94151990D01*
X150766540Y-94151983D01*
X150602667Y-94084106D01*
X150602658Y-94084103D01*
X150539882Y-94071617D01*
X150477971Y-94039232D01*
X150443397Y-93978517D01*
X150447136Y-93908747D01*
X150488003Y-93852075D01*
X150539882Y-93828383D01*
X150602658Y-93815896D01*
X150602661Y-93815894D01*
X150602666Y-93815894D01*
X150766547Y-93748013D01*
X150914035Y-93649464D01*
X150969553Y-93593946D01*
X151039463Y-93524037D01*
X151039464Y-93524035D01*
X151138013Y-93376547D01*
X151205894Y-93212666D01*
X151240500Y-93038691D01*
X151240500Y-92861309D01*
X151240500Y-92861306D01*
X151240499Y-92861304D01*
X151205896Y-92687341D01*
X151205893Y-92687332D01*
X151138016Y-92523459D01*
X151138009Y-92523446D01*
X151039464Y-92375965D01*
X151039461Y-92375961D01*
X150914038Y-92250538D01*
X150914034Y-92250535D01*
X150766553Y-92151990D01*
X150766540Y-92151983D01*
X150602667Y-92084106D01*
X150602658Y-92084103D01*
X150428694Y-92049500D01*
X150428691Y-92049500D01*
X150251309Y-92049500D01*
X150251306Y-92049500D01*
X150077341Y-92084103D01*
X150077332Y-92084106D01*
X149913459Y-92151983D01*
X149913446Y-92151990D01*
X149761376Y-92253602D01*
X149694699Y-92274480D01*
X149692485Y-92274500D01*
X91171163Y-92274500D01*
X91104124Y-92254815D01*
X91083482Y-92238181D01*
X89811819Y-90966518D01*
X89778334Y-90905195D01*
X89775500Y-90878837D01*
X89775500Y-82191710D01*
X89795185Y-82124671D01*
X89826612Y-82091394D01*
X89979792Y-81980104D01*
X90130104Y-81829792D01*
X90130106Y-81829788D01*
X90130109Y-81829786D01*
X90255048Y-81657820D01*
X90255047Y-81657820D01*
X90255051Y-81657816D01*
X90259514Y-81649054D01*
X90307488Y-81598259D01*
X90375308Y-81581463D01*
X90441444Y-81603999D01*
X90480486Y-81649056D01*
X90484951Y-81657820D01*
X90609890Y-81829786D01*
X90760213Y-81980109D01*
X90932179Y-82105048D01*
X90932181Y-82105049D01*
X90932184Y-82105051D01*
X91121588Y-82201557D01*
X91323757Y-82267246D01*
X91533713Y-82300500D01*
X91533714Y-82300500D01*
X91746286Y-82300500D01*
X91746287Y-82300500D01*
X91933293Y-82270881D01*
X92002587Y-82279836D01*
X92040372Y-82305673D01*
X99115305Y-89380606D01*
X99209394Y-89474695D01*
X99209397Y-89474697D01*
X99209398Y-89474698D01*
X99320020Y-89548613D01*
X99320023Y-89548614D01*
X99320031Y-89548620D01*
X99442964Y-89599540D01*
X99442968Y-89599540D01*
X99442969Y-89599541D01*
X99573466Y-89625500D01*
X99573469Y-89625500D01*
X149692485Y-89625500D01*
X149759524Y-89645185D01*
X149761376Y-89646398D01*
X149913446Y-89748009D01*
X149913459Y-89748016D01*
X150036363Y-89798923D01*
X150077334Y-89815894D01*
X150077336Y-89815894D01*
X150077341Y-89815896D01*
X150251304Y-89850499D01*
X150251307Y-89850500D01*
X150251309Y-89850500D01*
X150428693Y-89850500D01*
X150428694Y-89850499D01*
X150522923Y-89831756D01*
X150602658Y-89815896D01*
X150602661Y-89815894D01*
X150602666Y-89815894D01*
X150766547Y-89748013D01*
X150914035Y-89649464D01*
X151039464Y-89524035D01*
X151138013Y-89376547D01*
X151205894Y-89212666D01*
X151240500Y-89038691D01*
X151240500Y-88861309D01*
X151240500Y-88861306D01*
X151240499Y-88861304D01*
X151205896Y-88687341D01*
X151205893Y-88687332D01*
X151138016Y-88523459D01*
X151138009Y-88523446D01*
X151039464Y-88375965D01*
X151039461Y-88375961D01*
X150914038Y-88250538D01*
X150914034Y-88250535D01*
X150766553Y-88151990D01*
X150766540Y-88151983D01*
X150602667Y-88084106D01*
X150602658Y-88084103D01*
X150539882Y-88071617D01*
X150477971Y-88039232D01*
X150443397Y-87978517D01*
X150447136Y-87908747D01*
X150488003Y-87852075D01*
X150539882Y-87828383D01*
X150602658Y-87815896D01*
X150602661Y-87815894D01*
X150602666Y-87815894D01*
X150766547Y-87748013D01*
X150914035Y-87649464D01*
X151039464Y-87524035D01*
X151138013Y-87376547D01*
X151205894Y-87212666D01*
X151240500Y-87038691D01*
X151240500Y-86861309D01*
X151240500Y-86861306D01*
X151240499Y-86861304D01*
X151205896Y-86687341D01*
X151205893Y-86687332D01*
X151138016Y-86523459D01*
X151138009Y-86523446D01*
X151039464Y-86375965D01*
X151039461Y-86375961D01*
X150914038Y-86250538D01*
X150914034Y-86250535D01*
X150766553Y-86151990D01*
X150766540Y-86151983D01*
X150602667Y-86084106D01*
X150602658Y-86084103D01*
X150428694Y-86049500D01*
X150428691Y-86049500D01*
X150251309Y-86049500D01*
X150251306Y-86049500D01*
X150077341Y-86084103D01*
X150077332Y-86084106D01*
X149913459Y-86151983D01*
X149913446Y-86151990D01*
X149761376Y-86253602D01*
X149694699Y-86274480D01*
X149692485Y-86274500D01*
X100511163Y-86274500D01*
X100444124Y-86254815D01*
X100423482Y-86238181D01*
X96697482Y-82512181D01*
X96690509Y-82499411D01*
X96679682Y-82489690D01*
X96674099Y-82469359D01*
X96663997Y-82450858D01*
X96665034Y-82436345D01*
X96661182Y-82422314D01*
X96667477Y-82402194D01*
X96668981Y-82381166D01*
X96677701Y-82369517D01*
X96682046Y-82355632D01*
X96698218Y-82342109D01*
X96710853Y-82325233D01*
X96725461Y-82319332D01*
X96735648Y-82310815D01*
X96758154Y-82306126D01*
X96769682Y-82301470D01*
X96777391Y-82300500D01*
X96826287Y-82300500D01*
X97015261Y-82270569D01*
X97017210Y-82270324D01*
X97049838Y-82275603D01*
X97082587Y-82279836D01*
X97084631Y-82281233D01*
X97086183Y-82281485D01*
X97089966Y-82284881D01*
X97120372Y-82305673D01*
X99195305Y-84380606D01*
X99289394Y-84474695D01*
X99289397Y-84474697D01*
X99289398Y-84474698D01*
X99400020Y-84548613D01*
X99400024Y-84548615D01*
X99400031Y-84548620D01*
X99436037Y-84563534D01*
X99522964Y-84599541D01*
X99653464Y-84625499D01*
X99653468Y-84625500D01*
X99653469Y-84625500D01*
X130906532Y-84625500D01*
X130906533Y-84625499D01*
X131037036Y-84599541D01*
X131159969Y-84548620D01*
X131270606Y-84474695D01*
X139883482Y-75861819D01*
X139944805Y-75828334D01*
X139971163Y-75825500D01*
X149692485Y-75825500D01*
X149759524Y-75845185D01*
X149761376Y-75846398D01*
X149913446Y-75948009D01*
X149913459Y-75948016D01*
X149989470Y-75979500D01*
X150077334Y-76015894D01*
X150077336Y-76015894D01*
X150077341Y-76015896D01*
X150251304Y-76050499D01*
X150251307Y-76050500D01*
X150251309Y-76050500D01*
X150428693Y-76050500D01*
X150428694Y-76050499D01*
X150486682Y-76038964D01*
X150602658Y-76015896D01*
X150602661Y-76015894D01*
X150602666Y-76015894D01*
X150766547Y-75948013D01*
X150914035Y-75849464D01*
X151039464Y-75724035D01*
X151138013Y-75576547D01*
X151205894Y-75412666D01*
X151240500Y-75238691D01*
X151240500Y-75061309D01*
X151240500Y-75061306D01*
X151240499Y-75061304D01*
X151205896Y-74887341D01*
X151205893Y-74887332D01*
X151138016Y-74723459D01*
X151138009Y-74723446D01*
X151039464Y-74575965D01*
X151039461Y-74575961D01*
X150914038Y-74450538D01*
X150914034Y-74450535D01*
X150766553Y-74351990D01*
X150766540Y-74351983D01*
X150602667Y-74284106D01*
X150602658Y-74284103D01*
X150428694Y-74249500D01*
X150428691Y-74249500D01*
X150251309Y-74249500D01*
X150251306Y-74249500D01*
X150077341Y-74284103D01*
X150077332Y-74284106D01*
X149913459Y-74351983D01*
X149913446Y-74351990D01*
X149761376Y-74453602D01*
X149694699Y-74474480D01*
X149692485Y-74474500D01*
X139770162Y-74474500D01*
X139703123Y-74454815D01*
X139657368Y-74402011D01*
X139647424Y-74332853D01*
X139676449Y-74269297D01*
X139682481Y-74262819D01*
X144914139Y-69031161D01*
X150359789Y-63585511D01*
X150421110Y-63552028D01*
X150423277Y-63551577D01*
X150602658Y-63515896D01*
X150602661Y-63515894D01*
X150602666Y-63515894D01*
X150766547Y-63448013D01*
X150914035Y-63349464D01*
X151039464Y-63224035D01*
X151138013Y-63076547D01*
X151205894Y-62912666D01*
X151240500Y-62738691D01*
X151240500Y-62561309D01*
X151240500Y-62561306D01*
X151240499Y-62561304D01*
X151205896Y-62387341D01*
X151205893Y-62387332D01*
X151198914Y-62370484D01*
X151172119Y-62305792D01*
X151138016Y-62223459D01*
X151138009Y-62223446D01*
X151039464Y-62075965D01*
X151039461Y-62075961D01*
X150914038Y-61950538D01*
X150914034Y-61950535D01*
X150843046Y-61903102D01*
X150798241Y-61849490D01*
X150789534Y-61780165D01*
X150819689Y-61717137D01*
X150843046Y-61696898D01*
X150891821Y-61664307D01*
X150914035Y-61649464D01*
X151039464Y-61524035D01*
X151138013Y-61376547D01*
X151205894Y-61212666D01*
X151240500Y-61038691D01*
X151240500Y-60861309D01*
X151240500Y-60861306D01*
X151240499Y-60861304D01*
X151205896Y-60687341D01*
X151205893Y-60687332D01*
X151200271Y-60673760D01*
X151156188Y-60567332D01*
X151138016Y-60523459D01*
X151138009Y-60523446D01*
X151039464Y-60375965D01*
X151039461Y-60375961D01*
X150914038Y-60250538D01*
X150914034Y-60250535D01*
X150766553Y-60151990D01*
X150766540Y-60151983D01*
X150602667Y-60084106D01*
X150602658Y-60084103D01*
X150539882Y-60071617D01*
X150477971Y-60039232D01*
X150443397Y-59978517D01*
X150447136Y-59908747D01*
X150488003Y-59852075D01*
X150539882Y-59828383D01*
X150602658Y-59815896D01*
X150602661Y-59815894D01*
X150602666Y-59815894D01*
X150766547Y-59748013D01*
X150914035Y-59649464D01*
X151039464Y-59524035D01*
X151138013Y-59376547D01*
X151205894Y-59212666D01*
X151209189Y-59196104D01*
X151240499Y-59038695D01*
X151240500Y-59038693D01*
X151240500Y-58861306D01*
X151240499Y-58861304D01*
X151205896Y-58687341D01*
X151205893Y-58687332D01*
X151138016Y-58523459D01*
X151138009Y-58523446D01*
X151039464Y-58375965D01*
X151039461Y-58375961D01*
X150914038Y-58250538D01*
X150914034Y-58250535D01*
X150766553Y-58151990D01*
X150766540Y-58151983D01*
X150602667Y-58084106D01*
X150602658Y-58084103D01*
X150539882Y-58071617D01*
X150477971Y-58039232D01*
X150443397Y-57978517D01*
X150447136Y-57908747D01*
X150488003Y-57852075D01*
X150539882Y-57828383D01*
X150602658Y-57815896D01*
X150602661Y-57815894D01*
X150602666Y-57815894D01*
X150766547Y-57748013D01*
X150914035Y-57649464D01*
X151039464Y-57524035D01*
X151138013Y-57376547D01*
X151205894Y-57212666D01*
X151208724Y-57198443D01*
X151240499Y-57038695D01*
X151240500Y-57038693D01*
X151240500Y-56861306D01*
X151240499Y-56861304D01*
X151205896Y-56687341D01*
X151205893Y-56687332D01*
X151138016Y-56523459D01*
X151138009Y-56523446D01*
X151039464Y-56375965D01*
X151039461Y-56375961D01*
X150914038Y-56250538D01*
X150914034Y-56250535D01*
X150766553Y-56151990D01*
X150766540Y-56151983D01*
X150602667Y-56084106D01*
X150602658Y-56084103D01*
X150539882Y-56071617D01*
X150477971Y-56039232D01*
X150443397Y-55978517D01*
X150447136Y-55908747D01*
X150488003Y-55852075D01*
X150539882Y-55828383D01*
X150602658Y-55815896D01*
X150602661Y-55815894D01*
X150602666Y-55815894D01*
X150766547Y-55748013D01*
X150914035Y-55649464D01*
X151039464Y-55524035D01*
X151138013Y-55376547D01*
X151205894Y-55212666D01*
X151211333Y-55185325D01*
X151240499Y-55038695D01*
X151240500Y-55038693D01*
X151240500Y-54861306D01*
X151240499Y-54861304D01*
X151205896Y-54687341D01*
X151205893Y-54687332D01*
X151198796Y-54670199D01*
X151171812Y-54605051D01*
X151138016Y-54523459D01*
X151138009Y-54523446D01*
X151039464Y-54375965D01*
X151039461Y-54375961D01*
X150914038Y-54250538D01*
X150914034Y-54250535D01*
X150766553Y-54151990D01*
X150766540Y-54151983D01*
X150602667Y-54084106D01*
X150602658Y-54084103D01*
X150428694Y-54049500D01*
X150428691Y-54049500D01*
X150251309Y-54049500D01*
X150251306Y-54049500D01*
X150077341Y-54084103D01*
X150077332Y-54084106D01*
X149913459Y-54151983D01*
X149913446Y-54151990D01*
X149765965Y-54250535D01*
X149765961Y-54250538D01*
X149640538Y-54375961D01*
X149640535Y-54375965D01*
X149541990Y-54523446D01*
X149541983Y-54523459D01*
X149474106Y-54687332D01*
X149474104Y-54687340D01*
X149438422Y-54866723D01*
X149406037Y-54928634D01*
X149404486Y-54930212D01*
X133896518Y-70438181D01*
X133835195Y-70471666D01*
X133808837Y-70474500D01*
X104581712Y-70474500D01*
X104514673Y-70454815D01*
X104481394Y-70423385D01*
X104370109Y-70270214D01*
X104370105Y-70270209D01*
X104219786Y-70119890D01*
X104047820Y-69994951D01*
X104047115Y-69994591D01*
X104039054Y-69990485D01*
X103988259Y-69942512D01*
X103971463Y-69874692D01*
X103993999Y-69808556D01*
X104039054Y-69769515D01*
X104047816Y-69765051D01*
X104069789Y-69749086D01*
X104219786Y-69640109D01*
X104219788Y-69640106D01*
X104219792Y-69640104D01*
X104370104Y-69489792D01*
X104370106Y-69489788D01*
X104370109Y-69489786D01*
X104495048Y-69317820D01*
X104495047Y-69317820D01*
X104495051Y-69317816D01*
X104591557Y-69128412D01*
X104657246Y-68926243D01*
X104690500Y-68716287D01*
X104690500Y-68503713D01*
X104657246Y-68293757D01*
X104591557Y-68091588D01*
X104495051Y-67902184D01*
X104495049Y-67902181D01*
X104495048Y-67902179D01*
X104370109Y-67730213D01*
X104219786Y-67579890D01*
X104047820Y-67454951D01*
X104047115Y-67454591D01*
X104039054Y-67450485D01*
X103988259Y-67402512D01*
X103971463Y-67334692D01*
X103993999Y-67268556D01*
X104039054Y-67229515D01*
X104047816Y-67225051D01*
X104166208Y-67139035D01*
X104219786Y-67100109D01*
X104219788Y-67100106D01*
X104219792Y-67100104D01*
X104370104Y-66949792D01*
X104370106Y-66949788D01*
X104370109Y-66949786D01*
X104495048Y-66777820D01*
X104495047Y-66777820D01*
X104495051Y-66777816D01*
X104591557Y-66588412D01*
X104657246Y-66386243D01*
X104690500Y-66176287D01*
X104690500Y-65963713D01*
X104657246Y-65753757D01*
X104591557Y-65551588D01*
X104495051Y-65362184D01*
X104495049Y-65362181D01*
X104495048Y-65362179D01*
X104370109Y-65190213D01*
X104219786Y-65039890D01*
X104047820Y-64914951D01*
X104047115Y-64914591D01*
X104039054Y-64910485D01*
X103988259Y-64862512D01*
X103971463Y-64794692D01*
X103993999Y-64728556D01*
X104039054Y-64689515D01*
X104047816Y-64685051D01*
X104175346Y-64592396D01*
X104219786Y-64560109D01*
X104219788Y-64560106D01*
X104219792Y-64560104D01*
X104370104Y-64409792D01*
X104370106Y-64409788D01*
X104370109Y-64409786D01*
X104495048Y-64237820D01*
X104495047Y-64237820D01*
X104495051Y-64237816D01*
X104591557Y-64048412D01*
X104657246Y-63846243D01*
X104690500Y-63636287D01*
X104690500Y-63423713D01*
X104657246Y-63213757D01*
X104591557Y-63011588D01*
X104495051Y-62822184D01*
X104495049Y-62822181D01*
X104495048Y-62822179D01*
X104370109Y-62650213D01*
X104219786Y-62499890D01*
X104047820Y-62374951D01*
X104047115Y-62374591D01*
X104039054Y-62370485D01*
X103988259Y-62322512D01*
X103971463Y-62254692D01*
X103993999Y-62188556D01*
X104039054Y-62149515D01*
X104047816Y-62145051D01*
X104069789Y-62129086D01*
X104219786Y-62020109D01*
X104219788Y-62020106D01*
X104219792Y-62020104D01*
X104370104Y-61869792D01*
X104370106Y-61869788D01*
X104370109Y-61869786D01*
X104495048Y-61697820D01*
X104495047Y-61697820D01*
X104495051Y-61697816D01*
X104591557Y-61508412D01*
X104657246Y-61306243D01*
X104690500Y-61096287D01*
X104690500Y-60883713D01*
X104657246Y-60673757D01*
X104591557Y-60471588D01*
X104495051Y-60282184D01*
X104495049Y-60282181D01*
X104495048Y-60282179D01*
X104370109Y-60110213D01*
X104219786Y-59959890D01*
X104047820Y-59834951D01*
X104047115Y-59834591D01*
X104039054Y-59830485D01*
X103988259Y-59782512D01*
X103971463Y-59714692D01*
X103993999Y-59648556D01*
X104039054Y-59609515D01*
X104047816Y-59605051D01*
X104159326Y-59524035D01*
X104219786Y-59480109D01*
X104219788Y-59480106D01*
X104219792Y-59480104D01*
X104370104Y-59329792D01*
X104370106Y-59329788D01*
X104370109Y-59329786D01*
X104495048Y-59157820D01*
X104495047Y-59157820D01*
X104495051Y-59157816D01*
X104591557Y-58968412D01*
X104657246Y-58766243D01*
X104690500Y-58556287D01*
X104690500Y-58343713D01*
X104657246Y-58133757D01*
X104591557Y-57931588D01*
X104495051Y-57742184D01*
X104495049Y-57742181D01*
X104495048Y-57742179D01*
X104370109Y-57570213D01*
X104219786Y-57419890D01*
X104047820Y-57294951D01*
X104047115Y-57294591D01*
X104039054Y-57290485D01*
X103988259Y-57242512D01*
X103971463Y-57174692D01*
X103993999Y-57108556D01*
X104039054Y-57069515D01*
X104047816Y-57065051D01*
X104138040Y-56999500D01*
X104219786Y-56940109D01*
X104219788Y-56940106D01*
X104219792Y-56940104D01*
X104370104Y-56789792D01*
X104370106Y-56789788D01*
X104370109Y-56789786D01*
X104495048Y-56617820D01*
X104495047Y-56617820D01*
X104495051Y-56617816D01*
X104591557Y-56428412D01*
X104657246Y-56226243D01*
X104690500Y-56016287D01*
X104690500Y-55803713D01*
X104657246Y-55593757D01*
X104591557Y-55391588D01*
X104495051Y-55202184D01*
X104495049Y-55202181D01*
X104495048Y-55202179D01*
X104370109Y-55030213D01*
X104219786Y-54879890D01*
X104047820Y-54754951D01*
X103858414Y-54658444D01*
X103858413Y-54658443D01*
X103858412Y-54658443D01*
X103656243Y-54592754D01*
X103656241Y-54592753D01*
X103656240Y-54592753D01*
X103494957Y-54567208D01*
X103446287Y-54559500D01*
X103233713Y-54559500D01*
X103185042Y-54567208D01*
X103023760Y-54592753D01*
X102821585Y-54658444D01*
X102632179Y-54754951D01*
X102460213Y-54879890D01*
X102309890Y-55030213D01*
X102184951Y-55202179D01*
X102088444Y-55391585D01*
X102022753Y-55593760D01*
X101991387Y-55791802D01*
X101989500Y-55803713D01*
X101989500Y-56016287D01*
X102022754Y-56226243D01*
X102057235Y-56332365D01*
X102088444Y-56428414D01*
X102184951Y-56617820D01*
X102309890Y-56789786D01*
X102460213Y-56940109D01*
X102632182Y-57065050D01*
X102640946Y-57069516D01*
X102691742Y-57117491D01*
X102708536Y-57185312D01*
X102685998Y-57251447D01*
X102640946Y-57290484D01*
X102632182Y-57294949D01*
X102460213Y-57419890D01*
X102309890Y-57570213D01*
X102184951Y-57742179D01*
X102088444Y-57931585D01*
X102022753Y-58133760D01*
X101989500Y-58343713D01*
X101989500Y-58556286D01*
X102010255Y-58687332D01*
X102022754Y-58766243D01*
X102053641Y-58861304D01*
X102088444Y-58968414D01*
X102184951Y-59157820D01*
X102309890Y-59329786D01*
X102460213Y-59480109D01*
X102632182Y-59605050D01*
X102640946Y-59609516D01*
X102691742Y-59657491D01*
X102708536Y-59725312D01*
X102685998Y-59791447D01*
X102640946Y-59830484D01*
X102632182Y-59834949D01*
X102460213Y-59959890D01*
X102309890Y-60110213D01*
X102184951Y-60282179D01*
X102088444Y-60471585D01*
X102022753Y-60673760D01*
X101995488Y-60845909D01*
X101989500Y-60883713D01*
X101989500Y-61096287D01*
X101999534Y-61159644D01*
X102016467Y-61266553D01*
X102022754Y-61306243D01*
X102087851Y-61506591D01*
X102088444Y-61508414D01*
X102184951Y-61697820D01*
X102309890Y-61869786D01*
X102460213Y-62020109D01*
X102632182Y-62145050D01*
X102640946Y-62149516D01*
X102691742Y-62197491D01*
X102708536Y-62265312D01*
X102685998Y-62331447D01*
X102640946Y-62370484D01*
X102632182Y-62374949D01*
X102460213Y-62499890D01*
X102309890Y-62650213D01*
X102184951Y-62822179D01*
X102088444Y-63011585D01*
X102088443Y-63011587D01*
X102088443Y-63011588D01*
X102055598Y-63112672D01*
X102022753Y-63213760D01*
X101989500Y-63423713D01*
X101989500Y-63636286D01*
X102020514Y-63832105D01*
X102022754Y-63846243D01*
X102057819Y-63954162D01*
X102088444Y-64048414D01*
X102184951Y-64237820D01*
X102309890Y-64409786D01*
X102460213Y-64560109D01*
X102632182Y-64685050D01*
X102640946Y-64689516D01*
X102691742Y-64737491D01*
X102708536Y-64805312D01*
X102685998Y-64871447D01*
X102640946Y-64910484D01*
X102632182Y-64914949D01*
X102460213Y-65039890D01*
X102309890Y-65190213D01*
X102184951Y-65362179D01*
X102088444Y-65551585D01*
X102022753Y-65753760D01*
X101996453Y-65919815D01*
X101989500Y-65963713D01*
X101989500Y-66176287D01*
X102022754Y-66386243D01*
X102073972Y-66543876D01*
X102088444Y-66588414D01*
X102184951Y-66777820D01*
X102309890Y-66949786D01*
X102460213Y-67100109D01*
X102632182Y-67225050D01*
X102640946Y-67229516D01*
X102691742Y-67277491D01*
X102708536Y-67345312D01*
X102685998Y-67411447D01*
X102640946Y-67450484D01*
X102632182Y-67454949D01*
X102460213Y-67579890D01*
X102309890Y-67730213D01*
X102184951Y-67902179D01*
X102088444Y-68091585D01*
X102022753Y-68293760D01*
X102004495Y-68409038D01*
X101989500Y-68503713D01*
X101989500Y-68716287D01*
X102022754Y-68926243D01*
X102077244Y-69093946D01*
X102088444Y-69128414D01*
X102184951Y-69317820D01*
X102309890Y-69489786D01*
X102460213Y-69640109D01*
X102632182Y-69765050D01*
X102640946Y-69769516D01*
X102691742Y-69817491D01*
X102708536Y-69885312D01*
X102685998Y-69951447D01*
X102640946Y-69990484D01*
X102632182Y-69994949D01*
X102460213Y-70119890D01*
X102309890Y-70270213D01*
X102184951Y-70442179D01*
X102088444Y-70631585D01*
X102022753Y-70833760D01*
X101989500Y-71043713D01*
X101989500Y-71256286D01*
X102022753Y-71466239D01*
X102088444Y-71668414D01*
X102184951Y-71857820D01*
X102309890Y-72029786D01*
X102460213Y-72180109D01*
X102632182Y-72305050D01*
X102640946Y-72309516D01*
X102691742Y-72357491D01*
X102708536Y-72425312D01*
X102685998Y-72491447D01*
X102640946Y-72530484D01*
X102632182Y-72534949D01*
X102460213Y-72659890D01*
X102309890Y-72810213D01*
X102184951Y-72982179D01*
X102088444Y-73171585D01*
X102022753Y-73373760D01*
X101989500Y-73583713D01*
X101989500Y-73796287D01*
X101999534Y-73859644D01*
X102008192Y-73914306D01*
X102022754Y-74006243D01*
X102081454Y-74186903D01*
X102088444Y-74208414D01*
X102184951Y-74397820D01*
X102309890Y-74569786D01*
X102460213Y-74720109D01*
X102632182Y-74845050D01*
X102640946Y-74849516D01*
X102691742Y-74897491D01*
X102708536Y-74965312D01*
X102685998Y-75031447D01*
X102640946Y-75070484D01*
X102632182Y-75074949D01*
X102460213Y-75199890D01*
X102309890Y-75350213D01*
X102184951Y-75522179D01*
X102088444Y-75711585D01*
X102022753Y-75913760D01*
X101989500Y-76123713D01*
X101989500Y-76336286D01*
X102020752Y-76533608D01*
X102022754Y-76546243D01*
X102070336Y-76692686D01*
X102088444Y-76748414D01*
X102184951Y-76937820D01*
X102309890Y-77109786D01*
X102423430Y-77223326D01*
X102456915Y-77284649D01*
X102451931Y-77354341D01*
X102410059Y-77410274D01*
X102379083Y-77427189D01*
X102247669Y-77476203D01*
X102247664Y-77476206D01*
X102132455Y-77562452D01*
X102132452Y-77562455D01*
X102046206Y-77677664D01*
X102046202Y-77677671D01*
X101995908Y-77812517D01*
X101989501Y-77872116D01*
X101989501Y-77872123D01*
X101989500Y-77872135D01*
X101989500Y-79667870D01*
X101989501Y-79667876D01*
X101995908Y-79727483D01*
X102046202Y-79862328D01*
X102046206Y-79862335D01*
X102132452Y-79977544D01*
X102132455Y-79977547D01*
X102230887Y-80051234D01*
X102272758Y-80107168D01*
X102277742Y-80176859D01*
X102244256Y-80238182D01*
X102182933Y-80271666D01*
X102156576Y-80274500D01*
X100501712Y-80274500D01*
X100434673Y-80254815D01*
X100401394Y-80223385D01*
X100290109Y-80070214D01*
X100290105Y-80070209D01*
X100139786Y-79919890D01*
X99967820Y-79794951D01*
X99778414Y-79698444D01*
X99778413Y-79698443D01*
X99778412Y-79698443D01*
X99576243Y-79632754D01*
X99576241Y-79632753D01*
X99576240Y-79632753D01*
X99414957Y-79607208D01*
X99366287Y-79599500D01*
X99153713Y-79599500D01*
X99105042Y-79607208D01*
X98943760Y-79632753D01*
X98741585Y-79698444D01*
X98552179Y-79794951D01*
X98380213Y-79919890D01*
X98229890Y-80070213D01*
X98104949Y-80242182D01*
X98100484Y-80250946D01*
X98052509Y-80301742D01*
X97984688Y-80318536D01*
X97918553Y-80295998D01*
X97879516Y-80250946D01*
X97875050Y-80242182D01*
X97750109Y-80070213D01*
X97599786Y-79919890D01*
X97427820Y-79794951D01*
X97238414Y-79698444D01*
X97238413Y-79698443D01*
X97238412Y-79698443D01*
X97036243Y-79632754D01*
X97036241Y-79632753D01*
X97036240Y-79632753D01*
X96874957Y-79607208D01*
X96826287Y-79599500D01*
X96613713Y-79599500D01*
X96565042Y-79607208D01*
X96403760Y-79632753D01*
X96201585Y-79698444D01*
X96012179Y-79794951D01*
X95840213Y-79919890D01*
X95689890Y-80070213D01*
X95564949Y-80242182D01*
X95560484Y-80250946D01*
X95512509Y-80301742D01*
X95444688Y-80318536D01*
X95378553Y-80295998D01*
X95339516Y-80250946D01*
X95335050Y-80242182D01*
X95210109Y-80070213D01*
X95059786Y-79919890D01*
X94887820Y-79794951D01*
X94698414Y-79698444D01*
X94698413Y-79698443D01*
X94698412Y-79698443D01*
X94496243Y-79632754D01*
X94496241Y-79632753D01*
X94496240Y-79632753D01*
X94334957Y-79607208D01*
X94286287Y-79599500D01*
X94073713Y-79599500D01*
X94025042Y-79607208D01*
X93863760Y-79632753D01*
X93661585Y-79698444D01*
X93472179Y-79794951D01*
X93300213Y-79919890D01*
X93149890Y-80070213D01*
X93024949Y-80242182D01*
X93020484Y-80250946D01*
X92972509Y-80301742D01*
X92904688Y-80318536D01*
X92838553Y-80295998D01*
X92799516Y-80250946D01*
X92795050Y-80242182D01*
X92670109Y-80070213D01*
X92519786Y-79919890D01*
X92347820Y-79794951D01*
X92158414Y-79698444D01*
X92158413Y-79698443D01*
X92158412Y-79698443D01*
X91956243Y-79632754D01*
X91956241Y-79632753D01*
X91956240Y-79632753D01*
X91794957Y-79607208D01*
X91746287Y-79599500D01*
X91533713Y-79599500D01*
X91485042Y-79607208D01*
X91323760Y-79632753D01*
X91121585Y-79698444D01*
X90932179Y-79794951D01*
X90760213Y-79919890D01*
X90609890Y-80070213D01*
X90484949Y-80242182D01*
X90480484Y-80250946D01*
X90432509Y-80301742D01*
X90364688Y-80318536D01*
X90298553Y-80295998D01*
X90259516Y-80250946D01*
X90255050Y-80242182D01*
X90130109Y-80070213D01*
X89979786Y-79919890D01*
X89807820Y-79794951D01*
X89618414Y-79698444D01*
X89618413Y-79698443D01*
X89618412Y-79698443D01*
X89416243Y-79632754D01*
X89416241Y-79632753D01*
X89416240Y-79632753D01*
X89254957Y-79607208D01*
X89206287Y-79599500D01*
X88993713Y-79599500D01*
X88945042Y-79607208D01*
X88783760Y-79632753D01*
X88581585Y-79698444D01*
X88392179Y-79794951D01*
X88220213Y-79919890D01*
X88069890Y-80070213D01*
X87944949Y-80242182D01*
X87940484Y-80250946D01*
X87892509Y-80301742D01*
X87824688Y-80318536D01*
X87758553Y-80295998D01*
X87719516Y-80250946D01*
X87715050Y-80242182D01*
X87590109Y-80070213D01*
X87439786Y-79919890D01*
X87267820Y-79794951D01*
X87078414Y-79698444D01*
X87078413Y-79698443D01*
X87078412Y-79698443D01*
X86876243Y-79632754D01*
X86876241Y-79632753D01*
X86876240Y-79632753D01*
X86714957Y-79607208D01*
X86666287Y-79599500D01*
X86453713Y-79599500D01*
X86405042Y-79607208D01*
X86243760Y-79632753D01*
X86041585Y-79698444D01*
X85852179Y-79794951D01*
X85680213Y-79919890D01*
X85529890Y-80070213D01*
X85404949Y-80242182D01*
X85400484Y-80250946D01*
X85352509Y-80301742D01*
X85284688Y-80318536D01*
X85218553Y-80295998D01*
X85179516Y-80250946D01*
X85175050Y-80242182D01*
X85050109Y-80070213D01*
X84899786Y-79919890D01*
X84727820Y-79794951D01*
X84538414Y-79698444D01*
X84538413Y-79698443D01*
X84538412Y-79698443D01*
X84336243Y-79632754D01*
X84336241Y-79632753D01*
X84336240Y-79632753D01*
X84174957Y-79607208D01*
X84126287Y-79599500D01*
X83913713Y-79599500D01*
X83865042Y-79607208D01*
X83703760Y-79632753D01*
X83501585Y-79698444D01*
X83312179Y-79794951D01*
X83140213Y-79919890D01*
X82989890Y-80070213D01*
X82864949Y-80242182D01*
X82860484Y-80250946D01*
X82812509Y-80301742D01*
X82744688Y-80318536D01*
X82678553Y-80295998D01*
X82639516Y-80250946D01*
X82635050Y-80242182D01*
X82510109Y-80070213D01*
X82359786Y-79919890D01*
X82187820Y-79794951D01*
X81998414Y-79698444D01*
X81998413Y-79698443D01*
X81998412Y-79698443D01*
X81796243Y-79632754D01*
X81796241Y-79632753D01*
X81796240Y-79632753D01*
X81634957Y-79607208D01*
X81586287Y-79599500D01*
X81373713Y-79599500D01*
X81325042Y-79607208D01*
X81163760Y-79632753D01*
X80961585Y-79698444D01*
X80772179Y-79794951D01*
X80600215Y-79919889D01*
X80486673Y-80033431D01*
X80425350Y-80066915D01*
X80355658Y-80061931D01*
X80299725Y-80020059D01*
X80282810Y-79989082D01*
X80233797Y-79857671D01*
X80233793Y-79857664D01*
X80147547Y-79742455D01*
X80147544Y-79742452D01*
X80032335Y-79656206D01*
X80032328Y-79656202D01*
X79897482Y-79605908D01*
X79897483Y-79605908D01*
X79837883Y-79599501D01*
X79837881Y-79599500D01*
X79837873Y-79599500D01*
X79837865Y-79599500D01*
X78374453Y-79599500D01*
X78359111Y-79594995D01*
X78343127Y-79595478D01*
X78326273Y-79585352D01*
X78307414Y-79579815D01*
X78296944Y-79567732D01*
X78283235Y-79559496D01*
X78274530Y-79541865D01*
X78261659Y-79527011D01*
X78259383Y-79511185D01*
X78252304Y-79496846D01*
X78254512Y-79477310D01*
X78251715Y-79457853D01*
X78258448Y-79442498D01*
X78260154Y-79427418D01*
X78274277Y-79406407D01*
X78278331Y-79397164D01*
X78282313Y-79392277D01*
X78325858Y-79348733D01*
X78359267Y-79298733D01*
X78394312Y-79246286D01*
X78441463Y-79132451D01*
X78465501Y-79011607D01*
X78465501Y-78888394D01*
X78465501Y-78888391D01*
X78441464Y-78767554D01*
X78441463Y-78767553D01*
X78441463Y-78767549D01*
X78432655Y-78746285D01*
X78424937Y-78727651D01*
X78415500Y-78680202D01*
X78415500Y-75946848D01*
X78435185Y-75879809D01*
X78451819Y-75859167D01*
X85814167Y-68496819D01*
X85875490Y-68463334D01*
X85901848Y-68460500D01*
X91640639Y-68460500D01*
X91707678Y-68480185D01*
X91728321Y-68496820D01*
X91765961Y-68534461D01*
X91765965Y-68534464D01*
X91913446Y-68633009D01*
X91913459Y-68633016D01*
X92036363Y-68683923D01*
X92077334Y-68700894D01*
X92077336Y-68700894D01*
X92077341Y-68700896D01*
X92251304Y-68735499D01*
X92251307Y-68735500D01*
X92251309Y-68735500D01*
X92428693Y-68735500D01*
X92428694Y-68735499D01*
X92525286Y-68716286D01*
X92602658Y-68700896D01*
X92602661Y-68700894D01*
X92602666Y-68700894D01*
X92766547Y-68633013D01*
X92914035Y-68534464D01*
X93039464Y-68409035D01*
X93138013Y-68261547D01*
X93205894Y-68097666D01*
X93240500Y-67923691D01*
X93240500Y-67746309D01*
X93240500Y-67746306D01*
X93240499Y-67746304D01*
X93205896Y-67572341D01*
X93205893Y-67572332D01*
X93138016Y-67408459D01*
X93138014Y-67408455D01*
X93138013Y-67408453D01*
X93044759Y-67268890D01*
X93023882Y-67202214D01*
X93042366Y-67134834D01*
X93044760Y-67131109D01*
X93065477Y-67100104D01*
X93138013Y-66991547D01*
X93205894Y-66827666D01*
X93225729Y-66727952D01*
X93240499Y-66653695D01*
X93240500Y-66653693D01*
X93240500Y-66476306D01*
X93240499Y-66476304D01*
X93205896Y-66302341D01*
X93205893Y-66302332D01*
X93200693Y-66289779D01*
X93162778Y-66198242D01*
X93138016Y-66138459D01*
X93138009Y-66138446D01*
X93039464Y-65990965D01*
X93039461Y-65990961D01*
X92914038Y-65865538D01*
X92914034Y-65865535D01*
X92766553Y-65766990D01*
X92766540Y-65766983D01*
X92602667Y-65699106D01*
X92602658Y-65699103D01*
X92428694Y-65664500D01*
X92428691Y-65664500D01*
X92251309Y-65664500D01*
X92251306Y-65664500D01*
X92077341Y-65699103D01*
X92077332Y-65699106D01*
X91913459Y-65766983D01*
X91913446Y-65766990D01*
X91765965Y-65865535D01*
X91765961Y-65865538D01*
X91728321Y-65903180D01*
X91666999Y-65936666D01*
X91640639Y-65939500D01*
X87314452Y-65939500D01*
X87247413Y-65919815D01*
X87201658Y-65867011D01*
X87191714Y-65797853D01*
X87220739Y-65734297D01*
X87226771Y-65727819D01*
X91177771Y-61776819D01*
X91239094Y-61743334D01*
X91265452Y-61740500D01*
X91318693Y-61740500D01*
X91318694Y-61740499D01*
X91376682Y-61728964D01*
X91492658Y-61705896D01*
X91492661Y-61705894D01*
X91492666Y-61705894D01*
X91656547Y-61638013D01*
X91804035Y-61539464D01*
X91929464Y-61414035D01*
X92028013Y-61266547D01*
X92095894Y-61102666D01*
X92108620Y-61038691D01*
X92130499Y-60928695D01*
X92130500Y-60928693D01*
X92130500Y-60751306D01*
X92130499Y-60751304D01*
X92095896Y-60577341D01*
X92095893Y-60577332D01*
X92028016Y-60413459D01*
X92028009Y-60413446D01*
X91929464Y-60265965D01*
X91929461Y-60265961D01*
X91804038Y-60140538D01*
X91804034Y-60140535D01*
X91656553Y-60041990D01*
X91656540Y-60041983D01*
X91492667Y-59974106D01*
X91492658Y-59974103D01*
X91318694Y-59939500D01*
X91318691Y-59939500D01*
X91141309Y-59939500D01*
X91141306Y-59939500D01*
X90967341Y-59974103D01*
X90967332Y-59974106D01*
X90803459Y-60041983D01*
X90803446Y-60041990D01*
X90671373Y-60130239D01*
X90604695Y-60151117D01*
X90537315Y-60132632D01*
X90533591Y-60130239D01*
X90386553Y-60031990D01*
X90386540Y-60031983D01*
X90222667Y-59964106D01*
X90222658Y-59964103D01*
X90048694Y-59929500D01*
X90048691Y-59929500D01*
X89871309Y-59929500D01*
X89871306Y-59929500D01*
X89697341Y-59964103D01*
X89697332Y-59964106D01*
X89533459Y-60031983D01*
X89533446Y-60031990D01*
X89385965Y-60130535D01*
X89385961Y-60130538D01*
X89260538Y-60255961D01*
X89260535Y-60255965D01*
X89161990Y-60403446D01*
X89161983Y-60403459D01*
X89094106Y-60567332D01*
X89094103Y-60567341D01*
X89059500Y-60741304D01*
X89059500Y-60794547D01*
X89039815Y-60861586D01*
X89023181Y-60882228D01*
X76212181Y-73693228D01*
X76150858Y-73726713D01*
X76081166Y-73721729D01*
X76025233Y-73679857D01*
X76000816Y-73614393D01*
X76000500Y-73605547D01*
X76000500Y-57434110D01*
X76000500Y-57434108D01*
X75966392Y-57306814D01*
X75900500Y-57192686D01*
X75807314Y-57099500D01*
X75735545Y-57058064D01*
X75693187Y-57033608D01*
X75629539Y-57016554D01*
X75565892Y-56999500D01*
X75565891Y-56999500D01*
X70124500Y-56999500D01*
X70057461Y-56979815D01*
X70011706Y-56927011D01*
X70000500Y-56875500D01*
X70000500Y-54806487D01*
X70020185Y-54739448D01*
X70072989Y-54693693D01*
X70142147Y-54683749D01*
X70198810Y-54707220D01*
X70241861Y-54739448D01*
X70247668Y-54743795D01*
X70247671Y-54743797D01*
X70382517Y-54794091D01*
X70382516Y-54794091D01*
X70389444Y-54794835D01*
X70442127Y-54800500D01*
X72237872Y-54800499D01*
X72297483Y-54794091D01*
X72432331Y-54743796D01*
X72547546Y-54657546D01*
X72633796Y-54542331D01*
X72682810Y-54410916D01*
X72724681Y-54354984D01*
X72790145Y-54330566D01*
X72858418Y-54345417D01*
X72886673Y-54366569D01*
X73000213Y-54480109D01*
X73172179Y-54605048D01*
X73172181Y-54605049D01*
X73172184Y-54605051D01*
X73361588Y-54701557D01*
X73563757Y-54767246D01*
X73773713Y-54800500D01*
X73773714Y-54800500D01*
X73986286Y-54800500D01*
X73986287Y-54800500D01*
X74196243Y-54767246D01*
X74398412Y-54701557D01*
X74587816Y-54605051D01*
X74674138Y-54542335D01*
X74759786Y-54480109D01*
X74759788Y-54480106D01*
X74759792Y-54480104D01*
X74910104Y-54329792D01*
X74910106Y-54329788D01*
X74910109Y-54329786D01*
X75035048Y-54157820D01*
X75035047Y-54157820D01*
X75035051Y-54157816D01*
X75039514Y-54149054D01*
X75087488Y-54098259D01*
X75155308Y-54081463D01*
X75221444Y-54103999D01*
X75260486Y-54149056D01*
X75264951Y-54157820D01*
X75389890Y-54329786D01*
X75540213Y-54480109D01*
X75712179Y-54605048D01*
X75712181Y-54605049D01*
X75712184Y-54605051D01*
X75901588Y-54701557D01*
X76103757Y-54767246D01*
X76313713Y-54800500D01*
X76313714Y-54800500D01*
X76526286Y-54800500D01*
X76526287Y-54800500D01*
X76736243Y-54767246D01*
X76938412Y-54701557D01*
X77127816Y-54605051D01*
X77214138Y-54542335D01*
X77299786Y-54480109D01*
X77299788Y-54480106D01*
X77299792Y-54480104D01*
X77450104Y-54329792D01*
X77450106Y-54329788D01*
X77450109Y-54329786D01*
X77575048Y-54157820D01*
X77575047Y-54157820D01*
X77575051Y-54157816D01*
X77579514Y-54149054D01*
X77627488Y-54098259D01*
X77695308Y-54081463D01*
X77761444Y-54103999D01*
X77800486Y-54149056D01*
X77804951Y-54157820D01*
X77929890Y-54329786D01*
X78080213Y-54480109D01*
X78252179Y-54605048D01*
X78252181Y-54605049D01*
X78252184Y-54605051D01*
X78441588Y-54701557D01*
X78643757Y-54767246D01*
X78853713Y-54800500D01*
X78853714Y-54800500D01*
X79066286Y-54800500D01*
X79066287Y-54800500D01*
X79276243Y-54767246D01*
X79478412Y-54701557D01*
X79667816Y-54605051D01*
X79754138Y-54542335D01*
X79839786Y-54480109D01*
X79839788Y-54480106D01*
X79839792Y-54480104D01*
X79990104Y-54329792D01*
X79990106Y-54329788D01*
X79990109Y-54329786D01*
X80115048Y-54157820D01*
X80115047Y-54157820D01*
X80115051Y-54157816D01*
X80119514Y-54149054D01*
X80167488Y-54098259D01*
X80235308Y-54081463D01*
X80301444Y-54103999D01*
X80340486Y-54149056D01*
X80344951Y-54157820D01*
X80469890Y-54329786D01*
X80620213Y-54480109D01*
X80792179Y-54605048D01*
X80792181Y-54605049D01*
X80792184Y-54605051D01*
X80981588Y-54701557D01*
X81183757Y-54767246D01*
X81393713Y-54800500D01*
X81393714Y-54800500D01*
X81606286Y-54800500D01*
X81606287Y-54800500D01*
X81816243Y-54767246D01*
X82018412Y-54701557D01*
X82207816Y-54605051D01*
X82294138Y-54542335D01*
X82379786Y-54480109D01*
X82379788Y-54480106D01*
X82379792Y-54480104D01*
X82530104Y-54329792D01*
X82530106Y-54329788D01*
X82530109Y-54329786D01*
X82655048Y-54157820D01*
X82655047Y-54157820D01*
X82655051Y-54157816D01*
X82659514Y-54149054D01*
X82707488Y-54098259D01*
X82775308Y-54081463D01*
X82841444Y-54103999D01*
X82880486Y-54149056D01*
X82884951Y-54157820D01*
X83009890Y-54329786D01*
X83160213Y-54480109D01*
X83332179Y-54605048D01*
X83332181Y-54605049D01*
X83332184Y-54605051D01*
X83521588Y-54701557D01*
X83723757Y-54767246D01*
X83933713Y-54800500D01*
X83933714Y-54800500D01*
X84146286Y-54800500D01*
X84146287Y-54800500D01*
X84356243Y-54767246D01*
X84558412Y-54701557D01*
X84747816Y-54605051D01*
X84834138Y-54542335D01*
X84919786Y-54480109D01*
X84919788Y-54480106D01*
X84919792Y-54480104D01*
X85070104Y-54329792D01*
X85070106Y-54329788D01*
X85070109Y-54329786D01*
X85195048Y-54157820D01*
X85195047Y-54157820D01*
X85195051Y-54157816D01*
X85199514Y-54149054D01*
X85247488Y-54098259D01*
X85315308Y-54081463D01*
X85381444Y-54103999D01*
X85420486Y-54149056D01*
X85424951Y-54157820D01*
X85549890Y-54329786D01*
X85700213Y-54480109D01*
X85872179Y-54605048D01*
X85872181Y-54605049D01*
X85872184Y-54605051D01*
X86061588Y-54701557D01*
X86263757Y-54767246D01*
X86473713Y-54800500D01*
X86473714Y-54800500D01*
X86686286Y-54800500D01*
X86686287Y-54800500D01*
X86896243Y-54767246D01*
X87098412Y-54701557D01*
X87287816Y-54605051D01*
X87374138Y-54542335D01*
X87459786Y-54480109D01*
X87459788Y-54480106D01*
X87459792Y-54480104D01*
X87610104Y-54329792D01*
X87610106Y-54329788D01*
X87610109Y-54329786D01*
X87735048Y-54157820D01*
X87735047Y-54157820D01*
X87735051Y-54157816D01*
X87739514Y-54149054D01*
X87787488Y-54098259D01*
X87855308Y-54081463D01*
X87921444Y-54103999D01*
X87960486Y-54149056D01*
X87964951Y-54157820D01*
X88089890Y-54329786D01*
X88240213Y-54480109D01*
X88412179Y-54605048D01*
X88412181Y-54605049D01*
X88412184Y-54605051D01*
X88601588Y-54701557D01*
X88803757Y-54767246D01*
X89013713Y-54800500D01*
X89013714Y-54800500D01*
X89226286Y-54800500D01*
X89226287Y-54800500D01*
X89436243Y-54767246D01*
X89638412Y-54701557D01*
X89827816Y-54605051D01*
X89914138Y-54542335D01*
X89999786Y-54480109D01*
X89999788Y-54480106D01*
X89999792Y-54480104D01*
X90150104Y-54329792D01*
X90150106Y-54329788D01*
X90150109Y-54329786D01*
X90275048Y-54157820D01*
X90275047Y-54157820D01*
X90275051Y-54157816D01*
X90279514Y-54149054D01*
X90327488Y-54098259D01*
X90395308Y-54081463D01*
X90461444Y-54103999D01*
X90500486Y-54149056D01*
X90504951Y-54157820D01*
X90629890Y-54329786D01*
X90780213Y-54480109D01*
X90952179Y-54605048D01*
X90952181Y-54605049D01*
X90952184Y-54605051D01*
X91141588Y-54701557D01*
X91343757Y-54767246D01*
X91553713Y-54800500D01*
X91553714Y-54800500D01*
X91766286Y-54800500D01*
X91766287Y-54800500D01*
X91976243Y-54767246D01*
X92178412Y-54701557D01*
X92367816Y-54605051D01*
X92454138Y-54542335D01*
X92539786Y-54480109D01*
X92539788Y-54480106D01*
X92539792Y-54480104D01*
X92690104Y-54329792D01*
X92690106Y-54329788D01*
X92690109Y-54329786D01*
X92815048Y-54157820D01*
X92815047Y-54157820D01*
X92815051Y-54157816D01*
X92819514Y-54149054D01*
X92867488Y-54098259D01*
X92935308Y-54081463D01*
X93001444Y-54103999D01*
X93040486Y-54149056D01*
X93044951Y-54157820D01*
X93169890Y-54329786D01*
X93320213Y-54480109D01*
X93492179Y-54605048D01*
X93492181Y-54605049D01*
X93492184Y-54605051D01*
X93681588Y-54701557D01*
X93883757Y-54767246D01*
X94093713Y-54800500D01*
X94093714Y-54800500D01*
X94306286Y-54800500D01*
X94306287Y-54800500D01*
X94516243Y-54767246D01*
X94718412Y-54701557D01*
X94907816Y-54605051D01*
X94994138Y-54542335D01*
X95079786Y-54480109D01*
X95079788Y-54480106D01*
X95079792Y-54480104D01*
X95230104Y-54329792D01*
X95230106Y-54329788D01*
X95230109Y-54329786D01*
X95355048Y-54157820D01*
X95355047Y-54157820D01*
X95355051Y-54157816D01*
X95359514Y-54149054D01*
X95407488Y-54098259D01*
X95475308Y-54081463D01*
X95541444Y-54103999D01*
X95580486Y-54149056D01*
X95584951Y-54157820D01*
X95709890Y-54329786D01*
X95860213Y-54480109D01*
X96032179Y-54605048D01*
X96032181Y-54605049D01*
X96032184Y-54605051D01*
X96221588Y-54701557D01*
X96423757Y-54767246D01*
X96633713Y-54800500D01*
X96633714Y-54800500D01*
X96846286Y-54800500D01*
X96846287Y-54800500D01*
X97056243Y-54767246D01*
X97258412Y-54701557D01*
X97447816Y-54605051D01*
X97534138Y-54542335D01*
X97619786Y-54480109D01*
X97619788Y-54480106D01*
X97619792Y-54480104D01*
X97770104Y-54329792D01*
X97770106Y-54329788D01*
X97770109Y-54329786D01*
X97895048Y-54157820D01*
X97895047Y-54157820D01*
X97895051Y-54157816D01*
X97899514Y-54149054D01*
X97947488Y-54098259D01*
X98015308Y-54081463D01*
X98081444Y-54103999D01*
X98120486Y-54149056D01*
X98124951Y-54157820D01*
X98249890Y-54329786D01*
X98400213Y-54480109D01*
X98572179Y-54605048D01*
X98572181Y-54605049D01*
X98572184Y-54605051D01*
X98761588Y-54701557D01*
X98963757Y-54767246D01*
X99173713Y-54800500D01*
X99173714Y-54800500D01*
X99386286Y-54800500D01*
X99386287Y-54800500D01*
X99596243Y-54767246D01*
X99798412Y-54701557D01*
X99798418Y-54701553D01*
X99803031Y-54700055D01*
X99872873Y-54698060D01*
X99932706Y-54734140D01*
X99963534Y-54796841D01*
X99955570Y-54866255D01*
X99929031Y-54905667D01*
X98320212Y-56514486D01*
X98258889Y-56547971D01*
X98256723Y-56548422D01*
X98077340Y-56584104D01*
X98077332Y-56584106D01*
X97913459Y-56651983D01*
X97913446Y-56651990D01*
X97765965Y-56750535D01*
X97765961Y-56750538D01*
X97640538Y-56875961D01*
X97640535Y-56875965D01*
X97541990Y-57023446D01*
X97541983Y-57023459D01*
X97474106Y-57187332D01*
X97474103Y-57187341D01*
X97439500Y-57361304D01*
X97439500Y-57538695D01*
X97474103Y-57712658D01*
X97474106Y-57712667D01*
X97541983Y-57876540D01*
X97541990Y-57876553D01*
X97640535Y-58024034D01*
X97640538Y-58024038D01*
X97765961Y-58149461D01*
X97765965Y-58149464D01*
X97913446Y-58248009D01*
X97913459Y-58248016D01*
X98036363Y-58298923D01*
X98077334Y-58315894D01*
X98077336Y-58315894D01*
X98077341Y-58315896D01*
X98251304Y-58350499D01*
X98251307Y-58350500D01*
X98251309Y-58350500D01*
X98428693Y-58350500D01*
X98428694Y-58350499D01*
X98486682Y-58338964D01*
X98602658Y-58315896D01*
X98602661Y-58315894D01*
X98602666Y-58315894D01*
X98766547Y-58248013D01*
X98914035Y-58149464D01*
X99039464Y-58024035D01*
X99138013Y-57876547D01*
X99205894Y-57712666D01*
X99218467Y-57649461D01*
X99241577Y-57533277D01*
X99273962Y-57471366D01*
X99275457Y-57469843D01*
X101364695Y-55380606D01*
X101438620Y-55269969D01*
X101489541Y-55147036D01*
X101515500Y-55016531D01*
X101515500Y-54883469D01*
X101515500Y-53725281D01*
X101535185Y-53658242D01*
X101587989Y-53612487D01*
X101657147Y-53602543D01*
X101663691Y-53603664D01*
X101707591Y-53612396D01*
X101773466Y-53625499D01*
X101773468Y-53625500D01*
X101773469Y-53625500D01*
X103508837Y-53625500D01*
X103575876Y-53645185D01*
X103596518Y-53661819D01*
X108578181Y-58643482D01*
X108611666Y-58704805D01*
X108614500Y-58731163D01*
X108614500Y-62302484D01*
X108594815Y-62369523D01*
X108593602Y-62371375D01*
X108491990Y-62523446D01*
X108491983Y-62523459D01*
X108424106Y-62687332D01*
X108424103Y-62687341D01*
X108389500Y-62861304D01*
X108389500Y-63038695D01*
X108424103Y-63212658D01*
X108424106Y-63212667D01*
X108491983Y-63376540D01*
X108491990Y-63376553D01*
X108590535Y-63524034D01*
X108590538Y-63524038D01*
X108715961Y-63649461D01*
X108715965Y-63649464D01*
X108863446Y-63748009D01*
X108863459Y-63748016D01*
X108986363Y-63798923D01*
X109027334Y-63815894D01*
X109027336Y-63815894D01*
X109027341Y-63815896D01*
X109201304Y-63850499D01*
X109201307Y-63850500D01*
X109201309Y-63850500D01*
X109378693Y-63850500D01*
X109378694Y-63850499D01*
X109436682Y-63838964D01*
X109552658Y-63815896D01*
X109552661Y-63815894D01*
X109552666Y-63815894D01*
X109716547Y-63748013D01*
X109864035Y-63649464D01*
X109989464Y-63524035D01*
X110088013Y-63376547D01*
X110155894Y-63212666D01*
X110190500Y-63038691D01*
X110190500Y-62861309D01*
X110190500Y-62861306D01*
X110190499Y-62861304D01*
X110155896Y-62687341D01*
X110155893Y-62687332D01*
X110088016Y-62523459D01*
X110088009Y-62523446D01*
X109986398Y-62371375D01*
X109965520Y-62304697D01*
X109965500Y-62302484D01*
X109965500Y-59330163D01*
X109985185Y-59263124D01*
X110037989Y-59217369D01*
X110107147Y-59207425D01*
X110170703Y-59236450D01*
X110177181Y-59242482D01*
X110409390Y-59474692D01*
X110409394Y-59474695D01*
X110520024Y-59548616D01*
X110520028Y-59548618D01*
X110520031Y-59548620D01*
X110642964Y-59599541D01*
X110773464Y-59625499D01*
X110773468Y-59625500D01*
X110773469Y-59625500D01*
X137692485Y-59625500D01*
X137759524Y-59645185D01*
X137761376Y-59646398D01*
X137913446Y-59748009D01*
X137913459Y-59748016D01*
X138018313Y-59791447D01*
X138077334Y-59815894D01*
X138077336Y-59815894D01*
X138077341Y-59815896D01*
X138251304Y-59850499D01*
X138251307Y-59850500D01*
X138251309Y-59850500D01*
X138428693Y-59850500D01*
X138428694Y-59850499D01*
X138529318Y-59830484D01*
X138602658Y-59815896D01*
X138602661Y-59815894D01*
X138602666Y-59815894D01*
X138766547Y-59748013D01*
X138914035Y-59649464D01*
X139039464Y-59524035D01*
X139138013Y-59376547D01*
X139205894Y-59212666D01*
X139209189Y-59196104D01*
X139240499Y-59038695D01*
X139240500Y-59038693D01*
X139240500Y-58861306D01*
X139240499Y-58861304D01*
X139205896Y-58687341D01*
X139205893Y-58687332D01*
X139138016Y-58523459D01*
X139138009Y-58523446D01*
X139039464Y-58375965D01*
X139039461Y-58375961D01*
X138914038Y-58250538D01*
X138914034Y-58250535D01*
X138766553Y-58151990D01*
X138766540Y-58151983D01*
X138602667Y-58084106D01*
X138602658Y-58084103D01*
X138428694Y-58049500D01*
X138428691Y-58049500D01*
X138251309Y-58049500D01*
X138251306Y-58049500D01*
X138077341Y-58084103D01*
X138077332Y-58084106D01*
X137913459Y-58151983D01*
X137913446Y-58151990D01*
X137761376Y-58253602D01*
X137694699Y-58274480D01*
X137692485Y-58274500D01*
X111171163Y-58274500D01*
X111104124Y-58254815D01*
X111083482Y-58238181D01*
X97270609Y-44425307D01*
X97270605Y-44425304D01*
X97159975Y-44351383D01*
X97159965Y-44351378D01*
X97037036Y-44300459D01*
X97037028Y-44300457D01*
X96906535Y-44274500D01*
X96906531Y-44274500D01*
X93773469Y-44274500D01*
X93773467Y-44274500D01*
X93642969Y-44300458D01*
X93642959Y-44300461D01*
X93520038Y-44351376D01*
X93520020Y-44351386D01*
X93409398Y-44425301D01*
X93409390Y-44425307D01*
X87596518Y-50238181D01*
X87535195Y-50271666D01*
X87508837Y-50274500D01*
X73773464Y-50274500D01*
X73642971Y-50300457D01*
X73642963Y-50300459D01*
X73520034Y-50351378D01*
X73520024Y-50351383D01*
X73409394Y-50425304D01*
X73409390Y-50425307D01*
X71771516Y-52063181D01*
X71710193Y-52096666D01*
X71683835Y-52099500D01*
X70442129Y-52099500D01*
X70442123Y-52099501D01*
X70382516Y-52105908D01*
X70247671Y-52156202D01*
X70247668Y-52156204D01*
X70198811Y-52192779D01*
X70133347Y-52217196D01*
X70065074Y-52202344D01*
X70015668Y-52152939D01*
X70000500Y-52093512D01*
X70000500Y-38422135D01*
X76349500Y-38422135D01*
X76349500Y-42477870D01*
X76349501Y-42477876D01*
X76355908Y-42537483D01*
X76406202Y-42672328D01*
X76406206Y-42672335D01*
X76492452Y-42787544D01*
X76492455Y-42787547D01*
X76607664Y-42873793D01*
X76607671Y-42873797D01*
X76742517Y-42924091D01*
X76742516Y-42924091D01*
X76749444Y-42924835D01*
X76802127Y-42930500D01*
X78877872Y-42930499D01*
X78937483Y-42924091D01*
X79072331Y-42873796D01*
X79187546Y-42787546D01*
X79273796Y-42672331D01*
X79324091Y-42537483D01*
X79330500Y-42477873D01*
X79330499Y-40479234D01*
X110324500Y-40479234D01*
X110324500Y-40630765D01*
X110363719Y-40777136D01*
X110401602Y-40842750D01*
X110439485Y-40908365D01*
X110546635Y-41015515D01*
X110677865Y-41091281D01*
X110824234Y-41130500D01*
X110824236Y-41130500D01*
X110975764Y-41130500D01*
X110975766Y-41130500D01*
X111122135Y-41091281D01*
X111253365Y-41015515D01*
X111360515Y-40908365D01*
X111436281Y-40777135D01*
X111475500Y-40630766D01*
X111475500Y-40479234D01*
X116104500Y-40479234D01*
X116104500Y-40630765D01*
X116143719Y-40777136D01*
X116181602Y-40842750D01*
X116219485Y-40908365D01*
X116326635Y-41015515D01*
X116457865Y-41091281D01*
X116604234Y-41130500D01*
X116604236Y-41130500D01*
X116755764Y-41130500D01*
X116755766Y-41130500D01*
X116902135Y-41091281D01*
X117033365Y-41015515D01*
X117140515Y-40908365D01*
X117216281Y-40777135D01*
X117255500Y-40630766D01*
X117255500Y-40479234D01*
X117216281Y-40332865D01*
X117140515Y-40201635D01*
X117033365Y-40094485D01*
X116967750Y-40056602D01*
X116902136Y-40018719D01*
X116828950Y-39999109D01*
X116755766Y-39979500D01*
X116604234Y-39979500D01*
X116457863Y-40018719D01*
X116326635Y-40094485D01*
X116326632Y-40094487D01*
X116219487Y-40201632D01*
X116219485Y-40201635D01*
X116143719Y-40332863D01*
X116104500Y-40479234D01*
X111475500Y-40479234D01*
X111436281Y-40332865D01*
X111360515Y-40201635D01*
X111253365Y-40094485D01*
X111187750Y-40056602D01*
X111122136Y-40018719D01*
X111048950Y-39999109D01*
X110975766Y-39979500D01*
X110824234Y-39979500D01*
X110677863Y-40018719D01*
X110546635Y-40094485D01*
X110546632Y-40094487D01*
X110439487Y-40201632D01*
X110439485Y-40201635D01*
X110363719Y-40332863D01*
X110324500Y-40479234D01*
X79330499Y-40479234D01*
X79330499Y-40332865D01*
X79330499Y-38422135D01*
X127084500Y-38422135D01*
X127084500Y-42477870D01*
X127084501Y-42477876D01*
X127090908Y-42537483D01*
X127141202Y-42672328D01*
X127141206Y-42672335D01*
X127227452Y-42787544D01*
X127227455Y-42787547D01*
X127342664Y-42873793D01*
X127342671Y-42873797D01*
X127477517Y-42924091D01*
X127477516Y-42924091D01*
X127484444Y-42924835D01*
X127537127Y-42930500D01*
X129612872Y-42930499D01*
X129672483Y-42924091D01*
X129807331Y-42873796D01*
X129922546Y-42787546D01*
X130008796Y-42672331D01*
X130059091Y-42537483D01*
X130065500Y-42477873D01*
X130065499Y-38422135D01*
X138584500Y-38422135D01*
X138584500Y-42477870D01*
X138584501Y-42477876D01*
X138590908Y-42537483D01*
X138641202Y-42672328D01*
X138641206Y-42672335D01*
X138727452Y-42787544D01*
X138727455Y-42787547D01*
X138842664Y-42873793D01*
X138842671Y-42873797D01*
X138977517Y-42924091D01*
X138977516Y-42924091D01*
X138984444Y-42924835D01*
X139037127Y-42930500D01*
X141112872Y-42930499D01*
X141172483Y-42924091D01*
X141307331Y-42873796D01*
X141422546Y-42787546D01*
X141508796Y-42672331D01*
X141559091Y-42537483D01*
X141565500Y-42477873D01*
X141565499Y-39342695D01*
X143584500Y-39342695D01*
X143584500Y-41557304D01*
X143621201Y-41789027D01*
X143693697Y-42012150D01*
X143800212Y-42221195D01*
X143938104Y-42410989D01*
X143938108Y-42410994D01*
X144104005Y-42576891D01*
X144104010Y-42576895D01*
X144235364Y-42672328D01*
X144293808Y-42714790D01*
X144502847Y-42821301D01*
X144502849Y-42821302D01*
X144614410Y-42857550D01*
X144725974Y-42893799D01*
X144957695Y-42930500D01*
X144957696Y-42930500D01*
X145192304Y-42930500D01*
X145192305Y-42930500D01*
X145424026Y-42893799D01*
X145647153Y-42821301D01*
X145856192Y-42714790D01*
X146045996Y-42576890D01*
X146211890Y-42410996D01*
X146349790Y-42221192D01*
X146456301Y-42012153D01*
X146528799Y-41789026D01*
X146565500Y-41557305D01*
X146565500Y-39342695D01*
X146528799Y-39110974D01*
X146456301Y-38887847D01*
X146349790Y-38678808D01*
X146295550Y-38604152D01*
X146211895Y-38489010D01*
X146211891Y-38489005D01*
X146045994Y-38323108D01*
X146045989Y-38323104D01*
X145856195Y-38185212D01*
X145856194Y-38185211D01*
X145856192Y-38185210D01*
X145733955Y-38122927D01*
X145647150Y-38078697D01*
X145424027Y-38006201D01*
X145356381Y-37995487D01*
X145299168Y-37986425D01*
X145192305Y-37969500D01*
X144957695Y-37969500D01*
X144880454Y-37981733D01*
X144725972Y-38006201D01*
X144502849Y-38078697D01*
X144293804Y-38185212D01*
X144104010Y-38323104D01*
X144104005Y-38323108D01*
X143938108Y-38489005D01*
X143938104Y-38489010D01*
X143800212Y-38678804D01*
X143693697Y-38887849D01*
X143621201Y-39110972D01*
X143584500Y-39342695D01*
X141565499Y-39342695D01*
X141565499Y-38422128D01*
X141559091Y-38362517D01*
X141558819Y-38361789D01*
X141508797Y-38227671D01*
X141508793Y-38227664D01*
X141422547Y-38112455D01*
X141422544Y-38112452D01*
X141307335Y-38026206D01*
X141307328Y-38026202D01*
X141172482Y-37975908D01*
X141172483Y-37975908D01*
X141112883Y-37969501D01*
X141112881Y-37969500D01*
X141112873Y-37969500D01*
X141112864Y-37969500D01*
X139037129Y-37969500D01*
X139037123Y-37969501D01*
X138977516Y-37975908D01*
X138842671Y-38026202D01*
X138842664Y-38026206D01*
X138727455Y-38112452D01*
X138727452Y-38112455D01*
X138641206Y-38227664D01*
X138641202Y-38227671D01*
X138590908Y-38362517D01*
X138584501Y-38422116D01*
X138584501Y-38422123D01*
X138584500Y-38422135D01*
X130065499Y-38422135D01*
X130065499Y-38422128D01*
X130059091Y-38362517D01*
X130058819Y-38361789D01*
X130008797Y-38227671D01*
X130008793Y-38227664D01*
X129922547Y-38112455D01*
X129922544Y-38112452D01*
X129807335Y-38026206D01*
X129807328Y-38026202D01*
X129672482Y-37975908D01*
X129672483Y-37975908D01*
X129612883Y-37969501D01*
X129612881Y-37969500D01*
X129612873Y-37969500D01*
X129612864Y-37969500D01*
X127537129Y-37969500D01*
X127537123Y-37969501D01*
X127477516Y-37975908D01*
X127342671Y-38026202D01*
X127342664Y-38026206D01*
X127227455Y-38112452D01*
X127227452Y-38112455D01*
X127141206Y-38227664D01*
X127141202Y-38227671D01*
X127090908Y-38362517D01*
X127084501Y-38422116D01*
X127084501Y-38422123D01*
X127084500Y-38422135D01*
X79330499Y-38422135D01*
X79330499Y-38422130D01*
X79330498Y-38422122D01*
X79330497Y-38422116D01*
X79324091Y-38362517D01*
X79323819Y-38361789D01*
X79273797Y-38227671D01*
X79273793Y-38227664D01*
X79187547Y-38112455D01*
X79187544Y-38112452D01*
X79072335Y-38026206D01*
X79072328Y-38026202D01*
X78937482Y-37975908D01*
X78937483Y-37975908D01*
X78877883Y-37969501D01*
X78877881Y-37969500D01*
X78877873Y-37969500D01*
X78877864Y-37969500D01*
X76802129Y-37969500D01*
X76802123Y-37969501D01*
X76742516Y-37975908D01*
X76607671Y-38026202D01*
X76607664Y-38026206D01*
X76492455Y-38112452D01*
X76492452Y-38112455D01*
X76406206Y-38227664D01*
X76406202Y-38227671D01*
X76355908Y-38362517D01*
X76349501Y-38422116D01*
X76349501Y-38422123D01*
X76349500Y-38422135D01*
X70000500Y-38422135D01*
X70000500Y-37877065D01*
X149124500Y-37877065D01*
X149124500Y-38122934D01*
X149138290Y-38227671D01*
X149156591Y-38366677D01*
X149220222Y-38604152D01*
X149220225Y-38604162D01*
X149309717Y-38820214D01*
X149314306Y-38831292D01*
X149437233Y-39044208D01*
X149437235Y-39044211D01*
X149437236Y-39044212D01*
X149586897Y-39239254D01*
X149586903Y-39239261D01*
X149760738Y-39413096D01*
X149760744Y-39413101D01*
X149955792Y-39562767D01*
X150168708Y-39685694D01*
X150395847Y-39779778D01*
X150633323Y-39843409D01*
X150877073Y-39875500D01*
X150877080Y-39875500D01*
X151122920Y-39875500D01*
X151122927Y-39875500D01*
X151366677Y-39843409D01*
X151604153Y-39779778D01*
X151831292Y-39685694D01*
X152044208Y-39562767D01*
X152239256Y-39413101D01*
X152413101Y-39239256D01*
X152562767Y-39044208D01*
X152685694Y-38831292D01*
X152779778Y-38604153D01*
X152843409Y-38366677D01*
X152875500Y-38122927D01*
X152875500Y-37878711D01*
X156649500Y-37878711D01*
X156649500Y-38121288D01*
X156676069Y-38323108D01*
X156681162Y-38361789D01*
X156697332Y-38422135D01*
X156743947Y-38596104D01*
X156836773Y-38820205D01*
X156836776Y-38820212D01*
X156958064Y-39030289D01*
X156958066Y-39030292D01*
X156958067Y-39030293D01*
X157105733Y-39222736D01*
X157105739Y-39222743D01*
X157277256Y-39394260D01*
X157277263Y-39394266D01*
X157301811Y-39413102D01*
X157469711Y-39541936D01*
X157679788Y-39663224D01*
X157903900Y-39756054D01*
X158138211Y-39818838D01*
X158318586Y-39842584D01*
X158378711Y-39850500D01*
X158378712Y-39850500D01*
X158621289Y-39850500D01*
X158675166Y-39843407D01*
X158861789Y-39818838D01*
X159096100Y-39756054D01*
X159320212Y-39663224D01*
X159530289Y-39541936D01*
X159722738Y-39394265D01*
X159894265Y-39222738D01*
X160041936Y-39030289D01*
X160163224Y-38820212D01*
X160256054Y-38596100D01*
X160318838Y-38361789D01*
X160350500Y-38121288D01*
X160350500Y-37878712D01*
X160318838Y-37638211D01*
X160256054Y-37403900D01*
X160163224Y-37179788D01*
X160041936Y-36969711D01*
X159894265Y-36777262D01*
X159894260Y-36777256D01*
X159722743Y-36605739D01*
X159722736Y-36605733D01*
X159530293Y-36458067D01*
X159530292Y-36458066D01*
X159530289Y-36458064D01*
X159320212Y-36336776D01*
X159265967Y-36314307D01*
X159096104Y-36243947D01*
X158861785Y-36181161D01*
X158621289Y-36149500D01*
X158621288Y-36149500D01*
X158378712Y-36149500D01*
X158378711Y-36149500D01*
X158138214Y-36181161D01*
X157903895Y-36243947D01*
X157679794Y-36336773D01*
X157679785Y-36336777D01*
X157469706Y-36458067D01*
X157277263Y-36605733D01*
X157277256Y-36605739D01*
X157105739Y-36777256D01*
X157105733Y-36777263D01*
X156958067Y-36969706D01*
X156836777Y-37179785D01*
X156836773Y-37179794D01*
X156743947Y-37403895D01*
X156681161Y-37638214D01*
X156649500Y-37878711D01*
X152875500Y-37878711D01*
X152875500Y-37877073D01*
X152843409Y-37633323D01*
X152779778Y-37395847D01*
X152685694Y-37168708D01*
X152562767Y-36955792D01*
X152413101Y-36760744D01*
X152413096Y-36760738D01*
X152239261Y-36586903D01*
X152239254Y-36586897D01*
X152044212Y-36437236D01*
X152044211Y-36437235D01*
X152044208Y-36437233D01*
X151831292Y-36314306D01*
X151831285Y-36314303D01*
X151604162Y-36220225D01*
X151604155Y-36220223D01*
X151604153Y-36220222D01*
X151366677Y-36156591D01*
X151312817Y-36149500D01*
X151122934Y-36124500D01*
X151122927Y-36124500D01*
X150877073Y-36124500D01*
X150877065Y-36124500D01*
X150645059Y-36155045D01*
X150633323Y-36156591D01*
X150395847Y-36220222D01*
X150395837Y-36220225D01*
X150168714Y-36314303D01*
X150168705Y-36314307D01*
X149955787Y-36437236D01*
X149760745Y-36586897D01*
X149760738Y-36586903D01*
X149586903Y-36760738D01*
X149586897Y-36760745D01*
X149437236Y-36955787D01*
X149314307Y-37168705D01*
X149314303Y-37168714D01*
X149220225Y-37395837D01*
X149220222Y-37395847D01*
X149156592Y-37633320D01*
X149156590Y-37633331D01*
X149124500Y-37877065D01*
X70000500Y-37877065D01*
X70000500Y-35624500D01*
X70020185Y-35557461D01*
X70072989Y-35511706D01*
X70124500Y-35500500D01*
X173875500Y-35500500D01*
X173942539Y-35520185D01*
G37*
%TD.AperFunction*%
%TA.AperFunction,Conductor*%
G36*
X102506587Y-123595185D02*
G01*
X102527229Y-123611819D01*
X102937891Y-124022481D01*
X102971376Y-124083804D01*
X102968141Y-124148480D01*
X102953985Y-124192047D01*
X102919500Y-124409778D01*
X102919500Y-124630221D01*
X102953985Y-124847952D01*
X103022103Y-125057603D01*
X103022104Y-125057606D01*
X103077694Y-125166705D01*
X103117129Y-125244100D01*
X103122187Y-125254025D01*
X103251752Y-125432358D01*
X103251756Y-125432363D01*
X103407636Y-125588243D01*
X103407641Y-125588247D01*
X103553179Y-125693985D01*
X103585978Y-125717815D01*
X103700199Y-125776014D01*
X103782393Y-125817895D01*
X103782396Y-125817896D01*
X103887221Y-125851955D01*
X103992049Y-125886015D01*
X104209778Y-125920500D01*
X104209779Y-125920500D01*
X104430220Y-125920500D01*
X104430222Y-125920500D01*
X104431925Y-125920230D01*
X104432578Y-125920314D01*
X104435073Y-125920118D01*
X104435114Y-125920642D01*
X104501218Y-125929181D01*
X104554672Y-125974175D01*
X104575315Y-126040925D01*
X104556593Y-126108240D01*
X104539011Y-126130381D01*
X104521757Y-126147635D01*
X104521752Y-126147641D01*
X104392187Y-126325974D01*
X104292104Y-126522393D01*
X104292103Y-126522396D01*
X104223985Y-126732047D01*
X104189500Y-126949778D01*
X104189500Y-127170221D01*
X104223985Y-127387952D01*
X104292103Y-127597603D01*
X104292104Y-127597606D01*
X104336138Y-127684025D01*
X104390552Y-127790818D01*
X104392187Y-127794025D01*
X104521752Y-127972358D01*
X104521756Y-127972363D01*
X104521758Y-127972365D01*
X104677635Y-128128242D01*
X104855978Y-128257815D01*
X104855982Y-128257817D01*
X104859920Y-128260678D01*
X104859180Y-128261696D01*
X104862252Y-128265090D01*
X104871703Y-128269407D01*
X104885294Y-128290556D01*
X104902161Y-128309196D01*
X104904863Y-128321006D01*
X104909477Y-128328185D01*
X104914500Y-128363120D01*
X104914500Y-128368837D01*
X104894815Y-128435876D01*
X104878181Y-128456518D01*
X104596518Y-128738181D01*
X104535195Y-128771666D01*
X104508837Y-128774500D01*
X96171163Y-128774500D01*
X96104124Y-128754815D01*
X96083482Y-128738181D01*
X94739095Y-127393794D01*
X94705610Y-127332471D01*
X94706148Y-127282904D01*
X94705253Y-127282763D01*
X94740500Y-127060221D01*
X94740500Y-126839778D01*
X94731216Y-126781163D01*
X94706015Y-126622049D01*
X94664826Y-126495281D01*
X94637896Y-126412396D01*
X94637895Y-126412393D01*
X94593861Y-126325974D01*
X94537815Y-126215978D01*
X94475366Y-126130024D01*
X94408247Y-126037641D01*
X94408243Y-126037636D01*
X94390990Y-126020383D01*
X94357505Y-125959060D01*
X94362489Y-125889368D01*
X94404361Y-125833435D01*
X94469825Y-125809018D01*
X94498065Y-125810228D01*
X94499778Y-125810500D01*
X94499783Y-125810500D01*
X94720221Y-125810500D01*
X94720222Y-125810500D01*
X94937951Y-125776015D01*
X95147606Y-125707895D01*
X95344022Y-125607815D01*
X95522365Y-125478242D01*
X95678242Y-125322365D01*
X95807815Y-125144022D01*
X95907895Y-124947606D01*
X95976015Y-124737951D01*
X96010500Y-124520222D01*
X96010500Y-124299778D01*
X95976015Y-124082049D01*
X95925848Y-123927647D01*
X95907896Y-123872396D01*
X95907893Y-123872388D01*
X95848485Y-123755796D01*
X95835588Y-123687126D01*
X95861864Y-123622386D01*
X95918970Y-123582128D01*
X95958969Y-123575500D01*
X102439548Y-123575500D01*
X102506587Y-123595185D01*
G37*
%TD.AperFunction*%
%TA.AperFunction,Conductor*%
G36*
X111485876Y-120145185D02*
G01*
X111506518Y-120161819D01*
X115420903Y-124076204D01*
X115454388Y-124137527D01*
X115453865Y-124187097D01*
X115454747Y-124187237D01*
X115419500Y-124409778D01*
X115419500Y-124630221D01*
X115453985Y-124847952D01*
X115522103Y-125057603D01*
X115522104Y-125057606D01*
X115577694Y-125166705D01*
X115617129Y-125244100D01*
X115622187Y-125254025D01*
X115751752Y-125432358D01*
X115751756Y-125432363D01*
X115907636Y-125588243D01*
X115907641Y-125588247D01*
X116053179Y-125693985D01*
X116085978Y-125717815D01*
X116200199Y-125776014D01*
X116282393Y-125817895D01*
X116282396Y-125817896D01*
X116387221Y-125851955D01*
X116492049Y-125886015D01*
X116709778Y-125920500D01*
X116709779Y-125920500D01*
X116930220Y-125920500D01*
X116930222Y-125920500D01*
X116931925Y-125920230D01*
X116932578Y-125920314D01*
X116935073Y-125920118D01*
X116935114Y-125920642D01*
X117001218Y-125929181D01*
X117054672Y-125974175D01*
X117075315Y-126040925D01*
X117056593Y-126108240D01*
X117039011Y-126130381D01*
X117021757Y-126147635D01*
X117021752Y-126147641D01*
X116892187Y-126325974D01*
X116792104Y-126522393D01*
X116792103Y-126522396D01*
X116723985Y-126732047D01*
X116689500Y-126949778D01*
X116689500Y-127170221D01*
X116723985Y-127387952D01*
X116792103Y-127597603D01*
X116792104Y-127597606D01*
X116862366Y-127735500D01*
X116892185Y-127794022D01*
X116892415Y-127794338D01*
X116892466Y-127794482D01*
X116894731Y-127798178D01*
X116893955Y-127798653D01*
X116915900Y-127860142D01*
X116900081Y-127928197D01*
X116879784Y-127954913D01*
X116096518Y-128738181D01*
X116035195Y-128771666D01*
X116008837Y-128774500D01*
X114671163Y-128774500D01*
X114604124Y-128754815D01*
X114583482Y-128738181D01*
X113551819Y-127706518D01*
X113518334Y-127645195D01*
X113515500Y-127618837D01*
X113515500Y-126383467D01*
X113513720Y-126374521D01*
X113509117Y-126351380D01*
X113489541Y-126252964D01*
X113445912Y-126147635D01*
X113438620Y-126130031D01*
X113438619Y-126130030D01*
X113438616Y-126130024D01*
X113364696Y-126019395D01*
X113319476Y-125974175D01*
X113270606Y-125925305D01*
X110536923Y-123191622D01*
X107770609Y-120425307D01*
X107770605Y-120425304D01*
X107661799Y-120352602D01*
X107616994Y-120298990D01*
X107608287Y-120229665D01*
X107638441Y-120166637D01*
X107697884Y-120129918D01*
X107730690Y-120125500D01*
X111418837Y-120125500D01*
X111485876Y-120145185D01*
G37*
%TD.AperFunction*%
%TA.AperFunction,Conductor*%
G36*
X79220703Y-118215739D02*
G01*
X79227181Y-118221771D01*
X85811016Y-124805606D01*
X85811045Y-124805637D01*
X85901263Y-124895855D01*
X85901267Y-124895858D01*
X86003707Y-124964307D01*
X86003713Y-124964310D01*
X86003714Y-124964311D01*
X86117548Y-125011463D01*
X86124193Y-125012784D01*
X86157391Y-125019389D01*
X86157421Y-125019394D01*
X86238390Y-125035499D01*
X86238392Y-125035500D01*
X86238393Y-125035500D01*
X86238394Y-125035500D01*
X90740903Y-125035500D01*
X90807942Y-125055185D01*
X90851387Y-125103203D01*
X90867514Y-125134854D01*
X90872187Y-125144026D01*
X91001752Y-125322358D01*
X91001756Y-125322363D01*
X91157636Y-125478243D01*
X91157641Y-125478247D01*
X91261426Y-125553650D01*
X91335978Y-125607815D01*
X91440321Y-125660981D01*
X91532393Y-125707895D01*
X91532396Y-125707896D01*
X91637221Y-125741955D01*
X91742049Y-125776015D01*
X91959778Y-125810500D01*
X91959779Y-125810500D01*
X92180220Y-125810500D01*
X92180222Y-125810500D01*
X92181925Y-125810230D01*
X92182578Y-125810314D01*
X92185073Y-125810118D01*
X92185114Y-125810642D01*
X92251218Y-125819181D01*
X92304672Y-125864175D01*
X92325315Y-125930925D01*
X92306593Y-125998240D01*
X92289011Y-126020381D01*
X92271757Y-126037635D01*
X92271752Y-126037641D01*
X92142187Y-126215974D01*
X92042104Y-126412393D01*
X92042103Y-126412396D01*
X91973985Y-126622047D01*
X91939500Y-126839778D01*
X91939500Y-127060221D01*
X91973984Y-127277950D01*
X91988141Y-127321521D01*
X91990135Y-127391362D01*
X91957890Y-127447518D01*
X91117229Y-128288181D01*
X91055906Y-128321666D01*
X91029548Y-128324500D01*
X88150452Y-128324500D01*
X88083413Y-128304815D01*
X88062771Y-128288181D01*
X79051819Y-119277229D01*
X79018334Y-119215906D01*
X79015500Y-119189548D01*
X79015500Y-118309452D01*
X79035185Y-118242413D01*
X79087989Y-118196658D01*
X79157147Y-118186714D01*
X79220703Y-118215739D01*
G37*
%TD.AperFunction*%
%TA.AperFunction,Conductor*%
G36*
X77508834Y-80268269D02*
G01*
X77564767Y-80310141D01*
X77589184Y-80375605D01*
X77589500Y-80384451D01*
X77589500Y-81847870D01*
X77589501Y-81847876D01*
X77595908Y-81907483D01*
X77646202Y-82042328D01*
X77646206Y-82042335D01*
X77732452Y-82157544D01*
X77732455Y-82157547D01*
X77847664Y-82243793D01*
X77847671Y-82243797D01*
X77892326Y-82260452D01*
X77982517Y-82294091D01*
X78042127Y-82300500D01*
X78140500Y-82300499D01*
X78207538Y-82320183D01*
X78253294Y-82372986D01*
X78264500Y-82424499D01*
X78264500Y-85116535D01*
X78290457Y-85247028D01*
X78290459Y-85247036D01*
X78341378Y-85369965D01*
X78341383Y-85369975D01*
X78415304Y-85480605D01*
X78415307Y-85480609D01*
X94315305Y-101380606D01*
X94409394Y-101474695D01*
X94409397Y-101474697D01*
X94409398Y-101474698D01*
X94520020Y-101548613D01*
X94520024Y-101548615D01*
X94520031Y-101548620D01*
X94556037Y-101563534D01*
X94642964Y-101599541D01*
X94773464Y-101625499D01*
X94773468Y-101625500D01*
X94773469Y-101625500D01*
X94906531Y-101625500D01*
X110508837Y-101625500D01*
X110575876Y-101645185D01*
X110596518Y-101661819D01*
X131842518Y-122907819D01*
X131876003Y-122969142D01*
X131871019Y-123038834D01*
X131829147Y-123094767D01*
X131763683Y-123119184D01*
X131754837Y-123119500D01*
X131749778Y-123119500D01*
X131677201Y-123130995D01*
X131532047Y-123153985D01*
X131322396Y-123222103D01*
X131322393Y-123222104D01*
X131125974Y-123322187D01*
X130947641Y-123451752D01*
X130947636Y-123451756D01*
X130791756Y-123607636D01*
X130791752Y-123607641D01*
X130662187Y-123785974D01*
X130562104Y-123982393D01*
X130562103Y-123982396D01*
X130493985Y-124192047D01*
X130459500Y-124409778D01*
X130459500Y-124630221D01*
X130493985Y-124847952D01*
X130562103Y-125057603D01*
X130562104Y-125057606D01*
X130617694Y-125166705D01*
X130657129Y-125244100D01*
X130662187Y-125254025D01*
X130791752Y-125432358D01*
X130791756Y-125432363D01*
X130809009Y-125449616D01*
X130842494Y-125510939D01*
X130837510Y-125580631D01*
X130795638Y-125636564D01*
X130730174Y-125660981D01*
X130701942Y-125659772D01*
X130700224Y-125659500D01*
X130700222Y-125659500D01*
X130479778Y-125659500D01*
X130407201Y-125670995D01*
X130262047Y-125693985D01*
X130052396Y-125762103D01*
X130052393Y-125762104D01*
X129855974Y-125862187D01*
X129677641Y-125991752D01*
X129677636Y-125991756D01*
X129521758Y-126147635D01*
X129521752Y-126147641D01*
X129392187Y-126325974D01*
X129292104Y-126522393D01*
X129292103Y-126522396D01*
X129223985Y-126732047D01*
X129189500Y-126949778D01*
X129189500Y-127170221D01*
X129223985Y-127387952D01*
X129292103Y-127597603D01*
X129292104Y-127597606D01*
X129336138Y-127684025D01*
X129390552Y-127790818D01*
X129392187Y-127794025D01*
X129521752Y-127972358D01*
X129521756Y-127972363D01*
X129537212Y-127987819D01*
X129570697Y-128049142D01*
X129565713Y-128118834D01*
X129523841Y-128174767D01*
X129458377Y-128199184D01*
X129449531Y-128199500D01*
X124152230Y-128199500D01*
X124085191Y-128179815D01*
X124064549Y-128163181D01*
X120773876Y-124872508D01*
X120740391Y-124811185D01*
X120739084Y-124765434D01*
X120760500Y-124630222D01*
X120760500Y-124409778D01*
X120726015Y-124192049D01*
X120657895Y-123982394D01*
X120657895Y-123982393D01*
X120623237Y-123914375D01*
X120557815Y-123785978D01*
X120507551Y-123716795D01*
X120428247Y-123607641D01*
X120428243Y-123607636D01*
X120272363Y-123451756D01*
X120272358Y-123451752D01*
X120094025Y-123322187D01*
X120094024Y-123322186D01*
X120094022Y-123322185D01*
X120031096Y-123290122D01*
X119897606Y-123222104D01*
X119897603Y-123222103D01*
X119687952Y-123153985D01*
X119569998Y-123135303D01*
X119470222Y-123119500D01*
X119249778Y-123119500D01*
X119177201Y-123130995D01*
X119032047Y-123153985D01*
X118822396Y-123222103D01*
X118822393Y-123222104D01*
X118625974Y-123322187D01*
X118447641Y-123451752D01*
X118447636Y-123451756D01*
X118291756Y-123607636D01*
X118291752Y-123607641D01*
X118190318Y-123747254D01*
X118134988Y-123789920D01*
X118065375Y-123795899D01*
X118003580Y-123763293D01*
X117989682Y-123747254D01*
X117888247Y-123607641D01*
X117888243Y-123607636D01*
X117732363Y-123451756D01*
X117732358Y-123451752D01*
X117554025Y-123322187D01*
X117554024Y-123322186D01*
X117554022Y-123322185D01*
X117491096Y-123290122D01*
X117357606Y-123222104D01*
X117357603Y-123222103D01*
X117147952Y-123153985D01*
X117029998Y-123135303D01*
X116930222Y-123119500D01*
X116709778Y-123119500D01*
X116610002Y-123135303D01*
X116487237Y-123154747D01*
X116487041Y-123153515D01*
X116423014Y-123150293D01*
X116376204Y-123120903D01*
X112180609Y-118925307D01*
X112180605Y-118925304D01*
X112069975Y-118851383D01*
X112069965Y-118851378D01*
X111947036Y-118800459D01*
X111947028Y-118800457D01*
X111816535Y-118774500D01*
X111816531Y-118774500D01*
X88481163Y-118774500D01*
X88414124Y-118754815D01*
X88393482Y-118738181D01*
X86279095Y-116623794D01*
X86245610Y-116562471D01*
X86246148Y-116512904D01*
X86245253Y-116512763D01*
X86280124Y-116292598D01*
X86280500Y-116290222D01*
X86280500Y-116069778D01*
X86246015Y-115852049D01*
X86231857Y-115808478D01*
X86229863Y-115738638D01*
X86262106Y-115682482D01*
X88738729Y-113205860D01*
X88738733Y-113205858D01*
X88825858Y-113118733D01*
X88894311Y-113016286D01*
X88894312Y-113016285D01*
X88930259Y-112929500D01*
X88941463Y-112902452D01*
X88965500Y-112781606D01*
X88965500Y-102888394D01*
X88941463Y-102767548D01*
X88913388Y-102699769D01*
X88894312Y-102653714D01*
X88851511Y-102589659D01*
X88825858Y-102551267D01*
X88825856Y-102551264D01*
X88735637Y-102461045D01*
X88735606Y-102461016D01*
X75501819Y-89227229D01*
X75468334Y-89165906D01*
X75465500Y-89139548D01*
X75465500Y-82260452D01*
X75485185Y-82193413D01*
X75501819Y-82172771D01*
X76425090Y-81249500D01*
X77377821Y-80296768D01*
X77439142Y-80263285D01*
X77508834Y-80268269D01*
G37*
%TD.AperFunction*%
%TA.AperFunction,Conductor*%
G36*
X87633834Y-108143269D02*
G01*
X87689767Y-108185141D01*
X87714184Y-108250605D01*
X87714500Y-108259451D01*
X87714500Y-112409547D01*
X87694815Y-112476586D01*
X87678181Y-112497228D01*
X85377518Y-114797890D01*
X85316195Y-114831375D01*
X85251521Y-114828141D01*
X85207950Y-114813984D01*
X85024706Y-114784961D01*
X84990222Y-114779500D01*
X84769778Y-114779500D01*
X84697201Y-114790995D01*
X84552047Y-114813985D01*
X84342396Y-114882103D01*
X84342393Y-114882104D01*
X84145974Y-114982187D01*
X83967641Y-115111752D01*
X83967636Y-115111756D01*
X83811756Y-115267636D01*
X83811752Y-115267641D01*
X83682187Y-115445974D01*
X83582104Y-115642393D01*
X83582103Y-115642396D01*
X83513985Y-115852047D01*
X83479500Y-116069778D01*
X83479500Y-116290224D01*
X83479772Y-116291942D01*
X83479687Y-116292598D01*
X83479882Y-116295073D01*
X83479361Y-116295113D01*
X83470810Y-116361235D01*
X83425809Y-116414682D01*
X83359055Y-116435316D01*
X83291743Y-116416584D01*
X83269616Y-116399009D01*
X83252363Y-116381756D01*
X83252358Y-116381752D01*
X83074025Y-116252187D01*
X83074024Y-116252186D01*
X83074022Y-116252185D01*
X83011096Y-116220122D01*
X82877606Y-116152104D01*
X82877603Y-116152103D01*
X82667952Y-116083985D01*
X82559086Y-116066742D01*
X82450222Y-116049500D01*
X82229778Y-116049500D01*
X82157201Y-116060995D01*
X82012047Y-116083985D01*
X81968480Y-116098141D01*
X81898639Y-116100136D01*
X81842481Y-116067891D01*
X80501819Y-114727229D01*
X80468334Y-114665906D01*
X80465500Y-114639548D01*
X80465500Y-113260452D01*
X80485185Y-113193413D01*
X80501819Y-113172771D01*
X82562771Y-111111819D01*
X82624094Y-111078334D01*
X82650452Y-111075500D01*
X84401607Y-111075500D01*
X84462029Y-111063481D01*
X84522452Y-111051463D01*
X84555792Y-111037652D01*
X84636286Y-111004312D01*
X84687509Y-110970084D01*
X84738733Y-110935858D01*
X84825858Y-110848733D01*
X84825858Y-110848731D01*
X84836066Y-110838524D01*
X84836067Y-110838521D01*
X87502821Y-108171768D01*
X87564142Y-108138285D01*
X87633834Y-108143269D01*
G37*
%TD.AperFunction*%
%TA.AperFunction,Conductor*%
G36*
X74170703Y-92582947D02*
G01*
X74177181Y-92588979D01*
X83999533Y-102411332D01*
X84033018Y-102472655D01*
X84028034Y-102542347D01*
X83986162Y-102598280D01*
X83984742Y-102599327D01*
X83967643Y-102611750D01*
X83967632Y-102611760D01*
X83811756Y-102767636D01*
X83811752Y-102767641D01*
X83682187Y-102945974D01*
X83582104Y-103142393D01*
X83582103Y-103142396D01*
X83513985Y-103352047D01*
X83479500Y-103569778D01*
X83479500Y-103790224D01*
X83479772Y-103791942D01*
X83479687Y-103792598D01*
X83479882Y-103795073D01*
X83479361Y-103795113D01*
X83470810Y-103861235D01*
X83425809Y-103914682D01*
X83359055Y-103935316D01*
X83291743Y-103916584D01*
X83269616Y-103899009D01*
X83252363Y-103881756D01*
X83252358Y-103881752D01*
X83074025Y-103752187D01*
X83074024Y-103752186D01*
X83074022Y-103752185D01*
X83011096Y-103720122D01*
X82877606Y-103652104D01*
X82877603Y-103652103D01*
X82667952Y-103583985D01*
X82559086Y-103566742D01*
X82450222Y-103549500D01*
X82229778Y-103549500D01*
X82157201Y-103560995D01*
X82012047Y-103583985D01*
X81968480Y-103598141D01*
X81898639Y-103600136D01*
X81842481Y-103567891D01*
X80501819Y-102227229D01*
X80468334Y-102165906D01*
X80465500Y-102139548D01*
X80465500Y-99620324D01*
X80465500Y-99620322D01*
X80441463Y-99499476D01*
X80427652Y-99466135D01*
X80394312Y-99385642D01*
X80360084Y-99334418D01*
X80325858Y-99283195D01*
X80325856Y-99283192D01*
X80235637Y-99192973D01*
X80235606Y-99192944D01*
X74001819Y-92959157D01*
X73987115Y-92932229D01*
X73970523Y-92906411D01*
X73969631Y-92900210D01*
X73968334Y-92897834D01*
X73965500Y-92871476D01*
X73965500Y-92676660D01*
X73985185Y-92609621D01*
X74037989Y-92563866D01*
X74107147Y-92553922D01*
X74170703Y-92582947D01*
G37*
%TD.AperFunction*%
%TD*%
M02*
