%TF.GenerationSoftware,KiCad,Pcbnew,9.0.2-9.0.2-0~ubuntu24.04.1*%
%TF.CreationDate,2025-07-05T10:39:13-05:00*%
%TF.ProjectId,RECUV01,52454355-5630-4312-9e6b-696361645f70,rev?*%
%TF.SameCoordinates,Original*%
%TF.FileFunction,Paste,Top*%
%TF.FilePolarity,Positive*%
%FSLAX46Y46*%
G04 Gerber Fmt 4.6, Leading zero omitted, Abs format (unit mm)*
G04 Created by KiCad (PCBNEW 9.0.2-9.0.2-0~ubuntu24.04.1) date 2025-07-05 10:39:13*
%MOMM*%
%LPD*%
G01*
G04 APERTURE LIST*
G04 Aperture macros list*
%AMRoundRect*
0 Rectangle with rounded corners*
0 $1 Rounding radius*
0 $2 $3 $4 $5 $6 $7 $8 $9 X,Y pos of 4 corners*
0 Add a 4 corners polygon primitive as box body*
4,1,4,$2,$3,$4,$5,$6,$7,$8,$9,$2,$3,0*
0 Add four circle primitives for the rounded corners*
1,1,$1+$1,$2,$3*
1,1,$1+$1,$4,$5*
1,1,$1+$1,$6,$7*
1,1,$1+$1,$8,$9*
0 Add four rect primitives between the rounded corners*
20,1,$1+$1,$2,$3,$4,$5,0*
20,1,$1+$1,$4,$5,$6,$7,0*
20,1,$1+$1,$6,$7,$8,$9,0*
20,1,$1+$1,$8,$9,$2,$3,0*%
G04 Aperture macros list end*
%ADD10RoundRect,0.250000X-0.450000X0.262500X-0.450000X-0.262500X0.450000X-0.262500X0.450000X0.262500X0*%
%ADD11RoundRect,0.250000X-0.262500X-0.450000X0.262500X-0.450000X0.262500X0.450000X-0.262500X0.450000X0*%
%ADD12RoundRect,0.250000X0.262500X0.450000X-0.262500X0.450000X-0.262500X-0.450000X0.262500X-0.450000X0*%
%ADD13RoundRect,0.250000X0.475000X-0.250000X0.475000X0.250000X-0.475000X0.250000X-0.475000X-0.250000X0*%
%ADD14RoundRect,0.250000X-0.250000X-0.475000X0.250000X-0.475000X0.250000X0.475000X-0.250000X0.475000X0*%
%ADD15RoundRect,0.150000X-0.150000X0.825000X-0.150000X-0.825000X0.150000X-0.825000X0.150000X0.825000X0*%
%ADD16RoundRect,0.243750X-0.243750X-0.456250X0.243750X-0.456250X0.243750X0.456250X-0.243750X0.456250X0*%
%ADD17RoundRect,0.250000X0.450000X-0.262500X0.450000X0.262500X-0.450000X0.262500X-0.450000X-0.262500X0*%
%ADD18RoundRect,0.375000X0.625000X0.375000X-0.625000X0.375000X-0.625000X-0.375000X0.625000X-0.375000X0*%
%ADD19RoundRect,0.500000X0.500000X1.400000X-0.500000X1.400000X-0.500000X-1.400000X0.500000X-1.400000X0*%
%ADD20RoundRect,0.250000X0.650000X-1.000000X0.650000X1.000000X-0.650000X1.000000X-0.650000X-1.000000X0*%
%ADD21R,0.900000X1.500000*%
%ADD22R,1.500000X0.900000*%
%ADD23R,0.900000X0.900000*%
%ADD24R,0.300000X1.150000*%
%ADD25RoundRect,0.243750X0.456250X-0.243750X0.456250X0.243750X-0.456250X0.243750X-0.456250X-0.243750X0*%
%ADD26R,1.250000X1.000000*%
%ADD27RoundRect,0.250000X-0.475000X0.250000X-0.475000X-0.250000X0.475000X-0.250000X0.475000X0.250000X0*%
%ADD28RoundRect,0.250000X0.250000X0.475000X-0.250000X0.475000X-0.250000X-0.475000X0.250000X-0.475000X0*%
%ADD29RoundRect,0.150000X0.150000X-0.512500X0.150000X0.512500X-0.150000X0.512500X-0.150000X-0.512500X0*%
G04 APERTURE END LIST*
D10*
%TO.C,R2*%
X115840000Y-45037500D03*
X115840000Y-46862500D03*
%TD*%
D11*
%TO.C,R9*%
X108377500Y-71675000D03*
X110202500Y-71675000D03*
%TD*%
D12*
%TO.C,R15*%
X72752500Y-48950000D03*
X70927500Y-48950000D03*
%TD*%
D13*
%TO.C,C7*%
X123790000Y-57625000D03*
X123790000Y-55725000D03*
%TD*%
%TO.C,C6*%
X121290000Y-57625000D03*
X121290000Y-55725000D03*
%TD*%
D14*
%TO.C,C12*%
X89890000Y-90500000D03*
X91790000Y-90500000D03*
%TD*%
D15*
%TO.C,U4*%
X143245000Y-50450000D03*
X141975000Y-50450000D03*
X140705000Y-50450000D03*
X139435000Y-50450000D03*
X139435000Y-55400000D03*
X140705000Y-55400000D03*
X141975000Y-55400000D03*
X143245000Y-55400000D03*
%TD*%
D16*
%TO.C,D1*%
X98965000Y-42450000D03*
X100840000Y-42450000D03*
%TD*%
D14*
%TO.C,C2*%
X131390000Y-61450000D03*
X133290000Y-61450000D03*
%TD*%
D17*
%TO.C,R10*%
X80340000Y-87912500D03*
X80340000Y-86087500D03*
%TD*%
D18*
%TO.C,U2*%
X124590000Y-68475000D03*
X124590000Y-66175000D03*
D19*
X118290000Y-66175000D03*
D18*
X124590000Y-63875000D03*
%TD*%
D20*
%TO.C,D3*%
X128340000Y-67950000D03*
X128340000Y-63950000D03*
%TD*%
D21*
%TO.C,U3*%
X77260000Y-75950000D03*
X78530000Y-75950000D03*
X79800000Y-75950000D03*
X81070000Y-75950000D03*
X82340000Y-75950000D03*
X83610000Y-75950000D03*
X84880000Y-75950000D03*
X86150000Y-75950000D03*
X87420000Y-75950000D03*
X88690000Y-75950000D03*
X89960000Y-75950000D03*
X91230000Y-75950000D03*
X92500000Y-75950000D03*
X93770000Y-75950000D03*
D22*
X95020000Y-74185000D03*
X95020000Y-72915000D03*
X95020000Y-71645000D03*
X95020000Y-70375000D03*
X95020000Y-69105000D03*
X95020000Y-67835000D03*
X95020000Y-66565000D03*
X95020000Y-65295000D03*
X95020000Y-64025000D03*
X95020000Y-62755000D03*
X95020000Y-61485000D03*
X95020000Y-60215000D03*
D21*
X93770000Y-58450000D03*
X92500000Y-58450000D03*
X91230000Y-58450000D03*
X89960000Y-58450000D03*
X88690000Y-58450000D03*
X87420000Y-58450000D03*
X86150000Y-58450000D03*
X84880000Y-58450000D03*
X83610000Y-58450000D03*
X82340000Y-58450000D03*
X81070000Y-58450000D03*
X79800000Y-58450000D03*
X78530000Y-58450000D03*
X77260000Y-58450000D03*
D23*
X83580000Y-70100000D03*
X84980000Y-70100000D03*
X86380000Y-70100000D03*
X86380000Y-70100000D03*
X83580000Y-68700000D03*
X83580000Y-68700000D03*
X84980000Y-68700000D03*
X86380000Y-68700000D03*
X83580000Y-67300000D03*
X84980000Y-67300000D03*
X86380000Y-67300000D03*
%TD*%
D10*
%TO.C,R7*%
X80340000Y-90087500D03*
X80340000Y-91912500D03*
%TD*%
D24*
%TO.C,J1*%
X117140000Y-41620000D03*
X116340000Y-41620000D03*
X115040000Y-41620000D03*
X114040000Y-41620000D03*
X113540000Y-41620000D03*
X112540000Y-41620000D03*
X111240000Y-41620000D03*
X110440000Y-41620000D03*
X110740000Y-41620000D03*
X111540000Y-41620000D03*
X112040000Y-41620000D03*
X113040000Y-41620000D03*
X114540000Y-41620000D03*
X115540000Y-41620000D03*
X116040000Y-41620000D03*
X116840000Y-41620000D03*
%TD*%
D16*
%TO.C,D2*%
X98965000Y-47450000D03*
X100840000Y-47450000D03*
%TD*%
D25*
%TO.C,D4*%
X77840000Y-91875000D03*
X77840000Y-90000000D03*
%TD*%
D10*
%TO.C,R1*%
X110840000Y-44950000D03*
X110840000Y-46775000D03*
%TD*%
D12*
%TO.C,R5*%
X104815000Y-42450000D03*
X102990000Y-42450000D03*
%TD*%
D11*
%TO.C,R14*%
X70927500Y-46450000D03*
X72752500Y-46450000D03*
%TD*%
D26*
%TO.C,SW2*%
X87840000Y-43450000D03*
X95590000Y-43450000D03*
%TD*%
D15*
%TO.C,U1*%
X118235000Y-54200000D03*
X116965000Y-54200000D03*
X115695000Y-54200000D03*
X114425000Y-54200000D03*
X113155000Y-54200000D03*
X111885000Y-54200000D03*
X110615000Y-54200000D03*
X109345000Y-54200000D03*
X109345000Y-59150000D03*
X110615000Y-59150000D03*
X111885000Y-59150000D03*
X113155000Y-59150000D03*
X114425000Y-59150000D03*
X115695000Y-59150000D03*
X116965000Y-59150000D03*
X118235000Y-59150000D03*
%TD*%
D27*
%TO.C,C10*%
X121290000Y-59725000D03*
X121290000Y-61625000D03*
%TD*%
D14*
%TO.C,C1*%
X131390000Y-63950000D03*
X133290000Y-63950000D03*
%TD*%
D12*
%TO.C,R6*%
X104727500Y-47450000D03*
X102902500Y-47450000D03*
%TD*%
D27*
%TO.C,C17*%
X154250000Y-75150000D03*
X154250000Y-77050000D03*
%TD*%
D28*
%TO.C,C15*%
X135790000Y-52450000D03*
X133890000Y-52450000D03*
%TD*%
D27*
%TO.C,C18*%
X154250000Y-62650000D03*
X154250000Y-64550000D03*
%TD*%
D14*
%TO.C,C3*%
X116840000Y-49175000D03*
X118740000Y-49175000D03*
%TD*%
%TO.C,C8*%
X112340000Y-63175000D03*
X114240000Y-63175000D03*
%TD*%
D11*
%TO.C,R12*%
X119640000Y-119910000D03*
X121465000Y-119910000D03*
%TD*%
D29*
%TO.C,Q1*%
X112340000Y-67950000D03*
X114240000Y-67950000D03*
X113290000Y-65675000D03*
%TD*%
D14*
%TO.C,C14*%
X138140000Y-116410000D03*
X140040000Y-116410000D03*
%TD*%
D28*
%TO.C,C9*%
X95740000Y-39950000D03*
X93840000Y-39950000D03*
%TD*%
D29*
%TO.C,Q2*%
X108340000Y-67950000D03*
X110240000Y-67950000D03*
X109290000Y-65675000D03*
%TD*%
D11*
%TO.C,R4*%
X99077500Y-49950000D03*
X100902500Y-49950000D03*
%TD*%
D17*
%TO.C,R11*%
X82840000Y-87912500D03*
X82840000Y-86087500D03*
%TD*%
D13*
%TO.C,C4*%
X123790000Y-52125000D03*
X123790000Y-50225000D03*
%TD*%
%TO.C,C11*%
X77840000Y-87950000D03*
X77840000Y-86050000D03*
%TD*%
D12*
%TO.C,R8*%
X110202500Y-74450000D03*
X108377500Y-74450000D03*
%TD*%
D28*
%TO.C,C16*%
X135790000Y-54950000D03*
X133890000Y-54950000D03*
%TD*%
D26*
%TO.C,SW1*%
X96215000Y-87000000D03*
X88465000Y-87000000D03*
%TD*%
D14*
%TO.C,C13*%
X125640000Y-116410000D03*
X127540000Y-116410000D03*
%TD*%
D12*
%TO.C,R3*%
X100752500Y-44950000D03*
X98927500Y-44950000D03*
%TD*%
D13*
%TO.C,C5*%
X121290000Y-52125000D03*
X121290000Y-50225000D03*
%TD*%
D17*
%TO.C,R13*%
X154250000Y-114425000D03*
X154250000Y-112600000D03*
%TD*%
M02*
