%TF.GenerationSoftware,KiCad,Pcbnew,9.0.2-9.0.2-0~ubuntu24.04.1*%
%TF.CreationDate,2025-07-05T10:39:13-05:00*%
%TF.ProjectId,RECUV01,52454355-5630-4312-9e6b-696361645f70,rev?*%
%TF.SameCoordinates,Original*%
%TF.FileFunction,Soldermask,Top*%
%TF.FilePolarity,Negative*%
%FSLAX46Y46*%
G04 Gerber Fmt 4.6, Leading zero omitted, Abs format (unit mm)*
G04 Created by KiCad (PCBNEW 9.0.2-9.0.2-0~ubuntu24.04.1) date 2025-07-05 10:39:13*
%MOMM*%
%LPD*%
G01*
G04 APERTURE LIST*
G04 Aperture macros list*
%AMRoundRect*
0 Rectangle with rounded corners*
0 $1 Rounding radius*
0 $2 $3 $4 $5 $6 $7 $8 $9 X,Y pos of 4 corners*
0 Add a 4 corners polygon primitive as box body*
4,1,4,$2,$3,$4,$5,$6,$7,$8,$9,$2,$3,0*
0 Add four circle primitives for the rounded corners*
1,1,$1+$1,$2,$3*
1,1,$1+$1,$4,$5*
1,1,$1+$1,$6,$7*
1,1,$1+$1,$8,$9*
0 Add four rect primitives between the rounded corners*
20,1,$1+$1,$2,$3,$4,$5,0*
20,1,$1+$1,$4,$5,$6,$7,0*
20,1,$1+$1,$6,$7,$8,$9,0*
20,1,$1+$1,$8,$9,$2,$3,0*%
G04 Aperture macros list end*
%ADD10RoundRect,0.250000X-0.450000X0.262500X-0.450000X-0.262500X0.450000X-0.262500X0.450000X0.262500X0*%
%ADD11R,1.700000X1.700000*%
%ADD12O,1.700000X1.700000*%
%ADD13RoundRect,0.250000X-0.262500X-0.450000X0.262500X-0.450000X0.262500X0.450000X-0.262500X0.450000X0*%
%ADD14RoundRect,0.250000X0.262500X0.450000X-0.262500X0.450000X-0.262500X-0.450000X0.262500X-0.450000X0*%
%ADD15RoundRect,0.250000X0.475000X-0.250000X0.475000X0.250000X-0.475000X0.250000X-0.475000X-0.250000X0*%
%ADD16RoundRect,0.250000X-0.250000X-0.475000X0.250000X-0.475000X0.250000X0.475000X-0.250000X0.475000X0*%
%ADD17RoundRect,0.150000X-0.150000X0.825000X-0.150000X-0.825000X0.150000X-0.825000X0.150000X0.825000X0*%
%ADD18RoundRect,0.243750X-0.243750X-0.456250X0.243750X-0.456250X0.243750X0.456250X-0.243750X0.456250X0*%
%ADD19C,3.250000*%
%ADD20RoundRect,0.250000X-0.650000X-0.650000X0.650000X-0.650000X0.650000X0.650000X-0.650000X0.650000X0*%
%ADD21C,1.800000*%
%ADD22RoundRect,0.250000X0.450000X-0.262500X0.450000X0.262500X-0.450000X0.262500X-0.450000X-0.262500X0*%
%ADD23RoundRect,0.375000X0.625000X0.375000X-0.625000X0.375000X-0.625000X-0.375000X0.625000X-0.375000X0*%
%ADD24RoundRect,0.500000X0.500000X1.400000X-0.500000X1.400000X-0.500000X-1.400000X0.500000X-1.400000X0*%
%ADD25RoundRect,0.250000X0.650000X-0.650000X0.650000X0.650000X-0.650000X0.650000X-0.650000X-0.650000X0*%
%ADD26R,1.980000X3.960000*%
%ADD27O,1.980000X3.960000*%
%ADD28RoundRect,0.250000X0.650000X-1.000000X0.650000X1.000000X-0.650000X1.000000X-0.650000X-1.000000X0*%
%ADD29R,0.900000X1.500000*%
%ADD30R,1.500000X0.900000*%
%ADD31R,0.900000X0.900000*%
%ADD32C,0.650000*%
%ADD33R,0.300000X1.150000*%
%ADD34O,1.000000X2.100000*%
%ADD35O,1.000000X1.600000*%
%ADD36RoundRect,0.243750X0.456250X-0.243750X0.456250X0.243750X-0.456250X0.243750X-0.456250X-0.243750X0*%
%ADD37RoundRect,0.250000X-0.650000X0.650000X-0.650000X-0.650000X0.650000X-0.650000X0.650000X0.650000X0*%
%ADD38R,1.250000X1.000000*%
%ADD39RoundRect,0.250000X-0.475000X0.250000X-0.475000X-0.250000X0.475000X-0.250000X0.475000X0.250000X0*%
%ADD40RoundRect,0.250000X0.250000X0.475000X-0.250000X0.475000X-0.250000X-0.475000X0.250000X-0.475000X0*%
%ADD41RoundRect,0.250000X0.650000X0.650000X-0.650000X0.650000X-0.650000X-0.650000X0.650000X-0.650000X0*%
%ADD42RoundRect,0.150000X0.150000X-0.512500X0.150000X0.512500X-0.150000X0.512500X-0.150000X-0.512500X0*%
G04 APERTURE END LIST*
D10*
%TO.C,R2*%
X115840000Y-45037500D03*
X115840000Y-46862500D03*
%TD*%
D11*
%TO.C,J7*%
X103340000Y-78770000D03*
D12*
X103340000Y-76230000D03*
X103340000Y-73690000D03*
X103340000Y-71150000D03*
X103340000Y-68610000D03*
X103340000Y-66070000D03*
X103340000Y-63530000D03*
X103340000Y-60990000D03*
X103340000Y-58450000D03*
X103340000Y-55910000D03*
%TD*%
D13*
%TO.C,R9*%
X108377500Y-71675000D03*
X110202500Y-71675000D03*
%TD*%
D14*
%TO.C,R15*%
X72752500Y-48950000D03*
X70927500Y-48950000D03*
%TD*%
D15*
%TO.C,C7*%
X123790000Y-57625000D03*
X123790000Y-55725000D03*
%TD*%
%TO.C,C6*%
X121290000Y-57625000D03*
X121290000Y-55725000D03*
%TD*%
D16*
%TO.C,C12*%
X89890000Y-90500000D03*
X91790000Y-90500000D03*
%TD*%
D17*
%TO.C,U4*%
X143245000Y-50450000D03*
X141975000Y-50450000D03*
X140705000Y-50450000D03*
X139435000Y-50450000D03*
X139435000Y-55400000D03*
X140705000Y-55400000D03*
X141975000Y-55400000D03*
X143245000Y-55400000D03*
%TD*%
D18*
%TO.C,D1*%
X98965000Y-42450000D03*
X100840000Y-42450000D03*
%TD*%
D19*
%TO.C,BUS_I2C_1_1*%
X101140000Y-133410000D03*
X108640000Y-133410000D03*
D20*
X103050000Y-127060000D03*
D21*
X104320000Y-124520000D03*
X105590000Y-127060000D03*
X106860000Y-124520000D03*
%TD*%
D16*
%TO.C,C2*%
X131390000Y-61450000D03*
X133290000Y-61450000D03*
%TD*%
D22*
%TO.C,R10*%
X80340000Y-87912500D03*
X80340000Y-86087500D03*
%TD*%
D23*
%TO.C,U2*%
X124590000Y-68475000D03*
X124590000Y-66175000D03*
D24*
X118290000Y-66175000D03*
D23*
X124590000Y-63875000D03*
%TD*%
D19*
%TO.C,FC28_1*%
X150890000Y-133300000D03*
X158390000Y-133300000D03*
D20*
X152800000Y-126950000D03*
D21*
X154070000Y-124410000D03*
X155340000Y-126950000D03*
X156610000Y-124410000D03*
%TD*%
D11*
%TO.C,J6*%
X78940000Y-80950000D03*
D12*
X81480000Y-80950000D03*
X84020000Y-80950000D03*
X86560000Y-80950000D03*
X89100000Y-80950000D03*
X91640000Y-80950000D03*
X94180000Y-80950000D03*
X96720000Y-80950000D03*
X99260000Y-80950000D03*
%TD*%
D19*
%TO.C,PLUVIOMETER_2*%
X171250000Y-83100000D03*
X171250000Y-75600000D03*
D25*
X164900000Y-81190000D03*
D21*
X162360000Y-79920000D03*
X164900000Y-78650000D03*
X162360000Y-77380000D03*
%TD*%
D26*
%TO.C,J4*%
X140075000Y-40450000D03*
D27*
X145075000Y-40450000D03*
%TD*%
D19*
%TO.C,HX711_1*%
X171250000Y-58600000D03*
X171250000Y-51100000D03*
D25*
X164900000Y-56690000D03*
D21*
X162360000Y-55420000D03*
X164900000Y-54150000D03*
X162360000Y-52880000D03*
%TD*%
D28*
%TO.C,D3*%
X128340000Y-67950000D03*
X128340000Y-63950000D03*
%TD*%
D26*
%TO.C,J3*%
X77840000Y-40450000D03*
D27*
X82840000Y-40450000D03*
%TD*%
D29*
%TO.C,U3*%
X77260000Y-75950000D03*
X78530000Y-75950000D03*
X79800000Y-75950000D03*
X81070000Y-75950000D03*
X82340000Y-75950000D03*
X83610000Y-75950000D03*
X84880000Y-75950000D03*
X86150000Y-75950000D03*
X87420000Y-75950000D03*
X88690000Y-75950000D03*
X89960000Y-75950000D03*
X91230000Y-75950000D03*
X92500000Y-75950000D03*
X93770000Y-75950000D03*
D30*
X95020000Y-74185000D03*
X95020000Y-72915000D03*
X95020000Y-71645000D03*
X95020000Y-70375000D03*
X95020000Y-69105000D03*
X95020000Y-67835000D03*
X95020000Y-66565000D03*
X95020000Y-65295000D03*
X95020000Y-64025000D03*
X95020000Y-62755000D03*
X95020000Y-61485000D03*
X95020000Y-60215000D03*
D29*
X93770000Y-58450000D03*
X92500000Y-58450000D03*
X91230000Y-58450000D03*
X89960000Y-58450000D03*
X88690000Y-58450000D03*
X87420000Y-58450000D03*
X86150000Y-58450000D03*
X84880000Y-58450000D03*
X83610000Y-58450000D03*
X82340000Y-58450000D03*
X81070000Y-58450000D03*
X79800000Y-58450000D03*
X78530000Y-58450000D03*
X77260000Y-58450000D03*
D31*
X83580000Y-70100000D03*
X84980000Y-70100000D03*
X86380000Y-70100000D03*
X86380000Y-70100000D03*
X83580000Y-68700000D03*
X83580000Y-68700000D03*
X84980000Y-68700000D03*
X86380000Y-68700000D03*
X83580000Y-67300000D03*
X84980000Y-67300000D03*
X86380000Y-67300000D03*
%TD*%
D10*
%TO.C,R7*%
X80340000Y-90087500D03*
X80340000Y-91912500D03*
%TD*%
D32*
%TO.C,J1*%
X116680000Y-40555000D03*
X110900000Y-40555000D03*
D33*
X117140000Y-41620000D03*
X116340000Y-41620000D03*
X115040000Y-41620000D03*
X114040000Y-41620000D03*
X113540000Y-41620000D03*
X112540000Y-41620000D03*
X111240000Y-41620000D03*
X110440000Y-41620000D03*
X110740000Y-41620000D03*
X111540000Y-41620000D03*
X112040000Y-41620000D03*
X113040000Y-41620000D03*
X114540000Y-41620000D03*
X115540000Y-41620000D03*
X116040000Y-41620000D03*
X116840000Y-41620000D03*
D34*
X118110000Y-41055000D03*
D35*
X118110000Y-36875000D03*
D34*
X109470000Y-41055000D03*
D35*
X109470000Y-36875000D03*
%TD*%
D19*
%TO.C,DS18B20_1*%
X171250000Y-120050000D03*
X171250000Y-112550000D03*
D25*
X164900000Y-118140000D03*
D21*
X162360000Y-116870000D03*
X164900000Y-115600000D03*
X162360000Y-114330000D03*
%TD*%
D18*
%TO.C,D2*%
X98965000Y-47450000D03*
X100840000Y-47450000D03*
%TD*%
D36*
%TO.C,D4*%
X77840000Y-91875000D03*
X77840000Y-90000000D03*
%TD*%
D10*
%TO.C,R1*%
X110840000Y-44950000D03*
X110840000Y-46775000D03*
%TD*%
D14*
%TO.C,R5*%
X104815000Y-42450000D03*
X102990000Y-42450000D03*
%TD*%
D13*
%TO.C,R14*%
X70927500Y-46450000D03*
X72752500Y-46450000D03*
%TD*%
D11*
%TO.C,J5*%
X71340000Y-53450000D03*
D12*
X73880000Y-53450000D03*
X76420000Y-53450000D03*
X78960000Y-53450000D03*
X81500000Y-53450000D03*
X84040000Y-53450000D03*
X86580000Y-53450000D03*
X89120000Y-53450000D03*
X91660000Y-53450000D03*
X94200000Y-53450000D03*
X96740000Y-53450000D03*
X99280000Y-53450000D03*
%TD*%
D19*
%TO.C,PLUVIOMETER_1*%
X138640000Y-133410000D03*
X146140000Y-133410000D03*
D20*
X140550000Y-127060000D03*
D21*
X141820000Y-124520000D03*
X143090000Y-127060000D03*
X144360000Y-124520000D03*
%TD*%
D19*
%TO.C,BUS_I2C_1_3*%
X75990000Y-100500000D03*
X75990000Y-108000000D03*
D37*
X82340000Y-102410000D03*
D21*
X84880000Y-103680000D03*
X82340000Y-104950000D03*
X84880000Y-106220000D03*
%TD*%
D38*
%TO.C,SW2*%
X87840000Y-43450000D03*
X95590000Y-43450000D03*
%TD*%
D17*
%TO.C,U1*%
X118235000Y-54200000D03*
X116965000Y-54200000D03*
X115695000Y-54200000D03*
X114425000Y-54200000D03*
X113155000Y-54200000D03*
X111885000Y-54200000D03*
X110615000Y-54200000D03*
X109345000Y-54200000D03*
X109345000Y-59150000D03*
X110615000Y-59150000D03*
X111885000Y-59150000D03*
X113155000Y-59150000D03*
X114425000Y-59150000D03*
X115695000Y-59150000D03*
X116965000Y-59150000D03*
X118235000Y-59150000D03*
%TD*%
D26*
%TO.C,J2*%
X128575000Y-40450000D03*
D27*
X133575000Y-40450000D03*
%TD*%
D39*
%TO.C,C10*%
X121290000Y-59725000D03*
X121290000Y-61625000D03*
%TD*%
D16*
%TO.C,C1*%
X131390000Y-63950000D03*
X133290000Y-63950000D03*
%TD*%
D14*
%TO.C,R6*%
X104727500Y-47450000D03*
X102902500Y-47450000D03*
%TD*%
D39*
%TO.C,C17*%
X154250000Y-75150000D03*
X154250000Y-77050000D03*
%TD*%
D40*
%TO.C,C15*%
X135790000Y-52450000D03*
X133890000Y-52450000D03*
%TD*%
D19*
%TO.C,BUS_I2C_2_2*%
X75990000Y-113000000D03*
X75990000Y-120500000D03*
D37*
X82340000Y-114910000D03*
D21*
X84880000Y-116180000D03*
X82340000Y-117450000D03*
X84880000Y-118720000D03*
%TD*%
D39*
%TO.C,C18*%
X154250000Y-62650000D03*
X154250000Y-64550000D03*
%TD*%
D16*
%TO.C,C3*%
X116840000Y-49175000D03*
X118740000Y-49175000D03*
%TD*%
%TO.C,C8*%
X112340000Y-63175000D03*
X114240000Y-63175000D03*
%TD*%
D13*
%TO.C,R12*%
X119640000Y-119910000D03*
X121465000Y-119910000D03*
%TD*%
D19*
%TO.C,DHT22_1*%
X171350000Y-95350000D03*
X171350000Y-87850000D03*
D25*
X165000000Y-93440000D03*
D21*
X162460000Y-92170000D03*
X165000000Y-90900000D03*
X162460000Y-89630000D03*
%TD*%
D19*
%TO.C,HX711_2*%
X158500000Y-38000000D03*
X151000000Y-38000000D03*
D41*
X156590000Y-44350000D03*
D21*
X155320000Y-46890000D03*
X154050000Y-44350000D03*
X152780000Y-46890000D03*
%TD*%
D19*
%TO.C,BUS_I2C_1_2*%
X88890000Y-133300000D03*
X96390000Y-133300000D03*
D20*
X90800000Y-126950000D03*
D21*
X92070000Y-124410000D03*
X93340000Y-126950000D03*
X94610000Y-124410000D03*
%TD*%
D42*
%TO.C,Q1*%
X112340000Y-67950000D03*
X114240000Y-67950000D03*
X113290000Y-65675000D03*
%TD*%
D16*
%TO.C,C14*%
X138140000Y-116410000D03*
X140040000Y-116410000D03*
%TD*%
D40*
%TO.C,C9*%
X95740000Y-39950000D03*
X93840000Y-39950000D03*
%TD*%
D42*
%TO.C,Q2*%
X108340000Y-67950000D03*
X110240000Y-67950000D03*
X109290000Y-65675000D03*
%TD*%
D13*
%TO.C,R4*%
X99077500Y-49950000D03*
X100902500Y-49950000D03*
%TD*%
D22*
%TO.C,R11*%
X82840000Y-87912500D03*
X82840000Y-86087500D03*
%TD*%
D15*
%TO.C,C4*%
X123790000Y-52125000D03*
X123790000Y-50225000D03*
%TD*%
%TO.C,C11*%
X77840000Y-87950000D03*
X77840000Y-86050000D03*
%TD*%
D19*
%TO.C,W_SPEED_1/W_DIR_1*%
X126140000Y-133410000D03*
X133640000Y-133410000D03*
D20*
X128050000Y-127060000D03*
D21*
X129320000Y-124520000D03*
X130590000Y-127060000D03*
X131860000Y-124520000D03*
%TD*%
D19*
%TO.C,BUS_I2C_2_1*%
X113640000Y-133410000D03*
X121140000Y-133410000D03*
D20*
X115550000Y-127060000D03*
D21*
X116820000Y-124520000D03*
X118090000Y-127060000D03*
X119360000Y-124520000D03*
%TD*%
D19*
%TO.C,DAVIS6450_1*%
X171250000Y-107600000D03*
X171250000Y-100100000D03*
D25*
X164900000Y-105690000D03*
D21*
X162360000Y-104420000D03*
X164900000Y-103150000D03*
X162360000Y-101880000D03*
%TD*%
D19*
%TO.C,PLUVIOMETER_3*%
X171350000Y-70850000D03*
X171350000Y-63350000D03*
D25*
X165000000Y-68940000D03*
D21*
X162460000Y-67670000D03*
X165000000Y-66400000D03*
X162460000Y-65130000D03*
%TD*%
D14*
%TO.C,R8*%
X110202500Y-74450000D03*
X108377500Y-74450000D03*
%TD*%
D40*
%TO.C,C16*%
X135790000Y-54950000D03*
X133890000Y-54950000D03*
%TD*%
D38*
%TO.C,SW1*%
X96215000Y-87000000D03*
X88465000Y-87000000D03*
%TD*%
D16*
%TO.C,C13*%
X125640000Y-116410000D03*
X127540000Y-116410000D03*
%TD*%
D14*
%TO.C,R3*%
X100752500Y-44950000D03*
X98927500Y-44950000D03*
%TD*%
D15*
%TO.C,C5*%
X121290000Y-52125000D03*
X121290000Y-50225000D03*
%TD*%
D22*
%TO.C,R13*%
X154250000Y-114425000D03*
X154250000Y-112600000D03*
%TD*%
M02*
