%TF.GenerationSoftware,KiCad,Pcbnew,9.0.2-9.0.2-0~ubuntu24.04.1*%
%TF.CreationDate,2025-07-05T10:39:13-05:00*%
%TF.ProjectId,RECUV01,52454355-5630-4312-9e6b-696361645f70,rev?*%
%TF.SameCoordinates,Original*%
%TF.FileFunction,Legend,Top*%
%TF.FilePolarity,Positive*%
%FSLAX46Y46*%
G04 Gerber Fmt 4.6, Leading zero omitted, Abs format (unit mm)*
G04 Created by KiCad (PCBNEW 9.0.2-9.0.2-0~ubuntu24.04.1) date 2025-07-05 10:39:13*
%MOMM*%
%LPD*%
G01*
G04 APERTURE LIST*
%ADD10C,0.150000*%
%ADD11C,0.120000*%
G04 APERTURE END LIST*
D10*
X117333333Y-46954819D02*
X117000000Y-46478628D01*
X116761905Y-46954819D02*
X116761905Y-45954819D01*
X116761905Y-45954819D02*
X117142857Y-45954819D01*
X117142857Y-45954819D02*
X117238095Y-46002438D01*
X117238095Y-46002438D02*
X117285714Y-46050057D01*
X117285714Y-46050057D02*
X117333333Y-46145295D01*
X117333333Y-46145295D02*
X117333333Y-46288152D01*
X117333333Y-46288152D02*
X117285714Y-46383390D01*
X117285714Y-46383390D02*
X117238095Y-46431009D01*
X117238095Y-46431009D02*
X117142857Y-46478628D01*
X117142857Y-46478628D02*
X116761905Y-46478628D01*
X117714286Y-46050057D02*
X117761905Y-46002438D01*
X117761905Y-46002438D02*
X117857143Y-45954819D01*
X117857143Y-45954819D02*
X118095238Y-45954819D01*
X118095238Y-45954819D02*
X118190476Y-46002438D01*
X118190476Y-46002438D02*
X118238095Y-46050057D01*
X118238095Y-46050057D02*
X118285714Y-46145295D01*
X118285714Y-46145295D02*
X118285714Y-46240533D01*
X118285714Y-46240533D02*
X118238095Y-46383390D01*
X118238095Y-46383390D02*
X117666667Y-46954819D01*
X117666667Y-46954819D02*
X118285714Y-46954819D01*
X103006666Y-80554819D02*
X103006666Y-81269104D01*
X103006666Y-81269104D02*
X102959047Y-81411961D01*
X102959047Y-81411961D02*
X102863809Y-81507200D01*
X102863809Y-81507200D02*
X102720952Y-81554819D01*
X102720952Y-81554819D02*
X102625714Y-81554819D01*
X103387619Y-80554819D02*
X104054285Y-80554819D01*
X104054285Y-80554819D02*
X103625714Y-81554819D01*
X109833333Y-70454819D02*
X109500000Y-69978628D01*
X109261905Y-70454819D02*
X109261905Y-69454819D01*
X109261905Y-69454819D02*
X109642857Y-69454819D01*
X109642857Y-69454819D02*
X109738095Y-69502438D01*
X109738095Y-69502438D02*
X109785714Y-69550057D01*
X109785714Y-69550057D02*
X109833333Y-69645295D01*
X109833333Y-69645295D02*
X109833333Y-69788152D01*
X109833333Y-69788152D02*
X109785714Y-69883390D01*
X109785714Y-69883390D02*
X109738095Y-69931009D01*
X109738095Y-69931009D02*
X109642857Y-69978628D01*
X109642857Y-69978628D02*
X109261905Y-69978628D01*
X110309524Y-70454819D02*
X110500000Y-70454819D01*
X110500000Y-70454819D02*
X110595238Y-70407200D01*
X110595238Y-70407200D02*
X110642857Y-70359580D01*
X110642857Y-70359580D02*
X110738095Y-70216723D01*
X110738095Y-70216723D02*
X110785714Y-70026247D01*
X110785714Y-70026247D02*
X110785714Y-69645295D01*
X110785714Y-69645295D02*
X110738095Y-69550057D01*
X110738095Y-69550057D02*
X110690476Y-69502438D01*
X110690476Y-69502438D02*
X110595238Y-69454819D01*
X110595238Y-69454819D02*
X110404762Y-69454819D01*
X110404762Y-69454819D02*
X110309524Y-69502438D01*
X110309524Y-69502438D02*
X110261905Y-69550057D01*
X110261905Y-69550057D02*
X110214286Y-69645295D01*
X110214286Y-69645295D02*
X110214286Y-69883390D01*
X110214286Y-69883390D02*
X110261905Y-69978628D01*
X110261905Y-69978628D02*
X110309524Y-70026247D01*
X110309524Y-70026247D02*
X110404762Y-70073866D01*
X110404762Y-70073866D02*
X110595238Y-70073866D01*
X110595238Y-70073866D02*
X110690476Y-70026247D01*
X110690476Y-70026247D02*
X110738095Y-69978628D01*
X110738095Y-69978628D02*
X110785714Y-69883390D01*
X74857142Y-49454819D02*
X74523809Y-48978628D01*
X74285714Y-49454819D02*
X74285714Y-48454819D01*
X74285714Y-48454819D02*
X74666666Y-48454819D01*
X74666666Y-48454819D02*
X74761904Y-48502438D01*
X74761904Y-48502438D02*
X74809523Y-48550057D01*
X74809523Y-48550057D02*
X74857142Y-48645295D01*
X74857142Y-48645295D02*
X74857142Y-48788152D01*
X74857142Y-48788152D02*
X74809523Y-48883390D01*
X74809523Y-48883390D02*
X74761904Y-48931009D01*
X74761904Y-48931009D02*
X74666666Y-48978628D01*
X74666666Y-48978628D02*
X74285714Y-48978628D01*
X75809523Y-49454819D02*
X75238095Y-49454819D01*
X75523809Y-49454819D02*
X75523809Y-48454819D01*
X75523809Y-48454819D02*
X75428571Y-48597676D01*
X75428571Y-48597676D02*
X75333333Y-48692914D01*
X75333333Y-48692914D02*
X75238095Y-48740533D01*
X76714285Y-48454819D02*
X76238095Y-48454819D01*
X76238095Y-48454819D02*
X76190476Y-48931009D01*
X76190476Y-48931009D02*
X76238095Y-48883390D01*
X76238095Y-48883390D02*
X76333333Y-48835771D01*
X76333333Y-48835771D02*
X76571428Y-48835771D01*
X76571428Y-48835771D02*
X76666666Y-48883390D01*
X76666666Y-48883390D02*
X76714285Y-48931009D01*
X76714285Y-48931009D02*
X76761904Y-49026247D01*
X76761904Y-49026247D02*
X76761904Y-49264342D01*
X76761904Y-49264342D02*
X76714285Y-49359580D01*
X76714285Y-49359580D02*
X76666666Y-49407200D01*
X76666666Y-49407200D02*
X76571428Y-49454819D01*
X76571428Y-49454819D02*
X76333333Y-49454819D01*
X76333333Y-49454819D02*
X76238095Y-49407200D01*
X76238095Y-49407200D02*
X76190476Y-49359580D01*
X123673333Y-54534580D02*
X123625714Y-54582200D01*
X123625714Y-54582200D02*
X123482857Y-54629819D01*
X123482857Y-54629819D02*
X123387619Y-54629819D01*
X123387619Y-54629819D02*
X123244762Y-54582200D01*
X123244762Y-54582200D02*
X123149524Y-54486961D01*
X123149524Y-54486961D02*
X123101905Y-54391723D01*
X123101905Y-54391723D02*
X123054286Y-54201247D01*
X123054286Y-54201247D02*
X123054286Y-54058390D01*
X123054286Y-54058390D02*
X123101905Y-53867914D01*
X123101905Y-53867914D02*
X123149524Y-53772676D01*
X123149524Y-53772676D02*
X123244762Y-53677438D01*
X123244762Y-53677438D02*
X123387619Y-53629819D01*
X123387619Y-53629819D02*
X123482857Y-53629819D01*
X123482857Y-53629819D02*
X123625714Y-53677438D01*
X123625714Y-53677438D02*
X123673333Y-53725057D01*
X124006667Y-53629819D02*
X124673333Y-53629819D01*
X124673333Y-53629819D02*
X124244762Y-54629819D01*
X121173333Y-54534580D02*
X121125714Y-54582200D01*
X121125714Y-54582200D02*
X120982857Y-54629819D01*
X120982857Y-54629819D02*
X120887619Y-54629819D01*
X120887619Y-54629819D02*
X120744762Y-54582200D01*
X120744762Y-54582200D02*
X120649524Y-54486961D01*
X120649524Y-54486961D02*
X120601905Y-54391723D01*
X120601905Y-54391723D02*
X120554286Y-54201247D01*
X120554286Y-54201247D02*
X120554286Y-54058390D01*
X120554286Y-54058390D02*
X120601905Y-53867914D01*
X120601905Y-53867914D02*
X120649524Y-53772676D01*
X120649524Y-53772676D02*
X120744762Y-53677438D01*
X120744762Y-53677438D02*
X120887619Y-53629819D01*
X120887619Y-53629819D02*
X120982857Y-53629819D01*
X120982857Y-53629819D02*
X121125714Y-53677438D01*
X121125714Y-53677438D02*
X121173333Y-53725057D01*
X122030476Y-53629819D02*
X121840000Y-53629819D01*
X121840000Y-53629819D02*
X121744762Y-53677438D01*
X121744762Y-53677438D02*
X121697143Y-53725057D01*
X121697143Y-53725057D02*
X121601905Y-53867914D01*
X121601905Y-53867914D02*
X121554286Y-54058390D01*
X121554286Y-54058390D02*
X121554286Y-54439342D01*
X121554286Y-54439342D02*
X121601905Y-54534580D01*
X121601905Y-54534580D02*
X121649524Y-54582200D01*
X121649524Y-54582200D02*
X121744762Y-54629819D01*
X121744762Y-54629819D02*
X121935238Y-54629819D01*
X121935238Y-54629819D02*
X122030476Y-54582200D01*
X122030476Y-54582200D02*
X122078095Y-54534580D01*
X122078095Y-54534580D02*
X122125714Y-54439342D01*
X122125714Y-54439342D02*
X122125714Y-54201247D01*
X122125714Y-54201247D02*
X122078095Y-54106009D01*
X122078095Y-54106009D02*
X122030476Y-54058390D01*
X122030476Y-54058390D02*
X121935238Y-54010771D01*
X121935238Y-54010771D02*
X121744762Y-54010771D01*
X121744762Y-54010771D02*
X121649524Y-54058390D01*
X121649524Y-54058390D02*
X121601905Y-54106009D01*
X121601905Y-54106009D02*
X121554286Y-54201247D01*
X91697142Y-89359580D02*
X91649523Y-89407200D01*
X91649523Y-89407200D02*
X91506666Y-89454819D01*
X91506666Y-89454819D02*
X91411428Y-89454819D01*
X91411428Y-89454819D02*
X91268571Y-89407200D01*
X91268571Y-89407200D02*
X91173333Y-89311961D01*
X91173333Y-89311961D02*
X91125714Y-89216723D01*
X91125714Y-89216723D02*
X91078095Y-89026247D01*
X91078095Y-89026247D02*
X91078095Y-88883390D01*
X91078095Y-88883390D02*
X91125714Y-88692914D01*
X91125714Y-88692914D02*
X91173333Y-88597676D01*
X91173333Y-88597676D02*
X91268571Y-88502438D01*
X91268571Y-88502438D02*
X91411428Y-88454819D01*
X91411428Y-88454819D02*
X91506666Y-88454819D01*
X91506666Y-88454819D02*
X91649523Y-88502438D01*
X91649523Y-88502438D02*
X91697142Y-88550057D01*
X92649523Y-89454819D02*
X92078095Y-89454819D01*
X92363809Y-89454819D02*
X92363809Y-88454819D01*
X92363809Y-88454819D02*
X92268571Y-88597676D01*
X92268571Y-88597676D02*
X92173333Y-88692914D01*
X92173333Y-88692914D02*
X92078095Y-88740533D01*
X93030476Y-88550057D02*
X93078095Y-88502438D01*
X93078095Y-88502438D02*
X93173333Y-88454819D01*
X93173333Y-88454819D02*
X93411428Y-88454819D01*
X93411428Y-88454819D02*
X93506666Y-88502438D01*
X93506666Y-88502438D02*
X93554285Y-88550057D01*
X93554285Y-88550057D02*
X93601904Y-88645295D01*
X93601904Y-88645295D02*
X93601904Y-88740533D01*
X93601904Y-88740533D02*
X93554285Y-88883390D01*
X93554285Y-88883390D02*
X92982857Y-89454819D01*
X92982857Y-89454819D02*
X93601904Y-89454819D01*
X144238095Y-52379819D02*
X144238095Y-53189342D01*
X144238095Y-53189342D02*
X144285714Y-53284580D01*
X144285714Y-53284580D02*
X144333333Y-53332200D01*
X144333333Y-53332200D02*
X144428571Y-53379819D01*
X144428571Y-53379819D02*
X144619047Y-53379819D01*
X144619047Y-53379819D02*
X144714285Y-53332200D01*
X144714285Y-53332200D02*
X144761904Y-53284580D01*
X144761904Y-53284580D02*
X144809523Y-53189342D01*
X144809523Y-53189342D02*
X144809523Y-52379819D01*
X145714285Y-52713152D02*
X145714285Y-53379819D01*
X145476190Y-52332200D02*
X145238095Y-53046485D01*
X145238095Y-53046485D02*
X145857142Y-53046485D01*
X99261905Y-40954819D02*
X99261905Y-39954819D01*
X99261905Y-39954819D02*
X99500000Y-39954819D01*
X99500000Y-39954819D02*
X99642857Y-40002438D01*
X99642857Y-40002438D02*
X99738095Y-40097676D01*
X99738095Y-40097676D02*
X99785714Y-40192914D01*
X99785714Y-40192914D02*
X99833333Y-40383390D01*
X99833333Y-40383390D02*
X99833333Y-40526247D01*
X99833333Y-40526247D02*
X99785714Y-40716723D01*
X99785714Y-40716723D02*
X99738095Y-40811961D01*
X99738095Y-40811961D02*
X99642857Y-40907200D01*
X99642857Y-40907200D02*
X99500000Y-40954819D01*
X99500000Y-40954819D02*
X99261905Y-40954819D01*
X100785714Y-40954819D02*
X100214286Y-40954819D01*
X100500000Y-40954819D02*
X100500000Y-39954819D01*
X100500000Y-39954819D02*
X100404762Y-40097676D01*
X100404762Y-40097676D02*
X100309524Y-40192914D01*
X100309524Y-40192914D02*
X100214286Y-40240533D01*
X100261904Y-130431009D02*
X100404761Y-130478628D01*
X100404761Y-130478628D02*
X100452380Y-130526247D01*
X100452380Y-130526247D02*
X100499999Y-130621485D01*
X100499999Y-130621485D02*
X100499999Y-130764342D01*
X100499999Y-130764342D02*
X100452380Y-130859580D01*
X100452380Y-130859580D02*
X100404761Y-130907200D01*
X100404761Y-130907200D02*
X100309523Y-130954819D01*
X100309523Y-130954819D02*
X99928571Y-130954819D01*
X99928571Y-130954819D02*
X99928571Y-129954819D01*
X99928571Y-129954819D02*
X100261904Y-129954819D01*
X100261904Y-129954819D02*
X100357142Y-130002438D01*
X100357142Y-130002438D02*
X100404761Y-130050057D01*
X100404761Y-130050057D02*
X100452380Y-130145295D01*
X100452380Y-130145295D02*
X100452380Y-130240533D01*
X100452380Y-130240533D02*
X100404761Y-130335771D01*
X100404761Y-130335771D02*
X100357142Y-130383390D01*
X100357142Y-130383390D02*
X100261904Y-130431009D01*
X100261904Y-130431009D02*
X99928571Y-130431009D01*
X100928571Y-129954819D02*
X100928571Y-130764342D01*
X100928571Y-130764342D02*
X100976190Y-130859580D01*
X100976190Y-130859580D02*
X101023809Y-130907200D01*
X101023809Y-130907200D02*
X101119047Y-130954819D01*
X101119047Y-130954819D02*
X101309523Y-130954819D01*
X101309523Y-130954819D02*
X101404761Y-130907200D01*
X101404761Y-130907200D02*
X101452380Y-130859580D01*
X101452380Y-130859580D02*
X101499999Y-130764342D01*
X101499999Y-130764342D02*
X101499999Y-129954819D01*
X101928571Y-130907200D02*
X102071428Y-130954819D01*
X102071428Y-130954819D02*
X102309523Y-130954819D01*
X102309523Y-130954819D02*
X102404761Y-130907200D01*
X102404761Y-130907200D02*
X102452380Y-130859580D01*
X102452380Y-130859580D02*
X102499999Y-130764342D01*
X102499999Y-130764342D02*
X102499999Y-130669104D01*
X102499999Y-130669104D02*
X102452380Y-130573866D01*
X102452380Y-130573866D02*
X102404761Y-130526247D01*
X102404761Y-130526247D02*
X102309523Y-130478628D01*
X102309523Y-130478628D02*
X102119047Y-130431009D01*
X102119047Y-130431009D02*
X102023809Y-130383390D01*
X102023809Y-130383390D02*
X101976190Y-130335771D01*
X101976190Y-130335771D02*
X101928571Y-130240533D01*
X101928571Y-130240533D02*
X101928571Y-130145295D01*
X101928571Y-130145295D02*
X101976190Y-130050057D01*
X101976190Y-130050057D02*
X102023809Y-130002438D01*
X102023809Y-130002438D02*
X102119047Y-129954819D01*
X102119047Y-129954819D02*
X102357142Y-129954819D01*
X102357142Y-129954819D02*
X102499999Y-130002438D01*
X102690476Y-131050057D02*
X103452380Y-131050057D01*
X103690476Y-130954819D02*
X103690476Y-129954819D01*
X104119047Y-130050057D02*
X104166666Y-130002438D01*
X104166666Y-130002438D02*
X104261904Y-129954819D01*
X104261904Y-129954819D02*
X104499999Y-129954819D01*
X104499999Y-129954819D02*
X104595237Y-130002438D01*
X104595237Y-130002438D02*
X104642856Y-130050057D01*
X104642856Y-130050057D02*
X104690475Y-130145295D01*
X104690475Y-130145295D02*
X104690475Y-130240533D01*
X104690475Y-130240533D02*
X104642856Y-130383390D01*
X104642856Y-130383390D02*
X104071428Y-130954819D01*
X104071428Y-130954819D02*
X104690475Y-130954819D01*
X105690475Y-130859580D02*
X105642856Y-130907200D01*
X105642856Y-130907200D02*
X105499999Y-130954819D01*
X105499999Y-130954819D02*
X105404761Y-130954819D01*
X105404761Y-130954819D02*
X105261904Y-130907200D01*
X105261904Y-130907200D02*
X105166666Y-130811961D01*
X105166666Y-130811961D02*
X105119047Y-130716723D01*
X105119047Y-130716723D02*
X105071428Y-130526247D01*
X105071428Y-130526247D02*
X105071428Y-130383390D01*
X105071428Y-130383390D02*
X105119047Y-130192914D01*
X105119047Y-130192914D02*
X105166666Y-130097676D01*
X105166666Y-130097676D02*
X105261904Y-130002438D01*
X105261904Y-130002438D02*
X105404761Y-129954819D01*
X105404761Y-129954819D02*
X105499999Y-129954819D01*
X105499999Y-129954819D02*
X105642856Y-130002438D01*
X105642856Y-130002438D02*
X105690475Y-130050057D01*
X105880952Y-131050057D02*
X106642856Y-131050057D01*
X107404761Y-130954819D02*
X106833333Y-130954819D01*
X107119047Y-130954819D02*
X107119047Y-129954819D01*
X107119047Y-129954819D02*
X107023809Y-130097676D01*
X107023809Y-130097676D02*
X106928571Y-130192914D01*
X106928571Y-130192914D02*
X106833333Y-130240533D01*
X107595238Y-131050057D02*
X108357142Y-131050057D01*
X109119047Y-130954819D02*
X108547619Y-130954819D01*
X108833333Y-130954819D02*
X108833333Y-129954819D01*
X108833333Y-129954819D02*
X108738095Y-130097676D01*
X108738095Y-130097676D02*
X108642857Y-130192914D01*
X108642857Y-130192914D02*
X108547619Y-130240533D01*
X132173333Y-60129580D02*
X132125714Y-60177200D01*
X132125714Y-60177200D02*
X131982857Y-60224819D01*
X131982857Y-60224819D02*
X131887619Y-60224819D01*
X131887619Y-60224819D02*
X131744762Y-60177200D01*
X131744762Y-60177200D02*
X131649524Y-60081961D01*
X131649524Y-60081961D02*
X131601905Y-59986723D01*
X131601905Y-59986723D02*
X131554286Y-59796247D01*
X131554286Y-59796247D02*
X131554286Y-59653390D01*
X131554286Y-59653390D02*
X131601905Y-59462914D01*
X131601905Y-59462914D02*
X131649524Y-59367676D01*
X131649524Y-59367676D02*
X131744762Y-59272438D01*
X131744762Y-59272438D02*
X131887619Y-59224819D01*
X131887619Y-59224819D02*
X131982857Y-59224819D01*
X131982857Y-59224819D02*
X132125714Y-59272438D01*
X132125714Y-59272438D02*
X132173333Y-59320057D01*
X132554286Y-59320057D02*
X132601905Y-59272438D01*
X132601905Y-59272438D02*
X132697143Y-59224819D01*
X132697143Y-59224819D02*
X132935238Y-59224819D01*
X132935238Y-59224819D02*
X133030476Y-59272438D01*
X133030476Y-59272438D02*
X133078095Y-59320057D01*
X133078095Y-59320057D02*
X133125714Y-59415295D01*
X133125714Y-59415295D02*
X133125714Y-59510533D01*
X133125714Y-59510533D02*
X133078095Y-59653390D01*
X133078095Y-59653390D02*
X132506667Y-60224819D01*
X132506667Y-60224819D02*
X133125714Y-60224819D01*
X77357142Y-84954819D02*
X77023809Y-84478628D01*
X76785714Y-84954819D02*
X76785714Y-83954819D01*
X76785714Y-83954819D02*
X77166666Y-83954819D01*
X77166666Y-83954819D02*
X77261904Y-84002438D01*
X77261904Y-84002438D02*
X77309523Y-84050057D01*
X77309523Y-84050057D02*
X77357142Y-84145295D01*
X77357142Y-84145295D02*
X77357142Y-84288152D01*
X77357142Y-84288152D02*
X77309523Y-84383390D01*
X77309523Y-84383390D02*
X77261904Y-84431009D01*
X77261904Y-84431009D02*
X77166666Y-84478628D01*
X77166666Y-84478628D02*
X76785714Y-84478628D01*
X78309523Y-84954819D02*
X77738095Y-84954819D01*
X78023809Y-84954819D02*
X78023809Y-83954819D01*
X78023809Y-83954819D02*
X77928571Y-84097676D01*
X77928571Y-84097676D02*
X77833333Y-84192914D01*
X77833333Y-84192914D02*
X77738095Y-84240533D01*
X78928571Y-83954819D02*
X79023809Y-83954819D01*
X79023809Y-83954819D02*
X79119047Y-84002438D01*
X79119047Y-84002438D02*
X79166666Y-84050057D01*
X79166666Y-84050057D02*
X79214285Y-84145295D01*
X79214285Y-84145295D02*
X79261904Y-84335771D01*
X79261904Y-84335771D02*
X79261904Y-84573866D01*
X79261904Y-84573866D02*
X79214285Y-84764342D01*
X79214285Y-84764342D02*
X79166666Y-84859580D01*
X79166666Y-84859580D02*
X79119047Y-84907200D01*
X79119047Y-84907200D02*
X79023809Y-84954819D01*
X79023809Y-84954819D02*
X78928571Y-84954819D01*
X78928571Y-84954819D02*
X78833333Y-84907200D01*
X78833333Y-84907200D02*
X78785714Y-84859580D01*
X78785714Y-84859580D02*
X78738095Y-84764342D01*
X78738095Y-84764342D02*
X78690476Y-84573866D01*
X78690476Y-84573866D02*
X78690476Y-84335771D01*
X78690476Y-84335771D02*
X78738095Y-84145295D01*
X78738095Y-84145295D02*
X78785714Y-84050057D01*
X78785714Y-84050057D02*
X78833333Y-84002438D01*
X78833333Y-84002438D02*
X78928571Y-83954819D01*
X120678095Y-70129819D02*
X120678095Y-70939342D01*
X120678095Y-70939342D02*
X120725714Y-71034580D01*
X120725714Y-71034580D02*
X120773333Y-71082200D01*
X120773333Y-71082200D02*
X120868571Y-71129819D01*
X120868571Y-71129819D02*
X121059047Y-71129819D01*
X121059047Y-71129819D02*
X121154285Y-71082200D01*
X121154285Y-71082200D02*
X121201904Y-71034580D01*
X121201904Y-71034580D02*
X121249523Y-70939342D01*
X121249523Y-70939342D02*
X121249523Y-70129819D01*
X121678095Y-70225057D02*
X121725714Y-70177438D01*
X121725714Y-70177438D02*
X121820952Y-70129819D01*
X121820952Y-70129819D02*
X122059047Y-70129819D01*
X122059047Y-70129819D02*
X122154285Y-70177438D01*
X122154285Y-70177438D02*
X122201904Y-70225057D01*
X122201904Y-70225057D02*
X122249523Y-70320295D01*
X122249523Y-70320295D02*
X122249523Y-70415533D01*
X122249523Y-70415533D02*
X122201904Y-70558390D01*
X122201904Y-70558390D02*
X121630476Y-71129819D01*
X121630476Y-71129819D02*
X122249523Y-71129819D01*
X152333333Y-129931009D02*
X152000000Y-129931009D01*
X152000000Y-130454819D02*
X152000000Y-129454819D01*
X152000000Y-129454819D02*
X152476190Y-129454819D01*
X153428571Y-130359580D02*
X153380952Y-130407200D01*
X153380952Y-130407200D02*
X153238095Y-130454819D01*
X153238095Y-130454819D02*
X153142857Y-130454819D01*
X153142857Y-130454819D02*
X153000000Y-130407200D01*
X153000000Y-130407200D02*
X152904762Y-130311961D01*
X152904762Y-130311961D02*
X152857143Y-130216723D01*
X152857143Y-130216723D02*
X152809524Y-130026247D01*
X152809524Y-130026247D02*
X152809524Y-129883390D01*
X152809524Y-129883390D02*
X152857143Y-129692914D01*
X152857143Y-129692914D02*
X152904762Y-129597676D01*
X152904762Y-129597676D02*
X153000000Y-129502438D01*
X153000000Y-129502438D02*
X153142857Y-129454819D01*
X153142857Y-129454819D02*
X153238095Y-129454819D01*
X153238095Y-129454819D02*
X153380952Y-129502438D01*
X153380952Y-129502438D02*
X153428571Y-129550057D01*
X153809524Y-129550057D02*
X153857143Y-129502438D01*
X153857143Y-129502438D02*
X153952381Y-129454819D01*
X153952381Y-129454819D02*
X154190476Y-129454819D01*
X154190476Y-129454819D02*
X154285714Y-129502438D01*
X154285714Y-129502438D02*
X154333333Y-129550057D01*
X154333333Y-129550057D02*
X154380952Y-129645295D01*
X154380952Y-129645295D02*
X154380952Y-129740533D01*
X154380952Y-129740533D02*
X154333333Y-129883390D01*
X154333333Y-129883390D02*
X153761905Y-130454819D01*
X153761905Y-130454819D02*
X154380952Y-130454819D01*
X154952381Y-129883390D02*
X154857143Y-129835771D01*
X154857143Y-129835771D02*
X154809524Y-129788152D01*
X154809524Y-129788152D02*
X154761905Y-129692914D01*
X154761905Y-129692914D02*
X154761905Y-129645295D01*
X154761905Y-129645295D02*
X154809524Y-129550057D01*
X154809524Y-129550057D02*
X154857143Y-129502438D01*
X154857143Y-129502438D02*
X154952381Y-129454819D01*
X154952381Y-129454819D02*
X155142857Y-129454819D01*
X155142857Y-129454819D02*
X155238095Y-129502438D01*
X155238095Y-129502438D02*
X155285714Y-129550057D01*
X155285714Y-129550057D02*
X155333333Y-129645295D01*
X155333333Y-129645295D02*
X155333333Y-129692914D01*
X155333333Y-129692914D02*
X155285714Y-129788152D01*
X155285714Y-129788152D02*
X155238095Y-129835771D01*
X155238095Y-129835771D02*
X155142857Y-129883390D01*
X155142857Y-129883390D02*
X154952381Y-129883390D01*
X154952381Y-129883390D02*
X154857143Y-129931009D01*
X154857143Y-129931009D02*
X154809524Y-129978628D01*
X154809524Y-129978628D02*
X154761905Y-130073866D01*
X154761905Y-130073866D02*
X154761905Y-130264342D01*
X154761905Y-130264342D02*
X154809524Y-130359580D01*
X154809524Y-130359580D02*
X154857143Y-130407200D01*
X154857143Y-130407200D02*
X154952381Y-130454819D01*
X154952381Y-130454819D02*
X155142857Y-130454819D01*
X155142857Y-130454819D02*
X155238095Y-130407200D01*
X155238095Y-130407200D02*
X155285714Y-130359580D01*
X155285714Y-130359580D02*
X155333333Y-130264342D01*
X155333333Y-130264342D02*
X155333333Y-130073866D01*
X155333333Y-130073866D02*
X155285714Y-129978628D01*
X155285714Y-129978628D02*
X155238095Y-129931009D01*
X155238095Y-129931009D02*
X155142857Y-129883390D01*
X155523810Y-130550057D02*
X156285714Y-130550057D01*
X157047619Y-130454819D02*
X156476191Y-130454819D01*
X156761905Y-130454819D02*
X156761905Y-129454819D01*
X156761905Y-129454819D02*
X156666667Y-129597676D01*
X156666667Y-129597676D02*
X156571429Y-129692914D01*
X156571429Y-129692914D02*
X156476191Y-129740533D01*
X88166666Y-82954819D02*
X88166666Y-83669104D01*
X88166666Y-83669104D02*
X88119047Y-83811961D01*
X88119047Y-83811961D02*
X88023809Y-83907200D01*
X88023809Y-83907200D02*
X87880952Y-83954819D01*
X87880952Y-83954819D02*
X87785714Y-83954819D01*
X89071428Y-82954819D02*
X88880952Y-82954819D01*
X88880952Y-82954819D02*
X88785714Y-83002438D01*
X88785714Y-83002438D02*
X88738095Y-83050057D01*
X88738095Y-83050057D02*
X88642857Y-83192914D01*
X88642857Y-83192914D02*
X88595238Y-83383390D01*
X88595238Y-83383390D02*
X88595238Y-83764342D01*
X88595238Y-83764342D02*
X88642857Y-83859580D01*
X88642857Y-83859580D02*
X88690476Y-83907200D01*
X88690476Y-83907200D02*
X88785714Y-83954819D01*
X88785714Y-83954819D02*
X88976190Y-83954819D01*
X88976190Y-83954819D02*
X89071428Y-83907200D01*
X89071428Y-83907200D02*
X89119047Y-83859580D01*
X89119047Y-83859580D02*
X89166666Y-83764342D01*
X89166666Y-83764342D02*
X89166666Y-83526247D01*
X89166666Y-83526247D02*
X89119047Y-83431009D01*
X89119047Y-83431009D02*
X89071428Y-83383390D01*
X89071428Y-83383390D02*
X88976190Y-83335771D01*
X88976190Y-83335771D02*
X88785714Y-83335771D01*
X88785714Y-83335771D02*
X88690476Y-83383390D01*
X88690476Y-83383390D02*
X88642857Y-83431009D01*
X88642857Y-83431009D02*
X88595238Y-83526247D01*
X168954819Y-85095237D02*
X167954819Y-85095237D01*
X167954819Y-85095237D02*
X167954819Y-84714285D01*
X167954819Y-84714285D02*
X168002438Y-84619047D01*
X168002438Y-84619047D02*
X168050057Y-84571428D01*
X168050057Y-84571428D02*
X168145295Y-84523809D01*
X168145295Y-84523809D02*
X168288152Y-84523809D01*
X168288152Y-84523809D02*
X168383390Y-84571428D01*
X168383390Y-84571428D02*
X168431009Y-84619047D01*
X168431009Y-84619047D02*
X168478628Y-84714285D01*
X168478628Y-84714285D02*
X168478628Y-85095237D01*
X168954819Y-83619047D02*
X168954819Y-84095237D01*
X168954819Y-84095237D02*
X167954819Y-84095237D01*
X167954819Y-83285713D02*
X168764342Y-83285713D01*
X168764342Y-83285713D02*
X168859580Y-83238094D01*
X168859580Y-83238094D02*
X168907200Y-83190475D01*
X168907200Y-83190475D02*
X168954819Y-83095237D01*
X168954819Y-83095237D02*
X168954819Y-82904761D01*
X168954819Y-82904761D02*
X168907200Y-82809523D01*
X168907200Y-82809523D02*
X168859580Y-82761904D01*
X168859580Y-82761904D02*
X168764342Y-82714285D01*
X168764342Y-82714285D02*
X167954819Y-82714285D01*
X167954819Y-82380951D02*
X168954819Y-82047618D01*
X168954819Y-82047618D02*
X167954819Y-81714285D01*
X168954819Y-81380951D02*
X167954819Y-81380951D01*
X167954819Y-80714285D02*
X167954819Y-80523809D01*
X167954819Y-80523809D02*
X168002438Y-80428571D01*
X168002438Y-80428571D02*
X168097676Y-80333333D01*
X168097676Y-80333333D02*
X168288152Y-80285714D01*
X168288152Y-80285714D02*
X168621485Y-80285714D01*
X168621485Y-80285714D02*
X168811961Y-80333333D01*
X168811961Y-80333333D02*
X168907200Y-80428571D01*
X168907200Y-80428571D02*
X168954819Y-80523809D01*
X168954819Y-80523809D02*
X168954819Y-80714285D01*
X168954819Y-80714285D02*
X168907200Y-80809523D01*
X168907200Y-80809523D02*
X168811961Y-80904761D01*
X168811961Y-80904761D02*
X168621485Y-80952380D01*
X168621485Y-80952380D02*
X168288152Y-80952380D01*
X168288152Y-80952380D02*
X168097676Y-80904761D01*
X168097676Y-80904761D02*
X168002438Y-80809523D01*
X168002438Y-80809523D02*
X167954819Y-80714285D01*
X168954819Y-79857142D02*
X167954819Y-79857142D01*
X167954819Y-79857142D02*
X168669104Y-79523809D01*
X168669104Y-79523809D02*
X167954819Y-79190476D01*
X167954819Y-79190476D02*
X168954819Y-79190476D01*
X168431009Y-78714285D02*
X168431009Y-78380952D01*
X168954819Y-78238095D02*
X168954819Y-78714285D01*
X168954819Y-78714285D02*
X167954819Y-78714285D01*
X167954819Y-78714285D02*
X167954819Y-78238095D01*
X167954819Y-77952380D02*
X167954819Y-77380952D01*
X168954819Y-77666666D02*
X167954819Y-77666666D01*
X168431009Y-77047618D02*
X168431009Y-76714285D01*
X168954819Y-76571428D02*
X168954819Y-77047618D01*
X168954819Y-77047618D02*
X167954819Y-77047618D01*
X167954819Y-77047618D02*
X167954819Y-76571428D01*
X168954819Y-75571428D02*
X168478628Y-75904761D01*
X168954819Y-76142856D02*
X167954819Y-76142856D01*
X167954819Y-76142856D02*
X167954819Y-75761904D01*
X167954819Y-75761904D02*
X168002438Y-75666666D01*
X168002438Y-75666666D02*
X168050057Y-75619047D01*
X168050057Y-75619047D02*
X168145295Y-75571428D01*
X168145295Y-75571428D02*
X168288152Y-75571428D01*
X168288152Y-75571428D02*
X168383390Y-75619047D01*
X168383390Y-75619047D02*
X168431009Y-75666666D01*
X168431009Y-75666666D02*
X168478628Y-75761904D01*
X168478628Y-75761904D02*
X168478628Y-76142856D01*
X169050057Y-75380952D02*
X169050057Y-74619047D01*
X168050057Y-74428570D02*
X168002438Y-74380951D01*
X168002438Y-74380951D02*
X167954819Y-74285713D01*
X167954819Y-74285713D02*
X167954819Y-74047618D01*
X167954819Y-74047618D02*
X168002438Y-73952380D01*
X168002438Y-73952380D02*
X168050057Y-73904761D01*
X168050057Y-73904761D02*
X168145295Y-73857142D01*
X168145295Y-73857142D02*
X168240533Y-73857142D01*
X168240533Y-73857142D02*
X168383390Y-73904761D01*
X168383390Y-73904761D02*
X168954819Y-74476189D01*
X168954819Y-74476189D02*
X168954819Y-73857142D01*
X142166666Y-37454819D02*
X142166666Y-38169104D01*
X142166666Y-38169104D02*
X142119047Y-38311961D01*
X142119047Y-38311961D02*
X142023809Y-38407200D01*
X142023809Y-38407200D02*
X141880952Y-38454819D01*
X141880952Y-38454819D02*
X141785714Y-38454819D01*
X143071428Y-37788152D02*
X143071428Y-38454819D01*
X142833333Y-37407200D02*
X142595238Y-38121485D01*
X142595238Y-38121485D02*
X143214285Y-38121485D01*
X161452381Y-50454819D02*
X161452381Y-49454819D01*
X161452381Y-49931009D02*
X162023809Y-49931009D01*
X162023809Y-50454819D02*
X162023809Y-49454819D01*
X162404762Y-49454819D02*
X163071428Y-50454819D01*
X163071428Y-49454819D02*
X162404762Y-50454819D01*
X163357143Y-49454819D02*
X164023809Y-49454819D01*
X164023809Y-49454819D02*
X163595238Y-50454819D01*
X164928571Y-50454819D02*
X164357143Y-50454819D01*
X164642857Y-50454819D02*
X164642857Y-49454819D01*
X164642857Y-49454819D02*
X164547619Y-49597676D01*
X164547619Y-49597676D02*
X164452381Y-49692914D01*
X164452381Y-49692914D02*
X164357143Y-49740533D01*
X165880952Y-50454819D02*
X165309524Y-50454819D01*
X165595238Y-50454819D02*
X165595238Y-49454819D01*
X165595238Y-49454819D02*
X165500000Y-49597676D01*
X165500000Y-49597676D02*
X165404762Y-49692914D01*
X165404762Y-49692914D02*
X165309524Y-49740533D01*
X166071429Y-50550057D02*
X166833333Y-50550057D01*
X167595238Y-50454819D02*
X167023810Y-50454819D01*
X167309524Y-50454819D02*
X167309524Y-49454819D01*
X167309524Y-49454819D02*
X167214286Y-49597676D01*
X167214286Y-49597676D02*
X167119048Y-49692914D01*
X167119048Y-49692914D02*
X167023810Y-49740533D01*
X130261905Y-66454819D02*
X130261905Y-65454819D01*
X130261905Y-65454819D02*
X130500000Y-65454819D01*
X130500000Y-65454819D02*
X130642857Y-65502438D01*
X130642857Y-65502438D02*
X130738095Y-65597676D01*
X130738095Y-65597676D02*
X130785714Y-65692914D01*
X130785714Y-65692914D02*
X130833333Y-65883390D01*
X130833333Y-65883390D02*
X130833333Y-66026247D01*
X130833333Y-66026247D02*
X130785714Y-66216723D01*
X130785714Y-66216723D02*
X130738095Y-66311961D01*
X130738095Y-66311961D02*
X130642857Y-66407200D01*
X130642857Y-66407200D02*
X130500000Y-66454819D01*
X130500000Y-66454819D02*
X130261905Y-66454819D01*
X131166667Y-65454819D02*
X131785714Y-65454819D01*
X131785714Y-65454819D02*
X131452381Y-65835771D01*
X131452381Y-65835771D02*
X131595238Y-65835771D01*
X131595238Y-65835771D02*
X131690476Y-65883390D01*
X131690476Y-65883390D02*
X131738095Y-65931009D01*
X131738095Y-65931009D02*
X131785714Y-66026247D01*
X131785714Y-66026247D02*
X131785714Y-66264342D01*
X131785714Y-66264342D02*
X131738095Y-66359580D01*
X131738095Y-66359580D02*
X131690476Y-66407200D01*
X131690476Y-66407200D02*
X131595238Y-66454819D01*
X131595238Y-66454819D02*
X131309524Y-66454819D01*
X131309524Y-66454819D02*
X131214286Y-66407200D01*
X131214286Y-66407200D02*
X131166667Y-66359580D01*
X80166666Y-43954819D02*
X80166666Y-44669104D01*
X80166666Y-44669104D02*
X80119047Y-44811961D01*
X80119047Y-44811961D02*
X80023809Y-44907200D01*
X80023809Y-44907200D02*
X79880952Y-44954819D01*
X79880952Y-44954819D02*
X79785714Y-44954819D01*
X80547619Y-43954819D02*
X81166666Y-43954819D01*
X81166666Y-43954819D02*
X80833333Y-44335771D01*
X80833333Y-44335771D02*
X80976190Y-44335771D01*
X80976190Y-44335771D02*
X81071428Y-44383390D01*
X81071428Y-44383390D02*
X81119047Y-44431009D01*
X81119047Y-44431009D02*
X81166666Y-44526247D01*
X81166666Y-44526247D02*
X81166666Y-44764342D01*
X81166666Y-44764342D02*
X81119047Y-44859580D01*
X81119047Y-44859580D02*
X81071428Y-44907200D01*
X81071428Y-44907200D02*
X80976190Y-44954819D01*
X80976190Y-44954819D02*
X80690476Y-44954819D01*
X80690476Y-44954819D02*
X80595238Y-44907200D01*
X80595238Y-44907200D02*
X80547619Y-44859580D01*
X77078095Y-66654819D02*
X77078095Y-67464342D01*
X77078095Y-67464342D02*
X77125714Y-67559580D01*
X77125714Y-67559580D02*
X77173333Y-67607200D01*
X77173333Y-67607200D02*
X77268571Y-67654819D01*
X77268571Y-67654819D02*
X77459047Y-67654819D01*
X77459047Y-67654819D02*
X77554285Y-67607200D01*
X77554285Y-67607200D02*
X77601904Y-67559580D01*
X77601904Y-67559580D02*
X77649523Y-67464342D01*
X77649523Y-67464342D02*
X77649523Y-66654819D01*
X78030476Y-66654819D02*
X78649523Y-66654819D01*
X78649523Y-66654819D02*
X78316190Y-67035771D01*
X78316190Y-67035771D02*
X78459047Y-67035771D01*
X78459047Y-67035771D02*
X78554285Y-67083390D01*
X78554285Y-67083390D02*
X78601904Y-67131009D01*
X78601904Y-67131009D02*
X78649523Y-67226247D01*
X78649523Y-67226247D02*
X78649523Y-67464342D01*
X78649523Y-67464342D02*
X78601904Y-67559580D01*
X78601904Y-67559580D02*
X78554285Y-67607200D01*
X78554285Y-67607200D02*
X78459047Y-67654819D01*
X78459047Y-67654819D02*
X78173333Y-67654819D01*
X78173333Y-67654819D02*
X78078095Y-67607200D01*
X78078095Y-67607200D02*
X78030476Y-67559580D01*
X72939104Y-71961905D02*
X72939104Y-71485715D01*
X73224819Y-72057143D02*
X72224819Y-71723810D01*
X72224819Y-71723810D02*
X73224819Y-71390477D01*
X72558152Y-71057143D02*
X73224819Y-71057143D01*
X72653390Y-71057143D02*
X72605771Y-71009524D01*
X72605771Y-71009524D02*
X72558152Y-70914286D01*
X72558152Y-70914286D02*
X72558152Y-70771429D01*
X72558152Y-70771429D02*
X72605771Y-70676191D01*
X72605771Y-70676191D02*
X72701009Y-70628572D01*
X72701009Y-70628572D02*
X73224819Y-70628572D01*
X72558152Y-70295238D02*
X72558152Y-69914286D01*
X72224819Y-70152381D02*
X73081961Y-70152381D01*
X73081961Y-70152381D02*
X73177200Y-70104762D01*
X73177200Y-70104762D02*
X73224819Y-70009524D01*
X73224819Y-70009524D02*
X73224819Y-69914286D01*
X73177200Y-69200000D02*
X73224819Y-69295238D01*
X73224819Y-69295238D02*
X73224819Y-69485714D01*
X73224819Y-69485714D02*
X73177200Y-69580952D01*
X73177200Y-69580952D02*
X73081961Y-69628571D01*
X73081961Y-69628571D02*
X72701009Y-69628571D01*
X72701009Y-69628571D02*
X72605771Y-69580952D01*
X72605771Y-69580952D02*
X72558152Y-69485714D01*
X72558152Y-69485714D02*
X72558152Y-69295238D01*
X72558152Y-69295238D02*
X72605771Y-69200000D01*
X72605771Y-69200000D02*
X72701009Y-69152381D01*
X72701009Y-69152381D02*
X72796247Y-69152381D01*
X72796247Y-69152381D02*
X72891485Y-69628571D01*
X72558152Y-68723809D02*
X73224819Y-68723809D01*
X72653390Y-68723809D02*
X72605771Y-68676190D01*
X72605771Y-68676190D02*
X72558152Y-68580952D01*
X72558152Y-68580952D02*
X72558152Y-68438095D01*
X72558152Y-68438095D02*
X72605771Y-68342857D01*
X72605771Y-68342857D02*
X72701009Y-68295238D01*
X72701009Y-68295238D02*
X73224819Y-68295238D01*
X72558152Y-67819047D02*
X73224819Y-67819047D01*
X72653390Y-67819047D02*
X72605771Y-67771428D01*
X72605771Y-67771428D02*
X72558152Y-67676190D01*
X72558152Y-67676190D02*
X72558152Y-67533333D01*
X72558152Y-67533333D02*
X72605771Y-67438095D01*
X72605771Y-67438095D02*
X72701009Y-67390476D01*
X72701009Y-67390476D02*
X73224819Y-67390476D01*
X73224819Y-66485714D02*
X72701009Y-66485714D01*
X72701009Y-66485714D02*
X72605771Y-66533333D01*
X72605771Y-66533333D02*
X72558152Y-66628571D01*
X72558152Y-66628571D02*
X72558152Y-66819047D01*
X72558152Y-66819047D02*
X72605771Y-66914285D01*
X73177200Y-66485714D02*
X73224819Y-66580952D01*
X73224819Y-66580952D02*
X73224819Y-66819047D01*
X73224819Y-66819047D02*
X73177200Y-66914285D01*
X73177200Y-66914285D02*
X73081961Y-66961904D01*
X73081961Y-66961904D02*
X72986723Y-66961904D01*
X72986723Y-66961904D02*
X72891485Y-66914285D01*
X72891485Y-66914285D02*
X72843866Y-66819047D01*
X72843866Y-66819047D02*
X72843866Y-66580952D01*
X72843866Y-66580952D02*
X72796247Y-66485714D01*
X72939104Y-65295237D02*
X72939104Y-64819047D01*
X73224819Y-65390475D02*
X72224819Y-65057142D01*
X72224819Y-65057142D02*
X73224819Y-64723809D01*
X73224819Y-64390475D02*
X72558152Y-64390475D01*
X72748628Y-64390475D02*
X72653390Y-64342856D01*
X72653390Y-64342856D02*
X72605771Y-64295237D01*
X72605771Y-64295237D02*
X72558152Y-64199999D01*
X72558152Y-64199999D02*
X72558152Y-64104761D01*
X73177200Y-63390475D02*
X73224819Y-63485713D01*
X73224819Y-63485713D02*
X73224819Y-63676189D01*
X73224819Y-63676189D02*
X73177200Y-63771427D01*
X73177200Y-63771427D02*
X73081961Y-63819046D01*
X73081961Y-63819046D02*
X72701009Y-63819046D01*
X72701009Y-63819046D02*
X72605771Y-63771427D01*
X72605771Y-63771427D02*
X72558152Y-63676189D01*
X72558152Y-63676189D02*
X72558152Y-63485713D01*
X72558152Y-63485713D02*
X72605771Y-63390475D01*
X72605771Y-63390475D02*
X72701009Y-63342856D01*
X72701009Y-63342856D02*
X72796247Y-63342856D01*
X72796247Y-63342856D02*
X72891485Y-63819046D01*
X73224819Y-62485713D02*
X72701009Y-62485713D01*
X72701009Y-62485713D02*
X72605771Y-62533332D01*
X72605771Y-62533332D02*
X72558152Y-62628570D01*
X72558152Y-62628570D02*
X72558152Y-62819046D01*
X72558152Y-62819046D02*
X72605771Y-62914284D01*
X73177200Y-62485713D02*
X73224819Y-62580951D01*
X73224819Y-62580951D02*
X73224819Y-62819046D01*
X73224819Y-62819046D02*
X73177200Y-62914284D01*
X73177200Y-62914284D02*
X73081961Y-62961903D01*
X73081961Y-62961903D02*
X72986723Y-62961903D01*
X72986723Y-62961903D02*
X72891485Y-62914284D01*
X72891485Y-62914284D02*
X72843866Y-62819046D01*
X72843866Y-62819046D02*
X72843866Y-62580951D01*
X72843866Y-62580951D02*
X72796247Y-62485713D01*
X80333333Y-93954819D02*
X80000000Y-93478628D01*
X79761905Y-93954819D02*
X79761905Y-92954819D01*
X79761905Y-92954819D02*
X80142857Y-92954819D01*
X80142857Y-92954819D02*
X80238095Y-93002438D01*
X80238095Y-93002438D02*
X80285714Y-93050057D01*
X80285714Y-93050057D02*
X80333333Y-93145295D01*
X80333333Y-93145295D02*
X80333333Y-93288152D01*
X80333333Y-93288152D02*
X80285714Y-93383390D01*
X80285714Y-93383390D02*
X80238095Y-93431009D01*
X80238095Y-93431009D02*
X80142857Y-93478628D01*
X80142857Y-93478628D02*
X79761905Y-93478628D01*
X80666667Y-92954819D02*
X81333333Y-92954819D01*
X81333333Y-92954819D02*
X80904762Y-93954819D01*
X113506666Y-37454819D02*
X113506666Y-38169104D01*
X113506666Y-38169104D02*
X113459047Y-38311961D01*
X113459047Y-38311961D02*
X113363809Y-38407200D01*
X113363809Y-38407200D02*
X113220952Y-38454819D01*
X113220952Y-38454819D02*
X113125714Y-38454819D01*
X114506666Y-38454819D02*
X113935238Y-38454819D01*
X114220952Y-38454819D02*
X114220952Y-37454819D01*
X114220952Y-37454819D02*
X114125714Y-37597676D01*
X114125714Y-37597676D02*
X114030476Y-37692914D01*
X114030476Y-37692914D02*
X113935238Y-37740533D01*
X168454819Y-120499999D02*
X167454819Y-120499999D01*
X167454819Y-120499999D02*
X167454819Y-120261904D01*
X167454819Y-120261904D02*
X167502438Y-120119047D01*
X167502438Y-120119047D02*
X167597676Y-120023809D01*
X167597676Y-120023809D02*
X167692914Y-119976190D01*
X167692914Y-119976190D02*
X167883390Y-119928571D01*
X167883390Y-119928571D02*
X168026247Y-119928571D01*
X168026247Y-119928571D02*
X168216723Y-119976190D01*
X168216723Y-119976190D02*
X168311961Y-120023809D01*
X168311961Y-120023809D02*
X168407200Y-120119047D01*
X168407200Y-120119047D02*
X168454819Y-120261904D01*
X168454819Y-120261904D02*
X168454819Y-120499999D01*
X168407200Y-119547618D02*
X168454819Y-119404761D01*
X168454819Y-119404761D02*
X168454819Y-119166666D01*
X168454819Y-119166666D02*
X168407200Y-119071428D01*
X168407200Y-119071428D02*
X168359580Y-119023809D01*
X168359580Y-119023809D02*
X168264342Y-118976190D01*
X168264342Y-118976190D02*
X168169104Y-118976190D01*
X168169104Y-118976190D02*
X168073866Y-119023809D01*
X168073866Y-119023809D02*
X168026247Y-119071428D01*
X168026247Y-119071428D02*
X167978628Y-119166666D01*
X167978628Y-119166666D02*
X167931009Y-119357142D01*
X167931009Y-119357142D02*
X167883390Y-119452380D01*
X167883390Y-119452380D02*
X167835771Y-119499999D01*
X167835771Y-119499999D02*
X167740533Y-119547618D01*
X167740533Y-119547618D02*
X167645295Y-119547618D01*
X167645295Y-119547618D02*
X167550057Y-119499999D01*
X167550057Y-119499999D02*
X167502438Y-119452380D01*
X167502438Y-119452380D02*
X167454819Y-119357142D01*
X167454819Y-119357142D02*
X167454819Y-119119047D01*
X167454819Y-119119047D02*
X167502438Y-118976190D01*
X168454819Y-118023809D02*
X168454819Y-118595237D01*
X168454819Y-118309523D02*
X167454819Y-118309523D01*
X167454819Y-118309523D02*
X167597676Y-118404761D01*
X167597676Y-118404761D02*
X167692914Y-118499999D01*
X167692914Y-118499999D02*
X167740533Y-118595237D01*
X167883390Y-117452380D02*
X167835771Y-117547618D01*
X167835771Y-117547618D02*
X167788152Y-117595237D01*
X167788152Y-117595237D02*
X167692914Y-117642856D01*
X167692914Y-117642856D02*
X167645295Y-117642856D01*
X167645295Y-117642856D02*
X167550057Y-117595237D01*
X167550057Y-117595237D02*
X167502438Y-117547618D01*
X167502438Y-117547618D02*
X167454819Y-117452380D01*
X167454819Y-117452380D02*
X167454819Y-117261904D01*
X167454819Y-117261904D02*
X167502438Y-117166666D01*
X167502438Y-117166666D02*
X167550057Y-117119047D01*
X167550057Y-117119047D02*
X167645295Y-117071428D01*
X167645295Y-117071428D02*
X167692914Y-117071428D01*
X167692914Y-117071428D02*
X167788152Y-117119047D01*
X167788152Y-117119047D02*
X167835771Y-117166666D01*
X167835771Y-117166666D02*
X167883390Y-117261904D01*
X167883390Y-117261904D02*
X167883390Y-117452380D01*
X167883390Y-117452380D02*
X167931009Y-117547618D01*
X167931009Y-117547618D02*
X167978628Y-117595237D01*
X167978628Y-117595237D02*
X168073866Y-117642856D01*
X168073866Y-117642856D02*
X168264342Y-117642856D01*
X168264342Y-117642856D02*
X168359580Y-117595237D01*
X168359580Y-117595237D02*
X168407200Y-117547618D01*
X168407200Y-117547618D02*
X168454819Y-117452380D01*
X168454819Y-117452380D02*
X168454819Y-117261904D01*
X168454819Y-117261904D02*
X168407200Y-117166666D01*
X168407200Y-117166666D02*
X168359580Y-117119047D01*
X168359580Y-117119047D02*
X168264342Y-117071428D01*
X168264342Y-117071428D02*
X168073866Y-117071428D01*
X168073866Y-117071428D02*
X167978628Y-117119047D01*
X167978628Y-117119047D02*
X167931009Y-117166666D01*
X167931009Y-117166666D02*
X167883390Y-117261904D01*
X167931009Y-116309523D02*
X167978628Y-116166666D01*
X167978628Y-116166666D02*
X168026247Y-116119047D01*
X168026247Y-116119047D02*
X168121485Y-116071428D01*
X168121485Y-116071428D02*
X168264342Y-116071428D01*
X168264342Y-116071428D02*
X168359580Y-116119047D01*
X168359580Y-116119047D02*
X168407200Y-116166666D01*
X168407200Y-116166666D02*
X168454819Y-116261904D01*
X168454819Y-116261904D02*
X168454819Y-116642856D01*
X168454819Y-116642856D02*
X167454819Y-116642856D01*
X167454819Y-116642856D02*
X167454819Y-116309523D01*
X167454819Y-116309523D02*
X167502438Y-116214285D01*
X167502438Y-116214285D02*
X167550057Y-116166666D01*
X167550057Y-116166666D02*
X167645295Y-116119047D01*
X167645295Y-116119047D02*
X167740533Y-116119047D01*
X167740533Y-116119047D02*
X167835771Y-116166666D01*
X167835771Y-116166666D02*
X167883390Y-116214285D01*
X167883390Y-116214285D02*
X167931009Y-116309523D01*
X167931009Y-116309523D02*
X167931009Y-116642856D01*
X167550057Y-115690475D02*
X167502438Y-115642856D01*
X167502438Y-115642856D02*
X167454819Y-115547618D01*
X167454819Y-115547618D02*
X167454819Y-115309523D01*
X167454819Y-115309523D02*
X167502438Y-115214285D01*
X167502438Y-115214285D02*
X167550057Y-115166666D01*
X167550057Y-115166666D02*
X167645295Y-115119047D01*
X167645295Y-115119047D02*
X167740533Y-115119047D01*
X167740533Y-115119047D02*
X167883390Y-115166666D01*
X167883390Y-115166666D02*
X168454819Y-115738094D01*
X168454819Y-115738094D02*
X168454819Y-115119047D01*
X167454819Y-114499999D02*
X167454819Y-114404761D01*
X167454819Y-114404761D02*
X167502438Y-114309523D01*
X167502438Y-114309523D02*
X167550057Y-114261904D01*
X167550057Y-114261904D02*
X167645295Y-114214285D01*
X167645295Y-114214285D02*
X167835771Y-114166666D01*
X167835771Y-114166666D02*
X168073866Y-114166666D01*
X168073866Y-114166666D02*
X168264342Y-114214285D01*
X168264342Y-114214285D02*
X168359580Y-114261904D01*
X168359580Y-114261904D02*
X168407200Y-114309523D01*
X168407200Y-114309523D02*
X168454819Y-114404761D01*
X168454819Y-114404761D02*
X168454819Y-114499999D01*
X168454819Y-114499999D02*
X168407200Y-114595237D01*
X168407200Y-114595237D02*
X168359580Y-114642856D01*
X168359580Y-114642856D02*
X168264342Y-114690475D01*
X168264342Y-114690475D02*
X168073866Y-114738094D01*
X168073866Y-114738094D02*
X167835771Y-114738094D01*
X167835771Y-114738094D02*
X167645295Y-114690475D01*
X167645295Y-114690475D02*
X167550057Y-114642856D01*
X167550057Y-114642856D02*
X167502438Y-114595237D01*
X167502438Y-114595237D02*
X167454819Y-114499999D01*
X168550057Y-113976190D02*
X168550057Y-113214285D01*
X168454819Y-112452380D02*
X168454819Y-113023808D01*
X168454819Y-112738094D02*
X167454819Y-112738094D01*
X167454819Y-112738094D02*
X167597676Y-112833332D01*
X167597676Y-112833332D02*
X167692914Y-112928570D01*
X167692914Y-112928570D02*
X167740533Y-113023808D01*
X96261905Y-47954819D02*
X96261905Y-46954819D01*
X96261905Y-46954819D02*
X96500000Y-46954819D01*
X96500000Y-46954819D02*
X96642857Y-47002438D01*
X96642857Y-47002438D02*
X96738095Y-47097676D01*
X96738095Y-47097676D02*
X96785714Y-47192914D01*
X96785714Y-47192914D02*
X96833333Y-47383390D01*
X96833333Y-47383390D02*
X96833333Y-47526247D01*
X96833333Y-47526247D02*
X96785714Y-47716723D01*
X96785714Y-47716723D02*
X96738095Y-47811961D01*
X96738095Y-47811961D02*
X96642857Y-47907200D01*
X96642857Y-47907200D02*
X96500000Y-47954819D01*
X96500000Y-47954819D02*
X96261905Y-47954819D01*
X97214286Y-47050057D02*
X97261905Y-47002438D01*
X97261905Y-47002438D02*
X97357143Y-46954819D01*
X97357143Y-46954819D02*
X97595238Y-46954819D01*
X97595238Y-46954819D02*
X97690476Y-47002438D01*
X97690476Y-47002438D02*
X97738095Y-47050057D01*
X97738095Y-47050057D02*
X97785714Y-47145295D01*
X97785714Y-47145295D02*
X97785714Y-47240533D01*
X97785714Y-47240533D02*
X97738095Y-47383390D01*
X97738095Y-47383390D02*
X97166667Y-47954819D01*
X97166667Y-47954819D02*
X97785714Y-47954819D01*
X76761905Y-93954819D02*
X76761905Y-92954819D01*
X76761905Y-92954819D02*
X77000000Y-92954819D01*
X77000000Y-92954819D02*
X77142857Y-93002438D01*
X77142857Y-93002438D02*
X77238095Y-93097676D01*
X77238095Y-93097676D02*
X77285714Y-93192914D01*
X77285714Y-93192914D02*
X77333333Y-93383390D01*
X77333333Y-93383390D02*
X77333333Y-93526247D01*
X77333333Y-93526247D02*
X77285714Y-93716723D01*
X77285714Y-93716723D02*
X77238095Y-93811961D01*
X77238095Y-93811961D02*
X77142857Y-93907200D01*
X77142857Y-93907200D02*
X77000000Y-93954819D01*
X77000000Y-93954819D02*
X76761905Y-93954819D01*
X78190476Y-93288152D02*
X78190476Y-93954819D01*
X77952381Y-92907200D02*
X77714286Y-93621485D01*
X77714286Y-93621485D02*
X78333333Y-93621485D01*
X110673333Y-48904819D02*
X110340000Y-48428628D01*
X110101905Y-48904819D02*
X110101905Y-47904819D01*
X110101905Y-47904819D02*
X110482857Y-47904819D01*
X110482857Y-47904819D02*
X110578095Y-47952438D01*
X110578095Y-47952438D02*
X110625714Y-48000057D01*
X110625714Y-48000057D02*
X110673333Y-48095295D01*
X110673333Y-48095295D02*
X110673333Y-48238152D01*
X110673333Y-48238152D02*
X110625714Y-48333390D01*
X110625714Y-48333390D02*
X110578095Y-48381009D01*
X110578095Y-48381009D02*
X110482857Y-48428628D01*
X110482857Y-48428628D02*
X110101905Y-48428628D01*
X111625714Y-48904819D02*
X111054286Y-48904819D01*
X111340000Y-48904819D02*
X111340000Y-47904819D01*
X111340000Y-47904819D02*
X111244762Y-48047676D01*
X111244762Y-48047676D02*
X111149524Y-48142914D01*
X111149524Y-48142914D02*
X111054286Y-48190533D01*
X103673333Y-40904819D02*
X103340000Y-40428628D01*
X103101905Y-40904819D02*
X103101905Y-39904819D01*
X103101905Y-39904819D02*
X103482857Y-39904819D01*
X103482857Y-39904819D02*
X103578095Y-39952438D01*
X103578095Y-39952438D02*
X103625714Y-40000057D01*
X103625714Y-40000057D02*
X103673333Y-40095295D01*
X103673333Y-40095295D02*
X103673333Y-40238152D01*
X103673333Y-40238152D02*
X103625714Y-40333390D01*
X103625714Y-40333390D02*
X103578095Y-40381009D01*
X103578095Y-40381009D02*
X103482857Y-40428628D01*
X103482857Y-40428628D02*
X103101905Y-40428628D01*
X104578095Y-39904819D02*
X104101905Y-39904819D01*
X104101905Y-39904819D02*
X104054286Y-40381009D01*
X104054286Y-40381009D02*
X104101905Y-40333390D01*
X104101905Y-40333390D02*
X104197143Y-40285771D01*
X104197143Y-40285771D02*
X104435238Y-40285771D01*
X104435238Y-40285771D02*
X104530476Y-40333390D01*
X104530476Y-40333390D02*
X104578095Y-40381009D01*
X104578095Y-40381009D02*
X104625714Y-40476247D01*
X104625714Y-40476247D02*
X104625714Y-40714342D01*
X104625714Y-40714342D02*
X104578095Y-40809580D01*
X104578095Y-40809580D02*
X104530476Y-40857200D01*
X104530476Y-40857200D02*
X104435238Y-40904819D01*
X104435238Y-40904819D02*
X104197143Y-40904819D01*
X104197143Y-40904819D02*
X104101905Y-40857200D01*
X104101905Y-40857200D02*
X104054286Y-40809580D01*
X74857142Y-46954819D02*
X74523809Y-46478628D01*
X74285714Y-46954819D02*
X74285714Y-45954819D01*
X74285714Y-45954819D02*
X74666666Y-45954819D01*
X74666666Y-45954819D02*
X74761904Y-46002438D01*
X74761904Y-46002438D02*
X74809523Y-46050057D01*
X74809523Y-46050057D02*
X74857142Y-46145295D01*
X74857142Y-46145295D02*
X74857142Y-46288152D01*
X74857142Y-46288152D02*
X74809523Y-46383390D01*
X74809523Y-46383390D02*
X74761904Y-46431009D01*
X74761904Y-46431009D02*
X74666666Y-46478628D01*
X74666666Y-46478628D02*
X74285714Y-46478628D01*
X75809523Y-46954819D02*
X75238095Y-46954819D01*
X75523809Y-46954819D02*
X75523809Y-45954819D01*
X75523809Y-45954819D02*
X75428571Y-46097676D01*
X75428571Y-46097676D02*
X75333333Y-46192914D01*
X75333333Y-46192914D02*
X75238095Y-46240533D01*
X76666666Y-46288152D02*
X76666666Y-46954819D01*
X76428571Y-45907200D02*
X76190476Y-46621485D01*
X76190476Y-46621485D02*
X76809523Y-46621485D01*
X70506666Y-55404819D02*
X70506666Y-56119104D01*
X70506666Y-56119104D02*
X70459047Y-56261961D01*
X70459047Y-56261961D02*
X70363809Y-56357200D01*
X70363809Y-56357200D02*
X70220952Y-56404819D01*
X70220952Y-56404819D02*
X70125714Y-56404819D01*
X71459047Y-55404819D02*
X70982857Y-55404819D01*
X70982857Y-55404819D02*
X70935238Y-55881009D01*
X70935238Y-55881009D02*
X70982857Y-55833390D01*
X70982857Y-55833390D02*
X71078095Y-55785771D01*
X71078095Y-55785771D02*
X71316190Y-55785771D01*
X71316190Y-55785771D02*
X71411428Y-55833390D01*
X71411428Y-55833390D02*
X71459047Y-55881009D01*
X71459047Y-55881009D02*
X71506666Y-55976247D01*
X71506666Y-55976247D02*
X71506666Y-56214342D01*
X71506666Y-56214342D02*
X71459047Y-56309580D01*
X71459047Y-56309580D02*
X71411428Y-56357200D01*
X71411428Y-56357200D02*
X71316190Y-56404819D01*
X71316190Y-56404819D02*
X71078095Y-56404819D01*
X71078095Y-56404819D02*
X70982857Y-56357200D01*
X70982857Y-56357200D02*
X70935238Y-56309580D01*
X136904762Y-130954819D02*
X136904762Y-129954819D01*
X136904762Y-129954819D02*
X137285714Y-129954819D01*
X137285714Y-129954819D02*
X137380952Y-130002438D01*
X137380952Y-130002438D02*
X137428571Y-130050057D01*
X137428571Y-130050057D02*
X137476190Y-130145295D01*
X137476190Y-130145295D02*
X137476190Y-130288152D01*
X137476190Y-130288152D02*
X137428571Y-130383390D01*
X137428571Y-130383390D02*
X137380952Y-130431009D01*
X137380952Y-130431009D02*
X137285714Y-130478628D01*
X137285714Y-130478628D02*
X136904762Y-130478628D01*
X138380952Y-130954819D02*
X137904762Y-130954819D01*
X137904762Y-130954819D02*
X137904762Y-129954819D01*
X138714286Y-129954819D02*
X138714286Y-130764342D01*
X138714286Y-130764342D02*
X138761905Y-130859580D01*
X138761905Y-130859580D02*
X138809524Y-130907200D01*
X138809524Y-130907200D02*
X138904762Y-130954819D01*
X138904762Y-130954819D02*
X139095238Y-130954819D01*
X139095238Y-130954819D02*
X139190476Y-130907200D01*
X139190476Y-130907200D02*
X139238095Y-130859580D01*
X139238095Y-130859580D02*
X139285714Y-130764342D01*
X139285714Y-130764342D02*
X139285714Y-129954819D01*
X139619048Y-129954819D02*
X139952381Y-130954819D01*
X139952381Y-130954819D02*
X140285714Y-129954819D01*
X140619048Y-130954819D02*
X140619048Y-129954819D01*
X141285714Y-129954819D02*
X141476190Y-129954819D01*
X141476190Y-129954819D02*
X141571428Y-130002438D01*
X141571428Y-130002438D02*
X141666666Y-130097676D01*
X141666666Y-130097676D02*
X141714285Y-130288152D01*
X141714285Y-130288152D02*
X141714285Y-130621485D01*
X141714285Y-130621485D02*
X141666666Y-130811961D01*
X141666666Y-130811961D02*
X141571428Y-130907200D01*
X141571428Y-130907200D02*
X141476190Y-130954819D01*
X141476190Y-130954819D02*
X141285714Y-130954819D01*
X141285714Y-130954819D02*
X141190476Y-130907200D01*
X141190476Y-130907200D02*
X141095238Y-130811961D01*
X141095238Y-130811961D02*
X141047619Y-130621485D01*
X141047619Y-130621485D02*
X141047619Y-130288152D01*
X141047619Y-130288152D02*
X141095238Y-130097676D01*
X141095238Y-130097676D02*
X141190476Y-130002438D01*
X141190476Y-130002438D02*
X141285714Y-129954819D01*
X142142857Y-130954819D02*
X142142857Y-129954819D01*
X142142857Y-129954819D02*
X142476190Y-130669104D01*
X142476190Y-130669104D02*
X142809523Y-129954819D01*
X142809523Y-129954819D02*
X142809523Y-130954819D01*
X143285714Y-130431009D02*
X143619047Y-130431009D01*
X143761904Y-130954819D02*
X143285714Y-130954819D01*
X143285714Y-130954819D02*
X143285714Y-129954819D01*
X143285714Y-129954819D02*
X143761904Y-129954819D01*
X144047619Y-129954819D02*
X144619047Y-129954819D01*
X144333333Y-130954819D02*
X144333333Y-129954819D01*
X144952381Y-130431009D02*
X145285714Y-130431009D01*
X145428571Y-130954819D02*
X144952381Y-130954819D01*
X144952381Y-130954819D02*
X144952381Y-129954819D01*
X144952381Y-129954819D02*
X145428571Y-129954819D01*
X146428571Y-130954819D02*
X146095238Y-130478628D01*
X145857143Y-130954819D02*
X145857143Y-129954819D01*
X145857143Y-129954819D02*
X146238095Y-129954819D01*
X146238095Y-129954819D02*
X146333333Y-130002438D01*
X146333333Y-130002438D02*
X146380952Y-130050057D01*
X146380952Y-130050057D02*
X146428571Y-130145295D01*
X146428571Y-130145295D02*
X146428571Y-130288152D01*
X146428571Y-130288152D02*
X146380952Y-130383390D01*
X146380952Y-130383390D02*
X146333333Y-130431009D01*
X146333333Y-130431009D02*
X146238095Y-130478628D01*
X146238095Y-130478628D02*
X145857143Y-130478628D01*
X146619048Y-131050057D02*
X147380952Y-131050057D01*
X148142857Y-130954819D02*
X147571429Y-130954819D01*
X147857143Y-130954819D02*
X147857143Y-129954819D01*
X147857143Y-129954819D02*
X147761905Y-130097676D01*
X147761905Y-130097676D02*
X147666667Y-130192914D01*
X147666667Y-130192914D02*
X147571429Y-130240533D01*
X78931009Y-108563095D02*
X78978628Y-108420238D01*
X78978628Y-108420238D02*
X79026247Y-108372619D01*
X79026247Y-108372619D02*
X79121485Y-108325000D01*
X79121485Y-108325000D02*
X79264342Y-108325000D01*
X79264342Y-108325000D02*
X79359580Y-108372619D01*
X79359580Y-108372619D02*
X79407200Y-108420238D01*
X79407200Y-108420238D02*
X79454819Y-108515476D01*
X79454819Y-108515476D02*
X79454819Y-108896428D01*
X79454819Y-108896428D02*
X78454819Y-108896428D01*
X78454819Y-108896428D02*
X78454819Y-108563095D01*
X78454819Y-108563095D02*
X78502438Y-108467857D01*
X78502438Y-108467857D02*
X78550057Y-108420238D01*
X78550057Y-108420238D02*
X78645295Y-108372619D01*
X78645295Y-108372619D02*
X78740533Y-108372619D01*
X78740533Y-108372619D02*
X78835771Y-108420238D01*
X78835771Y-108420238D02*
X78883390Y-108467857D01*
X78883390Y-108467857D02*
X78931009Y-108563095D01*
X78931009Y-108563095D02*
X78931009Y-108896428D01*
X78454819Y-107896428D02*
X79264342Y-107896428D01*
X79264342Y-107896428D02*
X79359580Y-107848809D01*
X79359580Y-107848809D02*
X79407200Y-107801190D01*
X79407200Y-107801190D02*
X79454819Y-107705952D01*
X79454819Y-107705952D02*
X79454819Y-107515476D01*
X79454819Y-107515476D02*
X79407200Y-107420238D01*
X79407200Y-107420238D02*
X79359580Y-107372619D01*
X79359580Y-107372619D02*
X79264342Y-107325000D01*
X79264342Y-107325000D02*
X78454819Y-107325000D01*
X79407200Y-106896428D02*
X79454819Y-106753571D01*
X79454819Y-106753571D02*
X79454819Y-106515476D01*
X79454819Y-106515476D02*
X79407200Y-106420238D01*
X79407200Y-106420238D02*
X79359580Y-106372619D01*
X79359580Y-106372619D02*
X79264342Y-106325000D01*
X79264342Y-106325000D02*
X79169104Y-106325000D01*
X79169104Y-106325000D02*
X79073866Y-106372619D01*
X79073866Y-106372619D02*
X79026247Y-106420238D01*
X79026247Y-106420238D02*
X78978628Y-106515476D01*
X78978628Y-106515476D02*
X78931009Y-106705952D01*
X78931009Y-106705952D02*
X78883390Y-106801190D01*
X78883390Y-106801190D02*
X78835771Y-106848809D01*
X78835771Y-106848809D02*
X78740533Y-106896428D01*
X78740533Y-106896428D02*
X78645295Y-106896428D01*
X78645295Y-106896428D02*
X78550057Y-106848809D01*
X78550057Y-106848809D02*
X78502438Y-106801190D01*
X78502438Y-106801190D02*
X78454819Y-106705952D01*
X78454819Y-106705952D02*
X78454819Y-106467857D01*
X78454819Y-106467857D02*
X78502438Y-106325000D01*
X79550057Y-106134524D02*
X79550057Y-105372619D01*
X79454819Y-105134523D02*
X78454819Y-105134523D01*
X78550057Y-104705952D02*
X78502438Y-104658333D01*
X78502438Y-104658333D02*
X78454819Y-104563095D01*
X78454819Y-104563095D02*
X78454819Y-104325000D01*
X78454819Y-104325000D02*
X78502438Y-104229762D01*
X78502438Y-104229762D02*
X78550057Y-104182143D01*
X78550057Y-104182143D02*
X78645295Y-104134524D01*
X78645295Y-104134524D02*
X78740533Y-104134524D01*
X78740533Y-104134524D02*
X78883390Y-104182143D01*
X78883390Y-104182143D02*
X79454819Y-104753571D01*
X79454819Y-104753571D02*
X79454819Y-104134524D01*
X79359580Y-103134524D02*
X79407200Y-103182143D01*
X79407200Y-103182143D02*
X79454819Y-103325000D01*
X79454819Y-103325000D02*
X79454819Y-103420238D01*
X79454819Y-103420238D02*
X79407200Y-103563095D01*
X79407200Y-103563095D02*
X79311961Y-103658333D01*
X79311961Y-103658333D02*
X79216723Y-103705952D01*
X79216723Y-103705952D02*
X79026247Y-103753571D01*
X79026247Y-103753571D02*
X78883390Y-103753571D01*
X78883390Y-103753571D02*
X78692914Y-103705952D01*
X78692914Y-103705952D02*
X78597676Y-103658333D01*
X78597676Y-103658333D02*
X78502438Y-103563095D01*
X78502438Y-103563095D02*
X78454819Y-103420238D01*
X78454819Y-103420238D02*
X78454819Y-103325000D01*
X78454819Y-103325000D02*
X78502438Y-103182143D01*
X78502438Y-103182143D02*
X78550057Y-103134524D01*
X79550057Y-102944048D02*
X79550057Y-102182143D01*
X79454819Y-101420238D02*
X79454819Y-101991666D01*
X79454819Y-101705952D02*
X78454819Y-101705952D01*
X78454819Y-101705952D02*
X78597676Y-101801190D01*
X78597676Y-101801190D02*
X78692914Y-101896428D01*
X78692914Y-101896428D02*
X78740533Y-101991666D01*
X79550057Y-101229762D02*
X79550057Y-100467857D01*
X78454819Y-100324999D02*
X78454819Y-99705952D01*
X78454819Y-99705952D02*
X78835771Y-100039285D01*
X78835771Y-100039285D02*
X78835771Y-99896428D01*
X78835771Y-99896428D02*
X78883390Y-99801190D01*
X78883390Y-99801190D02*
X78931009Y-99753571D01*
X78931009Y-99753571D02*
X79026247Y-99705952D01*
X79026247Y-99705952D02*
X79264342Y-99705952D01*
X79264342Y-99705952D02*
X79359580Y-99753571D01*
X79359580Y-99753571D02*
X79407200Y-99801190D01*
X79407200Y-99801190D02*
X79454819Y-99896428D01*
X79454819Y-99896428D02*
X79454819Y-100182142D01*
X79454819Y-100182142D02*
X79407200Y-100277380D01*
X79407200Y-100277380D02*
X79359580Y-100324999D01*
X90166667Y-43407200D02*
X90309524Y-43454819D01*
X90309524Y-43454819D02*
X90547619Y-43454819D01*
X90547619Y-43454819D02*
X90642857Y-43407200D01*
X90642857Y-43407200D02*
X90690476Y-43359580D01*
X90690476Y-43359580D02*
X90738095Y-43264342D01*
X90738095Y-43264342D02*
X90738095Y-43169104D01*
X90738095Y-43169104D02*
X90690476Y-43073866D01*
X90690476Y-43073866D02*
X90642857Y-43026247D01*
X90642857Y-43026247D02*
X90547619Y-42978628D01*
X90547619Y-42978628D02*
X90357143Y-42931009D01*
X90357143Y-42931009D02*
X90261905Y-42883390D01*
X90261905Y-42883390D02*
X90214286Y-42835771D01*
X90214286Y-42835771D02*
X90166667Y-42740533D01*
X90166667Y-42740533D02*
X90166667Y-42645295D01*
X90166667Y-42645295D02*
X90214286Y-42550057D01*
X90214286Y-42550057D02*
X90261905Y-42502438D01*
X90261905Y-42502438D02*
X90357143Y-42454819D01*
X90357143Y-42454819D02*
X90595238Y-42454819D01*
X90595238Y-42454819D02*
X90738095Y-42502438D01*
X91071429Y-42454819D02*
X91309524Y-43454819D01*
X91309524Y-43454819D02*
X91500000Y-42740533D01*
X91500000Y-42740533D02*
X91690476Y-43454819D01*
X91690476Y-43454819D02*
X91928572Y-42454819D01*
X92261905Y-42550057D02*
X92309524Y-42502438D01*
X92309524Y-42502438D02*
X92404762Y-42454819D01*
X92404762Y-42454819D02*
X92642857Y-42454819D01*
X92642857Y-42454819D02*
X92738095Y-42502438D01*
X92738095Y-42502438D02*
X92785714Y-42550057D01*
X92785714Y-42550057D02*
X92833333Y-42645295D01*
X92833333Y-42645295D02*
X92833333Y-42740533D01*
X92833333Y-42740533D02*
X92785714Y-42883390D01*
X92785714Y-42883390D02*
X92214286Y-43454819D01*
X92214286Y-43454819D02*
X92833333Y-43454819D01*
X106738095Y-53954819D02*
X106738095Y-54764342D01*
X106738095Y-54764342D02*
X106785714Y-54859580D01*
X106785714Y-54859580D02*
X106833333Y-54907200D01*
X106833333Y-54907200D02*
X106928571Y-54954819D01*
X106928571Y-54954819D02*
X107119047Y-54954819D01*
X107119047Y-54954819D02*
X107214285Y-54907200D01*
X107214285Y-54907200D02*
X107261904Y-54859580D01*
X107261904Y-54859580D02*
X107309523Y-54764342D01*
X107309523Y-54764342D02*
X107309523Y-53954819D01*
X108309523Y-54954819D02*
X107738095Y-54954819D01*
X108023809Y-54954819D02*
X108023809Y-53954819D01*
X108023809Y-53954819D02*
X107928571Y-54097676D01*
X107928571Y-54097676D02*
X107833333Y-54192914D01*
X107833333Y-54192914D02*
X107738095Y-54240533D01*
X131166666Y-37404819D02*
X131166666Y-38119104D01*
X131166666Y-38119104D02*
X131119047Y-38261961D01*
X131119047Y-38261961D02*
X131023809Y-38357200D01*
X131023809Y-38357200D02*
X130880952Y-38404819D01*
X130880952Y-38404819D02*
X130785714Y-38404819D01*
X131595238Y-37500057D02*
X131642857Y-37452438D01*
X131642857Y-37452438D02*
X131738095Y-37404819D01*
X131738095Y-37404819D02*
X131976190Y-37404819D01*
X131976190Y-37404819D02*
X132071428Y-37452438D01*
X132071428Y-37452438D02*
X132119047Y-37500057D01*
X132119047Y-37500057D02*
X132166666Y-37595295D01*
X132166666Y-37595295D02*
X132166666Y-37690533D01*
X132166666Y-37690533D02*
X132119047Y-37833390D01*
X132119047Y-37833390D02*
X131547619Y-38404819D01*
X131547619Y-38404819D02*
X132166666Y-38404819D01*
X122857142Y-59859580D02*
X122809523Y-59907200D01*
X122809523Y-59907200D02*
X122666666Y-59954819D01*
X122666666Y-59954819D02*
X122571428Y-59954819D01*
X122571428Y-59954819D02*
X122428571Y-59907200D01*
X122428571Y-59907200D02*
X122333333Y-59811961D01*
X122333333Y-59811961D02*
X122285714Y-59716723D01*
X122285714Y-59716723D02*
X122238095Y-59526247D01*
X122238095Y-59526247D02*
X122238095Y-59383390D01*
X122238095Y-59383390D02*
X122285714Y-59192914D01*
X122285714Y-59192914D02*
X122333333Y-59097676D01*
X122333333Y-59097676D02*
X122428571Y-59002438D01*
X122428571Y-59002438D02*
X122571428Y-58954819D01*
X122571428Y-58954819D02*
X122666666Y-58954819D01*
X122666666Y-58954819D02*
X122809523Y-59002438D01*
X122809523Y-59002438D02*
X122857142Y-59050057D01*
X123809523Y-59954819D02*
X123238095Y-59954819D01*
X123523809Y-59954819D02*
X123523809Y-58954819D01*
X123523809Y-58954819D02*
X123428571Y-59097676D01*
X123428571Y-59097676D02*
X123333333Y-59192914D01*
X123333333Y-59192914D02*
X123238095Y-59240533D01*
X124428571Y-58954819D02*
X124523809Y-58954819D01*
X124523809Y-58954819D02*
X124619047Y-59002438D01*
X124619047Y-59002438D02*
X124666666Y-59050057D01*
X124666666Y-59050057D02*
X124714285Y-59145295D01*
X124714285Y-59145295D02*
X124761904Y-59335771D01*
X124761904Y-59335771D02*
X124761904Y-59573866D01*
X124761904Y-59573866D02*
X124714285Y-59764342D01*
X124714285Y-59764342D02*
X124666666Y-59859580D01*
X124666666Y-59859580D02*
X124619047Y-59907200D01*
X124619047Y-59907200D02*
X124523809Y-59954819D01*
X124523809Y-59954819D02*
X124428571Y-59954819D01*
X124428571Y-59954819D02*
X124333333Y-59907200D01*
X124333333Y-59907200D02*
X124285714Y-59859580D01*
X124285714Y-59859580D02*
X124238095Y-59764342D01*
X124238095Y-59764342D02*
X124190476Y-59573866D01*
X124190476Y-59573866D02*
X124190476Y-59335771D01*
X124190476Y-59335771D02*
X124238095Y-59145295D01*
X124238095Y-59145295D02*
X124285714Y-59050057D01*
X124285714Y-59050057D02*
X124333333Y-59002438D01*
X124333333Y-59002438D02*
X124428571Y-58954819D01*
X132833333Y-62859580D02*
X132785714Y-62907200D01*
X132785714Y-62907200D02*
X132642857Y-62954819D01*
X132642857Y-62954819D02*
X132547619Y-62954819D01*
X132547619Y-62954819D02*
X132404762Y-62907200D01*
X132404762Y-62907200D02*
X132309524Y-62811961D01*
X132309524Y-62811961D02*
X132261905Y-62716723D01*
X132261905Y-62716723D02*
X132214286Y-62526247D01*
X132214286Y-62526247D02*
X132214286Y-62383390D01*
X132214286Y-62383390D02*
X132261905Y-62192914D01*
X132261905Y-62192914D02*
X132309524Y-62097676D01*
X132309524Y-62097676D02*
X132404762Y-62002438D01*
X132404762Y-62002438D02*
X132547619Y-61954819D01*
X132547619Y-61954819D02*
X132642857Y-61954819D01*
X132642857Y-61954819D02*
X132785714Y-62002438D01*
X132785714Y-62002438D02*
X132833333Y-62050057D01*
X133785714Y-62954819D02*
X133214286Y-62954819D01*
X133500000Y-62954819D02*
X133500000Y-61954819D01*
X133500000Y-61954819D02*
X133404762Y-62097676D01*
X133404762Y-62097676D02*
X133309524Y-62192914D01*
X133309524Y-62192914D02*
X133214286Y-62240533D01*
X105333333Y-49454819D02*
X105000000Y-48978628D01*
X104761905Y-49454819D02*
X104761905Y-48454819D01*
X104761905Y-48454819D02*
X105142857Y-48454819D01*
X105142857Y-48454819D02*
X105238095Y-48502438D01*
X105238095Y-48502438D02*
X105285714Y-48550057D01*
X105285714Y-48550057D02*
X105333333Y-48645295D01*
X105333333Y-48645295D02*
X105333333Y-48788152D01*
X105333333Y-48788152D02*
X105285714Y-48883390D01*
X105285714Y-48883390D02*
X105238095Y-48931009D01*
X105238095Y-48931009D02*
X105142857Y-48978628D01*
X105142857Y-48978628D02*
X104761905Y-48978628D01*
X106190476Y-48454819D02*
X106000000Y-48454819D01*
X106000000Y-48454819D02*
X105904762Y-48502438D01*
X105904762Y-48502438D02*
X105857143Y-48550057D01*
X105857143Y-48550057D02*
X105761905Y-48692914D01*
X105761905Y-48692914D02*
X105714286Y-48883390D01*
X105714286Y-48883390D02*
X105714286Y-49264342D01*
X105714286Y-49264342D02*
X105761905Y-49359580D01*
X105761905Y-49359580D02*
X105809524Y-49407200D01*
X105809524Y-49407200D02*
X105904762Y-49454819D01*
X105904762Y-49454819D02*
X106095238Y-49454819D01*
X106095238Y-49454819D02*
X106190476Y-49407200D01*
X106190476Y-49407200D02*
X106238095Y-49359580D01*
X106238095Y-49359580D02*
X106285714Y-49264342D01*
X106285714Y-49264342D02*
X106285714Y-49026247D01*
X106285714Y-49026247D02*
X106238095Y-48931009D01*
X106238095Y-48931009D02*
X106190476Y-48883390D01*
X106190476Y-48883390D02*
X106095238Y-48835771D01*
X106095238Y-48835771D02*
X105904762Y-48835771D01*
X105904762Y-48835771D02*
X105809524Y-48883390D01*
X105809524Y-48883390D02*
X105761905Y-48931009D01*
X105761905Y-48931009D02*
X105714286Y-49026247D01*
X155857142Y-77359580D02*
X155809523Y-77407200D01*
X155809523Y-77407200D02*
X155666666Y-77454819D01*
X155666666Y-77454819D02*
X155571428Y-77454819D01*
X155571428Y-77454819D02*
X155428571Y-77407200D01*
X155428571Y-77407200D02*
X155333333Y-77311961D01*
X155333333Y-77311961D02*
X155285714Y-77216723D01*
X155285714Y-77216723D02*
X155238095Y-77026247D01*
X155238095Y-77026247D02*
X155238095Y-76883390D01*
X155238095Y-76883390D02*
X155285714Y-76692914D01*
X155285714Y-76692914D02*
X155333333Y-76597676D01*
X155333333Y-76597676D02*
X155428571Y-76502438D01*
X155428571Y-76502438D02*
X155571428Y-76454819D01*
X155571428Y-76454819D02*
X155666666Y-76454819D01*
X155666666Y-76454819D02*
X155809523Y-76502438D01*
X155809523Y-76502438D02*
X155857142Y-76550057D01*
X156809523Y-77454819D02*
X156238095Y-77454819D01*
X156523809Y-77454819D02*
X156523809Y-76454819D01*
X156523809Y-76454819D02*
X156428571Y-76597676D01*
X156428571Y-76597676D02*
X156333333Y-76692914D01*
X156333333Y-76692914D02*
X156238095Y-76740533D01*
X157142857Y-76454819D02*
X157809523Y-76454819D01*
X157809523Y-76454819D02*
X157380952Y-77454819D01*
X134197142Y-50859580D02*
X134149523Y-50907200D01*
X134149523Y-50907200D02*
X134006666Y-50954819D01*
X134006666Y-50954819D02*
X133911428Y-50954819D01*
X133911428Y-50954819D02*
X133768571Y-50907200D01*
X133768571Y-50907200D02*
X133673333Y-50811961D01*
X133673333Y-50811961D02*
X133625714Y-50716723D01*
X133625714Y-50716723D02*
X133578095Y-50526247D01*
X133578095Y-50526247D02*
X133578095Y-50383390D01*
X133578095Y-50383390D02*
X133625714Y-50192914D01*
X133625714Y-50192914D02*
X133673333Y-50097676D01*
X133673333Y-50097676D02*
X133768571Y-50002438D01*
X133768571Y-50002438D02*
X133911428Y-49954819D01*
X133911428Y-49954819D02*
X134006666Y-49954819D01*
X134006666Y-49954819D02*
X134149523Y-50002438D01*
X134149523Y-50002438D02*
X134197142Y-50050057D01*
X135149523Y-50954819D02*
X134578095Y-50954819D01*
X134863809Y-50954819D02*
X134863809Y-49954819D01*
X134863809Y-49954819D02*
X134768571Y-50097676D01*
X134768571Y-50097676D02*
X134673333Y-50192914D01*
X134673333Y-50192914D02*
X134578095Y-50240533D01*
X136054285Y-49954819D02*
X135578095Y-49954819D01*
X135578095Y-49954819D02*
X135530476Y-50431009D01*
X135530476Y-50431009D02*
X135578095Y-50383390D01*
X135578095Y-50383390D02*
X135673333Y-50335771D01*
X135673333Y-50335771D02*
X135911428Y-50335771D01*
X135911428Y-50335771D02*
X136006666Y-50383390D01*
X136006666Y-50383390D02*
X136054285Y-50431009D01*
X136054285Y-50431009D02*
X136101904Y-50526247D01*
X136101904Y-50526247D02*
X136101904Y-50764342D01*
X136101904Y-50764342D02*
X136054285Y-50859580D01*
X136054285Y-50859580D02*
X136006666Y-50907200D01*
X136006666Y-50907200D02*
X135911428Y-50954819D01*
X135911428Y-50954819D02*
X135673333Y-50954819D01*
X135673333Y-50954819D02*
X135578095Y-50907200D01*
X135578095Y-50907200D02*
X135530476Y-50859580D01*
X78931009Y-120988095D02*
X78978628Y-120845238D01*
X78978628Y-120845238D02*
X79026247Y-120797619D01*
X79026247Y-120797619D02*
X79121485Y-120750000D01*
X79121485Y-120750000D02*
X79264342Y-120750000D01*
X79264342Y-120750000D02*
X79359580Y-120797619D01*
X79359580Y-120797619D02*
X79407200Y-120845238D01*
X79407200Y-120845238D02*
X79454819Y-120940476D01*
X79454819Y-120940476D02*
X79454819Y-121321428D01*
X79454819Y-121321428D02*
X78454819Y-121321428D01*
X78454819Y-121321428D02*
X78454819Y-120988095D01*
X78454819Y-120988095D02*
X78502438Y-120892857D01*
X78502438Y-120892857D02*
X78550057Y-120845238D01*
X78550057Y-120845238D02*
X78645295Y-120797619D01*
X78645295Y-120797619D02*
X78740533Y-120797619D01*
X78740533Y-120797619D02*
X78835771Y-120845238D01*
X78835771Y-120845238D02*
X78883390Y-120892857D01*
X78883390Y-120892857D02*
X78931009Y-120988095D01*
X78931009Y-120988095D02*
X78931009Y-121321428D01*
X78454819Y-120321428D02*
X79264342Y-120321428D01*
X79264342Y-120321428D02*
X79359580Y-120273809D01*
X79359580Y-120273809D02*
X79407200Y-120226190D01*
X79407200Y-120226190D02*
X79454819Y-120130952D01*
X79454819Y-120130952D02*
X79454819Y-119940476D01*
X79454819Y-119940476D02*
X79407200Y-119845238D01*
X79407200Y-119845238D02*
X79359580Y-119797619D01*
X79359580Y-119797619D02*
X79264342Y-119750000D01*
X79264342Y-119750000D02*
X78454819Y-119750000D01*
X79407200Y-119321428D02*
X79454819Y-119178571D01*
X79454819Y-119178571D02*
X79454819Y-118940476D01*
X79454819Y-118940476D02*
X79407200Y-118845238D01*
X79407200Y-118845238D02*
X79359580Y-118797619D01*
X79359580Y-118797619D02*
X79264342Y-118750000D01*
X79264342Y-118750000D02*
X79169104Y-118750000D01*
X79169104Y-118750000D02*
X79073866Y-118797619D01*
X79073866Y-118797619D02*
X79026247Y-118845238D01*
X79026247Y-118845238D02*
X78978628Y-118940476D01*
X78978628Y-118940476D02*
X78931009Y-119130952D01*
X78931009Y-119130952D02*
X78883390Y-119226190D01*
X78883390Y-119226190D02*
X78835771Y-119273809D01*
X78835771Y-119273809D02*
X78740533Y-119321428D01*
X78740533Y-119321428D02*
X78645295Y-119321428D01*
X78645295Y-119321428D02*
X78550057Y-119273809D01*
X78550057Y-119273809D02*
X78502438Y-119226190D01*
X78502438Y-119226190D02*
X78454819Y-119130952D01*
X78454819Y-119130952D02*
X78454819Y-118892857D01*
X78454819Y-118892857D02*
X78502438Y-118750000D01*
X79550057Y-118559524D02*
X79550057Y-117797619D01*
X79454819Y-117559523D02*
X78454819Y-117559523D01*
X78550057Y-117130952D02*
X78502438Y-117083333D01*
X78502438Y-117083333D02*
X78454819Y-116988095D01*
X78454819Y-116988095D02*
X78454819Y-116750000D01*
X78454819Y-116750000D02*
X78502438Y-116654762D01*
X78502438Y-116654762D02*
X78550057Y-116607143D01*
X78550057Y-116607143D02*
X78645295Y-116559524D01*
X78645295Y-116559524D02*
X78740533Y-116559524D01*
X78740533Y-116559524D02*
X78883390Y-116607143D01*
X78883390Y-116607143D02*
X79454819Y-117178571D01*
X79454819Y-117178571D02*
X79454819Y-116559524D01*
X79359580Y-115559524D02*
X79407200Y-115607143D01*
X79407200Y-115607143D02*
X79454819Y-115750000D01*
X79454819Y-115750000D02*
X79454819Y-115845238D01*
X79454819Y-115845238D02*
X79407200Y-115988095D01*
X79407200Y-115988095D02*
X79311961Y-116083333D01*
X79311961Y-116083333D02*
X79216723Y-116130952D01*
X79216723Y-116130952D02*
X79026247Y-116178571D01*
X79026247Y-116178571D02*
X78883390Y-116178571D01*
X78883390Y-116178571D02*
X78692914Y-116130952D01*
X78692914Y-116130952D02*
X78597676Y-116083333D01*
X78597676Y-116083333D02*
X78502438Y-115988095D01*
X78502438Y-115988095D02*
X78454819Y-115845238D01*
X78454819Y-115845238D02*
X78454819Y-115750000D01*
X78454819Y-115750000D02*
X78502438Y-115607143D01*
X78502438Y-115607143D02*
X78550057Y-115559524D01*
X79550057Y-115369048D02*
X79550057Y-114607143D01*
X78550057Y-114416666D02*
X78502438Y-114369047D01*
X78502438Y-114369047D02*
X78454819Y-114273809D01*
X78454819Y-114273809D02*
X78454819Y-114035714D01*
X78454819Y-114035714D02*
X78502438Y-113940476D01*
X78502438Y-113940476D02*
X78550057Y-113892857D01*
X78550057Y-113892857D02*
X78645295Y-113845238D01*
X78645295Y-113845238D02*
X78740533Y-113845238D01*
X78740533Y-113845238D02*
X78883390Y-113892857D01*
X78883390Y-113892857D02*
X79454819Y-114464285D01*
X79454819Y-114464285D02*
X79454819Y-113845238D01*
X79550057Y-113654762D02*
X79550057Y-112892857D01*
X78550057Y-112702380D02*
X78502438Y-112654761D01*
X78502438Y-112654761D02*
X78454819Y-112559523D01*
X78454819Y-112559523D02*
X78454819Y-112321428D01*
X78454819Y-112321428D02*
X78502438Y-112226190D01*
X78502438Y-112226190D02*
X78550057Y-112178571D01*
X78550057Y-112178571D02*
X78645295Y-112130952D01*
X78645295Y-112130952D02*
X78740533Y-112130952D01*
X78740533Y-112130952D02*
X78883390Y-112178571D01*
X78883390Y-112178571D02*
X79454819Y-112749999D01*
X79454819Y-112749999D02*
X79454819Y-112130952D01*
X155857142Y-64859580D02*
X155809523Y-64907200D01*
X155809523Y-64907200D02*
X155666666Y-64954819D01*
X155666666Y-64954819D02*
X155571428Y-64954819D01*
X155571428Y-64954819D02*
X155428571Y-64907200D01*
X155428571Y-64907200D02*
X155333333Y-64811961D01*
X155333333Y-64811961D02*
X155285714Y-64716723D01*
X155285714Y-64716723D02*
X155238095Y-64526247D01*
X155238095Y-64526247D02*
X155238095Y-64383390D01*
X155238095Y-64383390D02*
X155285714Y-64192914D01*
X155285714Y-64192914D02*
X155333333Y-64097676D01*
X155333333Y-64097676D02*
X155428571Y-64002438D01*
X155428571Y-64002438D02*
X155571428Y-63954819D01*
X155571428Y-63954819D02*
X155666666Y-63954819D01*
X155666666Y-63954819D02*
X155809523Y-64002438D01*
X155809523Y-64002438D02*
X155857142Y-64050057D01*
X156809523Y-64954819D02*
X156238095Y-64954819D01*
X156523809Y-64954819D02*
X156523809Y-63954819D01*
X156523809Y-63954819D02*
X156428571Y-64097676D01*
X156428571Y-64097676D02*
X156333333Y-64192914D01*
X156333333Y-64192914D02*
X156238095Y-64240533D01*
X157380952Y-64383390D02*
X157285714Y-64335771D01*
X157285714Y-64335771D02*
X157238095Y-64288152D01*
X157238095Y-64288152D02*
X157190476Y-64192914D01*
X157190476Y-64192914D02*
X157190476Y-64145295D01*
X157190476Y-64145295D02*
X157238095Y-64050057D01*
X157238095Y-64050057D02*
X157285714Y-64002438D01*
X157285714Y-64002438D02*
X157380952Y-63954819D01*
X157380952Y-63954819D02*
X157571428Y-63954819D01*
X157571428Y-63954819D02*
X157666666Y-64002438D01*
X157666666Y-64002438D02*
X157714285Y-64050057D01*
X157714285Y-64050057D02*
X157761904Y-64145295D01*
X157761904Y-64145295D02*
X157761904Y-64192914D01*
X157761904Y-64192914D02*
X157714285Y-64288152D01*
X157714285Y-64288152D02*
X157666666Y-64335771D01*
X157666666Y-64335771D02*
X157571428Y-64383390D01*
X157571428Y-64383390D02*
X157380952Y-64383390D01*
X157380952Y-64383390D02*
X157285714Y-64431009D01*
X157285714Y-64431009D02*
X157238095Y-64478628D01*
X157238095Y-64478628D02*
X157190476Y-64573866D01*
X157190476Y-64573866D02*
X157190476Y-64764342D01*
X157190476Y-64764342D02*
X157238095Y-64859580D01*
X157238095Y-64859580D02*
X157285714Y-64907200D01*
X157285714Y-64907200D02*
X157380952Y-64954819D01*
X157380952Y-64954819D02*
X157571428Y-64954819D01*
X157571428Y-64954819D02*
X157666666Y-64907200D01*
X157666666Y-64907200D02*
X157714285Y-64859580D01*
X157714285Y-64859580D02*
X157761904Y-64764342D01*
X157761904Y-64764342D02*
X157761904Y-64573866D01*
X157761904Y-64573866D02*
X157714285Y-64478628D01*
X157714285Y-64478628D02*
X157666666Y-64431009D01*
X157666666Y-64431009D02*
X157571428Y-64383390D01*
X116673333Y-51359580D02*
X116625714Y-51407200D01*
X116625714Y-51407200D02*
X116482857Y-51454819D01*
X116482857Y-51454819D02*
X116387619Y-51454819D01*
X116387619Y-51454819D02*
X116244762Y-51407200D01*
X116244762Y-51407200D02*
X116149524Y-51311961D01*
X116149524Y-51311961D02*
X116101905Y-51216723D01*
X116101905Y-51216723D02*
X116054286Y-51026247D01*
X116054286Y-51026247D02*
X116054286Y-50883390D01*
X116054286Y-50883390D02*
X116101905Y-50692914D01*
X116101905Y-50692914D02*
X116149524Y-50597676D01*
X116149524Y-50597676D02*
X116244762Y-50502438D01*
X116244762Y-50502438D02*
X116387619Y-50454819D01*
X116387619Y-50454819D02*
X116482857Y-50454819D01*
X116482857Y-50454819D02*
X116625714Y-50502438D01*
X116625714Y-50502438D02*
X116673333Y-50550057D01*
X117006667Y-50454819D02*
X117625714Y-50454819D01*
X117625714Y-50454819D02*
X117292381Y-50835771D01*
X117292381Y-50835771D02*
X117435238Y-50835771D01*
X117435238Y-50835771D02*
X117530476Y-50883390D01*
X117530476Y-50883390D02*
X117578095Y-50931009D01*
X117578095Y-50931009D02*
X117625714Y-51026247D01*
X117625714Y-51026247D02*
X117625714Y-51264342D01*
X117625714Y-51264342D02*
X117578095Y-51359580D01*
X117578095Y-51359580D02*
X117530476Y-51407200D01*
X117530476Y-51407200D02*
X117435238Y-51454819D01*
X117435238Y-51454819D02*
X117149524Y-51454819D01*
X117149524Y-51454819D02*
X117054286Y-51407200D01*
X117054286Y-51407200D02*
X117006667Y-51359580D01*
X110123333Y-64034580D02*
X110075714Y-64082200D01*
X110075714Y-64082200D02*
X109932857Y-64129819D01*
X109932857Y-64129819D02*
X109837619Y-64129819D01*
X109837619Y-64129819D02*
X109694762Y-64082200D01*
X109694762Y-64082200D02*
X109599524Y-63986961D01*
X109599524Y-63986961D02*
X109551905Y-63891723D01*
X109551905Y-63891723D02*
X109504286Y-63701247D01*
X109504286Y-63701247D02*
X109504286Y-63558390D01*
X109504286Y-63558390D02*
X109551905Y-63367914D01*
X109551905Y-63367914D02*
X109599524Y-63272676D01*
X109599524Y-63272676D02*
X109694762Y-63177438D01*
X109694762Y-63177438D02*
X109837619Y-63129819D01*
X109837619Y-63129819D02*
X109932857Y-63129819D01*
X109932857Y-63129819D02*
X110075714Y-63177438D01*
X110075714Y-63177438D02*
X110123333Y-63225057D01*
X110694762Y-63558390D02*
X110599524Y-63510771D01*
X110599524Y-63510771D02*
X110551905Y-63463152D01*
X110551905Y-63463152D02*
X110504286Y-63367914D01*
X110504286Y-63367914D02*
X110504286Y-63320295D01*
X110504286Y-63320295D02*
X110551905Y-63225057D01*
X110551905Y-63225057D02*
X110599524Y-63177438D01*
X110599524Y-63177438D02*
X110694762Y-63129819D01*
X110694762Y-63129819D02*
X110885238Y-63129819D01*
X110885238Y-63129819D02*
X110980476Y-63177438D01*
X110980476Y-63177438D02*
X111028095Y-63225057D01*
X111028095Y-63225057D02*
X111075714Y-63320295D01*
X111075714Y-63320295D02*
X111075714Y-63367914D01*
X111075714Y-63367914D02*
X111028095Y-63463152D01*
X111028095Y-63463152D02*
X110980476Y-63510771D01*
X110980476Y-63510771D02*
X110885238Y-63558390D01*
X110885238Y-63558390D02*
X110694762Y-63558390D01*
X110694762Y-63558390D02*
X110599524Y-63606009D01*
X110599524Y-63606009D02*
X110551905Y-63653628D01*
X110551905Y-63653628D02*
X110504286Y-63748866D01*
X110504286Y-63748866D02*
X110504286Y-63939342D01*
X110504286Y-63939342D02*
X110551905Y-64034580D01*
X110551905Y-64034580D02*
X110599524Y-64082200D01*
X110599524Y-64082200D02*
X110694762Y-64129819D01*
X110694762Y-64129819D02*
X110885238Y-64129819D01*
X110885238Y-64129819D02*
X110980476Y-64082200D01*
X110980476Y-64082200D02*
X111028095Y-64034580D01*
X111028095Y-64034580D02*
X111075714Y-63939342D01*
X111075714Y-63939342D02*
X111075714Y-63748866D01*
X111075714Y-63748866D02*
X111028095Y-63653628D01*
X111028095Y-63653628D02*
X110980476Y-63606009D01*
X110980476Y-63606009D02*
X110885238Y-63558390D01*
X118357142Y-118714819D02*
X118023809Y-118238628D01*
X117785714Y-118714819D02*
X117785714Y-117714819D01*
X117785714Y-117714819D02*
X118166666Y-117714819D01*
X118166666Y-117714819D02*
X118261904Y-117762438D01*
X118261904Y-117762438D02*
X118309523Y-117810057D01*
X118309523Y-117810057D02*
X118357142Y-117905295D01*
X118357142Y-117905295D02*
X118357142Y-118048152D01*
X118357142Y-118048152D02*
X118309523Y-118143390D01*
X118309523Y-118143390D02*
X118261904Y-118191009D01*
X118261904Y-118191009D02*
X118166666Y-118238628D01*
X118166666Y-118238628D02*
X117785714Y-118238628D01*
X119309523Y-118714819D02*
X118738095Y-118714819D01*
X119023809Y-118714819D02*
X119023809Y-117714819D01*
X119023809Y-117714819D02*
X118928571Y-117857676D01*
X118928571Y-117857676D02*
X118833333Y-117952914D01*
X118833333Y-117952914D02*
X118738095Y-118000533D01*
X119690476Y-117810057D02*
X119738095Y-117762438D01*
X119738095Y-117762438D02*
X119833333Y-117714819D01*
X119833333Y-117714819D02*
X120071428Y-117714819D01*
X120071428Y-117714819D02*
X120166666Y-117762438D01*
X120166666Y-117762438D02*
X120214285Y-117810057D01*
X120214285Y-117810057D02*
X120261904Y-117905295D01*
X120261904Y-117905295D02*
X120261904Y-118000533D01*
X120261904Y-118000533D02*
X120214285Y-118143390D01*
X120214285Y-118143390D02*
X119642857Y-118714819D01*
X119642857Y-118714819D02*
X120261904Y-118714819D01*
X167273809Y-92054819D02*
X167273809Y-91054819D01*
X167273809Y-91054819D02*
X167511904Y-91054819D01*
X167511904Y-91054819D02*
X167654761Y-91102438D01*
X167654761Y-91102438D02*
X167749999Y-91197676D01*
X167749999Y-91197676D02*
X167797618Y-91292914D01*
X167797618Y-91292914D02*
X167845237Y-91483390D01*
X167845237Y-91483390D02*
X167845237Y-91626247D01*
X167845237Y-91626247D02*
X167797618Y-91816723D01*
X167797618Y-91816723D02*
X167749999Y-91911961D01*
X167749999Y-91911961D02*
X167654761Y-92007200D01*
X167654761Y-92007200D02*
X167511904Y-92054819D01*
X167511904Y-92054819D02*
X167273809Y-92054819D01*
X168273809Y-92054819D02*
X168273809Y-91054819D01*
X168273809Y-91531009D02*
X168845237Y-91531009D01*
X168845237Y-92054819D02*
X168845237Y-91054819D01*
X169178571Y-91054819D02*
X169749999Y-91054819D01*
X169464285Y-92054819D02*
X169464285Y-91054819D01*
X170035714Y-91150057D02*
X170083333Y-91102438D01*
X170083333Y-91102438D02*
X170178571Y-91054819D01*
X170178571Y-91054819D02*
X170416666Y-91054819D01*
X170416666Y-91054819D02*
X170511904Y-91102438D01*
X170511904Y-91102438D02*
X170559523Y-91150057D01*
X170559523Y-91150057D02*
X170607142Y-91245295D01*
X170607142Y-91245295D02*
X170607142Y-91340533D01*
X170607142Y-91340533D02*
X170559523Y-91483390D01*
X170559523Y-91483390D02*
X169988095Y-92054819D01*
X169988095Y-92054819D02*
X170607142Y-92054819D01*
X170988095Y-91150057D02*
X171035714Y-91102438D01*
X171035714Y-91102438D02*
X171130952Y-91054819D01*
X171130952Y-91054819D02*
X171369047Y-91054819D01*
X171369047Y-91054819D02*
X171464285Y-91102438D01*
X171464285Y-91102438D02*
X171511904Y-91150057D01*
X171511904Y-91150057D02*
X171559523Y-91245295D01*
X171559523Y-91245295D02*
X171559523Y-91340533D01*
X171559523Y-91340533D02*
X171511904Y-91483390D01*
X171511904Y-91483390D02*
X170940476Y-92054819D01*
X170940476Y-92054819D02*
X171559523Y-92054819D01*
X171750000Y-92150057D02*
X172511904Y-92150057D01*
X173273809Y-92054819D02*
X172702381Y-92054819D01*
X172988095Y-92054819D02*
X172988095Y-91054819D01*
X172988095Y-91054819D02*
X172892857Y-91197676D01*
X172892857Y-91197676D02*
X172797619Y-91292914D01*
X172797619Y-91292914D02*
X172702381Y-91340533D01*
X149452381Y-41454819D02*
X149452381Y-40454819D01*
X149452381Y-40931009D02*
X150023809Y-40931009D01*
X150023809Y-41454819D02*
X150023809Y-40454819D01*
X150404762Y-40454819D02*
X151071428Y-41454819D01*
X151071428Y-40454819D02*
X150404762Y-41454819D01*
X151357143Y-40454819D02*
X152023809Y-40454819D01*
X152023809Y-40454819D02*
X151595238Y-41454819D01*
X152928571Y-41454819D02*
X152357143Y-41454819D01*
X152642857Y-41454819D02*
X152642857Y-40454819D01*
X152642857Y-40454819D02*
X152547619Y-40597676D01*
X152547619Y-40597676D02*
X152452381Y-40692914D01*
X152452381Y-40692914D02*
X152357143Y-40740533D01*
X153880952Y-41454819D02*
X153309524Y-41454819D01*
X153595238Y-41454819D02*
X153595238Y-40454819D01*
X153595238Y-40454819D02*
X153500000Y-40597676D01*
X153500000Y-40597676D02*
X153404762Y-40692914D01*
X153404762Y-40692914D02*
X153309524Y-40740533D01*
X154071429Y-41550057D02*
X154833333Y-41550057D01*
X155023810Y-40550057D02*
X155071429Y-40502438D01*
X155071429Y-40502438D02*
X155166667Y-40454819D01*
X155166667Y-40454819D02*
X155404762Y-40454819D01*
X155404762Y-40454819D02*
X155500000Y-40502438D01*
X155500000Y-40502438D02*
X155547619Y-40550057D01*
X155547619Y-40550057D02*
X155595238Y-40645295D01*
X155595238Y-40645295D02*
X155595238Y-40740533D01*
X155595238Y-40740533D02*
X155547619Y-40883390D01*
X155547619Y-40883390D02*
X154976191Y-41454819D01*
X154976191Y-41454819D02*
X155595238Y-41454819D01*
X88261904Y-130431009D02*
X88404761Y-130478628D01*
X88404761Y-130478628D02*
X88452380Y-130526247D01*
X88452380Y-130526247D02*
X88499999Y-130621485D01*
X88499999Y-130621485D02*
X88499999Y-130764342D01*
X88499999Y-130764342D02*
X88452380Y-130859580D01*
X88452380Y-130859580D02*
X88404761Y-130907200D01*
X88404761Y-130907200D02*
X88309523Y-130954819D01*
X88309523Y-130954819D02*
X87928571Y-130954819D01*
X87928571Y-130954819D02*
X87928571Y-129954819D01*
X87928571Y-129954819D02*
X88261904Y-129954819D01*
X88261904Y-129954819D02*
X88357142Y-130002438D01*
X88357142Y-130002438D02*
X88404761Y-130050057D01*
X88404761Y-130050057D02*
X88452380Y-130145295D01*
X88452380Y-130145295D02*
X88452380Y-130240533D01*
X88452380Y-130240533D02*
X88404761Y-130335771D01*
X88404761Y-130335771D02*
X88357142Y-130383390D01*
X88357142Y-130383390D02*
X88261904Y-130431009D01*
X88261904Y-130431009D02*
X87928571Y-130431009D01*
X88928571Y-129954819D02*
X88928571Y-130764342D01*
X88928571Y-130764342D02*
X88976190Y-130859580D01*
X88976190Y-130859580D02*
X89023809Y-130907200D01*
X89023809Y-130907200D02*
X89119047Y-130954819D01*
X89119047Y-130954819D02*
X89309523Y-130954819D01*
X89309523Y-130954819D02*
X89404761Y-130907200D01*
X89404761Y-130907200D02*
X89452380Y-130859580D01*
X89452380Y-130859580D02*
X89499999Y-130764342D01*
X89499999Y-130764342D02*
X89499999Y-129954819D01*
X89928571Y-130907200D02*
X90071428Y-130954819D01*
X90071428Y-130954819D02*
X90309523Y-130954819D01*
X90309523Y-130954819D02*
X90404761Y-130907200D01*
X90404761Y-130907200D02*
X90452380Y-130859580D01*
X90452380Y-130859580D02*
X90499999Y-130764342D01*
X90499999Y-130764342D02*
X90499999Y-130669104D01*
X90499999Y-130669104D02*
X90452380Y-130573866D01*
X90452380Y-130573866D02*
X90404761Y-130526247D01*
X90404761Y-130526247D02*
X90309523Y-130478628D01*
X90309523Y-130478628D02*
X90119047Y-130431009D01*
X90119047Y-130431009D02*
X90023809Y-130383390D01*
X90023809Y-130383390D02*
X89976190Y-130335771D01*
X89976190Y-130335771D02*
X89928571Y-130240533D01*
X89928571Y-130240533D02*
X89928571Y-130145295D01*
X89928571Y-130145295D02*
X89976190Y-130050057D01*
X89976190Y-130050057D02*
X90023809Y-130002438D01*
X90023809Y-130002438D02*
X90119047Y-129954819D01*
X90119047Y-129954819D02*
X90357142Y-129954819D01*
X90357142Y-129954819D02*
X90499999Y-130002438D01*
X90690476Y-131050057D02*
X91452380Y-131050057D01*
X91690476Y-130954819D02*
X91690476Y-129954819D01*
X92119047Y-130050057D02*
X92166666Y-130002438D01*
X92166666Y-130002438D02*
X92261904Y-129954819D01*
X92261904Y-129954819D02*
X92499999Y-129954819D01*
X92499999Y-129954819D02*
X92595237Y-130002438D01*
X92595237Y-130002438D02*
X92642856Y-130050057D01*
X92642856Y-130050057D02*
X92690475Y-130145295D01*
X92690475Y-130145295D02*
X92690475Y-130240533D01*
X92690475Y-130240533D02*
X92642856Y-130383390D01*
X92642856Y-130383390D02*
X92071428Y-130954819D01*
X92071428Y-130954819D02*
X92690475Y-130954819D01*
X93690475Y-130859580D02*
X93642856Y-130907200D01*
X93642856Y-130907200D02*
X93499999Y-130954819D01*
X93499999Y-130954819D02*
X93404761Y-130954819D01*
X93404761Y-130954819D02*
X93261904Y-130907200D01*
X93261904Y-130907200D02*
X93166666Y-130811961D01*
X93166666Y-130811961D02*
X93119047Y-130716723D01*
X93119047Y-130716723D02*
X93071428Y-130526247D01*
X93071428Y-130526247D02*
X93071428Y-130383390D01*
X93071428Y-130383390D02*
X93119047Y-130192914D01*
X93119047Y-130192914D02*
X93166666Y-130097676D01*
X93166666Y-130097676D02*
X93261904Y-130002438D01*
X93261904Y-130002438D02*
X93404761Y-129954819D01*
X93404761Y-129954819D02*
X93499999Y-129954819D01*
X93499999Y-129954819D02*
X93642856Y-130002438D01*
X93642856Y-130002438D02*
X93690475Y-130050057D01*
X93880952Y-131050057D02*
X94642856Y-131050057D01*
X95404761Y-130954819D02*
X94833333Y-130954819D01*
X95119047Y-130954819D02*
X95119047Y-129954819D01*
X95119047Y-129954819D02*
X95023809Y-130097676D01*
X95023809Y-130097676D02*
X94928571Y-130192914D01*
X94928571Y-130192914D02*
X94833333Y-130240533D01*
X95595238Y-131050057D02*
X96357142Y-131050057D01*
X96547619Y-130050057D02*
X96595238Y-130002438D01*
X96595238Y-130002438D02*
X96690476Y-129954819D01*
X96690476Y-129954819D02*
X96928571Y-129954819D01*
X96928571Y-129954819D02*
X97023809Y-130002438D01*
X97023809Y-130002438D02*
X97071428Y-130050057D01*
X97071428Y-130050057D02*
X97119047Y-130145295D01*
X97119047Y-130145295D02*
X97119047Y-130240533D01*
X97119047Y-130240533D02*
X97071428Y-130383390D01*
X97071428Y-130383390D02*
X96500000Y-130954819D01*
X96500000Y-130954819D02*
X97119047Y-130954819D01*
X115404761Y-67550057D02*
X115309523Y-67502438D01*
X115309523Y-67502438D02*
X115214285Y-67407200D01*
X115214285Y-67407200D02*
X115071428Y-67264342D01*
X115071428Y-67264342D02*
X114976190Y-67216723D01*
X114976190Y-67216723D02*
X114880952Y-67216723D01*
X114928571Y-67454819D02*
X114833333Y-67407200D01*
X114833333Y-67407200D02*
X114738095Y-67311961D01*
X114738095Y-67311961D02*
X114690476Y-67121485D01*
X114690476Y-67121485D02*
X114690476Y-66788152D01*
X114690476Y-66788152D02*
X114738095Y-66597676D01*
X114738095Y-66597676D02*
X114833333Y-66502438D01*
X114833333Y-66502438D02*
X114928571Y-66454819D01*
X114928571Y-66454819D02*
X115119047Y-66454819D01*
X115119047Y-66454819D02*
X115214285Y-66502438D01*
X115214285Y-66502438D02*
X115309523Y-66597676D01*
X115309523Y-66597676D02*
X115357142Y-66788152D01*
X115357142Y-66788152D02*
X115357142Y-67121485D01*
X115357142Y-67121485D02*
X115309523Y-67311961D01*
X115309523Y-67311961D02*
X115214285Y-67407200D01*
X115214285Y-67407200D02*
X115119047Y-67454819D01*
X115119047Y-67454819D02*
X114928571Y-67454819D01*
X116309523Y-67454819D02*
X115738095Y-67454819D01*
X116023809Y-67454819D02*
X116023809Y-66454819D01*
X116023809Y-66454819D02*
X115928571Y-66597676D01*
X115928571Y-66597676D02*
X115833333Y-66692914D01*
X115833333Y-66692914D02*
X115738095Y-66740533D01*
X139857142Y-115089580D02*
X139809523Y-115137200D01*
X139809523Y-115137200D02*
X139666666Y-115184819D01*
X139666666Y-115184819D02*
X139571428Y-115184819D01*
X139571428Y-115184819D02*
X139428571Y-115137200D01*
X139428571Y-115137200D02*
X139333333Y-115041961D01*
X139333333Y-115041961D02*
X139285714Y-114946723D01*
X139285714Y-114946723D02*
X139238095Y-114756247D01*
X139238095Y-114756247D02*
X139238095Y-114613390D01*
X139238095Y-114613390D02*
X139285714Y-114422914D01*
X139285714Y-114422914D02*
X139333333Y-114327676D01*
X139333333Y-114327676D02*
X139428571Y-114232438D01*
X139428571Y-114232438D02*
X139571428Y-114184819D01*
X139571428Y-114184819D02*
X139666666Y-114184819D01*
X139666666Y-114184819D02*
X139809523Y-114232438D01*
X139809523Y-114232438D02*
X139857142Y-114280057D01*
X140809523Y-115184819D02*
X140238095Y-115184819D01*
X140523809Y-115184819D02*
X140523809Y-114184819D01*
X140523809Y-114184819D02*
X140428571Y-114327676D01*
X140428571Y-114327676D02*
X140333333Y-114422914D01*
X140333333Y-114422914D02*
X140238095Y-114470533D01*
X141666666Y-114518152D02*
X141666666Y-115184819D01*
X141428571Y-114137200D02*
X141190476Y-114851485D01*
X141190476Y-114851485D02*
X141809523Y-114851485D01*
X94833333Y-38359580D02*
X94785714Y-38407200D01*
X94785714Y-38407200D02*
X94642857Y-38454819D01*
X94642857Y-38454819D02*
X94547619Y-38454819D01*
X94547619Y-38454819D02*
X94404762Y-38407200D01*
X94404762Y-38407200D02*
X94309524Y-38311961D01*
X94309524Y-38311961D02*
X94261905Y-38216723D01*
X94261905Y-38216723D02*
X94214286Y-38026247D01*
X94214286Y-38026247D02*
X94214286Y-37883390D01*
X94214286Y-37883390D02*
X94261905Y-37692914D01*
X94261905Y-37692914D02*
X94309524Y-37597676D01*
X94309524Y-37597676D02*
X94404762Y-37502438D01*
X94404762Y-37502438D02*
X94547619Y-37454819D01*
X94547619Y-37454819D02*
X94642857Y-37454819D01*
X94642857Y-37454819D02*
X94785714Y-37502438D01*
X94785714Y-37502438D02*
X94833333Y-37550057D01*
X95309524Y-38454819D02*
X95500000Y-38454819D01*
X95500000Y-38454819D02*
X95595238Y-38407200D01*
X95595238Y-38407200D02*
X95642857Y-38359580D01*
X95642857Y-38359580D02*
X95738095Y-38216723D01*
X95738095Y-38216723D02*
X95785714Y-38026247D01*
X95785714Y-38026247D02*
X95785714Y-37645295D01*
X95785714Y-37645295D02*
X95738095Y-37550057D01*
X95738095Y-37550057D02*
X95690476Y-37502438D01*
X95690476Y-37502438D02*
X95595238Y-37454819D01*
X95595238Y-37454819D02*
X95404762Y-37454819D01*
X95404762Y-37454819D02*
X95309524Y-37502438D01*
X95309524Y-37502438D02*
X95261905Y-37550057D01*
X95261905Y-37550057D02*
X95214286Y-37645295D01*
X95214286Y-37645295D02*
X95214286Y-37883390D01*
X95214286Y-37883390D02*
X95261905Y-37978628D01*
X95261905Y-37978628D02*
X95309524Y-38026247D01*
X95309524Y-38026247D02*
X95404762Y-38073866D01*
X95404762Y-38073866D02*
X95595238Y-38073866D01*
X95595238Y-38073866D02*
X95690476Y-38026247D01*
X95690476Y-38026247D02*
X95738095Y-37978628D01*
X95738095Y-37978628D02*
X95785714Y-37883390D01*
X106404761Y-67362557D02*
X106309523Y-67314938D01*
X106309523Y-67314938D02*
X106214285Y-67219700D01*
X106214285Y-67219700D02*
X106071428Y-67076842D01*
X106071428Y-67076842D02*
X105976190Y-67029223D01*
X105976190Y-67029223D02*
X105880952Y-67029223D01*
X105928571Y-67267319D02*
X105833333Y-67219700D01*
X105833333Y-67219700D02*
X105738095Y-67124461D01*
X105738095Y-67124461D02*
X105690476Y-66933985D01*
X105690476Y-66933985D02*
X105690476Y-66600652D01*
X105690476Y-66600652D02*
X105738095Y-66410176D01*
X105738095Y-66410176D02*
X105833333Y-66314938D01*
X105833333Y-66314938D02*
X105928571Y-66267319D01*
X105928571Y-66267319D02*
X106119047Y-66267319D01*
X106119047Y-66267319D02*
X106214285Y-66314938D01*
X106214285Y-66314938D02*
X106309523Y-66410176D01*
X106309523Y-66410176D02*
X106357142Y-66600652D01*
X106357142Y-66600652D02*
X106357142Y-66933985D01*
X106357142Y-66933985D02*
X106309523Y-67124461D01*
X106309523Y-67124461D02*
X106214285Y-67219700D01*
X106214285Y-67219700D02*
X106119047Y-67267319D01*
X106119047Y-67267319D02*
X105928571Y-67267319D01*
X106738095Y-66362557D02*
X106785714Y-66314938D01*
X106785714Y-66314938D02*
X106880952Y-66267319D01*
X106880952Y-66267319D02*
X107119047Y-66267319D01*
X107119047Y-66267319D02*
X107214285Y-66314938D01*
X107214285Y-66314938D02*
X107261904Y-66362557D01*
X107261904Y-66362557D02*
X107309523Y-66457795D01*
X107309523Y-66457795D02*
X107309523Y-66553033D01*
X107309523Y-66553033D02*
X107261904Y-66695890D01*
X107261904Y-66695890D02*
X106690476Y-67267319D01*
X106690476Y-67267319D02*
X107309523Y-67267319D01*
X102833333Y-50404819D02*
X102500000Y-49928628D01*
X102261905Y-50404819D02*
X102261905Y-49404819D01*
X102261905Y-49404819D02*
X102642857Y-49404819D01*
X102642857Y-49404819D02*
X102738095Y-49452438D01*
X102738095Y-49452438D02*
X102785714Y-49500057D01*
X102785714Y-49500057D02*
X102833333Y-49595295D01*
X102833333Y-49595295D02*
X102833333Y-49738152D01*
X102833333Y-49738152D02*
X102785714Y-49833390D01*
X102785714Y-49833390D02*
X102738095Y-49881009D01*
X102738095Y-49881009D02*
X102642857Y-49928628D01*
X102642857Y-49928628D02*
X102261905Y-49928628D01*
X103690476Y-49738152D02*
X103690476Y-50404819D01*
X103452381Y-49357200D02*
X103214286Y-50071485D01*
X103214286Y-50071485D02*
X103833333Y-50071485D01*
X84357142Y-84954819D02*
X84023809Y-84478628D01*
X83785714Y-84954819D02*
X83785714Y-83954819D01*
X83785714Y-83954819D02*
X84166666Y-83954819D01*
X84166666Y-83954819D02*
X84261904Y-84002438D01*
X84261904Y-84002438D02*
X84309523Y-84050057D01*
X84309523Y-84050057D02*
X84357142Y-84145295D01*
X84357142Y-84145295D02*
X84357142Y-84288152D01*
X84357142Y-84288152D02*
X84309523Y-84383390D01*
X84309523Y-84383390D02*
X84261904Y-84431009D01*
X84261904Y-84431009D02*
X84166666Y-84478628D01*
X84166666Y-84478628D02*
X83785714Y-84478628D01*
X85309523Y-84954819D02*
X84738095Y-84954819D01*
X85023809Y-84954819D02*
X85023809Y-83954819D01*
X85023809Y-83954819D02*
X84928571Y-84097676D01*
X84928571Y-84097676D02*
X84833333Y-84192914D01*
X84833333Y-84192914D02*
X84738095Y-84240533D01*
X86261904Y-84954819D02*
X85690476Y-84954819D01*
X85976190Y-84954819D02*
X85976190Y-83954819D01*
X85976190Y-83954819D02*
X85880952Y-84097676D01*
X85880952Y-84097676D02*
X85785714Y-84192914D01*
X85785714Y-84192914D02*
X85690476Y-84240533D01*
X123673333Y-48809580D02*
X123625714Y-48857200D01*
X123625714Y-48857200D02*
X123482857Y-48904819D01*
X123482857Y-48904819D02*
X123387619Y-48904819D01*
X123387619Y-48904819D02*
X123244762Y-48857200D01*
X123244762Y-48857200D02*
X123149524Y-48761961D01*
X123149524Y-48761961D02*
X123101905Y-48666723D01*
X123101905Y-48666723D02*
X123054286Y-48476247D01*
X123054286Y-48476247D02*
X123054286Y-48333390D01*
X123054286Y-48333390D02*
X123101905Y-48142914D01*
X123101905Y-48142914D02*
X123149524Y-48047676D01*
X123149524Y-48047676D02*
X123244762Y-47952438D01*
X123244762Y-47952438D02*
X123387619Y-47904819D01*
X123387619Y-47904819D02*
X123482857Y-47904819D01*
X123482857Y-47904819D02*
X123625714Y-47952438D01*
X123625714Y-47952438D02*
X123673333Y-48000057D01*
X124530476Y-48238152D02*
X124530476Y-48904819D01*
X124292381Y-47857200D02*
X124054286Y-48571485D01*
X124054286Y-48571485D02*
X124673333Y-48571485D01*
X74857142Y-87359580D02*
X74809523Y-87407200D01*
X74809523Y-87407200D02*
X74666666Y-87454819D01*
X74666666Y-87454819D02*
X74571428Y-87454819D01*
X74571428Y-87454819D02*
X74428571Y-87407200D01*
X74428571Y-87407200D02*
X74333333Y-87311961D01*
X74333333Y-87311961D02*
X74285714Y-87216723D01*
X74285714Y-87216723D02*
X74238095Y-87026247D01*
X74238095Y-87026247D02*
X74238095Y-86883390D01*
X74238095Y-86883390D02*
X74285714Y-86692914D01*
X74285714Y-86692914D02*
X74333333Y-86597676D01*
X74333333Y-86597676D02*
X74428571Y-86502438D01*
X74428571Y-86502438D02*
X74571428Y-86454819D01*
X74571428Y-86454819D02*
X74666666Y-86454819D01*
X74666666Y-86454819D02*
X74809523Y-86502438D01*
X74809523Y-86502438D02*
X74857142Y-86550057D01*
X75809523Y-87454819D02*
X75238095Y-87454819D01*
X75523809Y-87454819D02*
X75523809Y-86454819D01*
X75523809Y-86454819D02*
X75428571Y-86597676D01*
X75428571Y-86597676D02*
X75333333Y-86692914D01*
X75333333Y-86692914D02*
X75238095Y-86740533D01*
X76761904Y-87454819D02*
X76190476Y-87454819D01*
X76476190Y-87454819D02*
X76476190Y-86454819D01*
X76476190Y-86454819D02*
X76380952Y-86597676D01*
X76380952Y-86597676D02*
X76285714Y-86692914D01*
X76285714Y-86692914D02*
X76190476Y-86740533D01*
X122270952Y-129954819D02*
X122509047Y-130954819D01*
X122509047Y-130954819D02*
X122699523Y-130240533D01*
X122699523Y-130240533D02*
X122889999Y-130954819D01*
X122889999Y-130954819D02*
X123128095Y-129954819D01*
X123270952Y-131050057D02*
X124032856Y-131050057D01*
X124223333Y-130907200D02*
X124366190Y-130954819D01*
X124366190Y-130954819D02*
X124604285Y-130954819D01*
X124604285Y-130954819D02*
X124699523Y-130907200D01*
X124699523Y-130907200D02*
X124747142Y-130859580D01*
X124747142Y-130859580D02*
X124794761Y-130764342D01*
X124794761Y-130764342D02*
X124794761Y-130669104D01*
X124794761Y-130669104D02*
X124747142Y-130573866D01*
X124747142Y-130573866D02*
X124699523Y-130526247D01*
X124699523Y-130526247D02*
X124604285Y-130478628D01*
X124604285Y-130478628D02*
X124413809Y-130431009D01*
X124413809Y-130431009D02*
X124318571Y-130383390D01*
X124318571Y-130383390D02*
X124270952Y-130335771D01*
X124270952Y-130335771D02*
X124223333Y-130240533D01*
X124223333Y-130240533D02*
X124223333Y-130145295D01*
X124223333Y-130145295D02*
X124270952Y-130050057D01*
X124270952Y-130050057D02*
X124318571Y-130002438D01*
X124318571Y-130002438D02*
X124413809Y-129954819D01*
X124413809Y-129954819D02*
X124651904Y-129954819D01*
X124651904Y-129954819D02*
X124794761Y-130002438D01*
X125223333Y-130954819D02*
X125223333Y-129954819D01*
X125223333Y-129954819D02*
X125604285Y-129954819D01*
X125604285Y-129954819D02*
X125699523Y-130002438D01*
X125699523Y-130002438D02*
X125747142Y-130050057D01*
X125747142Y-130050057D02*
X125794761Y-130145295D01*
X125794761Y-130145295D02*
X125794761Y-130288152D01*
X125794761Y-130288152D02*
X125747142Y-130383390D01*
X125747142Y-130383390D02*
X125699523Y-130431009D01*
X125699523Y-130431009D02*
X125604285Y-130478628D01*
X125604285Y-130478628D02*
X125223333Y-130478628D01*
X126223333Y-130431009D02*
X126556666Y-130431009D01*
X126699523Y-130954819D02*
X126223333Y-130954819D01*
X126223333Y-130954819D02*
X126223333Y-129954819D01*
X126223333Y-129954819D02*
X126699523Y-129954819D01*
X127128095Y-130431009D02*
X127461428Y-130431009D01*
X127604285Y-130954819D02*
X127128095Y-130954819D01*
X127128095Y-130954819D02*
X127128095Y-129954819D01*
X127128095Y-129954819D02*
X127604285Y-129954819D01*
X128032857Y-130954819D02*
X128032857Y-129954819D01*
X128032857Y-129954819D02*
X128270952Y-129954819D01*
X128270952Y-129954819D02*
X128413809Y-130002438D01*
X128413809Y-130002438D02*
X128509047Y-130097676D01*
X128509047Y-130097676D02*
X128556666Y-130192914D01*
X128556666Y-130192914D02*
X128604285Y-130383390D01*
X128604285Y-130383390D02*
X128604285Y-130526247D01*
X128604285Y-130526247D02*
X128556666Y-130716723D01*
X128556666Y-130716723D02*
X128509047Y-130811961D01*
X128509047Y-130811961D02*
X128413809Y-130907200D01*
X128413809Y-130907200D02*
X128270952Y-130954819D01*
X128270952Y-130954819D02*
X128032857Y-130954819D01*
X128794762Y-131050057D02*
X129556666Y-131050057D01*
X130318571Y-130954819D02*
X129747143Y-130954819D01*
X130032857Y-130954819D02*
X130032857Y-129954819D01*
X130032857Y-129954819D02*
X129937619Y-130097676D01*
X129937619Y-130097676D02*
X129842381Y-130192914D01*
X129842381Y-130192914D02*
X129747143Y-130240533D01*
X131461428Y-129907200D02*
X130604286Y-131192914D01*
X131699524Y-129954819D02*
X131937619Y-130954819D01*
X131937619Y-130954819D02*
X132128095Y-130240533D01*
X132128095Y-130240533D02*
X132318571Y-130954819D01*
X132318571Y-130954819D02*
X132556667Y-129954819D01*
X132699524Y-131050057D02*
X133461428Y-131050057D01*
X133699524Y-130954819D02*
X133699524Y-129954819D01*
X133699524Y-129954819D02*
X133937619Y-129954819D01*
X133937619Y-129954819D02*
X134080476Y-130002438D01*
X134080476Y-130002438D02*
X134175714Y-130097676D01*
X134175714Y-130097676D02*
X134223333Y-130192914D01*
X134223333Y-130192914D02*
X134270952Y-130383390D01*
X134270952Y-130383390D02*
X134270952Y-130526247D01*
X134270952Y-130526247D02*
X134223333Y-130716723D01*
X134223333Y-130716723D02*
X134175714Y-130811961D01*
X134175714Y-130811961D02*
X134080476Y-130907200D01*
X134080476Y-130907200D02*
X133937619Y-130954819D01*
X133937619Y-130954819D02*
X133699524Y-130954819D01*
X134699524Y-130954819D02*
X134699524Y-129954819D01*
X135747142Y-130954819D02*
X135413809Y-130478628D01*
X135175714Y-130954819D02*
X135175714Y-129954819D01*
X135175714Y-129954819D02*
X135556666Y-129954819D01*
X135556666Y-129954819D02*
X135651904Y-130002438D01*
X135651904Y-130002438D02*
X135699523Y-130050057D01*
X135699523Y-130050057D02*
X135747142Y-130145295D01*
X135747142Y-130145295D02*
X135747142Y-130288152D01*
X135747142Y-130288152D02*
X135699523Y-130383390D01*
X135699523Y-130383390D02*
X135651904Y-130431009D01*
X135651904Y-130431009D02*
X135556666Y-130478628D01*
X135556666Y-130478628D02*
X135175714Y-130478628D01*
X135937619Y-131050057D02*
X136699523Y-131050057D01*
X137461428Y-130954819D02*
X136890000Y-130954819D01*
X137175714Y-130954819D02*
X137175714Y-129954819D01*
X137175714Y-129954819D02*
X137080476Y-130097676D01*
X137080476Y-130097676D02*
X136985238Y-130192914D01*
X136985238Y-130192914D02*
X136890000Y-130240533D01*
X112761904Y-130431009D02*
X112904761Y-130478628D01*
X112904761Y-130478628D02*
X112952380Y-130526247D01*
X112952380Y-130526247D02*
X112999999Y-130621485D01*
X112999999Y-130621485D02*
X112999999Y-130764342D01*
X112999999Y-130764342D02*
X112952380Y-130859580D01*
X112952380Y-130859580D02*
X112904761Y-130907200D01*
X112904761Y-130907200D02*
X112809523Y-130954819D01*
X112809523Y-130954819D02*
X112428571Y-130954819D01*
X112428571Y-130954819D02*
X112428571Y-129954819D01*
X112428571Y-129954819D02*
X112761904Y-129954819D01*
X112761904Y-129954819D02*
X112857142Y-130002438D01*
X112857142Y-130002438D02*
X112904761Y-130050057D01*
X112904761Y-130050057D02*
X112952380Y-130145295D01*
X112952380Y-130145295D02*
X112952380Y-130240533D01*
X112952380Y-130240533D02*
X112904761Y-130335771D01*
X112904761Y-130335771D02*
X112857142Y-130383390D01*
X112857142Y-130383390D02*
X112761904Y-130431009D01*
X112761904Y-130431009D02*
X112428571Y-130431009D01*
X113428571Y-129954819D02*
X113428571Y-130764342D01*
X113428571Y-130764342D02*
X113476190Y-130859580D01*
X113476190Y-130859580D02*
X113523809Y-130907200D01*
X113523809Y-130907200D02*
X113619047Y-130954819D01*
X113619047Y-130954819D02*
X113809523Y-130954819D01*
X113809523Y-130954819D02*
X113904761Y-130907200D01*
X113904761Y-130907200D02*
X113952380Y-130859580D01*
X113952380Y-130859580D02*
X113999999Y-130764342D01*
X113999999Y-130764342D02*
X113999999Y-129954819D01*
X114428571Y-130907200D02*
X114571428Y-130954819D01*
X114571428Y-130954819D02*
X114809523Y-130954819D01*
X114809523Y-130954819D02*
X114904761Y-130907200D01*
X114904761Y-130907200D02*
X114952380Y-130859580D01*
X114952380Y-130859580D02*
X114999999Y-130764342D01*
X114999999Y-130764342D02*
X114999999Y-130669104D01*
X114999999Y-130669104D02*
X114952380Y-130573866D01*
X114952380Y-130573866D02*
X114904761Y-130526247D01*
X114904761Y-130526247D02*
X114809523Y-130478628D01*
X114809523Y-130478628D02*
X114619047Y-130431009D01*
X114619047Y-130431009D02*
X114523809Y-130383390D01*
X114523809Y-130383390D02*
X114476190Y-130335771D01*
X114476190Y-130335771D02*
X114428571Y-130240533D01*
X114428571Y-130240533D02*
X114428571Y-130145295D01*
X114428571Y-130145295D02*
X114476190Y-130050057D01*
X114476190Y-130050057D02*
X114523809Y-130002438D01*
X114523809Y-130002438D02*
X114619047Y-129954819D01*
X114619047Y-129954819D02*
X114857142Y-129954819D01*
X114857142Y-129954819D02*
X114999999Y-130002438D01*
X115190476Y-131050057D02*
X115952380Y-131050057D01*
X116190476Y-130954819D02*
X116190476Y-129954819D01*
X116619047Y-130050057D02*
X116666666Y-130002438D01*
X116666666Y-130002438D02*
X116761904Y-129954819D01*
X116761904Y-129954819D02*
X116999999Y-129954819D01*
X116999999Y-129954819D02*
X117095237Y-130002438D01*
X117095237Y-130002438D02*
X117142856Y-130050057D01*
X117142856Y-130050057D02*
X117190475Y-130145295D01*
X117190475Y-130145295D02*
X117190475Y-130240533D01*
X117190475Y-130240533D02*
X117142856Y-130383390D01*
X117142856Y-130383390D02*
X116571428Y-130954819D01*
X116571428Y-130954819D02*
X117190475Y-130954819D01*
X118190475Y-130859580D02*
X118142856Y-130907200D01*
X118142856Y-130907200D02*
X117999999Y-130954819D01*
X117999999Y-130954819D02*
X117904761Y-130954819D01*
X117904761Y-130954819D02*
X117761904Y-130907200D01*
X117761904Y-130907200D02*
X117666666Y-130811961D01*
X117666666Y-130811961D02*
X117619047Y-130716723D01*
X117619047Y-130716723D02*
X117571428Y-130526247D01*
X117571428Y-130526247D02*
X117571428Y-130383390D01*
X117571428Y-130383390D02*
X117619047Y-130192914D01*
X117619047Y-130192914D02*
X117666666Y-130097676D01*
X117666666Y-130097676D02*
X117761904Y-130002438D01*
X117761904Y-130002438D02*
X117904761Y-129954819D01*
X117904761Y-129954819D02*
X117999999Y-129954819D01*
X117999999Y-129954819D02*
X118142856Y-130002438D01*
X118142856Y-130002438D02*
X118190475Y-130050057D01*
X118380952Y-131050057D02*
X119142856Y-131050057D01*
X119333333Y-130050057D02*
X119380952Y-130002438D01*
X119380952Y-130002438D02*
X119476190Y-129954819D01*
X119476190Y-129954819D02*
X119714285Y-129954819D01*
X119714285Y-129954819D02*
X119809523Y-130002438D01*
X119809523Y-130002438D02*
X119857142Y-130050057D01*
X119857142Y-130050057D02*
X119904761Y-130145295D01*
X119904761Y-130145295D02*
X119904761Y-130240533D01*
X119904761Y-130240533D02*
X119857142Y-130383390D01*
X119857142Y-130383390D02*
X119285714Y-130954819D01*
X119285714Y-130954819D02*
X119904761Y-130954819D01*
X120095238Y-131050057D02*
X120857142Y-131050057D01*
X121619047Y-130954819D02*
X121047619Y-130954819D01*
X121333333Y-130954819D02*
X121333333Y-129954819D01*
X121333333Y-129954819D02*
X121238095Y-130097676D01*
X121238095Y-130097676D02*
X121142857Y-130192914D01*
X121142857Y-130192914D02*
X121047619Y-130240533D01*
X168454819Y-108595237D02*
X167454819Y-108595237D01*
X167454819Y-108595237D02*
X167454819Y-108357142D01*
X167454819Y-108357142D02*
X167502438Y-108214285D01*
X167502438Y-108214285D02*
X167597676Y-108119047D01*
X167597676Y-108119047D02*
X167692914Y-108071428D01*
X167692914Y-108071428D02*
X167883390Y-108023809D01*
X167883390Y-108023809D02*
X168026247Y-108023809D01*
X168026247Y-108023809D02*
X168216723Y-108071428D01*
X168216723Y-108071428D02*
X168311961Y-108119047D01*
X168311961Y-108119047D02*
X168407200Y-108214285D01*
X168407200Y-108214285D02*
X168454819Y-108357142D01*
X168454819Y-108357142D02*
X168454819Y-108595237D01*
X168169104Y-107642856D02*
X168169104Y-107166666D01*
X168454819Y-107738094D02*
X167454819Y-107404761D01*
X167454819Y-107404761D02*
X168454819Y-107071428D01*
X167454819Y-106880951D02*
X168454819Y-106547618D01*
X168454819Y-106547618D02*
X167454819Y-106214285D01*
X168454819Y-105880951D02*
X167454819Y-105880951D01*
X168407200Y-105452380D02*
X168454819Y-105309523D01*
X168454819Y-105309523D02*
X168454819Y-105071428D01*
X168454819Y-105071428D02*
X168407200Y-104976190D01*
X168407200Y-104976190D02*
X168359580Y-104928571D01*
X168359580Y-104928571D02*
X168264342Y-104880952D01*
X168264342Y-104880952D02*
X168169104Y-104880952D01*
X168169104Y-104880952D02*
X168073866Y-104928571D01*
X168073866Y-104928571D02*
X168026247Y-104976190D01*
X168026247Y-104976190D02*
X167978628Y-105071428D01*
X167978628Y-105071428D02*
X167931009Y-105261904D01*
X167931009Y-105261904D02*
X167883390Y-105357142D01*
X167883390Y-105357142D02*
X167835771Y-105404761D01*
X167835771Y-105404761D02*
X167740533Y-105452380D01*
X167740533Y-105452380D02*
X167645295Y-105452380D01*
X167645295Y-105452380D02*
X167550057Y-105404761D01*
X167550057Y-105404761D02*
X167502438Y-105357142D01*
X167502438Y-105357142D02*
X167454819Y-105261904D01*
X167454819Y-105261904D02*
X167454819Y-105023809D01*
X167454819Y-105023809D02*
X167502438Y-104880952D01*
X167454819Y-104023809D02*
X167454819Y-104214285D01*
X167454819Y-104214285D02*
X167502438Y-104309523D01*
X167502438Y-104309523D02*
X167550057Y-104357142D01*
X167550057Y-104357142D02*
X167692914Y-104452380D01*
X167692914Y-104452380D02*
X167883390Y-104499999D01*
X167883390Y-104499999D02*
X168264342Y-104499999D01*
X168264342Y-104499999D02*
X168359580Y-104452380D01*
X168359580Y-104452380D02*
X168407200Y-104404761D01*
X168407200Y-104404761D02*
X168454819Y-104309523D01*
X168454819Y-104309523D02*
X168454819Y-104119047D01*
X168454819Y-104119047D02*
X168407200Y-104023809D01*
X168407200Y-104023809D02*
X168359580Y-103976190D01*
X168359580Y-103976190D02*
X168264342Y-103928571D01*
X168264342Y-103928571D02*
X168026247Y-103928571D01*
X168026247Y-103928571D02*
X167931009Y-103976190D01*
X167931009Y-103976190D02*
X167883390Y-104023809D01*
X167883390Y-104023809D02*
X167835771Y-104119047D01*
X167835771Y-104119047D02*
X167835771Y-104309523D01*
X167835771Y-104309523D02*
X167883390Y-104404761D01*
X167883390Y-104404761D02*
X167931009Y-104452380D01*
X167931009Y-104452380D02*
X168026247Y-104499999D01*
X167788152Y-103071428D02*
X168454819Y-103071428D01*
X167407200Y-103309523D02*
X168121485Y-103547618D01*
X168121485Y-103547618D02*
X168121485Y-102928571D01*
X167454819Y-102071428D02*
X167454819Y-102547618D01*
X167454819Y-102547618D02*
X167931009Y-102595237D01*
X167931009Y-102595237D02*
X167883390Y-102547618D01*
X167883390Y-102547618D02*
X167835771Y-102452380D01*
X167835771Y-102452380D02*
X167835771Y-102214285D01*
X167835771Y-102214285D02*
X167883390Y-102119047D01*
X167883390Y-102119047D02*
X167931009Y-102071428D01*
X167931009Y-102071428D02*
X168026247Y-102023809D01*
X168026247Y-102023809D02*
X168264342Y-102023809D01*
X168264342Y-102023809D02*
X168359580Y-102071428D01*
X168359580Y-102071428D02*
X168407200Y-102119047D01*
X168407200Y-102119047D02*
X168454819Y-102214285D01*
X168454819Y-102214285D02*
X168454819Y-102452380D01*
X168454819Y-102452380D02*
X168407200Y-102547618D01*
X168407200Y-102547618D02*
X168359580Y-102595237D01*
X167454819Y-101404761D02*
X167454819Y-101309523D01*
X167454819Y-101309523D02*
X167502438Y-101214285D01*
X167502438Y-101214285D02*
X167550057Y-101166666D01*
X167550057Y-101166666D02*
X167645295Y-101119047D01*
X167645295Y-101119047D02*
X167835771Y-101071428D01*
X167835771Y-101071428D02*
X168073866Y-101071428D01*
X168073866Y-101071428D02*
X168264342Y-101119047D01*
X168264342Y-101119047D02*
X168359580Y-101166666D01*
X168359580Y-101166666D02*
X168407200Y-101214285D01*
X168407200Y-101214285D02*
X168454819Y-101309523D01*
X168454819Y-101309523D02*
X168454819Y-101404761D01*
X168454819Y-101404761D02*
X168407200Y-101499999D01*
X168407200Y-101499999D02*
X168359580Y-101547618D01*
X168359580Y-101547618D02*
X168264342Y-101595237D01*
X168264342Y-101595237D02*
X168073866Y-101642856D01*
X168073866Y-101642856D02*
X167835771Y-101642856D01*
X167835771Y-101642856D02*
X167645295Y-101595237D01*
X167645295Y-101595237D02*
X167550057Y-101547618D01*
X167550057Y-101547618D02*
X167502438Y-101499999D01*
X167502438Y-101499999D02*
X167454819Y-101404761D01*
X168550057Y-100880952D02*
X168550057Y-100119047D01*
X168454819Y-99357142D02*
X168454819Y-99928570D01*
X168454819Y-99642856D02*
X167454819Y-99642856D01*
X167454819Y-99642856D02*
X167597676Y-99738094D01*
X167597676Y-99738094D02*
X167692914Y-99833332D01*
X167692914Y-99833332D02*
X167740533Y-99928570D01*
X168954819Y-72595237D02*
X167954819Y-72595237D01*
X167954819Y-72595237D02*
X167954819Y-72214285D01*
X167954819Y-72214285D02*
X168002438Y-72119047D01*
X168002438Y-72119047D02*
X168050057Y-72071428D01*
X168050057Y-72071428D02*
X168145295Y-72023809D01*
X168145295Y-72023809D02*
X168288152Y-72023809D01*
X168288152Y-72023809D02*
X168383390Y-72071428D01*
X168383390Y-72071428D02*
X168431009Y-72119047D01*
X168431009Y-72119047D02*
X168478628Y-72214285D01*
X168478628Y-72214285D02*
X168478628Y-72595237D01*
X168954819Y-71119047D02*
X168954819Y-71595237D01*
X168954819Y-71595237D02*
X167954819Y-71595237D01*
X167954819Y-70785713D02*
X168764342Y-70785713D01*
X168764342Y-70785713D02*
X168859580Y-70738094D01*
X168859580Y-70738094D02*
X168907200Y-70690475D01*
X168907200Y-70690475D02*
X168954819Y-70595237D01*
X168954819Y-70595237D02*
X168954819Y-70404761D01*
X168954819Y-70404761D02*
X168907200Y-70309523D01*
X168907200Y-70309523D02*
X168859580Y-70261904D01*
X168859580Y-70261904D02*
X168764342Y-70214285D01*
X168764342Y-70214285D02*
X167954819Y-70214285D01*
X167954819Y-69880951D02*
X168954819Y-69547618D01*
X168954819Y-69547618D02*
X167954819Y-69214285D01*
X168954819Y-68880951D02*
X167954819Y-68880951D01*
X167954819Y-68214285D02*
X167954819Y-68023809D01*
X167954819Y-68023809D02*
X168002438Y-67928571D01*
X168002438Y-67928571D02*
X168097676Y-67833333D01*
X168097676Y-67833333D02*
X168288152Y-67785714D01*
X168288152Y-67785714D02*
X168621485Y-67785714D01*
X168621485Y-67785714D02*
X168811961Y-67833333D01*
X168811961Y-67833333D02*
X168907200Y-67928571D01*
X168907200Y-67928571D02*
X168954819Y-68023809D01*
X168954819Y-68023809D02*
X168954819Y-68214285D01*
X168954819Y-68214285D02*
X168907200Y-68309523D01*
X168907200Y-68309523D02*
X168811961Y-68404761D01*
X168811961Y-68404761D02*
X168621485Y-68452380D01*
X168621485Y-68452380D02*
X168288152Y-68452380D01*
X168288152Y-68452380D02*
X168097676Y-68404761D01*
X168097676Y-68404761D02*
X168002438Y-68309523D01*
X168002438Y-68309523D02*
X167954819Y-68214285D01*
X168954819Y-67357142D02*
X167954819Y-67357142D01*
X167954819Y-67357142D02*
X168669104Y-67023809D01*
X168669104Y-67023809D02*
X167954819Y-66690476D01*
X167954819Y-66690476D02*
X168954819Y-66690476D01*
X168431009Y-66214285D02*
X168431009Y-65880952D01*
X168954819Y-65738095D02*
X168954819Y-66214285D01*
X168954819Y-66214285D02*
X167954819Y-66214285D01*
X167954819Y-66214285D02*
X167954819Y-65738095D01*
X167954819Y-65452380D02*
X167954819Y-64880952D01*
X168954819Y-65166666D02*
X167954819Y-65166666D01*
X168431009Y-64547618D02*
X168431009Y-64214285D01*
X168954819Y-64071428D02*
X168954819Y-64547618D01*
X168954819Y-64547618D02*
X167954819Y-64547618D01*
X167954819Y-64547618D02*
X167954819Y-64071428D01*
X168954819Y-63071428D02*
X168478628Y-63404761D01*
X168954819Y-63642856D02*
X167954819Y-63642856D01*
X167954819Y-63642856D02*
X167954819Y-63261904D01*
X167954819Y-63261904D02*
X168002438Y-63166666D01*
X168002438Y-63166666D02*
X168050057Y-63119047D01*
X168050057Y-63119047D02*
X168145295Y-63071428D01*
X168145295Y-63071428D02*
X168288152Y-63071428D01*
X168288152Y-63071428D02*
X168383390Y-63119047D01*
X168383390Y-63119047D02*
X168431009Y-63166666D01*
X168431009Y-63166666D02*
X168478628Y-63261904D01*
X168478628Y-63261904D02*
X168478628Y-63642856D01*
X169050057Y-62880952D02*
X169050057Y-62119047D01*
X167954819Y-61976189D02*
X167954819Y-61357142D01*
X167954819Y-61357142D02*
X168335771Y-61690475D01*
X168335771Y-61690475D02*
X168335771Y-61547618D01*
X168335771Y-61547618D02*
X168383390Y-61452380D01*
X168383390Y-61452380D02*
X168431009Y-61404761D01*
X168431009Y-61404761D02*
X168526247Y-61357142D01*
X168526247Y-61357142D02*
X168764342Y-61357142D01*
X168764342Y-61357142D02*
X168859580Y-61404761D01*
X168859580Y-61404761D02*
X168907200Y-61452380D01*
X168907200Y-61452380D02*
X168954819Y-61547618D01*
X168954819Y-61547618D02*
X168954819Y-61833332D01*
X168954819Y-61833332D02*
X168907200Y-61928570D01*
X168907200Y-61928570D02*
X168859580Y-61976189D01*
X107833333Y-76954819D02*
X107500000Y-76478628D01*
X107261905Y-76954819D02*
X107261905Y-75954819D01*
X107261905Y-75954819D02*
X107642857Y-75954819D01*
X107642857Y-75954819D02*
X107738095Y-76002438D01*
X107738095Y-76002438D02*
X107785714Y-76050057D01*
X107785714Y-76050057D02*
X107833333Y-76145295D01*
X107833333Y-76145295D02*
X107833333Y-76288152D01*
X107833333Y-76288152D02*
X107785714Y-76383390D01*
X107785714Y-76383390D02*
X107738095Y-76431009D01*
X107738095Y-76431009D02*
X107642857Y-76478628D01*
X107642857Y-76478628D02*
X107261905Y-76478628D01*
X108404762Y-76383390D02*
X108309524Y-76335771D01*
X108309524Y-76335771D02*
X108261905Y-76288152D01*
X108261905Y-76288152D02*
X108214286Y-76192914D01*
X108214286Y-76192914D02*
X108214286Y-76145295D01*
X108214286Y-76145295D02*
X108261905Y-76050057D01*
X108261905Y-76050057D02*
X108309524Y-76002438D01*
X108309524Y-76002438D02*
X108404762Y-75954819D01*
X108404762Y-75954819D02*
X108595238Y-75954819D01*
X108595238Y-75954819D02*
X108690476Y-76002438D01*
X108690476Y-76002438D02*
X108738095Y-76050057D01*
X108738095Y-76050057D02*
X108785714Y-76145295D01*
X108785714Y-76145295D02*
X108785714Y-76192914D01*
X108785714Y-76192914D02*
X108738095Y-76288152D01*
X108738095Y-76288152D02*
X108690476Y-76335771D01*
X108690476Y-76335771D02*
X108595238Y-76383390D01*
X108595238Y-76383390D02*
X108404762Y-76383390D01*
X108404762Y-76383390D02*
X108309524Y-76431009D01*
X108309524Y-76431009D02*
X108261905Y-76478628D01*
X108261905Y-76478628D02*
X108214286Y-76573866D01*
X108214286Y-76573866D02*
X108214286Y-76764342D01*
X108214286Y-76764342D02*
X108261905Y-76859580D01*
X108261905Y-76859580D02*
X108309524Y-76907200D01*
X108309524Y-76907200D02*
X108404762Y-76954819D01*
X108404762Y-76954819D02*
X108595238Y-76954819D01*
X108595238Y-76954819D02*
X108690476Y-76907200D01*
X108690476Y-76907200D02*
X108738095Y-76859580D01*
X108738095Y-76859580D02*
X108785714Y-76764342D01*
X108785714Y-76764342D02*
X108785714Y-76573866D01*
X108785714Y-76573866D02*
X108738095Y-76478628D01*
X108738095Y-76478628D02*
X108690476Y-76431009D01*
X108690476Y-76431009D02*
X108595238Y-76383390D01*
X135857142Y-56859580D02*
X135809523Y-56907200D01*
X135809523Y-56907200D02*
X135666666Y-56954819D01*
X135666666Y-56954819D02*
X135571428Y-56954819D01*
X135571428Y-56954819D02*
X135428571Y-56907200D01*
X135428571Y-56907200D02*
X135333333Y-56811961D01*
X135333333Y-56811961D02*
X135285714Y-56716723D01*
X135285714Y-56716723D02*
X135238095Y-56526247D01*
X135238095Y-56526247D02*
X135238095Y-56383390D01*
X135238095Y-56383390D02*
X135285714Y-56192914D01*
X135285714Y-56192914D02*
X135333333Y-56097676D01*
X135333333Y-56097676D02*
X135428571Y-56002438D01*
X135428571Y-56002438D02*
X135571428Y-55954819D01*
X135571428Y-55954819D02*
X135666666Y-55954819D01*
X135666666Y-55954819D02*
X135809523Y-56002438D01*
X135809523Y-56002438D02*
X135857142Y-56050057D01*
X136809523Y-56954819D02*
X136238095Y-56954819D01*
X136523809Y-56954819D02*
X136523809Y-55954819D01*
X136523809Y-55954819D02*
X136428571Y-56097676D01*
X136428571Y-56097676D02*
X136333333Y-56192914D01*
X136333333Y-56192914D02*
X136238095Y-56240533D01*
X137666666Y-55954819D02*
X137476190Y-55954819D01*
X137476190Y-55954819D02*
X137380952Y-56002438D01*
X137380952Y-56002438D02*
X137333333Y-56050057D01*
X137333333Y-56050057D02*
X137238095Y-56192914D01*
X137238095Y-56192914D02*
X137190476Y-56383390D01*
X137190476Y-56383390D02*
X137190476Y-56764342D01*
X137190476Y-56764342D02*
X137238095Y-56859580D01*
X137238095Y-56859580D02*
X137285714Y-56907200D01*
X137285714Y-56907200D02*
X137380952Y-56954819D01*
X137380952Y-56954819D02*
X137571428Y-56954819D01*
X137571428Y-56954819D02*
X137666666Y-56907200D01*
X137666666Y-56907200D02*
X137714285Y-56859580D01*
X137714285Y-56859580D02*
X137761904Y-56764342D01*
X137761904Y-56764342D02*
X137761904Y-56526247D01*
X137761904Y-56526247D02*
X137714285Y-56431009D01*
X137714285Y-56431009D02*
X137666666Y-56383390D01*
X137666666Y-56383390D02*
X137571428Y-56335771D01*
X137571428Y-56335771D02*
X137380952Y-56335771D01*
X137380952Y-56335771D02*
X137285714Y-56383390D01*
X137285714Y-56383390D02*
X137238095Y-56431009D01*
X137238095Y-56431009D02*
X137190476Y-56526247D01*
X91166667Y-86407200D02*
X91309524Y-86454819D01*
X91309524Y-86454819D02*
X91547619Y-86454819D01*
X91547619Y-86454819D02*
X91642857Y-86407200D01*
X91642857Y-86407200D02*
X91690476Y-86359580D01*
X91690476Y-86359580D02*
X91738095Y-86264342D01*
X91738095Y-86264342D02*
X91738095Y-86169104D01*
X91738095Y-86169104D02*
X91690476Y-86073866D01*
X91690476Y-86073866D02*
X91642857Y-86026247D01*
X91642857Y-86026247D02*
X91547619Y-85978628D01*
X91547619Y-85978628D02*
X91357143Y-85931009D01*
X91357143Y-85931009D02*
X91261905Y-85883390D01*
X91261905Y-85883390D02*
X91214286Y-85835771D01*
X91214286Y-85835771D02*
X91166667Y-85740533D01*
X91166667Y-85740533D02*
X91166667Y-85645295D01*
X91166667Y-85645295D02*
X91214286Y-85550057D01*
X91214286Y-85550057D02*
X91261905Y-85502438D01*
X91261905Y-85502438D02*
X91357143Y-85454819D01*
X91357143Y-85454819D02*
X91595238Y-85454819D01*
X91595238Y-85454819D02*
X91738095Y-85502438D01*
X92071429Y-85454819D02*
X92309524Y-86454819D01*
X92309524Y-86454819D02*
X92500000Y-85740533D01*
X92500000Y-85740533D02*
X92690476Y-86454819D01*
X92690476Y-86454819D02*
X92928572Y-85454819D01*
X93833333Y-86454819D02*
X93261905Y-86454819D01*
X93547619Y-86454819D02*
X93547619Y-85454819D01*
X93547619Y-85454819D02*
X93452381Y-85597676D01*
X93452381Y-85597676D02*
X93357143Y-85692914D01*
X93357143Y-85692914D02*
X93261905Y-85740533D01*
X126857142Y-115089580D02*
X126809523Y-115137200D01*
X126809523Y-115137200D02*
X126666666Y-115184819D01*
X126666666Y-115184819D02*
X126571428Y-115184819D01*
X126571428Y-115184819D02*
X126428571Y-115137200D01*
X126428571Y-115137200D02*
X126333333Y-115041961D01*
X126333333Y-115041961D02*
X126285714Y-114946723D01*
X126285714Y-114946723D02*
X126238095Y-114756247D01*
X126238095Y-114756247D02*
X126238095Y-114613390D01*
X126238095Y-114613390D02*
X126285714Y-114422914D01*
X126285714Y-114422914D02*
X126333333Y-114327676D01*
X126333333Y-114327676D02*
X126428571Y-114232438D01*
X126428571Y-114232438D02*
X126571428Y-114184819D01*
X126571428Y-114184819D02*
X126666666Y-114184819D01*
X126666666Y-114184819D02*
X126809523Y-114232438D01*
X126809523Y-114232438D02*
X126857142Y-114280057D01*
X127809523Y-115184819D02*
X127238095Y-115184819D01*
X127523809Y-115184819D02*
X127523809Y-114184819D01*
X127523809Y-114184819D02*
X127428571Y-114327676D01*
X127428571Y-114327676D02*
X127333333Y-114422914D01*
X127333333Y-114422914D02*
X127238095Y-114470533D01*
X128142857Y-114184819D02*
X128761904Y-114184819D01*
X128761904Y-114184819D02*
X128428571Y-114565771D01*
X128428571Y-114565771D02*
X128571428Y-114565771D01*
X128571428Y-114565771D02*
X128666666Y-114613390D01*
X128666666Y-114613390D02*
X128714285Y-114661009D01*
X128714285Y-114661009D02*
X128761904Y-114756247D01*
X128761904Y-114756247D02*
X128761904Y-114994342D01*
X128761904Y-114994342D02*
X128714285Y-115089580D01*
X128714285Y-115089580D02*
X128666666Y-115137200D01*
X128666666Y-115137200D02*
X128571428Y-115184819D01*
X128571428Y-115184819D02*
X128285714Y-115184819D01*
X128285714Y-115184819D02*
X128190476Y-115137200D01*
X128190476Y-115137200D02*
X128142857Y-115089580D01*
X102333333Y-45454819D02*
X102000000Y-44978628D01*
X101761905Y-45454819D02*
X101761905Y-44454819D01*
X101761905Y-44454819D02*
X102142857Y-44454819D01*
X102142857Y-44454819D02*
X102238095Y-44502438D01*
X102238095Y-44502438D02*
X102285714Y-44550057D01*
X102285714Y-44550057D02*
X102333333Y-44645295D01*
X102333333Y-44645295D02*
X102333333Y-44788152D01*
X102333333Y-44788152D02*
X102285714Y-44883390D01*
X102285714Y-44883390D02*
X102238095Y-44931009D01*
X102238095Y-44931009D02*
X102142857Y-44978628D01*
X102142857Y-44978628D02*
X101761905Y-44978628D01*
X102666667Y-44454819D02*
X103285714Y-44454819D01*
X103285714Y-44454819D02*
X102952381Y-44835771D01*
X102952381Y-44835771D02*
X103095238Y-44835771D01*
X103095238Y-44835771D02*
X103190476Y-44883390D01*
X103190476Y-44883390D02*
X103238095Y-44931009D01*
X103238095Y-44931009D02*
X103285714Y-45026247D01*
X103285714Y-45026247D02*
X103285714Y-45264342D01*
X103285714Y-45264342D02*
X103238095Y-45359580D01*
X103238095Y-45359580D02*
X103190476Y-45407200D01*
X103190476Y-45407200D02*
X103095238Y-45454819D01*
X103095238Y-45454819D02*
X102809524Y-45454819D01*
X102809524Y-45454819D02*
X102714286Y-45407200D01*
X102714286Y-45407200D02*
X102666667Y-45359580D01*
X121173333Y-48809580D02*
X121125714Y-48857200D01*
X121125714Y-48857200D02*
X120982857Y-48904819D01*
X120982857Y-48904819D02*
X120887619Y-48904819D01*
X120887619Y-48904819D02*
X120744762Y-48857200D01*
X120744762Y-48857200D02*
X120649524Y-48761961D01*
X120649524Y-48761961D02*
X120601905Y-48666723D01*
X120601905Y-48666723D02*
X120554286Y-48476247D01*
X120554286Y-48476247D02*
X120554286Y-48333390D01*
X120554286Y-48333390D02*
X120601905Y-48142914D01*
X120601905Y-48142914D02*
X120649524Y-48047676D01*
X120649524Y-48047676D02*
X120744762Y-47952438D01*
X120744762Y-47952438D02*
X120887619Y-47904819D01*
X120887619Y-47904819D02*
X120982857Y-47904819D01*
X120982857Y-47904819D02*
X121125714Y-47952438D01*
X121125714Y-47952438D02*
X121173333Y-48000057D01*
X122078095Y-47904819D02*
X121601905Y-47904819D01*
X121601905Y-47904819D02*
X121554286Y-48381009D01*
X121554286Y-48381009D02*
X121601905Y-48333390D01*
X121601905Y-48333390D02*
X121697143Y-48285771D01*
X121697143Y-48285771D02*
X121935238Y-48285771D01*
X121935238Y-48285771D02*
X122030476Y-48333390D01*
X122030476Y-48333390D02*
X122078095Y-48381009D01*
X122078095Y-48381009D02*
X122125714Y-48476247D01*
X122125714Y-48476247D02*
X122125714Y-48714342D01*
X122125714Y-48714342D02*
X122078095Y-48809580D01*
X122078095Y-48809580D02*
X122030476Y-48857200D01*
X122030476Y-48857200D02*
X121935238Y-48904819D01*
X121935238Y-48904819D02*
X121697143Y-48904819D01*
X121697143Y-48904819D02*
X121601905Y-48857200D01*
X121601905Y-48857200D02*
X121554286Y-48809580D01*
X155857142Y-111454819D02*
X155523809Y-110978628D01*
X155285714Y-111454819D02*
X155285714Y-110454819D01*
X155285714Y-110454819D02*
X155666666Y-110454819D01*
X155666666Y-110454819D02*
X155761904Y-110502438D01*
X155761904Y-110502438D02*
X155809523Y-110550057D01*
X155809523Y-110550057D02*
X155857142Y-110645295D01*
X155857142Y-110645295D02*
X155857142Y-110788152D01*
X155857142Y-110788152D02*
X155809523Y-110883390D01*
X155809523Y-110883390D02*
X155761904Y-110931009D01*
X155761904Y-110931009D02*
X155666666Y-110978628D01*
X155666666Y-110978628D02*
X155285714Y-110978628D01*
X156809523Y-111454819D02*
X156238095Y-111454819D01*
X156523809Y-111454819D02*
X156523809Y-110454819D01*
X156523809Y-110454819D02*
X156428571Y-110597676D01*
X156428571Y-110597676D02*
X156333333Y-110692914D01*
X156333333Y-110692914D02*
X156238095Y-110740533D01*
X157142857Y-110454819D02*
X157761904Y-110454819D01*
X157761904Y-110454819D02*
X157428571Y-110835771D01*
X157428571Y-110835771D02*
X157571428Y-110835771D01*
X157571428Y-110835771D02*
X157666666Y-110883390D01*
X157666666Y-110883390D02*
X157714285Y-110931009D01*
X157714285Y-110931009D02*
X157761904Y-111026247D01*
X157761904Y-111026247D02*
X157761904Y-111264342D01*
X157761904Y-111264342D02*
X157714285Y-111359580D01*
X157714285Y-111359580D02*
X157666666Y-111407200D01*
X157666666Y-111407200D02*
X157571428Y-111454819D01*
X157571428Y-111454819D02*
X157285714Y-111454819D01*
X157285714Y-111454819D02*
X157190476Y-111407200D01*
X157190476Y-111407200D02*
X157142857Y-111359580D01*
D11*
%TO.C,R2*%
X115105000Y-45722936D02*
X115105000Y-46177064D01*
X116575000Y-45722936D02*
X116575000Y-46177064D01*
%TO.C,J7*%
X102010000Y-77500000D02*
X102010000Y-54580000D01*
X104670000Y-54580000D02*
X102010000Y-54580000D01*
X104670000Y-77500000D02*
X102010000Y-77500000D01*
X104670000Y-77500000D02*
X104670000Y-54580000D01*
X104670000Y-78770000D02*
X104670000Y-80100000D01*
X104670000Y-80100000D02*
X103340000Y-80100000D01*
%TO.C,R9*%
X109062936Y-70940000D02*
X109517064Y-70940000D01*
X109062936Y-72410000D02*
X109517064Y-72410000D01*
%TO.C,R15*%
X72067064Y-48215000D02*
X71612936Y-48215000D01*
X72067064Y-49685000D02*
X71612936Y-49685000D01*
%TO.C,C7*%
X123055000Y-56936252D02*
X123055000Y-56413748D01*
X124525000Y-56936252D02*
X124525000Y-56413748D01*
%TO.C,C6*%
X120555000Y-56936252D02*
X120555000Y-56413748D01*
X122025000Y-56936252D02*
X122025000Y-56413748D01*
%TO.C,C12*%
X90578748Y-89765000D02*
X91101252Y-89765000D01*
X90578748Y-91235000D02*
X91101252Y-91235000D01*
%TO.C,U4*%
X138780000Y-52925000D02*
X138780000Y-50975000D01*
X138780000Y-52925000D02*
X138780000Y-54875000D01*
X143900000Y-52925000D02*
X143900000Y-50975000D01*
X143900000Y-52925000D02*
X143900000Y-54875000D01*
X144135000Y-50465000D02*
X143805000Y-50225000D01*
X144135000Y-49985000D01*
X144135000Y-50465000D01*
G36*
X144135000Y-50465000D02*
G01*
X143805000Y-50225000D01*
X144135000Y-49985000D01*
X144135000Y-50465000D01*
G37*
%TO.C,D1*%
X98217500Y-41490000D02*
X98217500Y-43410000D01*
X98217500Y-43410000D02*
X100902500Y-43410000D01*
X100902500Y-41490000D02*
X98217500Y-41490000D01*
%TO.C,BUS_I2C_1_1*%
X98940000Y-127825000D02*
X98940000Y-126295000D01*
X99230000Y-123200000D02*
X110550000Y-123200000D01*
X99230000Y-132110000D02*
X99230000Y-123200000D01*
X110550000Y-123200000D02*
X110550000Y-132110000D01*
%TO.C,C2*%
X132078748Y-60715000D02*
X132601252Y-60715000D01*
X132078748Y-62185000D02*
X132601252Y-62185000D01*
%TO.C,R10*%
X79605000Y-87227064D02*
X79605000Y-86772936D01*
X81075000Y-87227064D02*
X81075000Y-86772936D01*
%TO.C,U2*%
X119530000Y-62765000D02*
X119530000Y-64025000D01*
X119530000Y-69585000D02*
X119530000Y-68325000D01*
X123290000Y-62765000D02*
X119530000Y-62765000D01*
X123290000Y-69585000D02*
X119530000Y-69585000D01*
X124810000Y-69815000D02*
X124330000Y-69815000D01*
X124570000Y-69485000D01*
X124810000Y-69815000D01*
G36*
X124810000Y-69815000D02*
G01*
X124330000Y-69815000D01*
X124570000Y-69485000D01*
X124810000Y-69815000D01*
G37*
%TO.C,FC28_1*%
X148690000Y-127715000D02*
X148690000Y-126185000D01*
X148980000Y-123090000D02*
X160300000Y-123090000D01*
X148980000Y-132000000D02*
X148980000Y-123090000D01*
X160300000Y-123090000D02*
X160300000Y-132000000D01*
%TO.C,J6*%
X77610000Y-82280000D02*
X77610000Y-80950000D01*
X78940000Y-82280000D02*
X77610000Y-82280000D01*
X80210000Y-79620000D02*
X100590000Y-79620000D01*
X80210000Y-82280000D02*
X80210000Y-79620000D01*
X80210000Y-82280000D02*
X100590000Y-82280000D01*
X100590000Y-82280000D02*
X100590000Y-79620000D01*
%TO.C,PLUVIOMETER_2*%
X161040000Y-73690000D02*
X169950000Y-73690000D01*
X161040000Y-85010000D02*
X161040000Y-73690000D01*
X165665000Y-85300000D02*
X164135000Y-85300000D01*
X169950000Y-85010000D02*
X161040000Y-85010000D01*
%TO.C,J4*%
X137425000Y-34150000D02*
X137425000Y-46750000D01*
X137425000Y-46750000D02*
X147775000Y-46750000D01*
X147775000Y-38950000D02*
X148275000Y-39250000D01*
X147775000Y-44350000D02*
X147775000Y-38950000D01*
X147775000Y-45800000D02*
X148275000Y-46050000D01*
X147775000Y-46750000D02*
X147775000Y-45800000D01*
X148275000Y-34150000D02*
X137425000Y-34150000D01*
X148275000Y-39250000D02*
X148275000Y-34150000D01*
X148275000Y-44100000D02*
X147775000Y-44350000D01*
X148275000Y-44150000D02*
X148275000Y-44100000D01*
X148275000Y-46050000D02*
X148275000Y-44150000D01*
%TO.C,HX711_1*%
X161040000Y-49190000D02*
X169950000Y-49190000D01*
X161040000Y-60510000D02*
X161040000Y-49190000D01*
X165665000Y-60800000D02*
X164135000Y-60800000D01*
X169950000Y-60510000D02*
X161040000Y-60510000D01*
%TO.C,D3*%
X126690000Y-69460000D02*
X126690000Y-63950000D01*
X126690000Y-69460000D02*
X129990000Y-69460000D01*
X129990000Y-69460000D02*
X129990000Y-63950000D01*
%TO.C,J3*%
X75190000Y-34150000D02*
X75190000Y-46750000D01*
X75190000Y-46750000D02*
X85540000Y-46750000D01*
X85540000Y-38950000D02*
X86040000Y-39250000D01*
X85540000Y-44350000D02*
X85540000Y-38950000D01*
X85540000Y-45800000D02*
X86040000Y-46050000D01*
X85540000Y-46750000D02*
X85540000Y-45800000D01*
X86040000Y-34150000D02*
X75190000Y-34150000D01*
X86040000Y-39250000D02*
X86040000Y-34150000D01*
X86040000Y-44100000D02*
X85540000Y-44350000D01*
X86040000Y-44150000D02*
X86040000Y-44100000D01*
X86040000Y-46050000D02*
X86040000Y-44150000D01*
%TO.C,U3*%
X69770000Y-58200000D02*
X76520000Y-58200000D01*
X69770000Y-76200000D02*
X69770000Y-58200000D01*
X69770000Y-76200000D02*
X76520000Y-76200000D01*
X75710000Y-58200000D02*
X75710000Y-76200000D01*
X94520000Y-58200000D02*
X95270000Y-58200000D01*
X94520000Y-76200000D02*
X95270000Y-76200000D01*
X95270000Y-58200000D02*
X95270000Y-59200000D01*
X95270000Y-76200000D02*
X95270000Y-75200000D01*
%TO.C,R7*%
X79605000Y-90772936D02*
X79605000Y-91227064D01*
X81075000Y-90772936D02*
X81075000Y-91227064D01*
%TO.C,J1*%
X109210000Y-34165000D02*
X118370000Y-34165000D01*
X109210000Y-35870000D02*
X109210000Y-34165000D01*
X109210000Y-37880000D02*
X109210000Y-39800000D01*
X118370000Y-34165000D02*
X118370000Y-35870000D01*
X118370000Y-39800000D02*
X118370000Y-37880000D01*
%TO.C,DS18B20_1*%
X161040000Y-110640000D02*
X169950000Y-110640000D01*
X161040000Y-121960000D02*
X161040000Y-110640000D01*
X165665000Y-122250000D02*
X164135000Y-122250000D01*
X169950000Y-121960000D02*
X161040000Y-121960000D01*
%TO.C,D2*%
X98217500Y-46490000D02*
X98217500Y-48410000D01*
X98217500Y-48410000D02*
X100902500Y-48410000D01*
X100902500Y-46490000D02*
X98217500Y-46490000D01*
%TO.C,D4*%
X76880000Y-89937500D02*
X76880000Y-92622500D01*
X76880000Y-92622500D02*
X78800000Y-92622500D01*
X78800000Y-92622500D02*
X78800000Y-89937500D01*
%TO.C,R1*%
X110105000Y-45635436D02*
X110105000Y-46089564D01*
X111575000Y-45635436D02*
X111575000Y-46089564D01*
%TO.C,R5*%
X104129564Y-41715000D02*
X103675436Y-41715000D01*
X104129564Y-43185000D02*
X103675436Y-43185000D01*
%TO.C,R14*%
X71612936Y-45715000D02*
X72067064Y-45715000D01*
X71612936Y-47185000D02*
X72067064Y-47185000D01*
%TO.C,J5*%
X70010000Y-54780000D02*
X70010000Y-53450000D01*
X71340000Y-54780000D02*
X70010000Y-54780000D01*
X72610000Y-52120000D02*
X100610000Y-52120000D01*
X72610000Y-54780000D02*
X72610000Y-52120000D01*
X72610000Y-54780000D02*
X100610000Y-54780000D01*
X100610000Y-54780000D02*
X100610000Y-52120000D01*
%TO.C,PLUVIOMETER_1*%
X136440000Y-127825000D02*
X136440000Y-126295000D01*
X136730000Y-123200000D02*
X148050000Y-123200000D01*
X136730000Y-132110000D02*
X136730000Y-123200000D01*
X148050000Y-123200000D02*
X148050000Y-132110000D01*
%TO.C,BUS_I2C_1_3*%
X77290000Y-98590000D02*
X86200000Y-98590000D01*
X81575000Y-98300000D02*
X83105000Y-98300000D01*
X86200000Y-98590000D02*
X86200000Y-109910000D01*
X86200000Y-109910000D02*
X77290000Y-109910000D01*
%TO.C,SW2*%
X88515000Y-41450000D02*
X88515000Y-42650000D01*
X88515000Y-44250000D02*
X88515000Y-45450000D01*
X88515000Y-45450000D02*
X94915000Y-45450000D01*
X94915000Y-41450000D02*
X88515000Y-41450000D01*
X94915000Y-42650000D02*
X94915000Y-41450000D01*
X94915000Y-45450000D02*
X94915000Y-44250000D01*
%TO.C,U1*%
X108730000Y-56675000D02*
X108730000Y-54725000D01*
X108730000Y-56675000D02*
X108730000Y-58625000D01*
X118850000Y-56675000D02*
X118850000Y-54725000D01*
X118850000Y-56675000D02*
X118850000Y-58625000D01*
X119125000Y-54215000D02*
X118795000Y-53975000D01*
X119125000Y-53735000D01*
X119125000Y-54215000D01*
G36*
X119125000Y-54215000D02*
G01*
X118795000Y-53975000D01*
X119125000Y-53735000D01*
X119125000Y-54215000D01*
G37*
%TO.C,J2*%
X125925000Y-34150000D02*
X125925000Y-46750000D01*
X125925000Y-46750000D02*
X136275000Y-46750000D01*
X136275000Y-38950000D02*
X136775000Y-39250000D01*
X136275000Y-44350000D02*
X136275000Y-38950000D01*
X136275000Y-45800000D02*
X136775000Y-46050000D01*
X136275000Y-46750000D02*
X136275000Y-45800000D01*
X136775000Y-34150000D02*
X125925000Y-34150000D01*
X136775000Y-39250000D02*
X136775000Y-34150000D01*
X136775000Y-44100000D02*
X136275000Y-44350000D01*
X136775000Y-44150000D02*
X136775000Y-44100000D01*
X136775000Y-46050000D02*
X136775000Y-44150000D01*
%TO.C,C10*%
X120555000Y-60413748D02*
X120555000Y-60936252D01*
X122025000Y-60413748D02*
X122025000Y-60936252D01*
%TO.C,C1*%
X132078748Y-63215000D02*
X132601252Y-63215000D01*
X132078748Y-64685000D02*
X132601252Y-64685000D01*
%TO.C,R6*%
X104042064Y-46715000D02*
X103587936Y-46715000D01*
X104042064Y-48185000D02*
X103587936Y-48185000D01*
%TO.C,C17*%
X153515000Y-75838748D02*
X153515000Y-76361252D01*
X154985000Y-75838748D02*
X154985000Y-76361252D01*
%TO.C,C15*%
X135101252Y-51715000D02*
X134578748Y-51715000D01*
X135101252Y-53185000D02*
X134578748Y-53185000D01*
%TO.C,BUS_I2C_2_2*%
X77290000Y-111090000D02*
X86200000Y-111090000D01*
X81575000Y-110800000D02*
X83105000Y-110800000D01*
X86200000Y-111090000D02*
X86200000Y-122410000D01*
X86200000Y-122410000D02*
X77290000Y-122410000D01*
%TO.C,C18*%
X153515000Y-63338748D02*
X153515000Y-63861252D01*
X154985000Y-63338748D02*
X154985000Y-63861252D01*
%TO.C,C3*%
X117528748Y-48440000D02*
X118051252Y-48440000D01*
X117528748Y-49910000D02*
X118051252Y-49910000D01*
%TO.C,C8*%
X113028748Y-62440000D02*
X113551252Y-62440000D01*
X113028748Y-63910000D02*
X113551252Y-63910000D01*
%TO.C,R12*%
X120325436Y-119175000D02*
X120779564Y-119175000D01*
X120325436Y-120645000D02*
X120779564Y-120645000D01*
%TO.C,DHT22_1*%
X161140000Y-85940000D02*
X170050000Y-85940000D01*
X161140000Y-97260000D02*
X161140000Y-85940000D01*
X165765000Y-97550000D02*
X164235000Y-97550000D01*
X170050000Y-97260000D02*
X161140000Y-97260000D01*
%TO.C,HX711_2*%
X149090000Y-48210000D02*
X149090000Y-39300000D01*
X160410000Y-39300000D02*
X160410000Y-48210000D01*
X160410000Y-48210000D02*
X149090000Y-48210000D01*
X160700000Y-43585000D02*
X160700000Y-45115000D01*
%TO.C,BUS_I2C_1_2*%
X86690000Y-127715000D02*
X86690000Y-126185000D01*
X86980000Y-123090000D02*
X98300000Y-123090000D01*
X86980000Y-132000000D02*
X86980000Y-123090000D01*
X98300000Y-123090000D02*
X98300000Y-132000000D01*
%TO.C,Q1*%
X111730000Y-66812500D02*
X111730000Y-66012500D01*
X111730000Y-66812500D02*
X111730000Y-67612500D01*
X114850000Y-66812500D02*
X114850000Y-66012500D01*
X114850000Y-66812500D02*
X114850000Y-67612500D01*
X111780000Y-68112500D02*
X111450000Y-68352500D01*
X111450000Y-67872500D01*
X111780000Y-68112500D01*
G36*
X111780000Y-68112500D02*
G01*
X111450000Y-68352500D01*
X111450000Y-67872500D01*
X111780000Y-68112500D01*
G37*
%TO.C,C14*%
X138828748Y-115675000D02*
X139351252Y-115675000D01*
X138828748Y-117145000D02*
X139351252Y-117145000D01*
%TO.C,C9*%
X95051252Y-39215000D02*
X94528748Y-39215000D01*
X95051252Y-40685000D02*
X94528748Y-40685000D01*
%TO.C,Q2*%
X107730000Y-66812500D02*
X107730000Y-66012500D01*
X107730000Y-66812500D02*
X107730000Y-67612500D01*
X110850000Y-66812500D02*
X110850000Y-66012500D01*
X110850000Y-66812500D02*
X110850000Y-67612500D01*
X107780000Y-68112500D02*
X107450000Y-68352500D01*
X107450000Y-67872500D01*
X107780000Y-68112500D01*
G36*
X107780000Y-68112500D02*
G01*
X107450000Y-68352500D01*
X107450000Y-67872500D01*
X107780000Y-68112500D01*
G37*
%TO.C,R4*%
X99762936Y-49215000D02*
X100217064Y-49215000D01*
X99762936Y-50685000D02*
X100217064Y-50685000D01*
%TO.C,R11*%
X82105000Y-87227064D02*
X82105000Y-86772936D01*
X83575000Y-87227064D02*
X83575000Y-86772936D01*
%TO.C,C4*%
X123055000Y-51436252D02*
X123055000Y-50913748D01*
X124525000Y-51436252D02*
X124525000Y-50913748D01*
%TO.C,C11*%
X77105000Y-87261252D02*
X77105000Y-86738748D01*
X78575000Y-87261252D02*
X78575000Y-86738748D01*
%TO.C,W_SPEED_1/W_DIR_1*%
X123940000Y-127825000D02*
X123940000Y-126295000D01*
X124230000Y-123200000D02*
X135550000Y-123200000D01*
X124230000Y-132110000D02*
X124230000Y-123200000D01*
X135550000Y-123200000D02*
X135550000Y-132110000D01*
%TO.C,BUS_I2C_2_1*%
X111440000Y-127825000D02*
X111440000Y-126295000D01*
X111730000Y-123200000D02*
X123050000Y-123200000D01*
X111730000Y-132110000D02*
X111730000Y-123200000D01*
X123050000Y-123200000D02*
X123050000Y-132110000D01*
%TO.C,DAVIS6450_1*%
X161040000Y-98190000D02*
X169950000Y-98190000D01*
X161040000Y-109510000D02*
X161040000Y-98190000D01*
X165665000Y-109800000D02*
X164135000Y-109800000D01*
X169950000Y-109510000D02*
X161040000Y-109510000D01*
%TO.C,PLUVIOMETER_3*%
X161140000Y-61440000D02*
X170050000Y-61440000D01*
X161140000Y-72760000D02*
X161140000Y-61440000D01*
X165765000Y-73050000D02*
X164235000Y-73050000D01*
X170050000Y-72760000D02*
X161140000Y-72760000D01*
%TO.C,R8*%
X109517064Y-73715000D02*
X109062936Y-73715000D01*
X109517064Y-75185000D02*
X109062936Y-75185000D01*
%TO.C,C16*%
X135101252Y-54215000D02*
X134578748Y-54215000D01*
X135101252Y-55685000D02*
X134578748Y-55685000D01*
%TO.C,SW1*%
X89140000Y-85000000D02*
X89140000Y-86200000D01*
X89140000Y-87800000D02*
X89140000Y-89000000D01*
X89140000Y-89000000D02*
X95540000Y-89000000D01*
X95540000Y-85000000D02*
X89140000Y-85000000D01*
X95540000Y-86200000D02*
X95540000Y-85000000D01*
X95540000Y-89000000D02*
X95540000Y-87800000D01*
%TO.C,C13*%
X126328748Y-115675000D02*
X126851252Y-115675000D01*
X126328748Y-117145000D02*
X126851252Y-117145000D01*
%TO.C,R3*%
X100067064Y-44215000D02*
X99612936Y-44215000D01*
X100067064Y-45685000D02*
X99612936Y-45685000D01*
%TO.C,C5*%
X120555000Y-51436252D02*
X120555000Y-50913748D01*
X122025000Y-51436252D02*
X122025000Y-50913748D01*
%TO.C,R13*%
X153515000Y-113739564D02*
X153515000Y-113285436D01*
X154985000Y-113739564D02*
X154985000Y-113285436D01*
%TD*%
M02*
